{"genre": "Drill", "substyle": "UKDrill", "bars": 8, "tempoMin": 139, "tempoMax": 151, "exportedAt": "2026-03-23T03:30:12.021+02:00", "conflictMessage": "", "laneLayoutSource": "PatternProject.runtime", "runtimeLaneOrder": ["registry:HiHat", "registry:HatFX", "registry:OpenHat", "registry:Snare", "registry:Clap/GhostSnare", "registry:Kick", "registry:GhostKick", "registry:Ride", "registry:Cymbal", "registry:Perc", "registry:Sub808"], "laneLayout": [{"orderIndex": 0, "laneId": "registry:HiHat", "laneName": "HiHat", "groupName": "Hats", "dependencyName": "", "generationPriority": 86, "isCore": true, "isVisibleInEditor": true, "enabledByDefault": true, "supportsDragExport": true, "isGhostTrack": false, "defaultMidiNote": 42, "isRuntimeRegistryLane": true, "runtimeTrackType": "HiHat", "bindingKind": "backed", "hasBackingTrack": true, "laneParamsAvailable": true, "trackType": "HiHat", "laneParams": {"enabled": true, "muted": false, "solo": false, "locked": false, "laneRole": "drill_hat", "laneVolume": 0.850000023841858, "selectedSampleIndex": 3, "selectedSampleName": "Drill Hi-hat_1", "sound": {"pan": 0.0, "width": 1.0, "eqTone": 0.0, "compression": 0.0, "reverb": 0.0, "gate": 0.0, "transient": 0.0, "drive": 0.0}, "noteCount": 47, "taggedNoteCount": 0, "notes": [{"pitch": 42, "step": 0, "lengthSteps": 1, "velocity": 100, "microOffsetTicks": 0, "startTick": 0, "lengthTicks": 240, "barIndex": 0, "stepInBar": 0, "isGhost": false, "semanticRole": ""}, {"pitch": 42, "step": 3, "lengthSteps": 1, "velocity": 100, "microOffsetTicks": 0, "startTick": 720, "lengthTicks": 240, "barIndex": 0, "stepInBar": 3, "isGhost": false, "semanticRole": ""}, {"pitch": 42, "step": 6, "lengthSteps": 1, "velocity": 100, "microOffsetTicks": 0, "startTick": 1440, "lengthTicks": 240, "barIndex": 0, "stepInBar": 6, "isGhost": false, "semanticRole": ""}, {"pitch": 42, "step": 14, "lengthSteps": 1, "velocity": 39, "microOffsetTicks": 0, "startTick": 3360, "lengthTicks": 240, "barIndex": 0, "stepInBar": 14, "isGhost": false, "semanticRole": ""}, {"pitch": 42, "step": 16, "lengthSteps": 1, "velocity": 100, "microOffsetTicks": 0, "startTick": 3840, "lengthTicks": 240, "barIndex": 1, "stepInBar": 0, "isGhost": false, "semanticRole": ""}, {"pitch": 42, "step": 19, "lengthSteps": 1, "velocity": 100, "microOffsetTicks": 0, "startTick": 4560, "lengthTicks": 240, "barIndex": 1, "stepInBar": 3, "isGhost": false, "semanticRole": ""}, {"pitch": 42, "step": 22, "lengthSteps": 1, "velocity": 100, "microOffsetTicks": 0, "startTick": 5280, "lengthTicks": 240, "barIndex": 1, "stepInBar": 6, "isGhost": false, "semanticRole": ""}, {"pitch": 42, "step": 28, "lengthSteps": 1, "velocity": 31, "microOffsetTicks": 0, "startTick": 6720, "lengthTicks": 240, "barIndex": 1, "stepInBar": 12, "isGhost": false, "semanticRole": ""}, {"pitch": 42, "step": 30, "lengthSteps": 1, "velocity": 60, "microOffsetTicks": 0, "startTick": 7200, "lengthTicks": 240, "barIndex": 1, "stepInBar": 14, "isGhost": false, "semanticRole": ""}, {"pitch": 42, "step": 32, "lengthSteps": 1, "velocity": 100, "microOffsetTicks": 0, "startTick": 7680, "lengthTicks": 240, "barIndex": 2, "stepInBar": 0, "isGhost": false, "semanticRole": ""}, {"pitch": 42, "step": 35, "lengthSteps": 1, "velocity": 100, "microOffsetTicks": 0, "startTick": 8400, "lengthTicks": 240, "barIndex": 2, "stepInBar": 3, "isGhost": false, "semanticRole": ""}, {"pitch": 42, "step": 38, "lengthSteps": 1, "velocity": 100, "microOffsetTicks": 0, "startTick": 9120, "lengthTicks": 240, "barIndex": 2, "stepInBar": 6, "isGhost": false, "semanticRole": ""}, {"pitch": 42, "step": 44, "lengthSteps": 1, "velocity": 39, "microOffsetTicks": 0, "startTick": 10560, "lengthTicks": 240, "barIndex": 2, "stepInBar": 12, "isGhost": false, "semanticRole": ""}, {"pitch": 42, "step": 45, "lengthSteps": 1, "velocity": 44, "microOffsetTicks": 0, "startTick": 10800, "lengthTicks": 240, "barIndex": 2, "stepInBar": 13, "isGhost": false, "semanticRole": ""}, {"pitch": 42, "step": 46, "lengthSteps": 1, "velocity": 56, "microOffsetTicks": 0, "startTick": 11040, "lengthTicks": 240, "barIndex": 2, "stepInBar": 14, "isGhost": false, "semanticRole": ""}, {"pitch": 42, "step": 47, "lengthSteps": 1, "velocity": 63, "microOffsetTicks": 0, "startTick": 11280, "lengthTicks": 240, "barIndex": 2, "stepInBar": 15, "isGhost": false, "semanticRole": ""}, {"pitch": 42, "step": 48, "lengthSteps": 1, "velocity": 100, "microOffsetTicks": 0, "startTick": 11520, "lengthTicks": 240, "barIndex": 3, "stepInBar": 0, "isGhost": false, "semanticRole": ""}, {"pitch": 42, "step": 51, "lengthSteps": 1, "velocity": 100, "microOffsetTicks": 0, "startTick": 12240, "lengthTicks": 240, "barIndex": 3, "stepInBar": 3, "isGhost": false, "semanticRole": ""}, {"pitch": 42, "step": 54, "lengthSteps": 1, "velocity": 100, "microOffsetTicks": 0, "startTick": 12960, "lengthTicks": 240, "barIndex": 3, "stepInBar": 6, "isGhost": false, "semanticRole": ""}, {"pitch": 42, "step": 58, "lengthSteps": 1, "velocity": 63, "microOffsetTicks": 0, "startTick": 13920, "lengthTicks": 240, "barIndex": 3, "stepInBar": 10, "isGhost": false, "semanticRole": ""}, {"pitch": 42, "step": 61, "lengthSteps": 1, "velocity": 63, "microOffsetTicks": 0, "startTick": 14640, "lengthTicks": 240, "barIndex": 3, "stepInBar": 13, "isGhost": false, "semanticRole": ""}, {"pitch": 42, "step": 64, "lengthSteps": 1, "velocity": 100, "microOffsetTicks": 0, "startTick": 15360, "lengthTicks": 240, "barIndex": 4, "stepInBar": 0, "isGhost": false, "semanticRole": ""}, {"pitch": 42, "step": 67, "lengthSteps": 1, "velocity": 100, "microOffsetTicks": 0, "startTick": 16080, "lengthTicks": 240, "barIndex": 4, "stepInBar": 3, "isGhost": false, "semanticRole": ""}, {"pitch": 42, "step": 70, "lengthSteps": 1, "velocity": 100, "microOffsetTicks": 0, "startTick": 16800, "lengthTicks": 240, "barIndex": 4, "stepInBar": 6, "isGhost": false, "semanticRole": ""}, {"pitch": 42, "step": 78, "lengthSteps": 1, "velocity": 39, "microOffsetTicks": 0, "startTick": 18720, "lengthTicks": 240, "barIndex": 4, "stepInBar": 14, "isGhost": false, "semanticRole": ""}, {"pitch": 42, "step": 80, "lengthSteps": 1, "velocity": 100, "microOffsetTicks": 0, "startTick": 19200, "lengthTicks": 240, "barIndex": 5, "stepInBar": 0, "isGhost": false, "semanticRole": ""}, {"pitch": 42, "step": 83, "lengthSteps": 1, "velocity": 100, "microOffsetTicks": 0, "startTick": 19920, "lengthTicks": 240, "barIndex": 5, "stepInBar": 3, "isGhost": false, "semanticRole": ""}, {"pitch": 42, "step": 86, "lengthSteps": 1, "velocity": 100, "microOffsetTicks": 0, "startTick": 20640, "lengthTicks": 240, "barIndex": 5, "stepInBar": 6, "isGhost": false, "semanticRole": ""}, {"pitch": 42, "step": 90, "lengthSteps": 1, "velocity": 30, "microOffsetTicks": 0, "startTick": 21600, "lengthTicks": 240, "barIndex": 5, "stepInBar": 10, "isGhost": false, "semanticRole": ""}, {"pitch": 42, "step": 92, "lengthSteps": 1, "velocity": 31, "microOffsetTicks": 0, "startTick": 22080, "lengthTicks": 240, "barIndex": 5, "stepInBar": 12, "isGhost": false, "semanticRole": ""}, {"pitch": 42, "step": 94, "lengthSteps": 1, "velocity": 60, "microOffsetTicks": 0, "startTick": 22560, "lengthTicks": 240, "barIndex": 5, "stepInBar": 14, "isGhost": false, "semanticRole": ""}, {"pitch": 42, "step": 96, "lengthSteps": 1, "velocity": 100, "microOffsetTicks": 0, "startTick": 23040, "lengthTicks": 240, "barIndex": 6, "stepInBar": 0, "isGhost": false, "semanticRole": ""}, {"pitch": 42, "step": 99, "lengthSteps": 1, "velocity": 100, "microOffsetTicks": 0, "startTick": 23760, "lengthTicks": 240, "barIndex": 6, "stepInBar": 3, "isGhost": false, "semanticRole": ""}, {"pitch": 42, "step": 102, "lengthSteps": 1, "velocity": 100, "microOffsetTicks": 0, "startTick": 24480, "lengthTicks": 240, "barIndex": 6, "stepInBar": 6, "isGhost": false, "semanticRole": ""}, {"pitch": 42, "step": 110, "lengthSteps": 1, "velocity": 39, "microOffsetTicks": 0, "startTick": 26400, "lengthTicks": 240, "barIndex": 6, "stepInBar": 14, "isGhost": false, "semanticRole": ""}, {"pitch": 42, "step": 111, "lengthSteps": 1, "velocity": 63, "microOffsetTicks": 0, "startTick": 26640, "lengthTicks": 240, "barIndex": 6, "stepInBar": 15, "isGhost": false, "semanticRole": ""}, {"pitch": 42, "step": 112, "lengthSteps": 1, "velocity": 100, "microOffsetTicks": 0, "startTick": 26880, "lengthTicks": 240, "barIndex": 7, "stepInBar": 0, "isGhost": false, "semanticRole": ""}, {"pitch": 42, "step": 115, "lengthSteps": 1, "velocity": 92, "microOffsetTicks": 0, "startTick": 27600, "lengthTicks": 240, "barIndex": 7, "stepInBar": 3, "isGhost": false, "semanticRole": ""}, {"pitch": 42, "step": 118, "lengthSteps": 1, "velocity": 100, "microOffsetTicks": 0, "startTick": 28320, "lengthTicks": 240, "barIndex": 7, "stepInBar": 6, "isGhost": false, "semanticRole": ""}, {"pitch": 42, "step": 120, "lengthSteps": 1, "velocity": 30, "microOffsetTicks": 0, "startTick": 28800, "lengthTicks": 240, "barIndex": 7, "stepInBar": 8, "isGhost": false, "semanticRole": ""}, {"pitch": 42, "step": 120, "lengthSteps": 1, "velocity": 49, "microOffsetTicks": 120, "startTick": 28920, "lengthTicks": 240, "barIndex": 7, "stepInBar": 8, "isGhost": false, "semanticRole": ""}, {"pitch": 42, "step": 121, "lengthSteps": 1, "velocity": 67, "microOffsetTicks": 0, "startTick": 29040, "lengthTicks": 240, "barIndex": 7, "stepInBar": 9, "isGhost": false, "semanticRole": ""}, {"pitch": 42, "step": 121, "lengthSteps": 1, "velocity": 85, "microOffsetTicks": 120, "startTick": 29160, "lengthTicks": 240, "barIndex": 7, "stepInBar": 9, "isGhost": false, "semanticRole": ""}, {"pitch": 42, "step": 122, "lengthSteps": 1, "velocity": 100, "microOffsetTicks": 0, "startTick": 29280, "lengthTicks": 240, "barIndex": 7, "stepInBar": 10, "isGhost": false, "semanticRole": ""}, {"pitch": 42, "step": 123, "lengthSteps": 1, "velocity": 59, "microOffsetTicks": 0, "startTick": 29520, "lengthTicks": 240, "barIndex": 7, "stepInBar": 11, "isGhost": false, "semanticRole": ""}, {"pitch": 42, "step": 124, "lengthSteps": 1, "velocity": 100, "microOffsetTicks": 0, "startTick": 29760, "lengthTicks": 240, "barIndex": 7, "stepInBar": 12, "isGhost": false, "semanticRole": ""}, {"pitch": 42, "step": 126, "lengthSteps": 1, "velocity": 59, "microOffsetTicks": 0, "startTick": 30240, "lengthTicks": 240, "barIndex": 7, "stepInBar": 14, "isGhost": false, "semanticRole": ""}]}}, {"orderIndex": 1, "laneId": "registry:HatFX", "laneName": "Hat Accent", "groupName": "Hats", "dependencyName": "HiHat", "generationPriority": 56, "isCore": false, "isVisibleInEditor": true, "enabledByDefault": true, "supportsDragExport": true, "isGhostTrack": true, "defaultMidiNote": 44, "isRuntimeRegistryLane": true, "runtimeTrackType": "HatFX", "bindingKind": "backed", "hasBackingTrack": true, "laneParamsAvailable": true, "trackType": "HatFX", "laneParams": {"enabled": true, "muted": false, "solo": false, "locked": false, "laneRole": "drill_hat_fx", "laneVolume": 0.280000001192093, "selectedSampleIndex": 2, "selectedSampleName": "Drill Hi-hat_3", "sound": {"pan": 0.0, "width": 1.0, "eqTone": 0.0, "compression": 0.0, "reverb": 0.0, "gate": 0.0, "transient": 0.0, "drive": 0.0}, "noteCount": 0, "taggedNoteCount": 0, "notes": []}}, {"orderIndex": 2, "laneId": "registry:OpenHat", "laneName": "OpenHat", "groupName": "Hats", "dependencyName": "", "generationPriority": 74, "isCore": true, "isVisibleInEditor": true, "enabledByDefault": true, "supportsDragExport": true, "isGhostTrack": false, "defaultMidiNote": 46, "isRuntimeRegistryLane": true, "runtimeTrackType": "OpenHat", "bindingKind": "backed", "hasBackingTrack": true, "laneParamsAvailable": true, "trackType": "OpenHat", "laneParams": {"enabled": true, "muted": false, "solo": false, "locked": false, "laneRole": "drill_open", "laneVolume": 0.680000007152557, "selectedSampleIndex": 0, "selectedSampleName": "", "sound": {"pan": 0.0, "width": 1.0, "eqTone": 0.0, "compression": 0.0, "reverb": 0.0, "gate": 0.0, "transient": 0.0, "drive": 0.0}, "noteCount": 0, "taggedNoteCount": 0, "notes": []}}, {"orderIndex": 3, "laneId": "registry:Snare", "laneName": "Snare", "groupName": "Snare", "dependencyName": "", "generationPriority": 92, "isCore": true, "isVisibleInEditor": true, "enabledByDefault": true, "supportsDragExport": true, "isGhostTrack": false, "defaultMidiNote": 38, "isRuntimeRegistryLane": true, "runtimeTrackType": "Snare", "bindingKind": "backed", "hasBackingTrack": true, "laneParamsAvailable": true, "trackType": "Snare", "laneParams": {"enabled": true, "muted": false, "solo": false, "locked": false, "laneRole": "drill_backbeat", "laneVolume": 0.939999997615814, "selectedSampleIndex": 6, "selectedSampleName": "drill-snare_140bpm_D_minor", "sound": {"pan": 0.0, "width": 1.0, "eqTone": 0.0, "compression": 0.0, "reverb": 0.0, "gate": 0.0, "transient": 0.0, "drive": 0.0}, "noteCount": 4, "taggedNoteCount": 0, "notes": [{"pitch": 38, "step": 8, "lengthSteps": 32, "velocity": 108, "microOffsetTicks": 0, "startTick": 1920, "lengthTicks": 7680, "barIndex": 0, "stepInBar": 8, "isGhost": false, "semanticRole": ""}, {"pitch": 38, "step": 40, "lengthSteps": 32, "velocity": 108, "microOffsetTicks": 0, "startTick": 9600, "lengthTicks": 7680, "barIndex": 2, "stepInBar": 8, "isGhost": false, "semanticRole": ""}, {"pitch": 38, "step": 72, "lengthSteps": 32, "velocity": 108, "microOffsetTicks": 0, "startTick": 17280, "lengthTicks": 7680, "barIndex": 4, "stepInBar": 8, "isGhost": false, "semanticRole": ""}, {"pitch": 38, "step": 104, "lengthSteps": 1, "velocity": 108, "microOffsetTicks": 0, "startTick": 24960, "lengthTicks": 240, "barIndex": 6, "stepInBar": 8, "isGhost": false, "semanticRole": ""}]}}, {"orderIndex": 4, "laneId": "registry:Clap/GhostSnare", "laneName": "Clap Ghost", "groupName": "Snare", "dependencyName": "Snare", "generationPriority": 60, "isCore": false, "isVisibleInEditor": true, "enabledByDefault": true, "supportsDragExport": true, "isGhostTrack": true, "defaultMidiNote": 39, "isRuntimeRegistryLane": true, "runtimeTrackType": "Clap/GhostSnare", "bindingKind": "backed", "hasBackingTrack": true, "laneParamsAvailable": true, "trackType": "Clap/GhostSnare", "laneParams": {"enabled": true, "muted": false, "solo": false, "locked": false, "laneRole": "drill_layer", "laneVolume": 0.740000009536743, "selectedSampleIndex": 0, "selectedSampleName": "", "sound": {"pan": 0.0, "width": 1.0, "eqTone": 0.0, "compression": 0.0, "reverb": 0.0, "gate": 0.0, "transient": 0.0, "drive": 0.0}, "noteCount": 2, "taggedNoteCount": 0, "notes": [{"pitch": 39, "step": 59, "lengthSteps": 1, "velocity": 108, "microOffsetTicks": 5, "startTick": 14165, "lengthTicks": 240, "barIndex": 3, "stepInBar": 11, "isGhost": true, "semanticRole": ""}, {"pitch": 39, "step": 123, "lengthSteps": 1, "velocity": 100, "microOffsetTicks": 0, "startTick": 29520, "lengthTicks": 240, "barIndex": 7, "stepInBar": 11, "isGhost": true, "semanticRole": ""}]}}, {"orderIndex": 5, "laneId": "registry:Kick", "laneName": "Kick", "groupName": "Kick", "dependencyName": "", "generationPriority": 96, "isCore": true, "isVisibleInEditor": true, "enabledByDefault": true, "supportsDragExport": true, "isGhostTrack": false, "defaultMidiNote": 36, "isRuntimeRegistryLane": true, "runtimeTrackType": "Kick", "bindingKind": "backed", "hasBackingTrack": true, "laneParamsAvailable": true, "trackType": "Kick", "laneParams": {"enabled": true, "muted": false, "solo": false, "locked": false, "laneRole": "drill_kick", "laneVolume": 0.939999997615814, "selectedSampleIndex": 0, "selectedSampleName": "Diamond Wav - Best Kick", "sound": {"pan": 0.0, "width": 1.0, "eqTone": 0.0, "compression": 0.0, "reverb": 0.0, "gate": 0.0, "transient": 0.0, "drive": 0.0}, "noteCount": 11, "taggedNoteCount": 0, "notes": [{"pitch": 36, "step": 0, "lengthSteps": 24, "velocity": 108, "microOffsetTicks": 0, "startTick": 0, "lengthTicks": 5760, "barIndex": 0, "stepInBar": 0, "isGhost": false, "semanticRole": ""}, {"pitch": 36, "step": 24, "lengthSteps": 4, "velocity": 108, "microOffsetTicks": 0, "startTick": 5760, "lengthTicks": 960, "barIndex": 1, "stepInBar": 8, "isGhost": false, "semanticRole": ""}, {"pitch": 36, "step": 28, "lengthSteps": 4, "velocity": 108, "microOffsetTicks": 0, "startTick": 6720, "lengthTicks": 960, "barIndex": 1, "stepInBar": 12, "isGhost": false, "semanticRole": ""}, {"pitch": 36, "step": 32, "lengthSteps": 24, "velocity": 108, "microOffsetTicks": 0, "startTick": 7680, "lengthTicks": 5760, "barIndex": 2, "stepInBar": 0, "isGhost": false, "semanticRole": ""}, {"pitch": 36, "step": 56, "lengthSteps": 4, "velocity": 108, "microOffsetTicks": 0, "startTick": 13440, "lengthTicks": 960, "barIndex": 3, "stepInBar": 8, "isGhost": false, "semanticRole": ""}, {"pitch": 36, "step": 60, "lengthSteps": 4, "velocity": 108, "microOffsetTicks": 0, "startTick": 14400, "lengthTicks": 960, "barIndex": 3, "stepInBar": 12, "isGhost": false, "semanticRole": ""}, {"pitch": 36, "step": 64, "lengthSteps": 24, "velocity": 108, "microOffsetTicks": 0, "startTick": 15360, "lengthTicks": 5760, "barIndex": 4, "stepInBar": 0, "isGhost": false, "semanticRole": ""}, {"pitch": 36, "step": 88, "lengthSteps": 8, "velocity": 108, "microOffsetTicks": 0, "startTick": 21120, "lengthTicks": 1920, "barIndex": 5, "stepInBar": 8, "isGhost": false, "semanticRole": ""}, {"pitch": 36, "step": 96, "lengthSteps": 24, "velocity": 108, "microOffsetTicks": 0, "startTick": 23040, "lengthTicks": 5760, "barIndex": 6, "stepInBar": 0, "isGhost": false, "semanticRole": ""}, {"pitch": 36, "step": 120, "lengthSteps": 4, "velocity": 108, "microOffsetTicks": 0, "startTick": 28800, "lengthTicks": 960, "barIndex": 7, "stepInBar": 8, "isGhost": false, "semanticRole": ""}, {"pitch": 36, "step": 124, "lengthSteps": 1, "velocity": 108, "microOffsetTicks": 0, "startTick": 29760, "lengthTicks": 240, "barIndex": 7, "stepInBar": 12, "isGhost": false, "semanticRole": ""}]}}, {"orderIndex": 6, "laneId": "registry:GhostKick", "laneName": "Kick Ghost", "groupName": "Kick", "dependencyName": "Kick", "generationPriority": 58, "isCore": false, "isVisibleInEditor": true, "enabledByDefault": true, "supportsDragExport": true, "isGhostTrack": true, "defaultMidiNote": 35, "isRuntimeRegistryLane": true, "runtimeTrackType": "GhostKick", "bindingKind": "backed", "hasBackingTrack": true, "laneParamsAvailable": true, "trackType": "GhostKick", "laneParams": {"enabled": true, "muted": false, "solo": false, "locked": false, "laneRole": "drill_support", "laneVolume": 0.620000004768372, "selectedSampleIndex": 0, "selectedSampleName": "", "sound": {"pan": 0.0, "width": 1.0, "eqTone": 0.0, "compression": 0.0, "reverb": 0.0, "gate": 0.0, "transient": 0.0, "drive": 0.0}, "noteCount": 0, "taggedNoteCount": 0, "notes": []}}, {"orderIndex": 7, "laneId": "registry:Ride", "laneName": "Ride", "groupName": "Texture", "dependencyName": "", "generationPriority": 42, "isCore": false, "isVisibleInEditor": true, "enabledByDefault": false, "supportsDragExport": true, "isGhostTrack": false, "defaultMidiNote": 51, "isRuntimeRegistryLane": true, "runtimeTrackType": "Ride", "bindingKind": "backed", "hasBackingTrack": true, "laneParamsAvailable": true, "trackType": "Ride", "laneParams": {"enabled": false, "muted": false, "solo": false, "locked": false, "laneRole": "support", "laneVolume": 0.540000021457672, "selectedSampleIndex": 0, "selectedSampleName": "", "sound": {"pan": 0.0, "width": 1.0, "eqTone": 0.0, "compression": 0.0, "reverb": 0.0, "gate": 0.0, "transient": 0.0, "drive": 0.0}, "noteCount": 0, "taggedNoteCount": 0, "notes": []}}, {"orderIndex": 8, "laneId": "registry:Cymbal", "laneName": "Cymbal", "groupName": "Texture", "dependencyName": "", "generationPriority": 38, "isCore": false, "isVisibleInEditor": true, "enabledByDefault": false, "supportsDragExport": true, "isGhostTrack": false, "defaultMidiNote": 49, "isRuntimeRegistryLane": true, "runtimeTrackType": "Cymbal", "bindingKind": "backed", "hasBackingTrack": true, "laneParamsAvailable": true, "trackType": "Cymbal", "laneParams": {"enabled": false, "muted": false, "solo": false, "locked": false, "laneRole": "crash", "laneVolume": 0.579999983310699, "selectedSampleIndex": 0, "selectedSampleName": "", "sound": {"pan": 0.0, "width": 1.0, "eqTone": 0.0, "compression": 0.0, "reverb": 0.0, "gate": 0.0, "transient": 0.0, "drive": 0.0}, "noteCount": 0, "taggedNoteCount": 0, "notes": []}}, {"orderIndex": 9, "laneId": "registry:Perc", "laneName": "Perc", "groupName": "Perc", "dependencyName": "", "generationPriority": 68, "isCore": true, "isVisibleInEditor": true, "enabledByDefault": true, "supportsDragExport": true, "isGhostTrack": false, "defaultMidiNote": 50, "isRuntimeRegistryLane": true, "runtimeTrackType": "Perc", "bindingKind": "backed", "hasBackingTrack": true, "laneParamsAvailable": true, "trackType": "Perc", "laneParams": {"enabled": true, "muted": false, "solo": false, "locked": false, "laneRole": "drill_texture", "laneVolume": 0.600000023841858, "selectedSampleIndex": 0, "selectedSampleName": "Drill Perc (2)", "sound": {"pan": 0.0, "width": 1.0, "eqTone": 0.0, "compression": 0.0, "reverb": 0.0, "gate": 0.0, "transient": 0.0, "drive": 0.0}, "noteCount": 0, "taggedNoteCount": 0, "notes": []}}, {"orderIndex": 10, "laneId": "registry:Sub808", "laneName": "Sub808", "groupName": "Bass", "dependencyName": "Kick", "generationPriority": 82, "isCore": true, "isVisibleInEditor": true, "enabledByDefault": true, "supportsDragExport": true, "isGhostTrack": false, "defaultMidiNote": 34, "isRuntimeRegistryLane": true, "runtimeTrackType": "Sub808", "bindingKind": "backed", "hasBackingTrack": true, "laneParamsAvailable": true, "trackType": "Sub808", "laneParams": {"enabled": true, "muted": false, "solo": false, "locked": false, "laneRole": "drill_sub", "laneVolume": 0.959999978542328, "selectedSampleIndex": 6, "selectedSampleName": "Diamond Wav - Cold 808", "sound": {"pan": 0.0, "width": 1.0, "eqTone": 0.0, "compression": 0.0, "reverb": 0.0, "gate": 0.0, "transient": 0.0, "drive": 0.0}, "noteCount": 22, "taggedNoteCount": 0, "notes": [{"pitch": 59, "step": 0, "lengthSteps": 12, "velocity": 100, "microOffsetTicks": 0, "startTick": 0, "lengthTicks": 2880, "barIndex": 0, "stepInBar": 0, "isGhost": false, "semanticRole": ""}, {"pitch": 66, "step": 24, "lengthSteps": 4, "velocity": 100, "microOffsetTicks": 0, "startTick": 5760, "lengthTicks": 960, "barIndex": 1, "stepInBar": 8, "isGhost": false, "semanticRole": ""}, {"pitch": 66, "step": 28, "lengthSteps": 2, "velocity": 100, "microOffsetTicks": 0, "startTick": 6720, "lengthTicks": 480, "barIndex": 1, "stepInBar": 12, "isGhost": false, "semanticRole": ""}, {"pitch": 71, "step": 28, "lengthSteps": 1, "velocity": 100, "microOffsetTicks": 0, "startTick": 6720, "lengthTicks": 240, "barIndex": 1, "stepInBar": 12, "isGhost": false, "semanticRole": ""}, {"pitch": 66, "step": 30, "lengthSteps": 1, "velocity": 100, "microOffsetTicks": 0, "startTick": 7200, "lengthTicks": 240, "barIndex": 1, "stepInBar": 14, "isGhost": false, "semanticRole": ""}, {"pitch": 59, "step": 32, "lengthSteps": 16, "velocity": 100, "microOffsetTicks": 0, "startTick": 7680, "lengthTicks": 3840, "barIndex": 2, "stepInBar": 0, "isGhost": false, "semanticRole": ""}, {"pitch": 59, "step": 56, "lengthSteps": 2, "velocity": 100, "microOffsetTicks": 0, "startTick": 13440, "lengthTicks": 480, "barIndex": 3, "stepInBar": 8, "isGhost": false, "semanticRole": ""}, {"pitch": 66, "step": 58, "lengthSteps": 2, "velocity": 100, "microOffsetTicks": 0, "startTick": 13920, "lengthTicks": 480, "barIndex": 3, "stepInBar": 10, "isGhost": false, "semanticRole": ""}, {"pitch": 59, "step": 60, "lengthSteps": 2, "velocity": 100, "microOffsetTicks": 0, "startTick": 14400, "lengthTicks": 480, "barIndex": 3, "stepInBar": 12, "isGhost": false, "semanticRole": ""}, {"pitch": 71, "step": 62, "lengthSteps": 2, "velocity": 100, "microOffsetTicks": 0, "startTick": 14880, "lengthTicks": 480, "barIndex": 3, "stepInBar": 14, "isGhost": false, "semanticRole": ""}, {"pitch": 64, "step": 64, "lengthSteps": 16, "velocity": 100, "microOffsetTicks": 0, "startTick": 15360, "lengthTicks": 3840, "barIndex": 4, "stepInBar": 0, "isGhost": false, "semanticRole": ""}, {"pitch": 59, "step": 88, "lengthSteps": 8, "velocity": 100, "microOffsetTicks": 0, "startTick": 21120, "lengthTicks": 1920, "barIndex": 5, "stepInBar": 8, "isGhost": false, "semanticRole": ""}, {"pitch": 74, "step": 90, "lengthSteps": 1, "velocity": 100, "microOffsetTicks": 0, "startTick": 21600, "lengthTicks": 240, "barIndex": 5, "stepInBar": 10, "isGhost": false, "semanticRole": ""}, {"pitch": 73, "step": 92, "lengthSteps": 1, "velocity": 100, "microOffsetTicks": 0, "startTick": 22080, "lengthTicks": 240, "barIndex": 5, "stepInBar": 12, "isGhost": false, "semanticRole": ""}, {"pitch": 66, "step": 94, "lengthSteps": 1, "velocity": 100, "microOffsetTicks": 0, "startTick": 22560, "lengthTicks": 240, "barIndex": 5, "stepInBar": 14, "isGhost": false, "semanticRole": ""}, {"pitch": 66, "step": 96, "lengthSteps": 16, "velocity": 100, "microOffsetTicks": 0, "startTick": 23040, "lengthTicks": 3840, "barIndex": 6, "stepInBar": 0, "isGhost": false, "semanticRole": ""}, {"pitch": 59, "step": 120, "lengthSteps": 2, "velocity": 100, "microOffsetTicks": 0, "startTick": 28800, "lengthTicks": 480, "barIndex": 7, "stepInBar": 8, "isGhost": false, "semanticRole": ""}, {"pitch": 71, "step": 120, "lengthSteps": 1, "velocity": 100, "microOffsetTicks": 0, "startTick": 28800, "lengthTicks": 240, "barIndex": 7, "stepInBar": 8, "isGhost": false, "semanticRole": ""}, {"pitch": 59, "step": 122, "lengthSteps": 2, "velocity": 100, "microOffsetTicks": 0, "startTick": 29280, "lengthTicks": 480, "barIndex": 7, "stepInBar": 10, "isGhost": false, "semanticRole": ""}, {"pitch": 79, "step": 122, "lengthSteps": 1, "velocity": 100, "microOffsetTicks": 0, "startTick": 29280, "lengthTicks": 240, "barIndex": 7, "stepInBar": 10, "isGhost": false, "semanticRole": ""}, {"pitch": 83, "step": 124, "lengthSteps": 2, "velocity": 100, "microOffsetTicks": 0, "startTick": 29760, "lengthTicks": 480, "barIndex": 7, "stepInBar": 12, "isGhost": false, "semanticRole": ""}, {"pitch": 71, "step": 126, "lengthSteps": 2, "velocity": 100, "microOffsetTicks": 0, "startTick": 30240, "lengthTicks": 480, "barIndex": 7, "stepInBar": 14, "isGhost": false, "semanticRole": ""}]}}], "designerLaneLayout": [{"id": "registry:HiHat", "laneName": "HiHat", "groupName": "Hats", "dependencyName": "", "generationPriority": 86, "isCore": true, "enabled": true, "isRuntimeRegistryLane": true, "runtimeTrackType": "HiHat"}, {"id": "registry:HatFX", "laneName": "Hat Accent", "groupName": "Hats", "dependencyName": "HiHat", "generationPriority": 56, "isCore": false, "enabled": true, "isRuntimeRegistryLane": true, "runtimeTrackType": "HatFX"}, {"id": "registry:OpenHat", "laneName": "OpenHat", "groupName": "Hats", "dependencyName": "", "generationPriority": 74, "isCore": true, "enabled": true, "isRuntimeRegistryLane": true, "runtimeTrackType": "OpenHat"}, {"id": "registry:Snare", "laneName": "Snare", "groupName": "Snare", "dependencyName": "", "generationPriority": 92, "isCore": true, "enabled": true, "isRuntimeRegistryLane": true, "runtimeTrackType": "Snare"}, {"id": "registry:Clap/GhostSnare", "laneName": "Clap Ghost", "groupName": "Snare", "dependencyName": "Snare", "generationPriority": 60, "isCore": false, "enabled": true, "isRuntimeRegistryLane": true, "runtimeTrackType": "Clap/GhostSnare"}, {"id": "registry:Kick", "laneName": "Kick", "groupName": "Kick", "dependencyName": "", "generationPriority": 96, "isCore": true, "enabled": true, "isRuntimeRegistryLane": true, "runtimeTrackType": "Kick"}, {"id": "registry:GhostKick", "laneName": "Kick Ghost", "groupName": "Kick", "dependencyName": "Kick", "generationPriority": 58, "isCore": false, "enabled": true, "isRuntimeRegistryLane": true, "runtimeTrackType": "GhostKick"}, {"id": "registry:Ride", "laneName": "Ride", "groupName": "Texture", "dependencyName": "", "generationPriority": 42, "isCore": false, "enabled": false, "isRuntimeRegistryLane": true, "runtimeTrackType": "Ride"}, {"id": "registry:Cymbal", "laneName": "Cymbal", "groupName": "Texture", "dependencyName": "", "generationPriority": 38, "isCore": false, "enabled": false, "isRuntimeRegistryLane": true, "runtimeTrackType": "Cymbal"}, {"id": "registry:Perc", "laneName": "Perc", "groupName": "Perc", "dependencyName": "", "generationPriority": 68, "isCore": true, "enabled": true, "isRuntimeRegistryLane": true, "runtimeTrackType": "Perc"}, {"id": "registry:Sub808", "laneName": "Sub808", "groupName": "Bass", "dependencyName": "Kick", "generationPriority": 82, "isCore": true, "enabled": true, "isRuntimeRegistryLane": true, "runtimeTrackType": "Sub808"}], "referenceProject": {"bpm": 148.0, "swingPercent": 50.0, "bars": 8, "phraseLengthBars": 8, "phraseRoleSummary": "statement|variation|support|variation|support|variation|variation|ending", "previewStartStep": 0, "selectedTrackIndex": 10, "soundModuleTrackIndex": -1, "globalSound": {"pan": 0.0, "width": 1.0, "eqTone": -0.150000005960464, "compression": 0.0, "reverb": 0.0, "gate": 0.0, "transient": 0.0, "drive": 0.0}, "runtimeLaneOrder": ["registry:HiHat", "registry:HatFX", "registry:OpenHat", "registry:Snare", "registry:Clap/GhostSnare", "registry:Kick", "registry:GhostKick", "registry:Ride", "registry:Cymbal", "registry:Perc", "registry:Sub808"], "runtimeLaneLayout": [{"orderIndex": 0, "laneId": "registry:HiHat", "laneName": "HiHat", "groupName": "Hats", "dependencyName": "", "generationPriority": 86, "isCore": true, "isVisibleInEditor": true, "enabledByDefault": true, "supportsDragExport": true, "isGhostTrack": false, "defaultMidiNote": 42, "isRuntimeRegistryLane": true, "runtimeTrackType": "HiHat", "bindingKind": "backed", "hasBackingTrack": true, "laneParamsAvailable": true, "trackType": "HiHat", "laneParams": {"enabled": true, "muted": false, "solo": false, "locked": false, "laneRole": "drill_hat", "laneVolume": 0.850000023841858, "selectedSampleIndex": 3, "selectedSampleName": "Drill Hi-hat_1", "sound": {"pan": 0.0, "width": 1.0, "eqTone": 0.0, "compression": 0.0, "reverb": 0.0, "gate": 0.0, "transient": 0.0, "drive": 0.0}, "noteCount": 47, "taggedNoteCount": 0, "notes": [{"pitch": 42, "step": 0, "lengthSteps": 1, "velocity": 100, "microOffsetTicks": 0, "startTick": 0, "lengthTicks": 240, "barIndex": 0, "stepInBar": 0, "isGhost": false, "semanticRole": ""}, {"pitch": 42, "step": 3, "lengthSteps": 1, "velocity": 100, "microOffsetTicks": 0, "startTick": 720, "lengthTicks": 240, "barIndex": 0, "stepInBar": 3, "isGhost": false, "semanticRole": ""}, {"pitch": 42, "step": 6, "lengthSteps": 1, "velocity": 100, "microOffsetTicks": 0, "startTick": 1440, "lengthTicks": 240, "barIndex": 0, "stepInBar": 6, "isGhost": false, "semanticRole": ""}, {"pitch": 42, "step": 14, "lengthSteps": 1, "velocity": 39, "microOffsetTicks": 0, "startTick": 3360, "lengthTicks": 240, "barIndex": 0, "stepInBar": 14, "isGhost": false, "semanticRole": ""}, {"pitch": 42, "step": 16, "lengthSteps": 1, "velocity": 100, "microOffsetTicks": 0, "startTick": 3840, "lengthTicks": 240, "barIndex": 1, "stepInBar": 0, "isGhost": false, "semanticRole": ""}, {"pitch": 42, "step": 19, "lengthSteps": 1, "velocity": 100, "microOffsetTicks": 0, "startTick": 4560, "lengthTicks": 240, "barIndex": 1, "stepInBar": 3, "isGhost": false, "semanticRole": ""}, {"pitch": 42, "step": 22, "lengthSteps": 1, "velocity": 100, "microOffsetTicks": 0, "startTick": 5280, "lengthTicks": 240, "barIndex": 1, "stepInBar": 6, "isGhost": false, "semanticRole": ""}, {"pitch": 42, "step": 28, "lengthSteps": 1, "velocity": 31, "microOffsetTicks": 0, "startTick": 6720, "lengthTicks": 240, "barIndex": 1, "stepInBar": 12, "isGhost": false, "semanticRole": ""}, {"pitch": 42, "step": 30, "lengthSteps": 1, "velocity": 60, "microOffsetTicks": 0, "startTick": 7200, "lengthTicks": 240, "barIndex": 1, "stepInBar": 14, "isGhost": false, "semanticRole": ""}, {"pitch": 42, "step": 32, "lengthSteps": 1, "velocity": 100, "microOffsetTicks": 0, "startTick": 7680, "lengthTicks": 240, "barIndex": 2, "stepInBar": 0, "isGhost": false, "semanticRole": ""}, {"pitch": 42, "step": 35, "lengthSteps": 1, "velocity": 100, "microOffsetTicks": 0, "startTick": 8400, "lengthTicks": 240, "barIndex": 2, "stepInBar": 3, "isGhost": false, "semanticRole": ""}, {"pitch": 42, "step": 38, "lengthSteps": 1, "velocity": 100, "microOffsetTicks": 0, "startTick": 9120, "lengthTicks": 240, "barIndex": 2, "stepInBar": 6, "isGhost": false, "semanticRole": ""}, {"pitch": 42, "step": 44, "lengthSteps": 1, "velocity": 39, "microOffsetTicks": 0, "startTick": 10560, "lengthTicks": 240, "barIndex": 2, "stepInBar": 12, "isGhost": false, "semanticRole": ""}, {"pitch": 42, "step": 45, "lengthSteps": 1, "velocity": 44, "microOffsetTicks": 0, "startTick": 10800, "lengthTicks": 240, "barIndex": 2, "stepInBar": 13, "isGhost": false, "semanticRole": ""}, {"pitch": 42, "step": 46, "lengthSteps": 1, "velocity": 56, "microOffsetTicks": 0, "startTick": 11040, "lengthTicks": 240, "barIndex": 2, "stepInBar": 14, "isGhost": false, "semanticRole": ""}, {"pitch": 42, "step": 47, "lengthSteps": 1, "velocity": 63, "microOffsetTicks": 0, "startTick": 11280, "lengthTicks": 240, "barIndex": 2, "stepInBar": 15, "isGhost": false, "semanticRole": ""}, {"pitch": 42, "step": 48, "lengthSteps": 1, "velocity": 100, "microOffsetTicks": 0, "startTick": 11520, "lengthTicks": 240, "barIndex": 3, "stepInBar": 0, "isGhost": false, "semanticRole": ""}, {"pitch": 42, "step": 51, "lengthSteps": 1, "velocity": 100, "microOffsetTicks": 0, "startTick": 12240, "lengthTicks": 240, "barIndex": 3, "stepInBar": 3, "isGhost": false, "semanticRole": ""}, {"pitch": 42, "step": 54, "lengthSteps": 1, "velocity": 100, "microOffsetTicks": 0, "startTick": 12960, "lengthTicks": 240, "barIndex": 3, "stepInBar": 6, "isGhost": false, "semanticRole": ""}, {"pitch": 42, "step": 58, "lengthSteps": 1, "velocity": 63, "microOffsetTicks": 0, "startTick": 13920, "lengthTicks": 240, "barIndex": 3, "stepInBar": 10, "isGhost": false, "semanticRole": ""}, {"pitch": 42, "step": 61, "lengthSteps": 1, "velocity": 63, "microOffsetTicks": 0, "startTick": 14640, "lengthTicks": 240, "barIndex": 3, "stepInBar": 13, "isGhost": false, "semanticRole": ""}, {"pitch": 42, "step": 64, "lengthSteps": 1, "velocity": 100, "microOffsetTicks": 0, "startTick": 15360, "lengthTicks": 240, "barIndex": 4, "stepInBar": 0, "isGhost": false, "semanticRole": ""}, {"pitch": 42, "step": 67, "lengthSteps": 1, "velocity": 100, "microOffsetTicks": 0, "startTick": 16080, "lengthTicks": 240, "barIndex": 4, "stepInBar": 3, "isGhost": false, "semanticRole": ""}, {"pitch": 42, "step": 70, "lengthSteps": 1, "velocity": 100, "microOffsetTicks": 0, "startTick": 16800, "lengthTicks": 240, "barIndex": 4, "stepInBar": 6, "isGhost": false, "semanticRole": ""}, {"pitch": 42, "step": 78, "lengthSteps": 1, "velocity": 39, "microOffsetTicks": 0, "startTick": 18720, "lengthTicks": 240, "barIndex": 4, "stepInBar": 14, "isGhost": false, "semanticRole": ""}, {"pitch": 42, "step": 80, "lengthSteps": 1, "velocity": 100, "microOffsetTicks": 0, "startTick": 19200, "lengthTicks": 240, "barIndex": 5, "stepInBar": 0, "isGhost": false, "semanticRole": ""}, {"pitch": 42, "step": 83, "lengthSteps": 1, "velocity": 100, "microOffsetTicks": 0, "startTick": 19920, "lengthTicks": 240, "barIndex": 5, "stepInBar": 3, "isGhost": false, "semanticRole": ""}, {"pitch": 42, "step": 86, "lengthSteps": 1, "velocity": 100, "microOffsetTicks": 0, "startTick": 20640, "lengthTicks": 240, "barIndex": 5, "stepInBar": 6, "isGhost": false, "semanticRole": ""}, {"pitch": 42, "step": 90, "lengthSteps": 1, "velocity": 30, "microOffsetTicks": 0, "startTick": 21600, "lengthTicks": 240, "barIndex": 5, "stepInBar": 10, "isGhost": false, "semanticRole": ""}, {"pitch": 42, "step": 92, "lengthSteps": 1, "velocity": 31, "microOffsetTicks": 0, "startTick": 22080, "lengthTicks": 240, "barIndex": 5, "stepInBar": 12, "isGhost": false, "semanticRole": ""}, {"pitch": 42, "step": 94, "lengthSteps": 1, "velocity": 60, "microOffsetTicks": 0, "startTick": 22560, "lengthTicks": 240, "barIndex": 5, "stepInBar": 14, "isGhost": false, "semanticRole": ""}, {"pitch": 42, "step": 96, "lengthSteps": 1, "velocity": 100, "microOffsetTicks": 0, "startTick": 23040, "lengthTicks": 240, "barIndex": 6, "stepInBar": 0, "isGhost": false, "semanticRole": ""}, {"pitch": 42, "step": 99, "lengthSteps": 1, "velocity": 100, "microOffsetTicks": 0, "startTick": 23760, "lengthTicks": 240, "barIndex": 6, "stepInBar": 3, "isGhost": false, "semanticRole": ""}, {"pitch": 42, "step": 102, "lengthSteps": 1, "velocity": 100, "microOffsetTicks": 0, "startTick": 24480, "lengthTicks": 240, "barIndex": 6, "stepInBar": 6, "isGhost": false, "semanticRole": ""}, {"pitch": 42, "step": 110, "lengthSteps": 1, "velocity": 39, "microOffsetTicks": 0, "startTick": 26400, "lengthTicks": 240, "barIndex": 6, "stepInBar": 14, "isGhost": false, "semanticRole": ""}, {"pitch": 42, "step": 111, "lengthSteps": 1, "velocity": 63, "microOffsetTicks": 0, "startTick": 26640, "lengthTicks": 240, "barIndex": 6, "stepInBar": 15, "isGhost": false, "semanticRole": ""}, {"pitch": 42, "step": 112, "lengthSteps": 1, "velocity": 100, "microOffsetTicks": 0, "startTick": 26880, "lengthTicks": 240, "barIndex": 7, "stepInBar": 0, "isGhost": false, "semanticRole": ""}, {"pitch": 42, "step": 115, "lengthSteps": 1, "velocity": 92, "microOffsetTicks": 0, "startTick": 27600, "lengthTicks": 240, "barIndex": 7, "stepInBar": 3, "isGhost": false, "semanticRole": ""}, {"pitch": 42, "step": 118, "lengthSteps": 1, "velocity": 100, "microOffsetTicks": 0, "startTick": 28320, "lengthTicks": 240, "barIndex": 7, "stepInBar": 6, "isGhost": false, "semanticRole": ""}, {"pitch": 42, "step": 120, "lengthSteps": 1, "velocity": 30, "microOffsetTicks": 0, "startTick": 28800, "lengthTicks": 240, "barIndex": 7, "stepInBar": 8, "isGhost": false, "semanticRole": ""}, {"pitch": 42, "step": 120, "lengthSteps": 1, "velocity": 49, "microOffsetTicks": 120, "startTick": 28920, "lengthTicks": 240, "barIndex": 7, "stepInBar": 8, "isGhost": false, "semanticRole": ""}, {"pitch": 42, "step": 121, "lengthSteps": 1, "velocity": 67, "microOffsetTicks": 0, "startTick": 29040, "lengthTicks": 240, "barIndex": 7, "stepInBar": 9, "isGhost": false, "semanticRole": ""}, {"pitch": 42, "step": 121, "lengthSteps": 1, "velocity": 85, "microOffsetTicks": 120, "startTick": 29160, "lengthTicks": 240, "barIndex": 7, "stepInBar": 9, "isGhost": false, "semanticRole": ""}, {"pitch": 42, "step": 122, "lengthSteps": 1, "velocity": 100, "microOffsetTicks": 0, "startTick": 29280, "lengthTicks": 240, "barIndex": 7, "stepInBar": 10, "isGhost": false, "semanticRole": ""}, {"pitch": 42, "step": 123, "lengthSteps": 1, "velocity": 59, "microOffsetTicks": 0, "startTick": 29520, "lengthTicks": 240, "barIndex": 7, "stepInBar": 11, "isGhost": false, "semanticRole": ""}, {"pitch": 42, "step": 124, "lengthSteps": 1, "velocity": 100, "microOffsetTicks": 0, "startTick": 29760, "lengthTicks": 240, "barIndex": 7, "stepInBar": 12, "isGhost": false, "semanticRole": ""}, {"pitch": 42, "step": 126, "lengthSteps": 1, "velocity": 59, "microOffsetTicks": 0, "startTick": 30240, "lengthTicks": 240, "barIndex": 7, "stepInBar": 14, "isGhost": false, "semanticRole": ""}]}}, {"orderIndex": 1, "laneId": "registry:HatFX", "laneName": "Hat Accent", "groupName": "Hats", "dependencyName": "HiHat", "generationPriority": 56, "isCore": false, "isVisibleInEditor": true, "enabledByDefault": true, "supportsDragExport": true, "isGhostTrack": true, "defaultMidiNote": 44, "isRuntimeRegistryLane": true, "runtimeTrackType": "HatFX", "bindingKind": "backed", "hasBackingTrack": true, "laneParamsAvailable": true, "trackType": "HatFX", "laneParams": {"enabled": true, "muted": false, "solo": false, "locked": false, "laneRole": "drill_hat_fx", "laneVolume": 0.280000001192093, "selectedSampleIndex": 2, "selectedSampleName": "Drill Hi-hat_3", "sound": {"pan": 0.0, "width": 1.0, "eqTone": 0.0, "compression": 0.0, "reverb": 0.0, "gate": 0.0, "transient": 0.0, "drive": 0.0}, "noteCount": 0, "taggedNoteCount": 0, "notes": []}}, {"orderIndex": 2, "laneId": "registry:OpenHat", "laneName": "OpenHat", "groupName": "Hats", "dependencyName": "", "generationPriority": 74, "isCore": true, "isVisibleInEditor": true, "enabledByDefault": true, "supportsDragExport": true, "isGhostTrack": false, "defaultMidiNote": 46, "isRuntimeRegistryLane": true, "runtimeTrackType": "OpenHat", "bindingKind": "backed", "hasBackingTrack": true, "laneParamsAvailable": true, "trackType": "OpenHat", "laneParams": {"enabled": true, "muted": false, "solo": false, "locked": false, "laneRole": "drill_open", "laneVolume": 0.680000007152557, "selectedSampleIndex": 0, "selectedSampleName": "", "sound": {"pan": 0.0, "width": 1.0, "eqTone": 0.0, "compression": 0.0, "reverb": 0.0, "gate": 0.0, "transient": 0.0, "drive": 0.0}, "noteCount": 0, "taggedNoteCount": 0, "notes": []}}, {"orderIndex": 3, "laneId": "registry:Snare", "laneName": "Snare", "groupName": "Snare", "dependencyName": "", "generationPriority": 92, "isCore": true, "isVisibleInEditor": true, "enabledByDefault": true, "supportsDragExport": true, "isGhostTrack": false, "defaultMidiNote": 38, "isRuntimeRegistryLane": true, "runtimeTrackType": "Snare", "bindingKind": "backed", "hasBackingTrack": true, "laneParamsAvailable": true, "trackType": "Snare", "laneParams": {"enabled": true, "muted": false, "solo": false, "locked": false, "laneRole": "drill_backbeat", "laneVolume": 0.939999997615814, "selectedSampleIndex": 6, "selectedSampleName": "drill-snare_140bpm_D_minor", "sound": {"pan": 0.0, "width": 1.0, "eqTone": 0.0, "compression": 0.0, "reverb": 0.0, "gate": 0.0, "transient": 0.0, "drive": 0.0}, "noteCount": 4, "taggedNoteCount": 0, "notes": [{"pitch": 38, "step": 8, "lengthSteps": 32, "velocity": 108, "microOffsetTicks": 0, "startTick": 1920, "lengthTicks": 7680, "barIndex": 0, "stepInBar": 8, "isGhost": false, "semanticRole": ""}, {"pitch": 38, "step": 40, "lengthSteps": 32, "velocity": 108, "microOffsetTicks": 0, "startTick": 9600, "lengthTicks": 7680, "barIndex": 2, "stepInBar": 8, "isGhost": false, "semanticRole": ""}, {"pitch": 38, "step": 72, "lengthSteps": 32, "velocity": 108, "microOffsetTicks": 0, "startTick": 17280, "lengthTicks": 7680, "barIndex": 4, "stepInBar": 8, "isGhost": false, "semanticRole": ""}, {"pitch": 38, "step": 104, "lengthSteps": 1, "velocity": 108, "microOffsetTicks": 0, "startTick": 24960, "lengthTicks": 240, "barIndex": 6, "stepInBar": 8, "isGhost": false, "semanticRole": ""}]}}, {"orderIndex": 4, "laneId": "registry:Clap/GhostSnare", "laneName": "Clap Ghost", "groupName": "Snare", "dependencyName": "Snare", "generationPriority": 60, "isCore": false, "isVisibleInEditor": true, "enabledByDefault": true, "supportsDragExport": true, "isGhostTrack": true, "defaultMidiNote": 39, "isRuntimeRegistryLane": true, "runtimeTrackType": "Clap/GhostSnare", "bindingKind": "backed", "hasBackingTrack": true, "laneParamsAvailable": true, "trackType": "Clap/GhostSnare", "laneParams": {"enabled": true, "muted": false, "solo": false, "locked": false, "laneRole": "drill_layer", "laneVolume": 0.740000009536743, "selectedSampleIndex": 0, "selectedSampleName": "", "sound": {"pan": 0.0, "width": 1.0, "eqTone": 0.0, "compression": 0.0, "reverb": 0.0, "gate": 0.0, "transient": 0.0, "drive": 0.0}, "noteCount": 2, "taggedNoteCount": 0, "notes": [{"pitch": 39, "step": 59, "lengthSteps": 1, "velocity": 108, "microOffsetTicks": 5, "startTick": 14165, "lengthTicks": 240, "barIndex": 3, "stepInBar": 11, "isGhost": true, "semanticRole": ""}, {"pitch": 39, "step": 123, "lengthSteps": 1, "velocity": 100, "microOffsetTicks": 0, "startTick": 29520, "lengthTicks": 240, "barIndex": 7, "stepInBar": 11, "isGhost": true, "semanticRole": ""}]}}, {"orderIndex": 5, "laneId": "registry:Kick", "laneName": "Kick", "groupName": "Kick", "dependencyName": "", "generationPriority": 96, "isCore": true, "isVisibleInEditor": true, "enabledByDefault": true, "supportsDragExport": true, "isGhostTrack": false, "defaultMidiNote": 36, "isRuntimeRegistryLane": true, "runtimeTrackType": "Kick", "bindingKind": "backed", "hasBackingTrack": true, "laneParamsAvailable": true, "trackType": "Kick", "laneParams": {"enabled": true, "muted": false, "solo": false, "locked": false, "laneRole": "drill_kick", "laneVolume": 0.939999997615814, "selectedSampleIndex": 0, "selectedSampleName": "Diamond Wav - Best Kick", "sound": {"pan": 0.0, "width": 1.0, "eqTone": 0.0, "compression": 0.0, "reverb": 0.0, "gate": 0.0, "transient": 0.0, "drive": 0.0}, "noteCount": 11, "taggedNoteCount": 0, "notes": [{"pitch": 36, "step": 0, "lengthSteps": 24, "velocity": 108, "microOffsetTicks": 0, "startTick": 0, "lengthTicks": 5760, "barIndex": 0, "stepInBar": 0, "isGhost": false, "semanticRole": ""}, {"pitch": 36, "step": 24, "lengthSteps": 4, "velocity": 108, "microOffsetTicks": 0, "startTick": 5760, "lengthTicks": 960, "barIndex": 1, "stepInBar": 8, "isGhost": false, "semanticRole": ""}, {"pitch": 36, "step": 28, "lengthSteps": 4, "velocity": 108, "microOffsetTicks": 0, "startTick": 6720, "lengthTicks": 960, "barIndex": 1, "stepInBar": 12, "isGhost": false, "semanticRole": ""}, {"pitch": 36, "step": 32, "lengthSteps": 24, "velocity": 108, "microOffsetTicks": 0, "startTick": 7680, "lengthTicks": 5760, "barIndex": 2, "stepInBar": 0, "isGhost": false, "semanticRole": ""}, {"pitch": 36, "step": 56, "lengthSteps": 4, "velocity": 108, "microOffsetTicks": 0, "startTick": 13440, "lengthTicks": 960, "barIndex": 3, "stepInBar": 8, "isGhost": false, "semanticRole": ""}, {"pitch": 36, "step": 60, "lengthSteps": 4, "velocity": 108, "microOffsetTicks": 0, "startTick": 14400, "lengthTicks": 960, "barIndex": 3, "stepInBar": 12, "isGhost": false, "semanticRole": ""}, {"pitch": 36, "step": 64, "lengthSteps": 24, "velocity": 108, "microOffsetTicks": 0, "startTick": 15360, "lengthTicks": 5760, "barIndex": 4, "stepInBar": 0, "isGhost": false, "semanticRole": ""}, {"pitch": 36, "step": 88, "lengthSteps": 8, "velocity": 108, "microOffsetTicks": 0, "startTick": 21120, "lengthTicks": 1920, "barIndex": 5, "stepInBar": 8, "isGhost": false, "semanticRole": ""}, {"pitch": 36, "step": 96, "lengthSteps": 24, "velocity": 108, "microOffsetTicks": 0, "startTick": 23040, "lengthTicks": 5760, "barIndex": 6, "stepInBar": 0, "isGhost": false, "semanticRole": ""}, {"pitch": 36, "step": 120, "lengthSteps": 4, "velocity": 108, "microOffsetTicks": 0, "startTick": 28800, "lengthTicks": 960, "barIndex": 7, "stepInBar": 8, "isGhost": false, "semanticRole": ""}, {"pitch": 36, "step": 124, "lengthSteps": 1, "velocity": 108, "microOffsetTicks": 0, "startTick": 29760, "lengthTicks": 240, "barIndex": 7, "stepInBar": 12, "isGhost": false, "semanticRole": ""}]}}, {"orderIndex": 6, "laneId": "registry:GhostKick", "laneName": "Kick Ghost", "groupName": "Kick", "dependencyName": "Kick", "generationPriority": 58, "isCore": false, "isVisibleInEditor": true, "enabledByDefault": true, "supportsDragExport": true, "isGhostTrack": true, "defaultMidiNote": 35, "isRuntimeRegistryLane": true, "runtimeTrackType": "GhostKick", "bindingKind": "backed", "hasBackingTrack": true, "laneParamsAvailable": true, "trackType": "GhostKick", "laneParams": {"enabled": true, "muted": false, "solo": false, "locked": false, "laneRole": "drill_support", "laneVolume": 0.620000004768372, "selectedSampleIndex": 0, "selectedSampleName": "", "sound": {"pan": 0.0, "width": 1.0, "eqTone": 0.0, "compression": 0.0, "reverb": 0.0, "gate": 0.0, "transient": 0.0, "drive": 0.0}, "noteCount": 0, "taggedNoteCount": 0, "notes": []}}, {"orderIndex": 7, "laneId": "registry:Ride", "laneName": "Ride", "groupName": "Texture", "dependencyName": "", "generationPriority": 42, "isCore": false, "isVisibleInEditor": true, "enabledByDefault": false, "supportsDragExport": true, "isGhostTrack": false, "defaultMidiNote": 51, "isRuntimeRegistryLane": true, "runtimeTrackType": "Ride", "bindingKind": "backed", "hasBackingTrack": true, "laneParamsAvailable": true, "trackType": "Ride", "laneParams": {"enabled": false, "muted": false, "solo": false, "locked": false, "laneRole": "support", "laneVolume": 0.540000021457672, "selectedSampleIndex": 0, "selectedSampleName": "", "sound": {"pan": 0.0, "width": 1.0, "eqTone": 0.0, "compression": 0.0, "reverb": 0.0, "gate": 0.0, "transient": 0.0, "drive": 0.0}, "noteCount": 0, "taggedNoteCount": 0, "notes": []}}, {"orderIndex": 8, "laneId": "registry:Cymbal", "laneName": "Cymbal", "groupName": "Texture", "dependencyName": "", "generationPriority": 38, "isCore": false, "isVisibleInEditor": true, "enabledByDefault": false, "supportsDragExport": true, "isGhostTrack": false, "defaultMidiNote": 49, "isRuntimeRegistryLane": true, "runtimeTrackType": "Cymbal", "bindingKind": "backed", "hasBackingTrack": true, "laneParamsAvailable": true, "trackType": "Cymbal", "laneParams": {"enabled": false, "muted": false, "solo": false, "locked": false, "laneRole": "crash", "laneVolume": 0.579999983310699, "selectedSampleIndex": 0, "selectedSampleName": "", "sound": {"pan": 0.0, "width": 1.0, "eqTone": 0.0, "compression": 0.0, "reverb": 0.0, "gate": 0.0, "transient": 0.0, "drive": 0.0}, "noteCount": 0, "taggedNoteCount": 0, "notes": []}}, {"orderIndex": 9, "laneId": "registry:Perc", "laneName": "Perc", "groupName": "Perc", "dependencyName": "", "generationPriority": 68, "isCore": true, "isVisibleInEditor": true, "enabledByDefault": true, "supportsDragExport": true, "isGhostTrack": false, "defaultMidiNote": 50, "isRuntimeRegistryLane": true, "runtimeTrackType": "Perc", "bindingKind": "backed", "hasBackingTrack": true, "laneParamsAvailable": true, "trackType": "Perc", "laneParams": {"enabled": true, "muted": false, "solo": false, "locked": false, "laneRole": "drill_texture", "laneVolume": 0.600000023841858, "selectedSampleIndex": 0, "selectedSampleName": "Drill Perc (2)", "sound": {"pan": 0.0, "width": 1.0, "eqTone": 0.0, "compression": 0.0, "reverb": 0.0, "gate": 0.0, "transient": 0.0, "drive": 0.0}, "noteCount": 0, "taggedNoteCount": 0, "notes": []}}, {"orderIndex": 10, "laneId": "registry:Sub808", "laneName": "Sub808", "groupName": "Bass", "dependencyName": "Kick", "generationPriority": 82, "isCore": true, "isVisibleInEditor": true, "enabledByDefault": true, "supportsDragExport": true, "isGhostTrack": false, "defaultMidiNote": 34, "isRuntimeRegistryLane": true, "runtimeTrackType": "Sub808", "bindingKind": "backed", "hasBackingTrack": true, "laneParamsAvailable": true, "trackType": "Sub808", "laneParams": {"enabled": true, "muted": false, "solo": false, "locked": false, "laneRole": "drill_sub", "laneVolume": 0.959999978542328, "selectedSampleIndex": 6, "selectedSampleName": "Diamond Wav - Cold 808", "sound": {"pan": 0.0, "width": 1.0, "eqTone": 0.0, "compression": 0.0, "reverb": 0.0, "gate": 0.0, "transient": 0.0, "drive": 0.0}, "noteCount": 22, "taggedNoteCount": 0, "notes": [{"pitch": 59, "step": 0, "lengthSteps": 12, "velocity": 100, "microOffsetTicks": 0, "startTick": 0, "lengthTicks": 2880, "barIndex": 0, "stepInBar": 0, "isGhost": false, "semanticRole": ""}, {"pitch": 66, "step": 24, "lengthSteps": 4, "velocity": 100, "microOffsetTicks": 0, "startTick": 5760, "lengthTicks": 960, "barIndex": 1, "stepInBar": 8, "isGhost": false, "semanticRole": ""}, {"pitch": 66, "step": 28, "lengthSteps": 2, "velocity": 100, "microOffsetTicks": 0, "startTick": 6720, "lengthTicks": 480, "barIndex": 1, "stepInBar": 12, "isGhost": false, "semanticRole": ""}, {"pitch": 71, "step": 28, "lengthSteps": 1, "velocity": 100, "microOffsetTicks": 0, "startTick": 6720, "lengthTicks": 240, "barIndex": 1, "stepInBar": 12, "isGhost": false, "semanticRole": ""}, {"pitch": 66, "step": 30, "lengthSteps": 1, "velocity": 100, "microOffsetTicks": 0, "startTick": 7200, "lengthTicks": 240, "barIndex": 1, "stepInBar": 14, "isGhost": false, "semanticRole": ""}, {"pitch": 59, "step": 32, "lengthSteps": 16, "velocity": 100, "microOffsetTicks": 0, "startTick": 7680, "lengthTicks": 3840, "barIndex": 2, "stepInBar": 0, "isGhost": false, "semanticRole": ""}, {"pitch": 59, "step": 56, "lengthSteps": 2, "velocity": 100, "microOffsetTicks": 0, "startTick": 13440, "lengthTicks": 480, "barIndex": 3, "stepInBar": 8, "isGhost": false, "semanticRole": ""}, {"pitch": 66, "step": 58, "lengthSteps": 2, "velocity": 100, "microOffsetTicks": 0, "startTick": 13920, "lengthTicks": 480, "barIndex": 3, "stepInBar": 10, "isGhost": false, "semanticRole": ""}, {"pitch": 59, "step": 60, "lengthSteps": 2, "velocity": 100, "microOffsetTicks": 0, "startTick": 14400, "lengthTicks": 480, "barIndex": 3, "stepInBar": 12, "isGhost": false, "semanticRole": ""}, {"pitch": 71, "step": 62, "lengthSteps": 2, "velocity": 100, "microOffsetTicks": 0, "startTick": 14880, "lengthTicks": 480, "barIndex": 3, "stepInBar": 14, "isGhost": false, "semanticRole": ""}, {"pitch": 64, "step": 64, "lengthSteps": 16, "velocity": 100, "microOffsetTicks": 0, "startTick": 15360, "lengthTicks": 3840, "barIndex": 4, "stepInBar": 0, "isGhost": false, "semanticRole": ""}, {"pitch": 59, "step": 88, "lengthSteps": 8, "velocity": 100, "microOffsetTicks": 0, "startTick": 21120, "lengthTicks": 1920, "barIndex": 5, "stepInBar": 8, "isGhost": false, "semanticRole": ""}, {"pitch": 74, "step": 90, "lengthSteps": 1, "velocity": 100, "microOffsetTicks": 0, "startTick": 21600, "lengthTicks": 240, "barIndex": 5, "stepInBar": 10, "isGhost": false, "semanticRole": ""}, {"pitch": 73, "step": 92, "lengthSteps": 1, "velocity": 100, "microOffsetTicks": 0, "startTick": 22080, "lengthTicks": 240, "barIndex": 5, "stepInBar": 12, "isGhost": false, "semanticRole": ""}, {"pitch": 66, "step": 94, "lengthSteps": 1, "velocity": 100, "microOffsetTicks": 0, "startTick": 22560, "lengthTicks": 240, "barIndex": 5, "stepInBar": 14, "isGhost": false, "semanticRole": ""}, {"pitch": 66, "step": 96, "lengthSteps": 16, "velocity": 100, "microOffsetTicks": 0, "startTick": 23040, "lengthTicks": 3840, "barIndex": 6, "stepInBar": 0, "isGhost": false, "semanticRole": ""}, {"pitch": 59, "step": 120, "lengthSteps": 2, "velocity": 100, "microOffsetTicks": 0, "startTick": 28800, "lengthTicks": 480, "barIndex": 7, "stepInBar": 8, "isGhost": false, "semanticRole": ""}, {"pitch": 71, "step": 120, "lengthSteps": 1, "velocity": 100, "microOffsetTicks": 0, "startTick": 28800, "lengthTicks": 240, "barIndex": 7, "stepInBar": 8, "isGhost": false, "semanticRole": ""}, {"pitch": 59, "step": 122, "lengthSteps": 2, "velocity": 100, "microOffsetTicks": 0, "startTick": 29280, "lengthTicks": 480, "barIndex": 7, "stepInBar": 10, "isGhost": false, "semanticRole": ""}, {"pitch": 79, "step": 122, "lengthSteps": 1, "velocity": 100, "microOffsetTicks": 0, "startTick": 29280, "lengthTicks": 240, "barIndex": 7, "stepInBar": 10, "isGhost": false, "semanticRole": ""}, {"pitch": 83, "step": 124, "lengthSteps": 2, "velocity": 100, "microOffsetTicks": 0, "startTick": 29760, "lengthTicks": 480, "barIndex": 7, "stepInBar": 12, "isGhost": false, "semanticRole": ""}, {"pitch": 71, "step": 126, "lengthSteps": 2, "velocity": 100, "microOffsetTicks": 0, "startTick": 30240, "lengthTicks": 480, "barIndex": 7, "stepInBar": 14, "isGhost": false, "semanticRole": ""}]}}], "selectedTrackLaneId": "registry:Sub808", "soundModuleTrackLaneId": "", "tracks": [{"trackType": "HiHat", "displayName": "HiHat", "laneId": "registry:HiHat", "runtimeTrackType": "HiHat", "bindingKind": "backed", "laneName": "HiHat", "laneGroup": "Hats", "laneDependency": "", "generationPriority": 86, "isCoreLane": true, "isRuntimeRegistryLane": true, "laneParams": {"enabled": true, "muted": false, "solo": false, "locked": false, "laneRole": "drill_hat", "laneVolume": 0.850000023841858, "selectedSampleIndex": 3, "selectedSampleName": "Drill Hi-hat_1", "sound": {"pan": 0.0, "width": 1.0, "eqTone": 0.0, "compression": 0.0, "reverb": 0.0, "gate": 0.0, "transient": 0.0, "drive": 0.0}, "noteCount": 47, "taggedNoteCount": 0, "notes": [{"pitch": 42, "step": 0, "lengthSteps": 1, "velocity": 100, "microOffsetTicks": 0, "startTick": 0, "lengthTicks": 240, "barIndex": 0, "stepInBar": 0, "isGhost": false, "semanticRole": ""}, {"pitch": 42, "step": 3, "lengthSteps": 1, "velocity": 100, "microOffsetTicks": 0, "startTick": 720, "lengthTicks": 240, "barIndex": 0, "stepInBar": 3, "isGhost": false, "semanticRole": ""}, {"pitch": 42, "step": 6, "lengthSteps": 1, "velocity": 100, "microOffsetTicks": 0, "startTick": 1440, "lengthTicks": 240, "barIndex": 0, "stepInBar": 6, "isGhost": false, "semanticRole": ""}, {"pitch": 42, "step": 14, "lengthSteps": 1, "velocity": 39, "microOffsetTicks": 0, "startTick": 3360, "lengthTicks": 240, "barIndex": 0, "stepInBar": 14, "isGhost": false, "semanticRole": ""}, {"pitch": 42, "step": 16, "lengthSteps": 1, "velocity": 100, "microOffsetTicks": 0, "startTick": 3840, "lengthTicks": 240, "barIndex": 1, "stepInBar": 0, "isGhost": false, "semanticRole": ""}, {"pitch": 42, "step": 19, "lengthSteps": 1, "velocity": 100, "microOffsetTicks": 0, "startTick": 4560, "lengthTicks": 240, "barIndex": 1, "stepInBar": 3, "isGhost": false, "semanticRole": ""}, {"pitch": 42, "step": 22, "lengthSteps": 1, "velocity": 100, "microOffsetTicks": 0, "startTick": 5280, "lengthTicks": 240, "barIndex": 1, "stepInBar": 6, "isGhost": false, "semanticRole": ""}, {"pitch": 42, "step": 28, "lengthSteps": 1, "velocity": 31, "microOffsetTicks": 0, "startTick": 6720, "lengthTicks": 240, "barIndex": 1, "stepInBar": 12, "isGhost": false, "semanticRole": ""}, {"pitch": 42, "step": 30, "lengthSteps": 1, "velocity": 60, "microOffsetTicks": 0, "startTick": 7200, "lengthTicks": 240, "barIndex": 1, "stepInBar": 14, "isGhost": false, "semanticRole": ""}, {"pitch": 42, "step": 32, "lengthSteps": 1, "velocity": 100, "microOffsetTicks": 0, "startTick": 7680, "lengthTicks": 240, "barIndex": 2, "stepInBar": 0, "isGhost": false, "semanticRole": ""}, {"pitch": 42, "step": 35, "lengthSteps": 1, "velocity": 100, "microOffsetTicks": 0, "startTick": 8400, "lengthTicks": 240, "barIndex": 2, "stepInBar": 3, "isGhost": false, "semanticRole": ""}, {"pitch": 42, "step": 38, "lengthSteps": 1, "velocity": 100, "microOffsetTicks": 0, "startTick": 9120, "lengthTicks": 240, "barIndex": 2, "stepInBar": 6, "isGhost": false, "semanticRole": ""}, {"pitch": 42, "step": 44, "lengthSteps": 1, "velocity": 39, "microOffsetTicks": 0, "startTick": 10560, "lengthTicks": 240, "barIndex": 2, "stepInBar": 12, "isGhost": false, "semanticRole": ""}, {"pitch": 42, "step": 45, "lengthSteps": 1, "velocity": 44, "microOffsetTicks": 0, "startTick": 10800, "lengthTicks": 240, "barIndex": 2, "stepInBar": 13, "isGhost": false, "semanticRole": ""}, {"pitch": 42, "step": 46, "lengthSteps": 1, "velocity": 56, "microOffsetTicks": 0, "startTick": 11040, "lengthTicks": 240, "barIndex": 2, "stepInBar": 14, "isGhost": false, "semanticRole": ""}, {"pitch": 42, "step": 47, "lengthSteps": 1, "velocity": 63, "microOffsetTicks": 0, "startTick": 11280, "lengthTicks": 240, "barIndex": 2, "stepInBar": 15, "isGhost": false, "semanticRole": ""}, {"pitch": 42, "step": 48, "lengthSteps": 1, "velocity": 100, "microOffsetTicks": 0, "startTick": 11520, "lengthTicks": 240, "barIndex": 3, "stepInBar": 0, "isGhost": false, "semanticRole": ""}, {"pitch": 42, "step": 51, "lengthSteps": 1, "velocity": 100, "microOffsetTicks": 0, "startTick": 12240, "lengthTicks": 240, "barIndex": 3, "stepInBar": 3, "isGhost": false, "semanticRole": ""}, {"pitch": 42, "step": 54, "lengthSteps": 1, "velocity": 100, "microOffsetTicks": 0, "startTick": 12960, "lengthTicks": 240, "barIndex": 3, "stepInBar": 6, "isGhost": false, "semanticRole": ""}, {"pitch": 42, "step": 58, "lengthSteps": 1, "velocity": 63, "microOffsetTicks": 0, "startTick": 13920, "lengthTicks": 240, "barIndex": 3, "stepInBar": 10, "isGhost": false, "semanticRole": ""}, {"pitch": 42, "step": 61, "lengthSteps": 1, "velocity": 63, "microOffsetTicks": 0, "startTick": 14640, "lengthTicks": 240, "barIndex": 3, "stepInBar": 13, "isGhost": false, "semanticRole": ""}, {"pitch": 42, "step": 64, "lengthSteps": 1, "velocity": 100, "microOffsetTicks": 0, "startTick": 15360, "lengthTicks": 240, "barIndex": 4, "stepInBar": 0, "isGhost": false, "semanticRole": ""}, {"pitch": 42, "step": 67, "lengthSteps": 1, "velocity": 100, "microOffsetTicks": 0, "startTick": 16080, "lengthTicks": 240, "barIndex": 4, "stepInBar": 3, "isGhost": false, "semanticRole": ""}, {"pitch": 42, "step": 70, "lengthSteps": 1, "velocity": 100, "microOffsetTicks": 0, "startTick": 16800, "lengthTicks": 240, "barIndex": 4, "stepInBar": 6, "isGhost": false, "semanticRole": ""}, {"pitch": 42, "step": 78, "lengthSteps": 1, "velocity": 39, "microOffsetTicks": 0, "startTick": 18720, "lengthTicks": 240, "barIndex": 4, "stepInBar": 14, "isGhost": false, "semanticRole": ""}, {"pitch": 42, "step": 80, "lengthSteps": 1, "velocity": 100, "microOffsetTicks": 0, "startTick": 19200, "lengthTicks": 240, "barIndex": 5, "stepInBar": 0, "isGhost": false, "semanticRole": ""}, {"pitch": 42, "step": 83, "lengthSteps": 1, "velocity": 100, "microOffsetTicks": 0, "startTick": 19920, "lengthTicks": 240, "barIndex": 5, "stepInBar": 3, "isGhost": false, "semanticRole": ""}, {"pitch": 42, "step": 86, "lengthSteps": 1, "velocity": 100, "microOffsetTicks": 0, "startTick": 20640, "lengthTicks": 240, "barIndex": 5, "stepInBar": 6, "isGhost": false, "semanticRole": ""}, {"pitch": 42, "step": 90, "lengthSteps": 1, "velocity": 30, "microOffsetTicks": 0, "startTick": 21600, "lengthTicks": 240, "barIndex": 5, "stepInBar": 10, "isGhost": false, "semanticRole": ""}, {"pitch": 42, "step": 92, "lengthSteps": 1, "velocity": 31, "microOffsetTicks": 0, "startTick": 22080, "lengthTicks": 240, "barIndex": 5, "stepInBar": 12, "isGhost": false, "semanticRole": ""}, {"pitch": 42, "step": 94, "lengthSteps": 1, "velocity": 60, "microOffsetTicks": 0, "startTick": 22560, "lengthTicks": 240, "barIndex": 5, "stepInBar": 14, "isGhost": false, "semanticRole": ""}, {"pitch": 42, "step": 96, "lengthSteps": 1, "velocity": 100, "microOffsetTicks": 0, "startTick": 23040, "lengthTicks": 240, "barIndex": 6, "stepInBar": 0, "isGhost": false, "semanticRole": ""}, {"pitch": 42, "step": 99, "lengthSteps": 1, "velocity": 100, "microOffsetTicks": 0, "startTick": 23760, "lengthTicks": 240, "barIndex": 6, "stepInBar": 3, "isGhost": false, "semanticRole": ""}, {"pitch": 42, "step": 102, "lengthSteps": 1, "velocity": 100, "microOffsetTicks": 0, "startTick": 24480, "lengthTicks": 240, "barIndex": 6, "stepInBar": 6, "isGhost": false, "semanticRole": ""}, {"pitch": 42, "step": 110, "lengthSteps": 1, "velocity": 39, "microOffsetTicks": 0, "startTick": 26400, "lengthTicks": 240, "barIndex": 6, "stepInBar": 14, "isGhost": false, "semanticRole": ""}, {"pitch": 42, "step": 111, "lengthSteps": 1, "velocity": 63, "microOffsetTicks": 0, "startTick": 26640, "lengthTicks": 240, "barIndex": 6, "stepInBar": 15, "isGhost": false, "semanticRole": ""}, {"pitch": 42, "step": 112, "lengthSteps": 1, "velocity": 100, "microOffsetTicks": 0, "startTick": 26880, "lengthTicks": 240, "barIndex": 7, "stepInBar": 0, "isGhost": false, "semanticRole": ""}, {"pitch": 42, "step": 115, "lengthSteps": 1, "velocity": 92, "microOffsetTicks": 0, "startTick": 27600, "lengthTicks": 240, "barIndex": 7, "stepInBar": 3, "isGhost": false, "semanticRole": ""}, {"pitch": 42, "step": 118, "lengthSteps": 1, "velocity": 100, "microOffsetTicks": 0, "startTick": 28320, "lengthTicks": 240, "barIndex": 7, "stepInBar": 6, "isGhost": false, "semanticRole": ""}, {"pitch": 42, "step": 120, "lengthSteps": 1, "velocity": 30, "microOffsetTicks": 0, "startTick": 28800, "lengthTicks": 240, "barIndex": 7, "stepInBar": 8, "isGhost": false, "semanticRole": ""}, {"pitch": 42, "step": 120, "lengthSteps": 1, "velocity": 49, "microOffsetTicks": 120, "startTick": 28920, "lengthTicks": 240, "barIndex": 7, "stepInBar": 8, "isGhost": false, "semanticRole": ""}, {"pitch": 42, "step": 121, "lengthSteps": 1, "velocity": 67, "microOffsetTicks": 0, "startTick": 29040, "lengthTicks": 240, "barIndex": 7, "stepInBar": 9, "isGhost": false, "semanticRole": ""}, {"pitch": 42, "step": 121, "lengthSteps": 1, "velocity": 85, "microOffsetTicks": 120, "startTick": 29160, "lengthTicks": 240, "barIndex": 7, "stepInBar": 9, "isGhost": false, "semanticRole": ""}, {"pitch": 42, "step": 122, "lengthSteps": 1, "velocity": 100, "microOffsetTicks": 0, "startTick": 29280, "lengthTicks": 240, "barIndex": 7, "stepInBar": 10, "isGhost": false, "semanticRole": ""}, {"pitch": 42, "step": 123, "lengthSteps": 1, "velocity": 59, "microOffsetTicks": 0, "startTick": 29520, "lengthTicks": 240, "barIndex": 7, "stepInBar": 11, "isGhost": false, "semanticRole": ""}, {"pitch": 42, "step": 124, "lengthSteps": 1, "velocity": 100, "microOffsetTicks": 0, "startTick": 29760, "lengthTicks": 240, "barIndex": 7, "stepInBar": 12, "isGhost": false, "semanticRole": ""}, {"pitch": 42, "step": 126, "lengthSteps": 1, "velocity": 59, "microOffsetTicks": 0, "startTick": 30240, "lengthTicks": 240, "barIndex": 7, "stepInBar": 14, "isGhost": false, "semanticRole": ""}]}}, {"trackType": "HatFX", "displayName": "Hat Accent", "laneId": "registry:HatFX", "runtimeTrackType": "HatFX", "bindingKind": "backed", "laneName": "Hat Accent", "laneGroup": "Hats", "laneDependency": "HiHat", "generationPriority": 56, "isCoreLane": false, "isRuntimeRegistryLane": true, "laneParams": {"enabled": true, "muted": false, "solo": false, "locked": false, "laneRole": "drill_hat_fx", "laneVolume": 0.280000001192093, "selectedSampleIndex": 2, "selectedSampleName": "Drill Hi-hat_3", "sound": {"pan": 0.0, "width": 1.0, "eqTone": 0.0, "compression": 0.0, "reverb": 0.0, "gate": 0.0, "transient": 0.0, "drive": 0.0}, "noteCount": 0, "taggedNoteCount": 0, "notes": []}}, {"trackType": "OpenHat", "displayName": "OpenHat", "laneId": "registry:OpenHat", "runtimeTrackType": "OpenHat", "bindingKind": "backed", "laneName": "OpenHat", "laneGroup": "Hats", "laneDependency": "", "generationPriority": 74, "isCoreLane": true, "isRuntimeRegistryLane": true, "laneParams": {"enabled": true, "muted": false, "solo": false, "locked": false, "laneRole": "drill_open", "laneVolume": 0.680000007152557, "selectedSampleIndex": 0, "selectedSampleName": "", "sound": {"pan": 0.0, "width": 1.0, "eqTone": 0.0, "compression": 0.0, "reverb": 0.0, "gate": 0.0, "transient": 0.0, "drive": 0.0}, "noteCount": 0, "taggedNoteCount": 0, "notes": []}}, {"trackType": "Snare", "displayName": "Snare", "laneId": "registry:Snare", "runtimeTrackType": "Snare", "bindingKind": "backed", "laneName": "Snare", "laneGroup": "Snare", "laneDependency": "", "generationPriority": 92, "isCoreLane": true, "isRuntimeRegistryLane": true, "laneParams": {"enabled": true, "muted": false, "solo": false, "locked": false, "laneRole": "drill_backbeat", "laneVolume": 0.939999997615814, "selectedSampleIndex": 6, "selectedSampleName": "drill-snare_140bpm_D_minor", "sound": {"pan": 0.0, "width": 1.0, "eqTone": 0.0, "compression": 0.0, "reverb": 0.0, "gate": 0.0, "transient": 0.0, "drive": 0.0}, "noteCount": 4, "taggedNoteCount": 0, "notes": [{"pitch": 38, "step": 8, "lengthSteps": 32, "velocity": 108, "microOffsetTicks": 0, "startTick": 1920, "lengthTicks": 7680, "barIndex": 0, "stepInBar": 8, "isGhost": false, "semanticRole": ""}, {"pitch": 38, "step": 40, "lengthSteps": 32, "velocity": 108, "microOffsetTicks": 0, "startTick": 9600, "lengthTicks": 7680, "barIndex": 2, "stepInBar": 8, "isGhost": false, "semanticRole": ""}, {"pitch": 38, "step": 72, "lengthSteps": 32, "velocity": 108, "microOffsetTicks": 0, "startTick": 17280, "lengthTicks": 7680, "barIndex": 4, "stepInBar": 8, "isGhost": false, "semanticRole": ""}, {"pitch": 38, "step": 104, "lengthSteps": 1, "velocity": 108, "microOffsetTicks": 0, "startTick": 24960, "lengthTicks": 240, "barIndex": 6, "stepInBar": 8, "isGhost": false, "semanticRole": ""}]}}, {"trackType": "Clap/GhostSnare", "displayName": "Clap Ghost", "laneId": "registry:Clap/GhostSnare", "runtimeTrackType": "Clap/GhostSnare", "bindingKind": "backed", "laneName": "Clap Ghost", "laneGroup": "Snare", "laneDependency": "Snare", "generationPriority": 60, "isCoreLane": false, "isRuntimeRegistryLane": true, "laneParams": {"enabled": true, "muted": false, "solo": false, "locked": false, "laneRole": "drill_layer", "laneVolume": 0.740000009536743, "selectedSampleIndex": 0, "selectedSampleName": "", "sound": {"pan": 0.0, "width": 1.0, "eqTone": 0.0, "compression": 0.0, "reverb": 0.0, "gate": 0.0, "transient": 0.0, "drive": 0.0}, "noteCount": 2, "taggedNoteCount": 0, "notes": [{"pitch": 39, "step": 59, "lengthSteps": 1, "velocity": 108, "microOffsetTicks": 5, "startTick": 14165, "lengthTicks": 240, "barIndex": 3, "stepInBar": 11, "isGhost": true, "semanticRole": ""}, {"pitch": 39, "step": 123, "lengthSteps": 1, "velocity": 100, "microOffsetTicks": 0, "startTick": 29520, "lengthTicks": 240, "barIndex": 7, "stepInBar": 11, "isGhost": true, "semanticRole": ""}]}}, {"trackType": "Kick", "displayName": "Kick", "laneId": "registry:Kick", "runtimeTrackType": "Kick", "bindingKind": "backed", "laneName": "Kick", "laneGroup": "Kick", "laneDependency": "", "generationPriority": 96, "isCoreLane": true, "isRuntimeRegistryLane": true, "laneParams": {"enabled": true, "muted": false, "solo": false, "locked": false, "laneRole": "drill_kick", "laneVolume": 0.939999997615814, "selectedSampleIndex": 0, "selectedSampleName": "Diamond Wav - Best Kick", "sound": {"pan": 0.0, "width": 1.0, "eqTone": 0.0, "compression": 0.0, "reverb": 0.0, "gate": 0.0, "transient": 0.0, "drive": 0.0}, "noteCount": 11, "taggedNoteCount": 0, "notes": [{"pitch": 36, "step": 0, "lengthSteps": 24, "velocity": 108, "microOffsetTicks": 0, "startTick": 0, "lengthTicks": 5760, "barIndex": 0, "stepInBar": 0, "isGhost": false, "semanticRole": ""}, {"pitch": 36, "step": 24, "lengthSteps": 4, "velocity": 108, "microOffsetTicks": 0, "startTick": 5760, "lengthTicks": 960, "barIndex": 1, "stepInBar": 8, "isGhost": false, "semanticRole": ""}, {"pitch": 36, "step": 28, "lengthSteps": 4, "velocity": 108, "microOffsetTicks": 0, "startTick": 6720, "lengthTicks": 960, "barIndex": 1, "stepInBar": 12, "isGhost": false, "semanticRole": ""}, {"pitch": 36, "step": 32, "lengthSteps": 24, "velocity": 108, "microOffsetTicks": 0, "startTick": 7680, "lengthTicks": 5760, "barIndex": 2, "stepInBar": 0, "isGhost": false, "semanticRole": ""}, {"pitch": 36, "step": 56, "lengthSteps": 4, "velocity": 108, "microOffsetTicks": 0, "startTick": 13440, "lengthTicks": 960, "barIndex": 3, "stepInBar": 8, "isGhost": false, "semanticRole": ""}, {"pitch": 36, "step": 60, "lengthSteps": 4, "velocity": 108, "microOffsetTicks": 0, "startTick": 14400, "lengthTicks": 960, "barIndex": 3, "stepInBar": 12, "isGhost": false, "semanticRole": ""}, {"pitch": 36, "step": 64, "lengthSteps": 24, "velocity": 108, "microOffsetTicks": 0, "startTick": 15360, "lengthTicks": 5760, "barIndex": 4, "stepInBar": 0, "isGhost": false, "semanticRole": ""}, {"pitch": 36, "step": 88, "lengthSteps": 8, "velocity": 108, "microOffsetTicks": 0, "startTick": 21120, "lengthTicks": 1920, "barIndex": 5, "stepInBar": 8, "isGhost": false, "semanticRole": ""}, {"pitch": 36, "step": 96, "lengthSteps": 24, "velocity": 108, "microOffsetTicks": 0, "startTick": 23040, "lengthTicks": 5760, "barIndex": 6, "stepInBar": 0, "isGhost": false, "semanticRole": ""}, {"pitch": 36, "step": 120, "lengthSteps": 4, "velocity": 108, "microOffsetTicks": 0, "startTick": 28800, "lengthTicks": 960, "barIndex": 7, "stepInBar": 8, "isGhost": false, "semanticRole": ""}, {"pitch": 36, "step": 124, "lengthSteps": 1, "velocity": 108, "microOffsetTicks": 0, "startTick": 29760, "lengthTicks": 240, "barIndex": 7, "stepInBar": 12, "isGhost": false, "semanticRole": ""}]}}, {"trackType": "GhostKick", "displayName": "Kick Ghost", "laneId": "registry:GhostKick", "runtimeTrackType": "GhostKick", "bindingKind": "backed", "laneName": "Kick Ghost", "laneGroup": "Kick", "laneDependency": "Kick", "generationPriority": 58, "isCoreLane": false, "isRuntimeRegistryLane": true, "laneParams": {"enabled": true, "muted": false, "solo": false, "locked": false, "laneRole": "drill_support", "laneVolume": 0.620000004768372, "selectedSampleIndex": 0, "selectedSampleName": "", "sound": {"pan": 0.0, "width": 1.0, "eqTone": 0.0, "compression": 0.0, "reverb": 0.0, "gate": 0.0, "transient": 0.0, "drive": 0.0}, "noteCount": 0, "taggedNoteCount": 0, "notes": []}}, {"trackType": "Ride", "displayName": "Ride", "laneId": "registry:Ride", "runtimeTrackType": "Ride", "bindingKind": "backed", "laneName": "Ride", "laneGroup": "Texture", "laneDependency": "", "generationPriority": 42, "isCoreLane": false, "isRuntimeRegistryLane": true, "laneParams": {"enabled": false, "muted": false, "solo": false, "locked": false, "laneRole": "support", "laneVolume": 0.540000021457672, "selectedSampleIndex": 0, "selectedSampleName": "", "sound": {"pan": 0.0, "width": 1.0, "eqTone": 0.0, "compression": 0.0, "reverb": 0.0, "gate": 0.0, "transient": 0.0, "drive": 0.0}, "noteCount": 0, "taggedNoteCount": 0, "notes": []}}, {"trackType": "Cymbal", "displayName": "Cymbal", "laneId": "registry:Cymbal", "runtimeTrackType": "Cymbal", "bindingKind": "backed", "laneName": "Cymbal", "laneGroup": "Texture", "laneDependency": "", "generationPriority": 38, "isCoreLane": false, "isRuntimeRegistryLane": true, "laneParams": {"enabled": false, "muted": false, "solo": false, "locked": false, "laneRole": "crash", "laneVolume": 0.579999983310699, "selectedSampleIndex": 0, "selectedSampleName": "", "sound": {"pan": 0.0, "width": 1.0, "eqTone": 0.0, "compression": 0.0, "reverb": 0.0, "gate": 0.0, "transient": 0.0, "drive": 0.0}, "noteCount": 0, "taggedNoteCount": 0, "notes": []}}, {"trackType": "Perc", "displayName": "Perc", "laneId": "registry:Perc", "runtimeTrackType": "Perc", "bindingKind": "backed", "laneName": "Perc", "laneGroup": "Perc", "laneDependency": "", "generationPriority": 68, "isCoreLane": true, "isRuntimeRegistryLane": true, "laneParams": {"enabled": true, "muted": false, "solo": false, "locked": false, "laneRole": "drill_texture", "laneVolume": 0.600000023841858, "selectedSampleIndex": 0, "selectedSampleName": "Drill Perc (2)", "sound": {"pan": 0.0, "width": 1.0, "eqTone": 0.0, "compression": 0.0, "reverb": 0.0, "gate": 0.0, "transient": 0.0, "drive": 0.0}, "noteCount": 0, "taggedNoteCount": 0, "notes": []}}, {"trackType": "Sub808", "displayName": "Sub808", "laneId": "registry:Sub808", "runtimeTrackType": "Sub808", "bindingKind": "backed", "laneName": "Sub808", "laneGroup": "Bass", "laneDependency": "Kick", "generationPriority": 82, "isCoreLane": true, "isRuntimeRegistryLane": true, "laneParams": {"enabled": true, "muted": false, "solo": false, "locked": false, "laneRole": "drill_sub", "laneVolume": 0.959999978542328, "selectedSampleIndex": 6, "selectedSampleName": "Diamond Wav - Cold 808", "sound": {"pan": 0.0, "width": 1.0, "eqTone": 0.0, "compression": 0.0, "reverb": 0.0, "gate": 0.0, "transient": 0.0, "drive": 0.0}, "noteCount": 22, "taggedNoteCount": 0, "notes": [{"pitch": 59, "step": 0, "lengthSteps": 12, "velocity": 100, "microOffsetTicks": 0, "startTick": 0, "lengthTicks": 2880, "barIndex": 0, "stepInBar": 0, "isGhost": false, "semanticRole": ""}, {"pitch": 66, "step": 24, "lengthSteps": 4, "velocity": 100, "microOffsetTicks": 0, "startTick": 5760, "lengthTicks": 960, "barIndex": 1, "stepInBar": 8, "isGhost": false, "semanticRole": ""}, {"pitch": 66, "step": 28, "lengthSteps": 2, "velocity": 100, "microOffsetTicks": 0, "startTick": 6720, "lengthTicks": 480, "barIndex": 1, "stepInBar": 12, "isGhost": false, "semanticRole": ""}, {"pitch": 71, "step": 28, "lengthSteps": 1, "velocity": 100, "microOffsetTicks": 0, "startTick": 6720, "lengthTicks": 240, "barIndex": 1, "stepInBar": 12, "isGhost": false, "semanticRole": ""}, {"pitch": 66, "step": 30, "lengthSteps": 1, "velocity": 100, "microOffsetTicks": 0, "startTick": 7200, "lengthTicks": 240, "barIndex": 1, "stepInBar": 14, "isGhost": false, "semanticRole": ""}, {"pitch": 59, "step": 32, "lengthSteps": 16, "velocity": 100, "microOffsetTicks": 0, "startTick": 7680, "lengthTicks": 3840, "barIndex": 2, "stepInBar": 0, "isGhost": false, "semanticRole": ""}, {"pitch": 59, "step": 56, "lengthSteps": 2, "velocity": 100, "microOffsetTicks": 0, "startTick": 13440, "lengthTicks": 480, "barIndex": 3, "stepInBar": 8, "isGhost": false, "semanticRole": ""}, {"pitch": 66, "step": 58, "lengthSteps": 2, "velocity": 100, "microOffsetTicks": 0, "startTick": 13920, "lengthTicks": 480, "barIndex": 3, "stepInBar": 10, "isGhost": false, "semanticRole": ""}, {"pitch": 59, "step": 60, "lengthSteps": 2, "velocity": 100, "microOffsetTicks": 0, "startTick": 14400, "lengthTicks": 480, "barIndex": 3, "stepInBar": 12, "isGhost": false, "semanticRole": ""}, {"pitch": 71, "step": 62, "lengthSteps": 2, "velocity": 100, "microOffsetTicks": 0, "startTick": 14880, "lengthTicks": 480, "barIndex": 3, "stepInBar": 14, "isGhost": false, "semanticRole": ""}, {"pitch": 64, "step": 64, "lengthSteps": 16, "velocity": 100, "microOffsetTicks": 0, "startTick": 15360, "lengthTicks": 3840, "barIndex": 4, "stepInBar": 0, "isGhost": false, "semanticRole": ""}, {"pitch": 59, "step": 88, "lengthSteps": 8, "velocity": 100, "microOffsetTicks": 0, "startTick": 21120, "lengthTicks": 1920, "barIndex": 5, "stepInBar": 8, "isGhost": false, "semanticRole": ""}, {"pitch": 74, "step": 90, "lengthSteps": 1, "velocity": 100, "microOffsetTicks": 0, "startTick": 21600, "lengthTicks": 240, "barIndex": 5, "stepInBar": 10, "isGhost": false, "semanticRole": ""}, {"pitch": 73, "step": 92, "lengthSteps": 1, "velocity": 100, "microOffsetTicks": 0, "startTick": 22080, "lengthTicks": 240, "barIndex": 5, "stepInBar": 12, "isGhost": false, "semanticRole": ""}, {"pitch": 66, "step": 94, "lengthSteps": 1, "velocity": 100, "microOffsetTicks": 0, "startTick": 22560, "lengthTicks": 240, "barIndex": 5, "stepInBar": 14, "isGhost": false, "semanticRole": ""}, {"pitch": 66, "step": 96, "lengthSteps": 16, "velocity": 100, "microOffsetTicks": 0, "startTick": 23040, "lengthTicks": 3840, "barIndex": 6, "stepInBar": 0, "isGhost": false, "semanticRole": ""}, {"pitch": 59, "step": 120, "lengthSteps": 2, "velocity": 100, "microOffsetTicks": 0, "startTick": 28800, "lengthTicks": 480, "barIndex": 7, "stepInBar": 8, "isGhost": false, "semanticRole": ""}, {"pitch": 71, "step": 120, "lengthSteps": 1, "velocity": 100, "microOffsetTicks": 0, "startTick": 28800, "lengthTicks": 240, "barIndex": 7, "stepInBar": 8, "isGhost": false, "semanticRole": ""}, {"pitch": 59, "step": 122, "lengthSteps": 2, "velocity": 100, "microOffsetTicks": 0, "startTick": 29280, "lengthTicks": 480, "barIndex": 7, "stepInBar": 10, "isGhost": false, "semanticRole": ""}, {"pitch": 79, "step": 122, "lengthSteps": 1, "velocity": 100, "microOffsetTicks": 0, "startTick": 29280, "lengthTicks": 240, "barIndex": 7, "stepInBar": 10, "isGhost": false, "semanticRole": ""}, {"pitch": 83, "step": 124, "lengthSteps": 2, "velocity": 100, "microOffsetTicks": 0, "startTick": 29760, "lengthTicks": 480, "barIndex": 7, "stepInBar": 12, "isGhost": false, "semanticRole": ""}, {"pitch": 71, "step": 126, "lengthSteps": 2, "velocity": 100, "microOffsetTicks": 0, "startTick": 30240, "lengthTicks": 480, "barIndex": 7, "stepInBar": 14, "isGhost": false, "semanticRole": ""}]}}], "totalRuntimeLaneCount": 11, "backedLaneCount": 11, "unbackedLaneCount": 0, "totalNotes": 86, "taggedNotes": 0}}