{"genre": "Drill", "substyle": "UKDrill", "bars": 8, "tempoMin": 136, "tempoMax": 148, "exportedAt": "2026-03-21T14:20:22.428+02:00", "conflictMessage": "", "laneLayoutSource": "PatternProject.runtime", "runtimeLaneOrder": ["registry:HiHat"], "laneLayout": [{"orderIndex": 0, "laneId": "registry:HiHat", "laneName": "HiHat", "groupName": "Hats", "dependencyName": "", "generationPriority": 86, "isCore": true, "isVisibleInEditor": true, "enabledByDefault": true, "supportsDragExport": true, "isGhostTrack": false, "defaultMidiNote": 42, "isRuntimeRegistryLane": true, "runtimeTrackType": "HiHat", "bindingKind": "backed", "hasBackingTrack": true, "laneParamsAvailable": true, "trackType": "HiHat", "laneParams": {"enabled": true, "muted": false, "solo": false, "locked": false, "laneRole": "drill_hat", "laneVolume": 0.850000023841858, "selectedSampleIndex": 0, "selectedSampleName": "Drill Hi-hat_1", "sound": {"pan": 0.0, "width": 1.0, "eqTone": 0.0, "compression": 0.0, "reverb": 0.0, "gate": 0.0, "transient": 0.0, "drive": 0.0}, "noteCount": 60, "taggedNoteCount": 0, "notes": [{"pitch": 42, "step": 0, "lengthSteps": 3, "velocity": 100, "microOffsetTicks": 0, "startTick": 0, "lengthTicks": 720, "barIndex": 0, "stepInBar": 0, "isGhost": false, "semanticRole": ""}, {"pitch": 42, "step": 3, "lengthSteps": 2, "velocity": 100, "microOffsetTicks": 0, "startTick": 720, "lengthTicks": 480, "barIndex": 0, "stepInBar": 3, "isGhost": false, "semanticRole": ""}, {"pitch": 42, "step": 5, "lengthSteps": 1, "velocity": 52, "microOffsetTicks": 0, "startTick": 1200, "lengthTicks": 240, "barIndex": 0, "stepInBar": 5, "isGhost": false, "semanticRole": ""}, {"pitch": 42, "step": 6, "lengthSteps": 2, "velocity": 100, "microOffsetTicks": 0, "startTick": 1440, "lengthTicks": 480, "barIndex": 0, "stepInBar": 6, "isGhost": false, "semanticRole": ""}, {"pitch": 42, "step": 8, "lengthSteps": 5, "velocity": 100, "microOffsetTicks": 0, "startTick": 1920, "lengthTicks": 1200, "barIndex": 0, "stepInBar": 8, "isGhost": false, "semanticRole": ""}, {"pitch": 42, "step": 13, "lengthSteps": 1, "velocity": 52, "microOffsetTicks": 0, "startTick": 3120, "lengthTicks": 240, "barIndex": 0, "stepInBar": 13, "isGhost": false, "semanticRole": ""}, {"pitch": 42, "step": 14, "lengthSteps": 2, "velocity": 100, "microOffsetTicks": 0, "startTick": 3360, "lengthTicks": 480, "barIndex": 0, "stepInBar": 14, "isGhost": false, "semanticRole": ""}, {"pitch": 42, "step": 16, "lengthSteps": 3, "velocity": 100, "microOffsetTicks": 0, "startTick": 3840, "lengthTicks": 720, "barIndex": 1, "stepInBar": 0, "isGhost": false, "semanticRole": ""}, {"pitch": 42, "step": 19, "lengthSteps": 3, "velocity": 100, "microOffsetTicks": 0, "startTick": 4560, "lengthTicks": 720, "barIndex": 1, "stepInBar": 3, "isGhost": false, "semanticRole": ""}, {"pitch": 42, "step": 22, "lengthSteps": 2, "velocity": 100, "microOffsetTicks": 0, "startTick": 5280, "lengthTicks": 480, "barIndex": 1, "stepInBar": 6, "isGhost": false, "semanticRole": ""}, {"pitch": 42, "step": 24, "lengthSteps": 1, "velocity": 100, "microOffsetTicks": 0, "startTick": 5760, "lengthTicks": 240, "barIndex": 1, "stepInBar": 8, "isGhost": false, "semanticRole": ""}, {"pitch": 42, "step": 25, "lengthSteps": 2, "velocity": 52, "microOffsetTicks": 0, "startTick": 6000, "lengthTicks": 480, "barIndex": 1, "stepInBar": 9, "isGhost": false, "semanticRole": ""}, {"pitch": 42, "step": 26, "lengthSteps": 64, "velocity": 82, "microOffsetTicks": 0, "startTick": 6240, "lengthTicks": 15360, "barIndex": 1, "stepInBar": 10, "isGhost": false, "semanticRole": ""}, {"pitch": 42, "step": 27, "lengthSteps": 3, "velocity": 100, "microOffsetTicks": 0, "startTick": 6480, "lengthTicks": 720, "barIndex": 1, "stepInBar": 11, "isGhost": false, "semanticRole": ""}, {"pitch": 42, "step": 30, "lengthSteps": 2, "velocity": 100, "microOffsetTicks": 0, "startTick": 7200, "lengthTicks": 480, "barIndex": 1, "stepInBar": 14, "isGhost": false, "semanticRole": ""}, {"pitch": 42, "step": 32, "lengthSteps": 3, "velocity": 100, "microOffsetTicks": 0, "startTick": 7680, "lengthTicks": 720, "barIndex": 2, "stepInBar": 0, "isGhost": false, "semanticRole": ""}, {"pitch": 42, "step": 35, "lengthSteps": 2, "velocity": 100, "microOffsetTicks": 0, "startTick": 8400, "lengthTicks": 480, "barIndex": 2, "stepInBar": 3, "isGhost": false, "semanticRole": ""}, {"pitch": 42, "step": 37, "lengthSteps": 1, "velocity": 56, "microOffsetTicks": 0, "startTick": 8880, "lengthTicks": 240, "barIndex": 2, "stepInBar": 5, "isGhost": false, "semanticRole": ""}, {"pitch": 42, "step": 38, "lengthSteps": 2, "velocity": 100, "microOffsetTicks": 0, "startTick": 9120, "lengthTicks": 480, "barIndex": 2, "stepInBar": 6, "isGhost": false, "semanticRole": ""}, {"pitch": 42, "step": 40, "lengthSteps": 4, "velocity": 100, "microOffsetTicks": 0, "startTick": 9600, "lengthTicks": 960, "barIndex": 2, "stepInBar": 8, "isGhost": false, "semanticRole": ""}, {"pitch": 42, "step": 44, "lengthSteps": 2, "velocity": 56, "microOffsetTicks": 0, "startTick": 10560, "lengthTicks": 480, "barIndex": 2, "stepInBar": 12, "isGhost": false, "semanticRole": ""}, {"pitch": 42, "step": 46, "lengthSteps": 2, "velocity": 100, "microOffsetTicks": 0, "startTick": 11040, "lengthTicks": 480, "barIndex": 2, "stepInBar": 14, "isGhost": false, "semanticRole": ""}, {"pitch": 42, "step": 48, "lengthSteps": 3, "velocity": 100, "microOffsetTicks": 0, "startTick": 11520, "lengthTicks": 720, "barIndex": 3, "stepInBar": 0, "isGhost": false, "semanticRole": ""}, {"pitch": 42, "step": 51, "lengthSteps": 3, "velocity": 100, "microOffsetTicks": 0, "startTick": 12240, "lengthTicks": 720, "barIndex": 3, "stepInBar": 3, "isGhost": false, "semanticRole": ""}, {"pitch": 42, "step": 54, "lengthSteps": 2, "velocity": 100, "microOffsetTicks": 0, "startTick": 12960, "lengthTicks": 480, "barIndex": 3, "stepInBar": 6, "isGhost": false, "semanticRole": ""}, {"pitch": 42, "step": 56, "lengthSteps": 2, "velocity": 100, "microOffsetTicks": 0, "startTick": 13440, "lengthTicks": 480, "barIndex": 3, "stepInBar": 8, "isGhost": false, "semanticRole": ""}, {"pitch": 42, "step": 58, "lengthSteps": 1, "velocity": 56, "microOffsetTicks": 0, "startTick": 13920, "lengthTicks": 240, "barIndex": 3, "stepInBar": 10, "isGhost": false, "semanticRole": ""}, {"pitch": 42, "step": 59, "lengthSteps": 3, "velocity": 100, "microOffsetTicks": 0, "startTick": 14160, "lengthTicks": 720, "barIndex": 3, "stepInBar": 11, "isGhost": false, "semanticRole": ""}, {"pitch": 42, "step": 62, "lengthSteps": 2, "velocity": 100, "microOffsetTicks": 0, "startTick": 14880, "lengthTicks": 480, "barIndex": 3, "stepInBar": 14, "isGhost": false, "semanticRole": ""}, {"pitch": 42, "step": 64, "lengthSteps": 3, "velocity": 100, "microOffsetTicks": 0, "startTick": 15360, "lengthTicks": 720, "barIndex": 4, "stepInBar": 0, "isGhost": false, "semanticRole": ""}, {"pitch": 42, "step": 67, "lengthSteps": 2, "velocity": 100, "microOffsetTicks": 0, "startTick": 16080, "lengthTicks": 480, "barIndex": 4, "stepInBar": 3, "isGhost": false, "semanticRole": ""}, {"pitch": 42, "step": 69, "lengthSteps": 1, "velocity": 52, "microOffsetTicks": 0, "startTick": 16560, "lengthTicks": 240, "barIndex": 4, "stepInBar": 5, "isGhost": false, "semanticRole": ""}, {"pitch": 42, "step": 70, "lengthSteps": 2, "velocity": 100, "microOffsetTicks": 0, "startTick": 16800, "lengthTicks": 480, "barIndex": 4, "stepInBar": 6, "isGhost": false, "semanticRole": ""}, {"pitch": 42, "step": 72, "lengthSteps": 5, "velocity": 100, "microOffsetTicks": 0, "startTick": 17280, "lengthTicks": 1200, "barIndex": 4, "stepInBar": 8, "isGhost": false, "semanticRole": ""}, {"pitch": 42, "step": 77, "lengthSteps": 1, "velocity": 52, "microOffsetTicks": 0, "startTick": 18480, "lengthTicks": 240, "barIndex": 4, "stepInBar": 13, "isGhost": false, "semanticRole": ""}, {"pitch": 42, "step": 78, "lengthSteps": 2, "velocity": 100, "microOffsetTicks": 0, "startTick": 18720, "lengthTicks": 480, "barIndex": 4, "stepInBar": 14, "isGhost": false, "semanticRole": ""}, {"pitch": 42, "step": 80, "lengthSteps": 3, "velocity": 100, "microOffsetTicks": 0, "startTick": 19200, "lengthTicks": 720, "barIndex": 5, "stepInBar": 0, "isGhost": false, "semanticRole": ""}, {"pitch": 42, "step": 83, "lengthSteps": 3, "velocity": 100, "microOffsetTicks": 0, "startTick": 19920, "lengthTicks": 720, "barIndex": 5, "stepInBar": 3, "isGhost": false, "semanticRole": ""}, {"pitch": 42, "step": 86, "lengthSteps": 2, "velocity": 100, "microOffsetTicks": 0, "startTick": 20640, "lengthTicks": 480, "barIndex": 5, "stepInBar": 6, "isGhost": false, "semanticRole": ""}, {"pitch": 42, "step": 88, "lengthSteps": 1, "velocity": 100, "microOffsetTicks": 0, "startTick": 21120, "lengthTicks": 240, "barIndex": 5, "stepInBar": 8, "isGhost": false, "semanticRole": ""}, {"pitch": 42, "step": 89, "lengthSteps": 2, "velocity": 52, "microOffsetTicks": 0, "startTick": 21360, "lengthTicks": 480, "barIndex": 5, "stepInBar": 9, "isGhost": false, "semanticRole": ""}, {"pitch": 42, "step": 90, "lengthSteps": 1, "velocity": 82, "microOffsetTicks": 0, "startTick": 21600, "lengthTicks": 240, "barIndex": 5, "stepInBar": 10, "isGhost": false, "semanticRole": ""}, {"pitch": 42, "step": 91, "lengthSteps": 3, "velocity": 100, "microOffsetTicks": 0, "startTick": 21840, "lengthTicks": 720, "barIndex": 5, "stepInBar": 11, "isGhost": false, "semanticRole": ""}, {"pitch": 42, "step": 94, "lengthSteps": 2, "velocity": 100, "microOffsetTicks": 0, "startTick": 22560, "lengthTicks": 480, "barIndex": 5, "stepInBar": 14, "isGhost": false, "semanticRole": ""}, {"pitch": 42, "step": 96, "lengthSteps": 3, "velocity": 100, "microOffsetTicks": 0, "startTick": 23040, "lengthTicks": 720, "barIndex": 6, "stepInBar": 0, "isGhost": false, "semanticRole": ""}, {"pitch": 42, "step": 99, "lengthSteps": 2, "velocity": 100, "microOffsetTicks": 0, "startTick": 23760, "lengthTicks": 480, "barIndex": 6, "stepInBar": 3, "isGhost": false, "semanticRole": ""}, {"pitch": 42, "step": 101, "lengthSteps": 1, "velocity": 56, "microOffsetTicks": 0, "startTick": 24240, "lengthTicks": 240, "barIndex": 6, "stepInBar": 5, "isGhost": false, "semanticRole": ""}, {"pitch": 42, "step": 102, "lengthSteps": 2, "velocity": 100, "microOffsetTicks": 0, "startTick": 24480, "lengthTicks": 480, "barIndex": 6, "stepInBar": 6, "isGhost": false, "semanticRole": ""}, {"pitch": 42, "step": 104, "lengthSteps": 4, "velocity": 100, "microOffsetTicks": 0, "startTick": 24960, "lengthTicks": 960, "barIndex": 6, "stepInBar": 8, "isGhost": false, "semanticRole": ""}, {"pitch": 42, "step": 108, "lengthSteps": 2, "velocity": 56, "microOffsetTicks": 0, "startTick": 25920, "lengthTicks": 480, "barIndex": 6, "stepInBar": 12, "isGhost": false, "semanticRole": ""}, {"pitch": 42, "step": 110, "lengthSteps": 2, "velocity": 100, "microOffsetTicks": 0, "startTick": 26400, "lengthTicks": 480, "barIndex": 6, "stepInBar": 14, "isGhost": false, "semanticRole": ""}, {"pitch": 42, "step": 112, "lengthSteps": 3, "velocity": 100, "microOffsetTicks": 0, "startTick": 26880, "lengthTicks": 720, "barIndex": 7, "stepInBar": 0, "isGhost": false, "semanticRole": ""}, {"pitch": 42, "step": 115, "lengthSteps": 3, "velocity": 100, "microOffsetTicks": 0, "startTick": 27600, "lengthTicks": 720, "barIndex": 7, "stepInBar": 3, "isGhost": false, "semanticRole": ""}, {"pitch": 42, "step": 118, "lengthSteps": 2, "velocity": 100, "microOffsetTicks": 0, "startTick": 28320, "lengthTicks": 480, "barIndex": 7, "stepInBar": 6, "isGhost": false, "semanticRole": ""}, {"pitch": 42, "step": 120, "lengthSteps": 1, "velocity": 100, "microOffsetTicks": 0, "startTick": 28800, "lengthTicks": 240, "barIndex": 7, "stepInBar": 8, "isGhost": false, "semanticRole": ""}, {"pitch": 42, "step": 121, "lengthSteps": 1, "velocity": 65, "microOffsetTicks": 0, "startTick": 29040, "lengthTicks": 240, "barIndex": 7, "stepInBar": 9, "isGhost": false, "semanticRole": ""}, {"pitch": 42, "step": 122, "lengthSteps": 1, "velocity": 74, "microOffsetTicks": 0, "startTick": 29280, "lengthTicks": 240, "barIndex": 7, "stepInBar": 10, "isGhost": false, "semanticRole": ""}, {"pitch": 42, "step": 123, "lengthSteps": 1, "velocity": 100, "microOffsetTicks": 0, "startTick": 29520, "lengthTicks": 240, "barIndex": 7, "stepInBar": 11, "isGhost": false, "semanticRole": ""}, {"pitch": 42, "step": 124, "lengthSteps": 2, "velocity": 74, "microOffsetTicks": 0, "startTick": 29760, "lengthTicks": 480, "barIndex": 7, "stepInBar": 12, "isGhost": false, "semanticRole": ""}, {"pitch": 42, "step": 126, "lengthSteps": 1, "velocity": 100, "microOffsetTicks": 0, "startTick": 30240, "lengthTicks": 240, "barIndex": 7, "stepInBar": 14, "isGhost": false, "semanticRole": ""}]}}], "designerLaneLayout": [{"id": "registry:HiHat", "laneName": "HiHat", "groupName": "Hats", "dependencyName": "", "generationPriority": 86, "isCore": true, "enabled": true, "isRuntimeRegistryLane": true, "runtimeTrackType": "HiHat"}], "referenceProject": {"bpm": 142.0, "swingPercent": 50.0, "bars": 8, "phraseLengthBars": 8, "phraseRoleSummary": "statement|ending", "previewStartStep": 0, "selectedTrackIndex": 0, "soundModuleTrackIndex": -1, "globalSound": {"pan": 0.0, "width": 1.0, "eqTone": -0.150000005960464, "compression": 0.0, "reverb": 0.0, "gate": 0.0, "transient": 0.0, "drive": 0.0}, "runtimeLaneOrder": ["registry:HiHat"], "runtimeLaneLayout": [{"orderIndex": 0, "laneId": "registry:HiHat", "laneName": "HiHat", "groupName": "Hats", "dependencyName": "", "generationPriority": 86, "isCore": true, "isVisibleInEditor": true, "enabledByDefault": true, "supportsDragExport": true, "isGhostTrack": false, "defaultMidiNote": 42, "isRuntimeRegistryLane": true, "runtimeTrackType": "HiHat", "bindingKind": "backed", "hasBackingTrack": true, "laneParamsAvailable": true, "trackType": "HiHat", "laneParams": {"enabled": true, "muted": false, "solo": false, "locked": false, "laneRole": "drill_hat", "laneVolume": 0.850000023841858, "selectedSampleIndex": 0, "selectedSampleName": "Drill Hi-hat_1", "sound": {"pan": 0.0, "width": 1.0, "eqTone": 0.0, "compression": 0.0, "reverb": 0.0, "gate": 0.0, "transient": 0.0, "drive": 0.0}, "noteCount": 60, "taggedNoteCount": 0, "notes": [{"pitch": 42, "step": 0, "lengthSteps": 3, "velocity": 100, "microOffsetTicks": 0, "startTick": 0, "lengthTicks": 720, "barIndex": 0, "stepInBar": 0, "isGhost": false, "semanticRole": ""}, {"pitch": 42, "step": 3, "lengthSteps": 2, "velocity": 100, "microOffsetTicks": 0, "startTick": 720, "lengthTicks": 480, "barIndex": 0, "stepInBar": 3, "isGhost": false, "semanticRole": ""}, {"pitch": 42, "step": 5, "lengthSteps": 1, "velocity": 52, "microOffsetTicks": 0, "startTick": 1200, "lengthTicks": 240, "barIndex": 0, "stepInBar": 5, "isGhost": false, "semanticRole": ""}, {"pitch": 42, "step": 6, "lengthSteps": 2, "velocity": 100, "microOffsetTicks": 0, "startTick": 1440, "lengthTicks": 480, "barIndex": 0, "stepInBar": 6, "isGhost": false, "semanticRole": ""}, {"pitch": 42, "step": 8, "lengthSteps": 5, "velocity": 100, "microOffsetTicks": 0, "startTick": 1920, "lengthTicks": 1200, "barIndex": 0, "stepInBar": 8, "isGhost": false, "semanticRole": ""}, {"pitch": 42, "step": 13, "lengthSteps": 1, "velocity": 52, "microOffsetTicks": 0, "startTick": 3120, "lengthTicks": 240, "barIndex": 0, "stepInBar": 13, "isGhost": false, "semanticRole": ""}, {"pitch": 42, "step": 14, "lengthSteps": 2, "velocity": 100, "microOffsetTicks": 0, "startTick": 3360, "lengthTicks": 480, "barIndex": 0, "stepInBar": 14, "isGhost": false, "semanticRole": ""}, {"pitch": 42, "step": 16, "lengthSteps": 3, "velocity": 100, "microOffsetTicks": 0, "startTick": 3840, "lengthTicks": 720, "barIndex": 1, "stepInBar": 0, "isGhost": false, "semanticRole": ""}, {"pitch": 42, "step": 19, "lengthSteps": 3, "velocity": 100, "microOffsetTicks": 0, "startTick": 4560, "lengthTicks": 720, "barIndex": 1, "stepInBar": 3, "isGhost": false, "semanticRole": ""}, {"pitch": 42, "step": 22, "lengthSteps": 2, "velocity": 100, "microOffsetTicks": 0, "startTick": 5280, "lengthTicks": 480, "barIndex": 1, "stepInBar": 6, "isGhost": false, "semanticRole": ""}, {"pitch": 42, "step": 24, "lengthSteps": 1, "velocity": 100, "microOffsetTicks": 0, "startTick": 5760, "lengthTicks": 240, "barIndex": 1, "stepInBar": 8, "isGhost": false, "semanticRole": ""}, {"pitch": 42, "step": 25, "lengthSteps": 2, "velocity": 52, "microOffsetTicks": 0, "startTick": 6000, "lengthTicks": 480, "barIndex": 1, "stepInBar": 9, "isGhost": false, "semanticRole": ""}, {"pitch": 42, "step": 26, "lengthSteps": 64, "velocity": 82, "microOffsetTicks": 0, "startTick": 6240, "lengthTicks": 15360, "barIndex": 1, "stepInBar": 10, "isGhost": false, "semanticRole": ""}, {"pitch": 42, "step": 27, "lengthSteps": 3, "velocity": 100, "microOffsetTicks": 0, "startTick": 6480, "lengthTicks": 720, "barIndex": 1, "stepInBar": 11, "isGhost": false, "semanticRole": ""}, {"pitch": 42, "step": 30, "lengthSteps": 2, "velocity": 100, "microOffsetTicks": 0, "startTick": 7200, "lengthTicks": 480, "barIndex": 1, "stepInBar": 14, "isGhost": false, "semanticRole": ""}, {"pitch": 42, "step": 32, "lengthSteps": 3, "velocity": 100, "microOffsetTicks": 0, "startTick": 7680, "lengthTicks": 720, "barIndex": 2, "stepInBar": 0, "isGhost": false, "semanticRole": ""}, {"pitch": 42, "step": 35, "lengthSteps": 2, "velocity": 100, "microOffsetTicks": 0, "startTick": 8400, "lengthTicks": 480, "barIndex": 2, "stepInBar": 3, "isGhost": false, "semanticRole": ""}, {"pitch": 42, "step": 37, "lengthSteps": 1, "velocity": 56, "microOffsetTicks": 0, "startTick": 8880, "lengthTicks": 240, "barIndex": 2, "stepInBar": 5, "isGhost": false, "semanticRole": ""}, {"pitch": 42, "step": 38, "lengthSteps": 2, "velocity": 100, "microOffsetTicks": 0, "startTick": 9120, "lengthTicks": 480, "barIndex": 2, "stepInBar": 6, "isGhost": false, "semanticRole": ""}, {"pitch": 42, "step": 40, "lengthSteps": 4, "velocity": 100, "microOffsetTicks": 0, "startTick": 9600, "lengthTicks": 960, "barIndex": 2, "stepInBar": 8, "isGhost": false, "semanticRole": ""}, {"pitch": 42, "step": 44, "lengthSteps": 2, "velocity": 56, "microOffsetTicks": 0, "startTick": 10560, "lengthTicks": 480, "barIndex": 2, "stepInBar": 12, "isGhost": false, "semanticRole": ""}, {"pitch": 42, "step": 46, "lengthSteps": 2, "velocity": 100, "microOffsetTicks": 0, "startTick": 11040, "lengthTicks": 480, "barIndex": 2, "stepInBar": 14, "isGhost": false, "semanticRole": ""}, {"pitch": 42, "step": 48, "lengthSteps": 3, "velocity": 100, "microOffsetTicks": 0, "startTick": 11520, "lengthTicks": 720, "barIndex": 3, "stepInBar": 0, "isGhost": false, "semanticRole": ""}, {"pitch": 42, "step": 51, "lengthSteps": 3, "velocity": 100, "microOffsetTicks": 0, "startTick": 12240, "lengthTicks": 720, "barIndex": 3, "stepInBar": 3, "isGhost": false, "semanticRole": ""}, {"pitch": 42, "step": 54, "lengthSteps": 2, "velocity": 100, "microOffsetTicks": 0, "startTick": 12960, "lengthTicks": 480, "barIndex": 3, "stepInBar": 6, "isGhost": false, "semanticRole": ""}, {"pitch": 42, "step": 56, "lengthSteps": 2, "velocity": 100, "microOffsetTicks": 0, "startTick": 13440, "lengthTicks": 480, "barIndex": 3, "stepInBar": 8, "isGhost": false, "semanticRole": ""}, {"pitch": 42, "step": 58, "lengthSteps": 1, "velocity": 56, "microOffsetTicks": 0, "startTick": 13920, "lengthTicks": 240, "barIndex": 3, "stepInBar": 10, "isGhost": false, "semanticRole": ""}, {"pitch": 42, "step": 59, "lengthSteps": 3, "velocity": 100, "microOffsetTicks": 0, "startTick": 14160, "lengthTicks": 720, "barIndex": 3, "stepInBar": 11, "isGhost": false, "semanticRole": ""}, {"pitch": 42, "step": 62, "lengthSteps": 2, "velocity": 100, "microOffsetTicks": 0, "startTick": 14880, "lengthTicks": 480, "barIndex": 3, "stepInBar": 14, "isGhost": false, "semanticRole": ""}, {"pitch": 42, "step": 64, "lengthSteps": 3, "velocity": 100, "microOffsetTicks": 0, "startTick": 15360, "lengthTicks": 720, "barIndex": 4, "stepInBar": 0, "isGhost": false, "semanticRole": ""}, {"pitch": 42, "step": 67, "lengthSteps": 2, "velocity": 100, "microOffsetTicks": 0, "startTick": 16080, "lengthTicks": 480, "barIndex": 4, "stepInBar": 3, "isGhost": false, "semanticRole": ""}, {"pitch": 42, "step": 69, "lengthSteps": 1, "velocity": 52, "microOffsetTicks": 0, "startTick": 16560, "lengthTicks": 240, "barIndex": 4, "stepInBar": 5, "isGhost": false, "semanticRole": ""}, {"pitch": 42, "step": 70, "lengthSteps": 2, "velocity": 100, "microOffsetTicks": 0, "startTick": 16800, "lengthTicks": 480, "barIndex": 4, "stepInBar": 6, "isGhost": false, "semanticRole": ""}, {"pitch": 42, "step": 72, "lengthSteps": 5, "velocity": 100, "microOffsetTicks": 0, "startTick": 17280, "lengthTicks": 1200, "barIndex": 4, "stepInBar": 8, "isGhost": false, "semanticRole": ""}, {"pitch": 42, "step": 77, "lengthSteps": 1, "velocity": 52, "microOffsetTicks": 0, "startTick": 18480, "lengthTicks": 240, "barIndex": 4, "stepInBar": 13, "isGhost": false, "semanticRole": ""}, {"pitch": 42, "step": 78, "lengthSteps": 2, "velocity": 100, "microOffsetTicks": 0, "startTick": 18720, "lengthTicks": 480, "barIndex": 4, "stepInBar": 14, "isGhost": false, "semanticRole": ""}, {"pitch": 42, "step": 80, "lengthSteps": 3, "velocity": 100, "microOffsetTicks": 0, "startTick": 19200, "lengthTicks": 720, "barIndex": 5, "stepInBar": 0, "isGhost": false, "semanticRole": ""}, {"pitch": 42, "step": 83, "lengthSteps": 3, "velocity": 100, "microOffsetTicks": 0, "startTick": 19920, "lengthTicks": 720, "barIndex": 5, "stepInBar": 3, "isGhost": false, "semanticRole": ""}, {"pitch": 42, "step": 86, "lengthSteps": 2, "velocity": 100, "microOffsetTicks": 0, "startTick": 20640, "lengthTicks": 480, "barIndex": 5, "stepInBar": 6, "isGhost": false, "semanticRole": ""}, {"pitch": 42, "step": 88, "lengthSteps": 1, "velocity": 100, "microOffsetTicks": 0, "startTick": 21120, "lengthTicks": 240, "barIndex": 5, "stepInBar": 8, "isGhost": false, "semanticRole": ""}, {"pitch": 42, "step": 89, "lengthSteps": 2, "velocity": 52, "microOffsetTicks": 0, "startTick": 21360, "lengthTicks": 480, "barIndex": 5, "stepInBar": 9, "isGhost": false, "semanticRole": ""}, {"pitch": 42, "step": 90, "lengthSteps": 1, "velocity": 82, "microOffsetTicks": 0, "startTick": 21600, "lengthTicks": 240, "barIndex": 5, "stepInBar": 10, "isGhost": false, "semanticRole": ""}, {"pitch": 42, "step": 91, "lengthSteps": 3, "velocity": 100, "microOffsetTicks": 0, "startTick": 21840, "lengthTicks": 720, "barIndex": 5, "stepInBar": 11, "isGhost": false, "semanticRole": ""}, {"pitch": 42, "step": 94, "lengthSteps": 2, "velocity": 100, "microOffsetTicks": 0, "startTick": 22560, "lengthTicks": 480, "barIndex": 5, "stepInBar": 14, "isGhost": false, "semanticRole": ""}, {"pitch": 42, "step": 96, "lengthSteps": 3, "velocity": 100, "microOffsetTicks": 0, "startTick": 23040, "lengthTicks": 720, "barIndex": 6, "stepInBar": 0, "isGhost": false, "semanticRole": ""}, {"pitch": 42, "step": 99, "lengthSteps": 2, "velocity": 100, "microOffsetTicks": 0, "startTick": 23760, "lengthTicks": 480, "barIndex": 6, "stepInBar": 3, "isGhost": false, "semanticRole": ""}, {"pitch": 42, "step": 101, "lengthSteps": 1, "velocity": 56, "microOffsetTicks": 0, "startTick": 24240, "lengthTicks": 240, "barIndex": 6, "stepInBar": 5, "isGhost": false, "semanticRole": ""}, {"pitch": 42, "step": 102, "lengthSteps": 2, "velocity": 100, "microOffsetTicks": 0, "startTick": 24480, "lengthTicks": 480, "barIndex": 6, "stepInBar": 6, "isGhost": false, "semanticRole": ""}, {"pitch": 42, "step": 104, "lengthSteps": 4, "velocity": 100, "microOffsetTicks": 0, "startTick": 24960, "lengthTicks": 960, "barIndex": 6, "stepInBar": 8, "isGhost": false, "semanticRole": ""}, {"pitch": 42, "step": 108, "lengthSteps": 2, "velocity": 56, "microOffsetTicks": 0, "startTick": 25920, "lengthTicks": 480, "barIndex": 6, "stepInBar": 12, "isGhost": false, "semanticRole": ""}, {"pitch": 42, "step": 110, "lengthSteps": 2, "velocity": 100, "microOffsetTicks": 0, "startTick": 26400, "lengthTicks": 480, "barIndex": 6, "stepInBar": 14, "isGhost": false, "semanticRole": ""}, {"pitch": 42, "step": 112, "lengthSteps": 3, "velocity": 100, "microOffsetTicks": 0, "startTick": 26880, "lengthTicks": 720, "barIndex": 7, "stepInBar": 0, "isGhost": false, "semanticRole": ""}, {"pitch": 42, "step": 115, "lengthSteps": 3, "velocity": 100, "microOffsetTicks": 0, "startTick": 27600, "lengthTicks": 720, "barIndex": 7, "stepInBar": 3, "isGhost": false, "semanticRole": ""}, {"pitch": 42, "step": 118, "lengthSteps": 2, "velocity": 100, "microOffsetTicks": 0, "startTick": 28320, "lengthTicks": 480, "barIndex": 7, "stepInBar": 6, "isGhost": false, "semanticRole": ""}, {"pitch": 42, "step": 120, "lengthSteps": 1, "velocity": 100, "microOffsetTicks": 0, "startTick": 28800, "lengthTicks": 240, "barIndex": 7, "stepInBar": 8, "isGhost": false, "semanticRole": ""}, {"pitch": 42, "step": 121, "lengthSteps": 1, "velocity": 65, "microOffsetTicks": 0, "startTick": 29040, "lengthTicks": 240, "barIndex": 7, "stepInBar": 9, "isGhost": false, "semanticRole": ""}, {"pitch": 42, "step": 122, "lengthSteps": 1, "velocity": 74, "microOffsetTicks": 0, "startTick": 29280, "lengthTicks": 240, "barIndex": 7, "stepInBar": 10, "isGhost": false, "semanticRole": ""}, {"pitch": 42, "step": 123, "lengthSteps": 1, "velocity": 100, "microOffsetTicks": 0, "startTick": 29520, "lengthTicks": 240, "barIndex": 7, "stepInBar": 11, "isGhost": false, "semanticRole": ""}, {"pitch": 42, "step": 124, "lengthSteps": 2, "velocity": 74, "microOffsetTicks": 0, "startTick": 29760, "lengthTicks": 480, "barIndex": 7, "stepInBar": 12, "isGhost": false, "semanticRole": ""}, {"pitch": 42, "step": 126, "lengthSteps": 1, "velocity": 100, "microOffsetTicks": 0, "startTick": 30240, "lengthTicks": 240, "barIndex": 7, "stepInBar": 14, "isGhost": false, "semanticRole": ""}]}}], "selectedTrackLaneId": "registry:HiHat", "soundModuleTrackLaneId": "", "tracks": [{"trackType": "HiHat", "displayName": "HiHat", "laneId": "registry:HiHat", "runtimeTrackType": "HiHat", "bindingKind": "backed", "laneName": "HiHat", "laneGroup": "Hats", "laneDependency": "", "generationPriority": 86, "isCoreLane": true, "isRuntimeRegistryLane": true, "laneParams": {"enabled": true, "muted": false, "solo": false, "locked": false, "laneRole": "drill_hat", "laneVolume": 0.850000023841858, "selectedSampleIndex": 0, "selectedSampleName": "Drill Hi-hat_1", "sound": {"pan": 0.0, "width": 1.0, "eqTone": 0.0, "compression": 0.0, "reverb": 0.0, "gate": 0.0, "transient": 0.0, "drive": 0.0}, "noteCount": 60, "taggedNoteCount": 0, "notes": [{"pitch": 42, "step": 0, "lengthSteps": 3, "velocity": 100, "microOffsetTicks": 0, "startTick": 0, "lengthTicks": 720, "barIndex": 0, "stepInBar": 0, "isGhost": false, "semanticRole": ""}, {"pitch": 42, "step": 3, "lengthSteps": 2, "velocity": 100, "microOffsetTicks": 0, "startTick": 720, "lengthTicks": 480, "barIndex": 0, "stepInBar": 3, "isGhost": false, "semanticRole": ""}, {"pitch": 42, "step": 5, "lengthSteps": 1, "velocity": 52, "microOffsetTicks": 0, "startTick": 1200, "lengthTicks": 240, "barIndex": 0, "stepInBar": 5, "isGhost": false, "semanticRole": ""}, {"pitch": 42, "step": 6, "lengthSteps": 2, "velocity": 100, "microOffsetTicks": 0, "startTick": 1440, "lengthTicks": 480, "barIndex": 0, "stepInBar": 6, "isGhost": false, "semanticRole": ""}, {"pitch": 42, "step": 8, "lengthSteps": 5, "velocity": 100, "microOffsetTicks": 0, "startTick": 1920, "lengthTicks": 1200, "barIndex": 0, "stepInBar": 8, "isGhost": false, "semanticRole": ""}, {"pitch": 42, "step": 13, "lengthSteps": 1, "velocity": 52, "microOffsetTicks": 0, "startTick": 3120, "lengthTicks": 240, "barIndex": 0, "stepInBar": 13, "isGhost": false, "semanticRole": ""}, {"pitch": 42, "step": 14, "lengthSteps": 2, "velocity": 100, "microOffsetTicks": 0, "startTick": 3360, "lengthTicks": 480, "barIndex": 0, "stepInBar": 14, "isGhost": false, "semanticRole": ""}, {"pitch": 42, "step": 16, "lengthSteps": 3, "velocity": 100, "microOffsetTicks": 0, "startTick": 3840, "lengthTicks": 720, "barIndex": 1, "stepInBar": 0, "isGhost": false, "semanticRole": ""}, {"pitch": 42, "step": 19, "lengthSteps": 3, "velocity": 100, "microOffsetTicks": 0, "startTick": 4560, "lengthTicks": 720, "barIndex": 1, "stepInBar": 3, "isGhost": false, "semanticRole": ""}, {"pitch": 42, "step": 22, "lengthSteps": 2, "velocity": 100, "microOffsetTicks": 0, "startTick": 5280, "lengthTicks": 480, "barIndex": 1, "stepInBar": 6, "isGhost": false, "semanticRole": ""}, {"pitch": 42, "step": 24, "lengthSteps": 1, "velocity": 100, "microOffsetTicks": 0, "startTick": 5760, "lengthTicks": 240, "barIndex": 1, "stepInBar": 8, "isGhost": false, "semanticRole": ""}, {"pitch": 42, "step": 25, "lengthSteps": 2, "velocity": 52, "microOffsetTicks": 0, "startTick": 6000, "lengthTicks": 480, "barIndex": 1, "stepInBar": 9, "isGhost": false, "semanticRole": ""}, {"pitch": 42, "step": 26, "lengthSteps": 64, "velocity": 82, "microOffsetTicks": 0, "startTick": 6240, "lengthTicks": 15360, "barIndex": 1, "stepInBar": 10, "isGhost": false, "semanticRole": ""}, {"pitch": 42, "step": 27, "lengthSteps": 3, "velocity": 100, "microOffsetTicks": 0, "startTick": 6480, "lengthTicks": 720, "barIndex": 1, "stepInBar": 11, "isGhost": false, "semanticRole": ""}, {"pitch": 42, "step": 30, "lengthSteps": 2, "velocity": 100, "microOffsetTicks": 0, "startTick": 7200, "lengthTicks": 480, "barIndex": 1, "stepInBar": 14, "isGhost": false, "semanticRole": ""}, {"pitch": 42, "step": 32, "lengthSteps": 3, "velocity": 100, "microOffsetTicks": 0, "startTick": 7680, "lengthTicks": 720, "barIndex": 2, "stepInBar": 0, "isGhost": false, "semanticRole": ""}, {"pitch": 42, "step": 35, "lengthSteps": 2, "velocity": 100, "microOffsetTicks": 0, "startTick": 8400, "lengthTicks": 480, "barIndex": 2, "stepInBar": 3, "isGhost": false, "semanticRole": ""}, {"pitch": 42, "step": 37, "lengthSteps": 1, "velocity": 56, "microOffsetTicks": 0, "startTick": 8880, "lengthTicks": 240, "barIndex": 2, "stepInBar": 5, "isGhost": false, "semanticRole": ""}, {"pitch": 42, "step": 38, "lengthSteps": 2, "velocity": 100, "microOffsetTicks": 0, "startTick": 9120, "lengthTicks": 480, "barIndex": 2, "stepInBar": 6, "isGhost": false, "semanticRole": ""}, {"pitch": 42, "step": 40, "lengthSteps": 4, "velocity": 100, "microOffsetTicks": 0, "startTick": 9600, "lengthTicks": 960, "barIndex": 2, "stepInBar": 8, "isGhost": false, "semanticRole": ""}, {"pitch": 42, "step": 44, "lengthSteps": 2, "velocity": 56, "microOffsetTicks": 0, "startTick": 10560, "lengthTicks": 480, "barIndex": 2, "stepInBar": 12, "isGhost": false, "semanticRole": ""}, {"pitch": 42, "step": 46, "lengthSteps": 2, "velocity": 100, "microOffsetTicks": 0, "startTick": 11040, "lengthTicks": 480, "barIndex": 2, "stepInBar": 14, "isGhost": false, "semanticRole": ""}, {"pitch": 42, "step": 48, "lengthSteps": 3, "velocity": 100, "microOffsetTicks": 0, "startTick": 11520, "lengthTicks": 720, "barIndex": 3, "stepInBar": 0, "isGhost": false, "semanticRole": ""}, {"pitch": 42, "step": 51, "lengthSteps": 3, "velocity": 100, "microOffsetTicks": 0, "startTick": 12240, "lengthTicks": 720, "barIndex": 3, "stepInBar": 3, "isGhost": false, "semanticRole": ""}, {"pitch": 42, "step": 54, "lengthSteps": 2, "velocity": 100, "microOffsetTicks": 0, "startTick": 12960, "lengthTicks": 480, "barIndex": 3, "stepInBar": 6, "isGhost": false, "semanticRole": ""}, {"pitch": 42, "step": 56, "lengthSteps": 2, "velocity": 100, "microOffsetTicks": 0, "startTick": 13440, "lengthTicks": 480, "barIndex": 3, "stepInBar": 8, "isGhost": false, "semanticRole": ""}, {"pitch": 42, "step": 58, "lengthSteps": 1, "velocity": 56, "microOffsetTicks": 0, "startTick": 13920, "lengthTicks": 240, "barIndex": 3, "stepInBar": 10, "isGhost": false, "semanticRole": ""}, {"pitch": 42, "step": 59, "lengthSteps": 3, "velocity": 100, "microOffsetTicks": 0, "startTick": 14160, "lengthTicks": 720, "barIndex": 3, "stepInBar": 11, "isGhost": false, "semanticRole": ""}, {"pitch": 42, "step": 62, "lengthSteps": 2, "velocity": 100, "microOffsetTicks": 0, "startTick": 14880, "lengthTicks": 480, "barIndex": 3, "stepInBar": 14, "isGhost": false, "semanticRole": ""}, {"pitch": 42, "step": 64, "lengthSteps": 3, "velocity": 100, "microOffsetTicks": 0, "startTick": 15360, "lengthTicks": 720, "barIndex": 4, "stepInBar": 0, "isGhost": false, "semanticRole": ""}, {"pitch": 42, "step": 67, "lengthSteps": 2, "velocity": 100, "microOffsetTicks": 0, "startTick": 16080, "lengthTicks": 480, "barIndex": 4, "stepInBar": 3, "isGhost": false, "semanticRole": ""}, {"pitch": 42, "step": 69, "lengthSteps": 1, "velocity": 52, "microOffsetTicks": 0, "startTick": 16560, "lengthTicks": 240, "barIndex": 4, "stepInBar": 5, "isGhost": false, "semanticRole": ""}, {"pitch": 42, "step": 70, "lengthSteps": 2, "velocity": 100, "microOffsetTicks": 0, "startTick": 16800, "lengthTicks": 480, "barIndex": 4, "stepInBar": 6, "isGhost": false, "semanticRole": ""}, {"pitch": 42, "step": 72, "lengthSteps": 5, "velocity": 100, "microOffsetTicks": 0, "startTick": 17280, "lengthTicks": 1200, "barIndex": 4, "stepInBar": 8, "isGhost": false, "semanticRole": ""}, {"pitch": 42, "step": 77, "lengthSteps": 1, "velocity": 52, "microOffsetTicks": 0, "startTick": 18480, "lengthTicks": 240, "barIndex": 4, "stepInBar": 13, "isGhost": false, "semanticRole": ""}, {"pitch": 42, "step": 78, "lengthSteps": 2, "velocity": 100, "microOffsetTicks": 0, "startTick": 18720, "lengthTicks": 480, "barIndex": 4, "stepInBar": 14, "isGhost": false, "semanticRole": ""}, {"pitch": 42, "step": 80, "lengthSteps": 3, "velocity": 100, "microOffsetTicks": 0, "startTick": 19200, "lengthTicks": 720, "barIndex": 5, "stepInBar": 0, "isGhost": false, "semanticRole": ""}, {"pitch": 42, "step": 83, "lengthSteps": 3, "velocity": 100, "microOffsetTicks": 0, "startTick": 19920, "lengthTicks": 720, "barIndex": 5, "stepInBar": 3, "isGhost": false, "semanticRole": ""}, {"pitch": 42, "step": 86, "lengthSteps": 2, "velocity": 100, "microOffsetTicks": 0, "startTick": 20640, "lengthTicks": 480, "barIndex": 5, "stepInBar": 6, "isGhost": false, "semanticRole": ""}, {"pitch": 42, "step": 88, "lengthSteps": 1, "velocity": 100, "microOffsetTicks": 0, "startTick": 21120, "lengthTicks": 240, "barIndex": 5, "stepInBar": 8, "isGhost": false, "semanticRole": ""}, {"pitch": 42, "step": 89, "lengthSteps": 2, "velocity": 52, "microOffsetTicks": 0, "startTick": 21360, "lengthTicks": 480, "barIndex": 5, "stepInBar": 9, "isGhost": false, "semanticRole": ""}, {"pitch": 42, "step": 90, "lengthSteps": 1, "velocity": 82, "microOffsetTicks": 0, "startTick": 21600, "lengthTicks": 240, "barIndex": 5, "stepInBar": 10, "isGhost": false, "semanticRole": ""}, {"pitch": 42, "step": 91, "lengthSteps": 3, "velocity": 100, "microOffsetTicks": 0, "startTick": 21840, "lengthTicks": 720, "barIndex": 5, "stepInBar": 11, "isGhost": false, "semanticRole": ""}, {"pitch": 42, "step": 94, "lengthSteps": 2, "velocity": 100, "microOffsetTicks": 0, "startTick": 22560, "lengthTicks": 480, "barIndex": 5, "stepInBar": 14, "isGhost": false, "semanticRole": ""}, {"pitch": 42, "step": 96, "lengthSteps": 3, "velocity": 100, "microOffsetTicks": 0, "startTick": 23040, "lengthTicks": 720, "barIndex": 6, "stepInBar": 0, "isGhost": false, "semanticRole": ""}, {"pitch": 42, "step": 99, "lengthSteps": 2, "velocity": 100, "microOffsetTicks": 0, "startTick": 23760, "lengthTicks": 480, "barIndex": 6, "stepInBar": 3, "isGhost": false, "semanticRole": ""}, {"pitch": 42, "step": 101, "lengthSteps": 1, "velocity": 56, "microOffsetTicks": 0, "startTick": 24240, "lengthTicks": 240, "barIndex": 6, "stepInBar": 5, "isGhost": false, "semanticRole": ""}, {"pitch": 42, "step": 102, "lengthSteps": 2, "velocity": 100, "microOffsetTicks": 0, "startTick": 24480, "lengthTicks": 480, "barIndex": 6, "stepInBar": 6, "isGhost": false, "semanticRole": ""}, {"pitch": 42, "step": 104, "lengthSteps": 4, "velocity": 100, "microOffsetTicks": 0, "startTick": 24960, "lengthTicks": 960, "barIndex": 6, "stepInBar": 8, "isGhost": false, "semanticRole": ""}, {"pitch": 42, "step": 108, "lengthSteps": 2, "velocity": 56, "microOffsetTicks": 0, "startTick": 25920, "lengthTicks": 480, "barIndex": 6, "stepInBar": 12, "isGhost": false, "semanticRole": ""}, {"pitch": 42, "step": 110, "lengthSteps": 2, "velocity": 100, "microOffsetTicks": 0, "startTick": 26400, "lengthTicks": 480, "barIndex": 6, "stepInBar": 14, "isGhost": false, "semanticRole": ""}, {"pitch": 42, "step": 112, "lengthSteps": 3, "velocity": 100, "microOffsetTicks": 0, "startTick": 26880, "lengthTicks": 720, "barIndex": 7, "stepInBar": 0, "isGhost": false, "semanticRole": ""}, {"pitch": 42, "step": 115, "lengthSteps": 3, "velocity": 100, "microOffsetTicks": 0, "startTick": 27600, "lengthTicks": 720, "barIndex": 7, "stepInBar": 3, "isGhost": false, "semanticRole": ""}, {"pitch": 42, "step": 118, "lengthSteps": 2, "velocity": 100, "microOffsetTicks": 0, "startTick": 28320, "lengthTicks": 480, "barIndex": 7, "stepInBar": 6, "isGhost": false, "semanticRole": ""}, {"pitch": 42, "step": 120, "lengthSteps": 1, "velocity": 100, "microOffsetTicks": 0, "startTick": 28800, "lengthTicks": 240, "barIndex": 7, "stepInBar": 8, "isGhost": false, "semanticRole": ""}, {"pitch": 42, "step": 121, "lengthSteps": 1, "velocity": 65, "microOffsetTicks": 0, "startTick": 29040, "lengthTicks": 240, "barIndex": 7, "stepInBar": 9, "isGhost": false, "semanticRole": ""}, {"pitch": 42, "step": 122, "lengthSteps": 1, "velocity": 74, "microOffsetTicks": 0, "startTick": 29280, "lengthTicks": 240, "barIndex": 7, "stepInBar": 10, "isGhost": false, "semanticRole": ""}, {"pitch": 42, "step": 123, "lengthSteps": 1, "velocity": 100, "microOffsetTicks": 0, "startTick": 29520, "lengthTicks": 240, "barIndex": 7, "stepInBar": 11, "isGhost": false, "semanticRole": ""}, {"pitch": 42, "step": 124, "lengthSteps": 2, "velocity": 74, "microOffsetTicks": 0, "startTick": 29760, "lengthTicks": 480, "barIndex": 7, "stepInBar": 12, "isGhost": false, "semanticRole": ""}, {"pitch": 42, "step": 126, "lengthSteps": 1, "velocity": 100, "microOffsetTicks": 0, "startTick": 30240, "lengthTicks": 240, "barIndex": 7, "stepInBar": 14, "isGhost": false, "semanticRole": ""}]}}], "totalRuntimeLaneCount": 1, "backedLaneCount": 1, "unbackedLaneCount": 0, "totalNotes": 60, "taggedNotes": 0}}