{"type": "PATTERN_PROJECT", "properties": {"schema_version": 6, "selected_track_index": 0, "sound_module_track_index": -1, "generation_counter": 145, "mutation_counter": 0, "phrase_length_bars": 8, "phrase_role_summary": "statement|ending", "preview_start_step": 0, "bars": 8, "global_sound_pan": 0.0, "global_sound_width": 1.0, "global_sound_eq_tone": -0.150000005960464, "global_sound_compression": 0.0, "global_sound_reverb": 0.0, "global_sound_gate": 0.0, "global_sound_transient": 0.0, "global_sound_drive": 0.0}, "children": [{"type": "RUNTIME_LANE_PROFILE", "properties": {"genre": "Drill", "substyle": "UKDrill"}, "children": [{"type": "RUNTIME_LANE", "properties": {"lane_id": "registry:HiHat", "lane_name": "HiHat", "group_name": "Hats", "dependency_name": "", "generation_priority": 86, "is_core": true, "is_visible_in_editor": true, "enabled_by_default": true, "supports_drag_export": true, "is_ghost_track": false, "default_midi_note": 42, "is_runtime_registry_lane": true, "runtime_track_type": 0}, "children": []}]}, {"type": "RUNTIME_LANE_ORDER", "properties": {}, "children": [{"type": "RUNTIME_LANE_ORDER_ENTRY", "properties": {"lane_id": "registry:HiHat"}, "children": []}]}, {"type": "TRACK", "properties": {"type": 0, "lane_id": "registry:HiHat", "enabled": true, "muted": false, "solo": false, "locked": false, "template_id": 33, "variation_id": 12, "mutation_depth": 0.959999859333038, "sub_profile": "UKDrill", "lane_role": "drill_hat", "lane_volume": 0.850000023841858, "selected_sample_index": 0, "selected_sample_name": "Drill Hi-hat_1", "sound_pan": 0.0, "sound_width": 1.0, "sound_eq_tone": 0.0, "sound_compression": 0.0, "sound_reverb": 0.0, "sound_gate": 0.0, "sound_transient": 0.0, "sound_drive": 0.0}, "children": [{"type": "NOTE", "properties": {"pitch": 42, "step": 0, "length": 3, "velocity": 100, "micro_offset": 0, "is_ghost": false, "semantic_role": ""}, "children": []}, {"type": "NOTE", "properties": {"pitch": 42, "step": 3, "length": 2, "velocity": 100, "micro_offset": 0, "is_ghost": false, "semantic_role": ""}, "children": []}, {"type": "NOTE", "properties": {"pitch": 42, "step": 5, "length": 1, "velocity": 52, "micro_offset": 0, "is_ghost": false, "semantic_role": ""}, "children": []}, {"type": "NOTE", "properties": {"pitch": 42, "step": 6, "length": 2, "velocity": 100, "micro_offset": 0, "is_ghost": false, "semantic_role": ""}, "children": []}, {"type": "NOTE", "properties": {"pitch": 42, "step": 8, "length": 5, "velocity": 100, "micro_offset": 0, "is_ghost": false, "semantic_role": ""}, "children": []}, {"type": "NOTE", "properties": {"pitch": 42, "step": 13, "length": 1, "velocity": 52, "micro_offset": 0, "is_ghost": false, "semantic_role": ""}, "children": []}, {"type": "NOTE", "properties": {"pitch": 42, "step": 14, "length": 2, "velocity": 100, "micro_offset": 0, "is_ghost": false, "semantic_role": ""}, "children": []}, {"type": "NOTE", "properties": {"pitch": 42, "step": 16, "length": 3, "velocity": 100, "micro_offset": 0, "is_ghost": false, "semantic_role": ""}, "children": []}, {"type": "NOTE", "properties": {"pitch": 42, "step": 19, "length": 3, "velocity": 100, "micro_offset": 0, "is_ghost": false, "semantic_role": ""}, "children": []}, {"type": "NOTE", "properties": {"pitch": 42, "step": 22, "length": 2, "velocity": 100, "micro_offset": 0, "is_ghost": false, "semantic_role": ""}, "children": []}, {"type": "NOTE", "properties": {"pitch": 42, "step": 24, "length": 1, "velocity": 100, "micro_offset": 0, "is_ghost": false, "semantic_role": ""}, "children": []}, {"type": "NOTE", "properties": {"pitch": 42, "step": 25, "length": 2, "velocity": 52, "micro_offset": 0, "is_ghost": false, "semantic_role": ""}, "children": []}, {"type": "NOTE", "properties": {"pitch": 42, "step": 26, "length": 64, "velocity": 82, "micro_offset": 0, "is_ghost": false, "semantic_role": ""}, "children": []}, {"type": "NOTE", "properties": {"pitch": 42, "step": 27, "length": 3, "velocity": 100, "micro_offset": 0, "is_ghost": false, "semantic_role": ""}, "children": []}, {"type": "NOTE", "properties": {"pitch": 42, "step": 30, "length": 2, "velocity": 100, "micro_offset": 0, "is_ghost": false, "semantic_role": ""}, "children": []}, {"type": "NOTE", "properties": {"pitch": 42, "step": 32, "length": 3, "velocity": 100, "micro_offset": 0, "is_ghost": false, "semantic_role": ""}, "children": []}, {"type": "NOTE", "properties": {"pitch": 42, "step": 35, "length": 2, "velocity": 100, "micro_offset": 0, "is_ghost": false, "semantic_role": ""}, "children": []}, {"type": "NOTE", "properties": {"pitch": 42, "step": 37, "length": 1, "velocity": 56, "micro_offset": 0, "is_ghost": false, "semantic_role": ""}, "children": []}, {"type": "NOTE", "properties": {"pitch": 42, "step": 38, "length": 2, "velocity": 100, "micro_offset": 0, "is_ghost": false, "semantic_role": ""}, "children": []}, {"type": "NOTE", "properties": {"pitch": 42, "step": 40, "length": 4, "velocity": 100, "micro_offset": 0, "is_ghost": false, "semantic_role": ""}, "children": []}, {"type": "NOTE", "properties": {"pitch": 42, "step": 44, "length": 2, "velocity": 56, "micro_offset": 0, "is_ghost": false, "semantic_role": ""}, "children": []}, {"type": "NOTE", "properties": {"pitch": 42, "step": 46, "length": 2, "velocity": 100, "micro_offset": 0, "is_ghost": false, "semantic_role": ""}, "children": []}, {"type": "NOTE", "properties": {"pitch": 42, "step": 48, "length": 3, "velocity": 100, "micro_offset": 0, "is_ghost": false, "semantic_role": ""}, "children": []}, {"type": "NOTE", "properties": {"pitch": 42, "step": 51, "length": 3, "velocity": 100, "micro_offset": 0, "is_ghost": false, "semantic_role": ""}, "children": []}, {"type": "NOTE", "properties": {"pitch": 42, "step": 54, "length": 2, "velocity": 100, "micro_offset": 0, "is_ghost": false, "semantic_role": ""}, "children": []}, {"type": "NOTE", "properties": {"pitch": 42, "step": 56, "length": 2, "velocity": 100, "micro_offset": 0, "is_ghost": false, "semantic_role": ""}, "children": []}, {"type": "NOTE", "properties": {"pitch": 42, "step": 58, "length": 1, "velocity": 56, "micro_offset": 0, "is_ghost": false, "semantic_role": ""}, "children": []}, {"type": "NOTE", "properties": {"pitch": 42, "step": 59, "length": 3, "velocity": 100, "micro_offset": 0, "is_ghost": false, "semantic_role": ""}, "children": []}, {"type": "NOTE", "properties": {"pitch": 42, "step": 62, "length": 2, "velocity": 100, "micro_offset": 0, "is_ghost": false, "semantic_role": ""}, "children": []}, {"type": "NOTE", "properties": {"pitch": 42, "step": 64, "length": 3, "velocity": 100, "micro_offset": 0, "is_ghost": false, "semantic_role": ""}, "children": []}, {"type": "NOTE", "properties": {"pitch": 42, "step": 67, "length": 2, "velocity": 100, "micro_offset": 0, "is_ghost": false, "semantic_role": ""}, "children": []}, {"type": "NOTE", "properties": {"pitch": 42, "step": 69, "length": 1, "velocity": 52, "micro_offset": 0, "is_ghost": false, "semantic_role": ""}, "children": []}, {"type": "NOTE", "properties": {"pitch": 42, "step": 70, "length": 2, "velocity": 100, "micro_offset": 0, "is_ghost": false, "semantic_role": ""}, "children": []}, {"type": "NOTE", "properties": {"pitch": 42, "step": 72, "length": 5, "velocity": 100, "micro_offset": 0, "is_ghost": false, "semantic_role": ""}, "children": []}, {"type": "NOTE", "properties": {"pitch": 42, "step": 77, "length": 1, "velocity": 52, "micro_offset": 0, "is_ghost": false, "semantic_role": ""}, "children": []}, {"type": "NOTE", "properties": {"pitch": 42, "step": 78, "length": 2, "velocity": 100, "micro_offset": 0, "is_ghost": false, "semantic_role": ""}, "children": []}, {"type": "NOTE", "properties": {"pitch": 42, "step": 80, "length": 3, "velocity": 100, "micro_offset": 0, "is_ghost": false, "semantic_role": ""}, "children": []}, {"type": "NOTE", "properties": {"pitch": 42, "step": 83, "length": 3, "velocity": 100, "micro_offset": 0, "is_ghost": false, "semantic_role": ""}, "children": []}, {"type": "NOTE", "properties": {"pitch": 42, "step": 86, "length": 2, "velocity": 100, "micro_offset": 0, "is_ghost": false, "semantic_role": ""}, "children": []}, {"type": "NOTE", "properties": {"pitch": 42, "step": 88, "length": 1, "velocity": 100, "micro_offset": 0, "is_ghost": false, "semantic_role": ""}, "children": []}, {"type": "NOTE", "properties": {"pitch": 42, "step": 89, "length": 2, "velocity": 52, "micro_offset": 0, "is_ghost": false, "semantic_role": ""}, "children": []}, {"type": "NOTE", "properties": {"pitch": 42, "step": 90, "length": 1, "velocity": 82, "micro_offset": 0, "is_ghost": false, "semantic_role": ""}, "children": []}, {"type": "NOTE", "properties": {"pitch": 42, "step": 91, "length": 3, "velocity": 100, "micro_offset": 0, "is_ghost": false, "semantic_role": ""}, "children": []}, {"type": "NOTE", "properties": {"pitch": 42, "step": 94, "length": 2, "velocity": 100, "micro_offset": 0, "is_ghost": false, "semantic_role": ""}, "children": []}, {"type": "NOTE", "properties": {"pitch": 42, "step": 96, "length": 3, "velocity": 100, "micro_offset": 0, "is_ghost": false, "semantic_role": ""}, "children": []}, {"type": "NOTE", "properties": {"pitch": 42, "step": 99, "length": 2, "velocity": 100, "micro_offset": 0, "is_ghost": false, "semantic_role": ""}, "children": []}, {"type": "NOTE", "properties": {"pitch": 42, "step": 101, "length": 1, "velocity": 56, "micro_offset": 0, "is_ghost": false, "semantic_role": ""}, "children": []}, {"type": "NOTE", "properties": {"pitch": 42, "step": 102, "length": 2, "velocity": 100, "micro_offset": 0, "is_ghost": false, "semantic_role": ""}, "children": []}, {"type": "NOTE", "properties": {"pitch": 42, "step": 104, "length": 4, "velocity": 100, "micro_offset": 0, "is_ghost": false, "semantic_role": ""}, "children": []}, {"type": "NOTE", "properties": {"pitch": 42, "step": 108, "length": 2, "velocity": 56, "micro_offset": 0, "is_ghost": false, "semantic_role": ""}, "children": []}, {"type": "NOTE", "properties": {"pitch": 42, "step": 110, "length": 2, "velocity": 100, "micro_offset": 0, "is_ghost": false, "semantic_role": ""}, "children": []}, {"type": "NOTE", "properties": {"pitch": 42, "step": 112, "length": 3, "velocity": 100, "micro_offset": 0, "is_ghost": false, "semantic_role": ""}, "children": []}, {"type": "NOTE", "properties": {"pitch": 42, "step": 115, "length": 3, "velocity": 100, "micro_offset": 0, "is_ghost": false, "semantic_role": ""}, "children": []}, {"type": "NOTE", "properties": {"pitch": 42, "step": 118, "length": 2, "velocity": 100, "micro_offset": 0, "is_ghost": false, "semantic_role": ""}, "children": []}, {"type": "NOTE", "properties": {"pitch": 42, "step": 120, "length": 1, "velocity": 100, "micro_offset": 0, "is_ghost": false, "semantic_role": ""}, "children": []}, {"type": "NOTE", "properties": {"pitch": 42, "step": 121, "length": 1, "velocity": 65, "micro_offset": 0, "is_ghost": false, "semantic_role": ""}, "children": []}, {"type": "NOTE", "properties": {"pitch": 42, "step": 122, "length": 1, "velocity": 74, "micro_offset": 0, "is_ghost": false, "semantic_role": ""}, "children": []}, {"type": "NOTE", "properties": {"pitch": 42, "step": 123, "length": 1, "velocity": 100, "micro_offset": 0, "is_ghost": false, "semantic_role": ""}, "children": []}, {"type": "NOTE", "properties": {"pitch": 42, "step": 124, "length": 2, "velocity": 74, "micro_offset": 0, "is_ghost": false, "semantic_role": ""}, "children": []}, {"type": "NOTE", "properties": {"pitch": 42, "step": 126, "length": 1, "velocity": 100, "micro_offset": 0, "is_ghost": false, "semantic_role": ""}, "children": []}]}]}