{"genre": "Drill", "substyle": "BrooklynDrill", "bars": 4, "tempoMin": 124, "tempoMax": 136, "exportedAt": "2026-03-28T20:06:47.703+02:00", "conflictMessage": "", "laneLayoutSource": "PatternProject.runtime", "runtimeLaneOrder": ["registry:HiHat", "registry:HatFX", "registry:OpenHat", "registry:Snare", "registry:Clap/GhostSnare", "registry:Kick", "registry:GhostKick", "registry:Ride", "registry:Cymbal", "registry:Perc", "registry:Sub808"], "laneLayout": [{"orderIndex": 0, "laneId": "registry:HiHat", "laneName": "HiHat", "groupName": "Hats", "dependencyName": "", "generationPriority": 86, "isCore": true, "isVisibleInEditor": true, "enabledByDefault": true, "supportsDragExport": true, "isGhostTrack": false, "defaultMidiNote": 42, "isRuntimeRegistryLane": true, "runtimeTrackType": "HiHat", "bindingKind": "backed", "hasBackingTrack": true, "laneParamsAvailable": true, "trackType": "HiHat", "laneParams": {"enabled": true, "muted": false, "solo": false, "locked": false, "laneRole": "drill_hat", "laneVolume": 0.839999973773956, "selectedSampleIndex": 4, "selectedSampleName": "Drill Hi-hat_2", "sound": {"pan": 0.0, "width": 1.0, "eqTone": 0.0, "compression": 0.0, "reverb": 0.0, "gate": 0.0, "transient": 0.0, "drive": 0.0}, "sub808Mono": true, "sub808CutItself": true, "sub808GlideTimeMs": 120, "sub808OverlapMode": 0, "sub808ScaleSnapPolicy": 2, "noteCount": 24, "taggedNoteCount": 0, "notes": [{"pitch": 36, "step": 0, "lengthSteps": 1, "velocity": 100, "microOffsetTicks": 0, "startTick": 0, "lengthTicks": 240, "barIndex": 0, "stepInBar": 0, "isGhost": false, "semanticRole": "", "isSlide": false, "isLegato": false, "glideToNext": false}, {"pitch": 36, "step": 8, "lengthSteps": 1, "velocity": 100, "microOffsetTicks": 0, "startTick": 1920, "lengthTicks": 240, "barIndex": 0, "stepInBar": 8, "isGhost": false, "semanticRole": "", "isSlide": false, "isLegato": false, "glideToNext": false}, {"pitch": 36, "step": 11, "lengthSteps": 1, "velocity": 100, "microOffsetTicks": 0, "startTick": 2640, "lengthTicks": 240, "barIndex": 0, "stepInBar": 11, "isGhost": false, "semanticRole": "", "isSlide": false, "isLegato": false, "glideToNext": false}, {"pitch": 36, "step": 14, "lengthSteps": 1, "velocity": 100, "microOffsetTicks": 0, "startTick": 3360, "lengthTicks": 240, "barIndex": 0, "stepInBar": 14, "isGhost": false, "semanticRole": "", "isSlide": false, "isLegato": false, "glideToNext": false}, {"pitch": 36, "step": 16, "lengthSteps": 1, "velocity": 100, "microOffsetTicks": 0, "startTick": 3840, "lengthTicks": 240, "barIndex": 1, "stepInBar": 0, "isGhost": false, "semanticRole": "", "isSlide": false, "isLegato": false, "glideToNext": false}, {"pitch": 36, "step": 18, "lengthSteps": 1, "velocity": 100, "microOffsetTicks": 0, "startTick": 4320, "lengthTicks": 240, "barIndex": 1, "stepInBar": 2, "isGhost": false, "semanticRole": "", "isSlide": false, "isLegato": false, "glideToNext": false}, {"pitch": 36, "step": 22, "lengthSteps": 1, "velocity": 10, "microOffsetTicks": 0, "startTick": 5280, "lengthTicks": 240, "barIndex": 1, "stepInBar": 6, "isGhost": false, "semanticRole": "", "isSlide": false, "isLegato": false, "glideToNext": false}, {"pitch": 36, "step": 22, "lengthSteps": 1, "velocity": 26, "microOffsetTicks": 120, "startTick": 5400, "lengthTicks": 240, "barIndex": 1, "stepInBar": 6, "isGhost": false, "semanticRole": "", "isSlide": false, "isLegato": false, "glideToNext": false}, {"pitch": 36, "step": 23, "lengthSteps": 1, "velocity": 55, "microOffsetTicks": 0, "startTick": 5520, "lengthTicks": 240, "barIndex": 1, "stepInBar": 7, "isGhost": false, "semanticRole": "", "isSlide": false, "isLegato": false, "glideToNext": false}, {"pitch": 36, "step": 24, "lengthSteps": 1, "velocity": 88, "microOffsetTicks": -115, "startTick": 5645, "lengthTicks": 240, "barIndex": 1, "stepInBar": 8, "isGhost": false, "semanticRole": "", "isSlide": false, "isLegato": false, "glideToNext": false}, {"pitch": 36, "step": 24, "lengthSteps": 1, "velocity": 100, "microOffsetTicks": 120, "startTick": 5880, "lengthTicks": 240, "barIndex": 1, "stepInBar": 8, "isGhost": false, "semanticRole": "", "isSlide": false, "isLegato": false, "glideToNext": false}, {"pitch": 36, "step": 30, "lengthSteps": 1, "velocity": 100, "microOffsetTicks": 0, "startTick": 7200, "lengthTicks": 240, "barIndex": 1, "stepInBar": 14, "isGhost": false, "semanticRole": "", "isSlide": false, "isLegato": false, "glideToNext": false}, {"pitch": 36, "step": 32, "lengthSteps": 1, "velocity": 100, "microOffsetTicks": 0, "startTick": 7680, "lengthTicks": 240, "barIndex": 2, "stepInBar": 0, "isGhost": false, "semanticRole": "", "isSlide": false, "isLegato": false, "glideToNext": false}, {"pitch": 36, "step": 40, "lengthSteps": 1, "velocity": 100, "microOffsetTicks": 0, "startTick": 9600, "lengthTicks": 240, "barIndex": 2, "stepInBar": 8, "isGhost": false, "semanticRole": "", "isSlide": false, "isLegato": false, "glideToNext": false}, {"pitch": 36, "step": 43, "lengthSteps": 1, "velocity": 100, "microOffsetTicks": 0, "startTick": 10320, "lengthTicks": 240, "barIndex": 2, "stepInBar": 11, "isGhost": false, "semanticRole": "", "isSlide": false, "isLegato": false, "glideToNext": false}, {"pitch": 36, "step": 46, "lengthSteps": 1, "velocity": 100, "microOffsetTicks": 0, "startTick": 11040, "lengthTicks": 240, "barIndex": 2, "stepInBar": 14, "isGhost": false, "semanticRole": "", "isSlide": false, "isLegato": false, "glideToNext": false}, {"pitch": 36, "step": 48, "lengthSteps": 1, "velocity": 100, "microOffsetTicks": 0, "startTick": 11520, "lengthTicks": 240, "barIndex": 3, "stepInBar": 0, "isGhost": false, "semanticRole": "", "isSlide": false, "isLegato": false, "glideToNext": false}, {"pitch": 36, "step": 50, "lengthSteps": 1, "velocity": 100, "microOffsetTicks": 0, "startTick": 12000, "lengthTicks": 240, "barIndex": 3, "stepInBar": 2, "isGhost": false, "semanticRole": "", "isSlide": false, "isLegato": false, "glideToNext": false}, {"pitch": 36, "step": 54, "lengthSteps": 1, "velocity": 10, "microOffsetTicks": 0, "startTick": 12960, "lengthTicks": 240, "barIndex": 3, "stepInBar": 6, "isGhost": false, "semanticRole": "", "isSlide": false, "isLegato": false, "glideToNext": false}, {"pitch": 36, "step": 54, "lengthSteps": 1, "velocity": 26, "microOffsetTicks": 120, "startTick": 13080, "lengthTicks": 240, "barIndex": 3, "stepInBar": 6, "isGhost": false, "semanticRole": "", "isSlide": false, "isLegato": false, "glideToNext": false}, {"pitch": 36, "step": 55, "lengthSteps": 1, "velocity": 55, "microOffsetTicks": 0, "startTick": 13200, "lengthTicks": 240, "barIndex": 3, "stepInBar": 7, "isGhost": false, "semanticRole": "", "isSlide": false, "isLegato": false, "glideToNext": false}, {"pitch": 36, "step": 56, "lengthSteps": 1, "velocity": 88, "microOffsetTicks": -115, "startTick": 13325, "lengthTicks": 240, "barIndex": 3, "stepInBar": 8, "isGhost": false, "semanticRole": "", "isSlide": false, "isLegato": false, "glideToNext": false}, {"pitch": 36, "step": 56, "lengthSteps": 1, "velocity": 100, "microOffsetTicks": 120, "startTick": 13560, "lengthTicks": 240, "barIndex": 3, "stepInBar": 8, "isGhost": false, "semanticRole": "", "isSlide": false, "isLegato": false, "glideToNext": false}, {"pitch": 36, "step": 62, "lengthSteps": 1, "velocity": 100, "microOffsetTicks": 0, "startTick": 14880, "lengthTicks": 240, "barIndex": 3, "stepInBar": 14, "isGhost": false, "semanticRole": "", "isSlide": false, "isLegato": false, "glideToNext": false}]}}, {"orderIndex": 1, "laneId": "registry:HatFX", "laneName": "Hat Accent", "groupName": "Hats", "dependencyName": "HiHat", "generationPriority": 56, "isCore": false, "isVisibleInEditor": true, "enabledByDefault": false, "supportsDragExport": true, "isGhostTrack": true, "defaultMidiNote": 44, "isRuntimeRegistryLane": true, "runtimeTrackType": "HatFX", "bindingKind": "backed", "hasBackingTrack": true, "laneParamsAvailable": true, "trackType": "HatFX", "laneParams": {"enabled": true, "muted": false, "solo": false, "locked": false, "laneRole": "drill_hat_fx", "laneVolume": 0.699999988079071, "selectedSampleIndex": 0, "selectedSampleName": "Drill Hi-hat_1", "sound": {"pan": 0.0, "width": 1.0, "eqTone": 0.0, "compression": 0.0, "reverb": 0.0, "gate": 0.0, "transient": 0.0, "drive": 0.0}, "sub808Mono": true, "sub808CutItself": true, "sub808GlideTimeMs": 120, "sub808OverlapMode": 0, "sub808ScaleSnapPolicy": 2, "noteCount": 27, "taggedNoteCount": 0, "notes": [{"pitch": 36, "step": 2, "lengthSteps": 1, "velocity": 100, "microOffsetTicks": 0, "startTick": 480, "lengthTicks": 240, "barIndex": 0, "stepInBar": 2, "isGhost": false, "semanticRole": "", "isSlide": false, "isLegato": false, "glideToNext": false}, {"pitch": 36, "step": 4, "lengthSteps": 1, "velocity": 66, "microOffsetTicks": 0, "startTick": 960, "lengthTicks": 240, "barIndex": 0, "stepInBar": 4, "isGhost": false, "semanticRole": "", "isSlide": false, "isLegato": false, "glideToNext": false}, {"pitch": 36, "step": 4, "lengthSteps": 1, "velocity": 75, "microOffsetTicks": 120, "startTick": 1080, "lengthTicks": 240, "barIndex": 0, "stepInBar": 4, "isGhost": false, "semanticRole": "", "isSlide": false, "isLegato": false, "glideToNext": false}, {"pitch": 36, "step": 5, "lengthSteps": 1, "velocity": 49, "microOffsetTicks": 0, "startTick": 1200, "lengthTicks": 240, "barIndex": 0, "stepInBar": 5, "isGhost": false, "semanticRole": "", "isSlide": false, "isLegato": false, "glideToNext": false}, {"pitch": 36, "step": 5, "lengthSteps": 1, "velocity": 57, "microOffsetTicks": 120, "startTick": 1320, "lengthTicks": 240, "barIndex": 0, "stepInBar": 5, "isGhost": false, "semanticRole": "", "isSlide": false, "isLegato": false, "glideToNext": false}, {"pitch": 36, "step": 18, "lengthSteps": 1, "velocity": 100, "microOffsetTicks": 0, "startTick": 4320, "lengthTicks": 240, "barIndex": 1, "stepInBar": 2, "isGhost": false, "semanticRole": "", "isSlide": false, "isLegato": false, "glideToNext": false}, {"pitch": 36, "step": 20, "lengthSteps": 1, "velocity": 44, "microOffsetTicks": 0, "startTick": 4800, "lengthTicks": 240, "barIndex": 1, "stepInBar": 4, "isGhost": false, "semanticRole": "", "isSlide": false, "isLegato": false, "glideToNext": false}, {"pitch": 36, "step": 20, "lengthSteps": 1, "velocity": 49, "microOffsetTicks": 120, "startTick": 4920, "lengthTicks": 240, "barIndex": 1, "stepInBar": 4, "isGhost": false, "semanticRole": "", "isSlide": false, "isLegato": false, "glideToNext": false}, {"pitch": 36, "step": 21, "lengthSteps": 1, "velocity": 49, "microOffsetTicks": 0, "startTick": 5040, "lengthTicks": 240, "barIndex": 1, "stepInBar": 5, "isGhost": false, "semanticRole": "", "isSlide": false, "isLegato": false, "glideToNext": false}, {"pitch": 36, "step": 21, "lengthSteps": 1, "velocity": 100, "microOffsetTicks": 120, "startTick": 5160, "lengthTicks": 240, "barIndex": 1, "stepInBar": 5, "isGhost": false, "semanticRole": "", "isSlide": false, "isLegato": false, "glideToNext": false}, {"pitch": 36, "step": 26, "lengthSteps": 1, "velocity": 53, "microOffsetTicks": 0, "startTick": 6240, "lengthTicks": 240, "barIndex": 1, "stepInBar": 10, "isGhost": false, "semanticRole": "", "isSlide": false, "isLegato": false, "glideToNext": false}, {"pitch": 36, "step": 28, "lengthSteps": 1, "velocity": 57, "microOffsetTicks": 0, "startTick": 6720, "lengthTicks": 240, "barIndex": 1, "stepInBar": 12, "isGhost": false, "semanticRole": "", "isSlide": false, "isLegato": false, "glideToNext": false}, {"pitch": 36, "step": 34, "lengthSteps": 1, "velocity": 100, "microOffsetTicks": 0, "startTick": 8160, "lengthTicks": 240, "barIndex": 2, "stepInBar": 2, "isGhost": false, "semanticRole": "", "isSlide": false, "isLegato": false, "glideToNext": false}, {"pitch": 36, "step": 36, "lengthSteps": 1, "velocity": 66, "microOffsetTicks": 0, "startTick": 8640, "lengthTicks": 240, "barIndex": 2, "stepInBar": 4, "isGhost": false, "semanticRole": "", "isSlide": false, "isLegato": false, "glideToNext": false}, {"pitch": 36, "step": 36, "lengthSteps": 1, "velocity": 75, "microOffsetTicks": 120, "startTick": 8760, "lengthTicks": 240, "barIndex": 2, "stepInBar": 4, "isGhost": false, "semanticRole": "", "isSlide": false, "isLegato": false, "glideToNext": false}, {"pitch": 36, "step": 37, "lengthSteps": 1, "velocity": 49, "microOffsetTicks": 0, "startTick": 8880, "lengthTicks": 240, "barIndex": 2, "stepInBar": 5, "isGhost": false, "semanticRole": "", "isSlide": false, "isLegato": false, "glideToNext": false}, {"pitch": 36, "step": 37, "lengthSteps": 1, "velocity": 57, "microOffsetTicks": 120, "startTick": 9000, "lengthTicks": 240, "barIndex": 2, "stepInBar": 5, "isGhost": false, "semanticRole": "", "isSlide": false, "isLegato": false, "glideToNext": false}, {"pitch": 36, "step": 50, "lengthSteps": 1, "velocity": 100, "microOffsetTicks": 0, "startTick": 12000, "lengthTicks": 240, "barIndex": 3, "stepInBar": 2, "isGhost": false, "semanticRole": "", "isSlide": false, "isLegato": false, "glideToNext": false}, {"pitch": 36, "step": 52, "lengthSteps": 1, "velocity": 44, "microOffsetTicks": 0, "startTick": 12480, "lengthTicks": 240, "barIndex": 3, "stepInBar": 4, "isGhost": false, "semanticRole": "", "isSlide": false, "isLegato": false, "glideToNext": false}, {"pitch": 36, "step": 52, "lengthSteps": 1, "velocity": 49, "microOffsetTicks": 120, "startTick": 12600, "lengthTicks": 240, "barIndex": 3, "stepInBar": 4, "isGhost": false, "semanticRole": "", "isSlide": false, "isLegato": false, "glideToNext": false}, {"pitch": 36, "step": 53, "lengthSteps": 1, "velocity": 49, "microOffsetTicks": 0, "startTick": 12720, "lengthTicks": 240, "barIndex": 3, "stepInBar": 5, "isGhost": false, "semanticRole": "", "isSlide": false, "isLegato": false, "glideToNext": false}, {"pitch": 36, "step": 53, "lengthSteps": 1, "velocity": 100, "microOffsetTicks": 120, "startTick": 12840, "lengthTicks": 240, "barIndex": 3, "stepInBar": 5, "isGhost": false, "semanticRole": "", "isSlide": false, "isLegato": false, "glideToNext": false}, {"pitch": 36, "step": 58, "lengthSteps": 1, "velocity": 53, "microOffsetTicks": 0, "startTick": 13920, "lengthTicks": 240, "barIndex": 3, "stepInBar": 10, "isGhost": false, "semanticRole": "", "isSlide": false, "isLegato": false, "glideToNext": false}, {"pitch": 36, "step": 59, "lengthSteps": 1, "velocity": 100, "microOffsetTicks": 0, "startTick": 14160, "lengthTicks": 240, "barIndex": 3, "stepInBar": 11, "isGhost": false, "semanticRole": "", "isSlide": false, "isLegato": false, "glideToNext": false}, {"pitch": 36, "step": 60, "lengthSteps": 1, "velocity": 57, "microOffsetTicks": 0, "startTick": 14400, "lengthTicks": 240, "barIndex": 3, "stepInBar": 12, "isGhost": false, "semanticRole": "", "isSlide": false, "isLegato": false, "glideToNext": false}, {"pitch": 36, "step": 61, "lengthSteps": 1, "velocity": 100, "microOffsetTicks": 0, "startTick": 14640, "lengthTicks": 240, "barIndex": 3, "stepInBar": 13, "isGhost": false, "semanticRole": "", "isSlide": false, "isLegato": false, "glideToNext": false}, {"pitch": 36, "step": 62, "lengthSteps": 1, "velocity": 100, "microOffsetTicks": 0, "startTick": 14880, "lengthTicks": 240, "barIndex": 3, "stepInBar": 14, "isGhost": false, "semanticRole": "", "isSlide": false, "isLegato": false, "glideToNext": false}]}}, {"orderIndex": 2, "laneId": "registry:OpenHat", "laneName": "OpenHat", "groupName": "Hats", "dependencyName": "", "generationPriority": 74, "isCore": true, "isVisibleInEditor": true, "enabledByDefault": true, "supportsDragExport": true, "isGhostTrack": false, "defaultMidiNote": 46, "isRuntimeRegistryLane": true, "runtimeTrackType": "OpenHat", "bindingKind": "backed", "hasBackingTrack": true, "laneParamsAvailable": true, "trackType": "OpenHat", "laneParams": {"enabled": true, "muted": false, "solo": false, "locked": false, "laneRole": "drill_open", "laneVolume": 0.680000007152557, "selectedSampleIndex": 0, "selectedSampleName": "Drill Open Hat_1", "sound": {"pan": 0.0, "width": 1.0, "eqTone": 0.0, "compression": 0.0, "reverb": 0.0, "gate": 0.0, "transient": 0.0, "drive": 0.0}, "sub808Mono": true, "sub808CutItself": true, "sub808GlideTimeMs": 120, "sub808OverlapMode": 0, "sub808ScaleSnapPolicy": 2, "noteCount": 0, "taggedNoteCount": 0, "notes": []}}, {"orderIndex": 3, "laneId": "registry:Snare", "laneName": "Snare", "groupName": "Snare", "dependencyName": "", "generationPriority": 92, "isCore": true, "isVisibleInEditor": true, "enabledByDefault": true, "supportsDragExport": true, "isGhostTrack": false, "defaultMidiNote": 38, "isRuntimeRegistryLane": true, "runtimeTrackType": "Snare", "bindingKind": "backed", "hasBackingTrack": true, "laneParamsAvailable": true, "trackType": "Snare", "laneParams": {"enabled": true, "muted": false, "solo": false, "locked": false, "laneRole": "drill_backbeat", "laneVolume": 0.980000019073486, "selectedSampleIndex": 6, "selectedSampleName": "drill-snare_140bpm_D_minor", "sound": {"pan": 0.0, "width": 1.0, "eqTone": 0.0, "compression": 0.0, "reverb": 0.0, "gate": 0.0, "transient": 0.0, "drive": 0.0}, "sub808Mono": true, "sub808CutItself": true, "sub808GlideTimeMs": 120, "sub808OverlapMode": 0, "sub808ScaleSnapPolicy": 2, "noteCount": 5, "taggedNoteCount": 0, "notes": [{"pitch": 36, "step": 4, "lengthSteps": 1, "velocity": 100, "microOffsetTicks": 0, "startTick": 960, "lengthTicks": 240, "barIndex": 0, "stepInBar": 4, "isGhost": false, "semanticRole": "", "isSlide": false, "isLegato": false, "glideToNext": false}, {"pitch": 36, "step": 26, "lengthSteps": 1, "velocity": 100, "microOffsetTicks": 0, "startTick": 6240, "lengthTicks": 240, "barIndex": 1, "stepInBar": 10, "isGhost": false, "semanticRole": "", "isSlide": false, "isLegato": false, "glideToNext": false}, {"pitch": 36, "step": 28, "lengthSteps": 1, "velocity": 100, "microOffsetTicks": 0, "startTick": 6720, "lengthTicks": 240, "barIndex": 1, "stepInBar": 12, "isGhost": false, "semanticRole": "", "isSlide": false, "isLegato": false, "glideToNext": false}, {"pitch": 36, "step": 40, "lengthSteps": 1, "velocity": 100, "microOffsetTicks": 0, "startTick": 9600, "lengthTicks": 240, "barIndex": 2, "stepInBar": 8, "isGhost": false, "semanticRole": "", "isSlide": false, "isLegato": false, "glideToNext": false}, {"pitch": 36, "step": 60, "lengthSteps": 1, "velocity": 100, "microOffsetTicks": 0, "startTick": 14400, "lengthTicks": 240, "barIndex": 3, "stepInBar": 12, "isGhost": false, "semanticRole": "", "isSlide": false, "isLegato": false, "glideToNext": false}]}}, {"orderIndex": 4, "laneId": "registry:Clap/GhostSnare", "laneName": "Clap Ghost", "groupName": "Snare", "dependencyName": "Snare", "generationPriority": 60, "isCore": false, "isVisibleInEditor": true, "enabledByDefault": true, "supportsDragExport": true, "isGhostTrack": true, "defaultMidiNote": 39, "isRuntimeRegistryLane": true, "runtimeTrackType": "Clap/GhostSnare", "bindingKind": "backed", "hasBackingTrack": true, "laneParamsAvailable": true, "trackType": "Clap/GhostSnare", "laneParams": {"enabled": true, "muted": false, "solo": false, "locked": false, "laneRole": "drill_layer", "laneVolume": 0.740000009536743, "selectedSampleIndex": 0, "selectedSampleName": "Counter UK Snare 1", "sound": {"pan": 0.0, "width": 1.0, "eqTone": 0.0, "compression": 0.0, "reverb": 0.0, "gate": 0.0, "transient": 0.0, "drive": 0.0}, "sub808Mono": true, "sub808CutItself": true, "sub808GlideTimeMs": 120, "sub808OverlapMode": 0, "sub808ScaleSnapPolicy": 2, "noteCount": 0, "taggedNoteCount": 0, "notes": []}}, {"orderIndex": 5, "laneId": "registry:Kick", "laneName": "Kick", "groupName": "Kick", "dependencyName": "", "generationPriority": 96, "isCore": true, "isVisibleInEditor": true, "enabledByDefault": true, "supportsDragExport": true, "isGhostTrack": false, "defaultMidiNote": 36, "isRuntimeRegistryLane": true, "runtimeTrackType": "Kick", "bindingKind": "backed", "hasBackingTrack": true, "laneParamsAvailable": true, "trackType": "Kick", "laneParams": {"enabled": true, "muted": false, "solo": false, "locked": false, "laneRole": "drill_kick", "laneVolume": 0.939999997615814, "selectedSampleIndex": 0, "selectedSampleName": "Diamond Wav - Best Kick", "sound": {"pan": 0.0, "width": 1.0, "eqTone": 0.0, "compression": 0.0, "reverb": 0.0, "gate": 0.0, "transient": 0.0, "drive": 0.0}, "sub808Mono": true, "sub808CutItself": true, "sub808GlideTimeMs": 120, "sub808OverlapMode": 0, "sub808ScaleSnapPolicy": 2, "noteCount": 5, "taggedNoteCount": 0, "notes": [{"pitch": 36, "step": 0, "lengthSteps": 1, "velocity": 100, "microOffsetTicks": 0, "startTick": 0, "lengthTicks": 240, "barIndex": 0, "stepInBar": 0, "isGhost": false, "semanticRole": "", "isSlide": false, "isLegato": false, "glideToNext": false}, {"pitch": 36, "step": 20, "lengthSteps": 1, "velocity": 100, "microOffsetTicks": 0, "startTick": 4800, "lengthTicks": 240, "barIndex": 1, "stepInBar": 4, "isGhost": false, "semanticRole": "", "isSlide": false, "isLegato": false, "glideToNext": false}, {"pitch": 36, "step": 32, "lengthSteps": 1, "velocity": 100, "microOffsetTicks": 0, "startTick": 7680, "lengthTicks": 240, "barIndex": 2, "stepInBar": 0, "isGhost": false, "semanticRole": "", "isSlide": false, "isLegato": false, "glideToNext": false}, {"pitch": 36, "step": 38, "lengthSteps": 1, "velocity": 100, "microOffsetTicks": 0, "startTick": 9120, "lengthTicks": 240, "barIndex": 2, "stepInBar": 6, "isGhost": false, "semanticRole": "", "isSlide": false, "isLegato": false, "glideToNext": false}, {"pitch": 36, "step": 56, "lengthSteps": 1, "velocity": 100, "microOffsetTicks": 0, "startTick": 13440, "lengthTicks": 240, "barIndex": 3, "stepInBar": 8, "isGhost": false, "semanticRole": "", "isSlide": false, "isLegato": false, "glideToNext": false}]}}, {"orderIndex": 6, "laneId": "registry:GhostKick", "laneName": "Kick Ghost", "groupName": "Kick", "dependencyName": "Kick", "generationPriority": 58, "isCore": false, "isVisibleInEditor": true, "enabledByDefault": true, "supportsDragExport": true, "isGhostTrack": true, "defaultMidiNote": 35, "isRuntimeRegistryLane": true, "runtimeTrackType": "GhostKick", "bindingKind": "backed", "hasBackingTrack": true, "laneParamsAvailable": true, "trackType": "GhostKick", "laneParams": {"enabled": true, "muted": false, "solo": false, "locked": false, "laneRole": "drill_support", "laneVolume": 0.620000004768372, "selectedSampleIndex": 2, "selectedSampleName": "Kick 3", "sound": {"pan": 0.0, "width": 1.0, "eqTone": 0.0, "compression": 0.0, "reverb": 0.0, "gate": 0.0, "transient": 0.0, "drive": 0.0}, "sub808Mono": true, "sub808CutItself": true, "sub808GlideTimeMs": 120, "sub808OverlapMode": 0, "sub808ScaleSnapPolicy": 2, "noteCount": 0, "taggedNoteCount": 0, "notes": []}}, {"orderIndex": 7, "laneId": "registry:Ride", "laneName": "Ride", "groupName": "Texture", "dependencyName": "", "generationPriority": 42, "isCore": false, "isVisibleInEditor": true, "enabledByDefault": false, "supportsDragExport": true, "isGhostTrack": false, "defaultMidiNote": 51, "isRuntimeRegistryLane": true, "runtimeTrackType": "Ride", "bindingKind": "backed", "hasBackingTrack": true, "laneParamsAvailable": true, "trackType": "Ride", "laneParams": {"enabled": false, "muted": false, "solo": false, "locked": false, "laneRole": "support", "laneVolume": 0.540000021457672, "selectedSampleIndex": 0, "selectedSampleName": "(empty)", "sound": {"pan": 0.0, "width": 1.0, "eqTone": 0.0, "compression": 0.0, "reverb": 0.0, "gate": 0.0, "transient": 0.0, "drive": 0.0}, "sub808Mono": true, "sub808CutItself": true, "sub808GlideTimeMs": 120, "sub808OverlapMode": 0, "sub808ScaleSnapPolicy": 2, "noteCount": 0, "taggedNoteCount": 0, "notes": []}}, {"orderIndex": 8, "laneId": "registry:Cymbal", "laneName": "Cymbal", "groupName": "Texture", "dependencyName": "", "generationPriority": 38, "isCore": false, "isVisibleInEditor": true, "enabledByDefault": false, "supportsDragExport": true, "isGhostTrack": false, "defaultMidiNote": 49, "isRuntimeRegistryLane": true, "runtimeTrackType": "Cymbal", "bindingKind": "backed", "hasBackingTrack": true, "laneParamsAvailable": true, "trackType": "Cymbal", "laneParams": {"enabled": false, "muted": false, "solo": false, "locked": false, "laneRole": "crash", "laneVolume": 0.579999983310699, "selectedSampleIndex": 0, "selectedSampleName": "(empty)", "sound": {"pan": 0.0, "width": 1.0, "eqTone": 0.0, "compression": 0.0, "reverb": 0.0, "gate": 0.0, "transient": 0.0, "drive": 0.0}, "sub808Mono": true, "sub808CutItself": true, "sub808GlideTimeMs": 120, "sub808OverlapMode": 0, "sub808ScaleSnapPolicy": 2, "noteCount": 0, "taggedNoteCount": 0, "notes": []}}, {"orderIndex": 9, "laneId": "registry:Perc", "laneName": "Perc", "groupName": "Perc", "dependencyName": "", "generationPriority": 68, "isCore": true, "isVisibleInEditor": true, "enabledByDefault": true, "supportsDragExport": true, "isGhostTrack": false, "defaultMidiNote": 50, "isRuntimeRegistryLane": true, "runtimeTrackType": "Perc", "bindingKind": "backed", "hasBackingTrack": true, "laneParamsAvailable": true, "trackType": "Perc", "laneParams": {"enabled": true, "muted": false, "solo": false, "locked": false, "laneRole": "drill_texture", "laneVolume": 0.600000023841858, "selectedSampleIndex": 0, "selectedSampleName": "Drill Perc (2)", "sound": {"pan": 0.0, "width": 1.0, "eqTone": 0.0, "compression": 0.0, "reverb": 0.0, "gate": 0.0, "transient": 0.0, "drive": 0.0}, "sub808Mono": true, "sub808CutItself": true, "sub808GlideTimeMs": 120, "sub808OverlapMode": 0, "sub808ScaleSnapPolicy": 2, "noteCount": 0, "taggedNoteCount": 0, "notes": []}}, {"orderIndex": 10, "laneId": "registry:Sub808", "laneName": "Sub808", "groupName": "Bass", "dependencyName": "Kick", "generationPriority": 82, "isCore": true, "isVisibleInEditor": true, "enabledByDefault": false, "supportsDragExport": true, "isGhostTrack": false, "defaultMidiNote": 34, "isRuntimeRegistryLane": true, "runtimeTrackType": "Sub808", "bindingKind": "backed", "hasBackingTrack": true, "laneParamsAvailable": true, "trackType": "Sub808", "laneParams": {"enabled": true, "muted": false, "solo": false, "locked": false, "laneRole": "drill_sub", "laneVolume": 0.959999978542328, "selectedSampleIndex": 3, "selectedSampleName": "808 4", "sound": {"pan": 0.0, "width": 1.0, "eqTone": 0.0, "compression": 0.0, "reverb": 0.0, "gate": 0.0, "transient": 0.0, "drive": 0.0}, "sub808Mono": true, "sub808CutItself": true, "sub808GlideTimeMs": 120, "sub808OverlapMode": 0, "sub808ScaleSnapPolicy": 2, "noteCount": 7, "taggedNoteCount": 0, "notes": [{"pitch": 36, "step": 0, "lengthSteps": 8, "velocity": 100, "microOffsetTicks": 0, "startTick": 0, "lengthTicks": 1920, "barIndex": 0, "stepInBar": 0, "isGhost": false, "semanticRole": "", "isSlide": false, "isLegato": false, "glideToNext": false}, {"pitch": 36, "step": 24, "lengthSteps": 4, "velocity": 100, "microOffsetTicks": 0, "startTick": 5760, "lengthTicks": 960, "barIndex": 1, "stepInBar": 8, "isGhost": false, "semanticRole": "", "isSlide": false, "isLegato": false, "glideToNext": false}, {"pitch": 36, "step": 32, "lengthSteps": 8, "velocity": 100, "microOffsetTicks": 0, "startTick": 7680, "lengthTicks": 1920, "barIndex": 2, "stepInBar": 0, "isGhost": false, "semanticRole": "", "isSlide": false, "isLegato": false, "glideToNext": false}, {"pitch": 36, "step": 56, "lengthSteps": 2, "velocity": 100, "microOffsetTicks": 0, "startTick": 13440, "lengthTicks": 480, "barIndex": 3, "stepInBar": 8, "isGhost": false, "semanticRole": "", "isSlide": false, "isLegato": false, "glideToNext": false}, {"pitch": 36, "step": 58, "lengthSteps": 2, "velocity": 100, "microOffsetTicks": 0, "startTick": 13920, "lengthTicks": 480, "barIndex": 3, "stepInBar": 10, "isGhost": false, "semanticRole": "", "isSlide": false, "isLegato": false, "glideToNext": false}, {"pitch": 36, "step": 60, "lengthSteps": 2, "velocity": 100, "microOffsetTicks": 0, "startTick": 14400, "lengthTicks": 480, "barIndex": 3, "stepInBar": 12, "isGhost": false, "semanticRole": "", "isSlide": false, "isLegato": false, "glideToNext": false}, {"pitch": 36, "step": 62, "lengthSteps": 2, "velocity": 100, "microOffsetTicks": 0, "startTick": 14880, "lengthTicks": 480, "barIndex": 3, "stepInBar": 14, "isGhost": false, "semanticRole": "", "isSlide": false, "isLegato": false, "glideToNext": false}]}}], "designerLaneLayout": [{"id": "registry:HiHat", "laneName": "HiHat", "groupName": "Hats", "dependencyName": "", "generationPriority": 86, "isCore": true, "enabled": true, "isRuntimeRegistryLane": true, "runtimeTrackType": "HiHat"}, {"id": "registry:HatFX", "laneName": "Hat Accent", "groupName": "Hats", "dependencyName": "HiHat", "generationPriority": 56, "isCore": false, "enabled": true, "isRuntimeRegistryLane": true, "runtimeTrackType": "HatFX"}, {"id": "registry:OpenHat", "laneName": "OpenHat", "groupName": "Hats", "dependencyName": "", "generationPriority": 74, "isCore": true, "enabled": true, "isRuntimeRegistryLane": true, "runtimeTrackType": "OpenHat"}, {"id": "registry:Snare", "laneName": "Snare", "groupName": "Snare", "dependencyName": "", "generationPriority": 92, "isCore": true, "enabled": true, "isRuntimeRegistryLane": true, "runtimeTrackType": "Snare"}, {"id": "registry:Clap/GhostSnare", "laneName": "Clap Ghost", "groupName": "Snare", "dependencyName": "Snare", "generationPriority": 60, "isCore": false, "enabled": true, "isRuntimeRegistryLane": true, "runtimeTrackType": "Clap/GhostSnare"}, {"id": "registry:Kick", "laneName": "Kick", "groupName": "Kick", "dependencyName": "", "generationPriority": 96, "isCore": true, "enabled": true, "isRuntimeRegistryLane": true, "runtimeTrackType": "Kick"}, {"id": "registry:GhostKick", "laneName": "Kick Ghost", "groupName": "Kick", "dependencyName": "Kick", "generationPriority": 58, "isCore": false, "enabled": true, "isRuntimeRegistryLane": true, "runtimeTrackType": "GhostKick"}, {"id": "registry:Ride", "laneName": "Ride", "groupName": "Texture", "dependencyName": "", "generationPriority": 42, "isCore": false, "enabled": false, "isRuntimeRegistryLane": true, "runtimeTrackType": "Ride"}, {"id": "registry:Cymbal", "laneName": "Cymbal", "groupName": "Texture", "dependencyName": "", "generationPriority": 38, "isCore": false, "enabled": false, "isRuntimeRegistryLane": true, "runtimeTrackType": "Cymbal"}, {"id": "registry:Perc", "laneName": "Perc", "groupName": "Perc", "dependencyName": "", "generationPriority": 68, "isCore": true, "enabled": true, "isRuntimeRegistryLane": true, "runtimeTrackType": "Perc"}, {"id": "registry:Sub808", "laneName": "Sub808", "groupName": "Bass", "dependencyName": "Kick", "generationPriority": 82, "isCore": true, "enabled": true, "isRuntimeRegistryLane": true, "runtimeTrackType": "Sub808"}], "referenceProject": {"bpm": 130.0, "swingPercent": 51.0, "bars": 4, "phraseLengthBars": 2, "phraseRoleSummary": "statement|ending", "previewStartStep": 34, "selectedTrackIndex": 1, "soundModuleTrackIndex": -1, "globalSound": {"pan": 0.0, "width": 1.0, "eqTone": 0.0, "compression": 0.0, "reverb": 0.0, "gate": 0.0, "transient": 0.0, "drive": 0.0}, "runtimeLaneOrder": ["registry:HiHat", "registry:HatFX", "registry:OpenHat", "registry:Snare", "registry:Clap/GhostSnare", "registry:Kick", "registry:GhostKick", "registry:Ride", "registry:Cymbal", "registry:Perc", "registry:Sub808"], "runtimeLaneLayout": [{"orderIndex": 0, "laneId": "registry:HiHat", "laneName": "HiHat", "groupName": "Hats", "dependencyName": "", "generationPriority": 86, "isCore": true, "isVisibleInEditor": true, "enabledByDefault": true, "supportsDragExport": true, "isGhostTrack": false, "defaultMidiNote": 42, "isRuntimeRegistryLane": true, "runtimeTrackType": "HiHat", "bindingKind": "backed", "hasBackingTrack": true, "laneParamsAvailable": true, "trackType": "HiHat", "laneParams": {"enabled": true, "muted": false, "solo": false, "locked": false, "laneRole": "drill_hat", "laneVolume": 0.839999973773956, "selectedSampleIndex": 4, "selectedSampleName": "Drill Hi-hat_2", "sound": {"pan": 0.0, "width": 1.0, "eqTone": 0.0, "compression": 0.0, "reverb": 0.0, "gate": 0.0, "transient": 0.0, "drive": 0.0}, "sub808Mono": true, "sub808CutItself": true, "sub808GlideTimeMs": 120, "sub808OverlapMode": 0, "sub808ScaleSnapPolicy": 2, "noteCount": 24, "taggedNoteCount": 0, "notes": [{"pitch": 36, "step": 0, "lengthSteps": 1, "velocity": 100, "microOffsetTicks": 0, "startTick": 0, "lengthTicks": 240, "barIndex": 0, "stepInBar": 0, "isGhost": false, "semanticRole": "", "isSlide": false, "isLegato": false, "glideToNext": false}, {"pitch": 36, "step": 8, "lengthSteps": 1, "velocity": 100, "microOffsetTicks": 0, "startTick": 1920, "lengthTicks": 240, "barIndex": 0, "stepInBar": 8, "isGhost": false, "semanticRole": "", "isSlide": false, "isLegato": false, "glideToNext": false}, {"pitch": 36, "step": 11, "lengthSteps": 1, "velocity": 100, "microOffsetTicks": 0, "startTick": 2640, "lengthTicks": 240, "barIndex": 0, "stepInBar": 11, "isGhost": false, "semanticRole": "", "isSlide": false, "isLegato": false, "glideToNext": false}, {"pitch": 36, "step": 14, "lengthSteps": 1, "velocity": 100, "microOffsetTicks": 0, "startTick": 3360, "lengthTicks": 240, "barIndex": 0, "stepInBar": 14, "isGhost": false, "semanticRole": "", "isSlide": false, "isLegato": false, "glideToNext": false}, {"pitch": 36, "step": 16, "lengthSteps": 1, "velocity": 100, "microOffsetTicks": 0, "startTick": 3840, "lengthTicks": 240, "barIndex": 1, "stepInBar": 0, "isGhost": false, "semanticRole": "", "isSlide": false, "isLegato": false, "glideToNext": false}, {"pitch": 36, "step": 18, "lengthSteps": 1, "velocity": 100, "microOffsetTicks": 0, "startTick": 4320, "lengthTicks": 240, "barIndex": 1, "stepInBar": 2, "isGhost": false, "semanticRole": "", "isSlide": false, "isLegato": false, "glideToNext": false}, {"pitch": 36, "step": 22, "lengthSteps": 1, "velocity": 10, "microOffsetTicks": 0, "startTick": 5280, "lengthTicks": 240, "barIndex": 1, "stepInBar": 6, "isGhost": false, "semanticRole": "", "isSlide": false, "isLegato": false, "glideToNext": false}, {"pitch": 36, "step": 22, "lengthSteps": 1, "velocity": 26, "microOffsetTicks": 120, "startTick": 5400, "lengthTicks": 240, "barIndex": 1, "stepInBar": 6, "isGhost": false, "semanticRole": "", "isSlide": false, "isLegato": false, "glideToNext": false}, {"pitch": 36, "step": 23, "lengthSteps": 1, "velocity": 55, "microOffsetTicks": 0, "startTick": 5520, "lengthTicks": 240, "barIndex": 1, "stepInBar": 7, "isGhost": false, "semanticRole": "", "isSlide": false, "isLegato": false, "glideToNext": false}, {"pitch": 36, "step": 24, "lengthSteps": 1, "velocity": 88, "microOffsetTicks": -115, "startTick": 5645, "lengthTicks": 240, "barIndex": 1, "stepInBar": 8, "isGhost": false, "semanticRole": "", "isSlide": false, "isLegato": false, "glideToNext": false}, {"pitch": 36, "step": 24, "lengthSteps": 1, "velocity": 100, "microOffsetTicks": 120, "startTick": 5880, "lengthTicks": 240, "barIndex": 1, "stepInBar": 8, "isGhost": false, "semanticRole": "", "isSlide": false, "isLegato": false, "glideToNext": false}, {"pitch": 36, "step": 30, "lengthSteps": 1, "velocity": 100, "microOffsetTicks": 0, "startTick": 7200, "lengthTicks": 240, "barIndex": 1, "stepInBar": 14, "isGhost": false, "semanticRole": "", "isSlide": false, "isLegato": false, "glideToNext": false}, {"pitch": 36, "step": 32, "lengthSteps": 1, "velocity": 100, "microOffsetTicks": 0, "startTick": 7680, "lengthTicks": 240, "barIndex": 2, "stepInBar": 0, "isGhost": false, "semanticRole": "", "isSlide": false, "isLegato": false, "glideToNext": false}, {"pitch": 36, "step": 40, "lengthSteps": 1, "velocity": 100, "microOffsetTicks": 0, "startTick": 9600, "lengthTicks": 240, "barIndex": 2, "stepInBar": 8, "isGhost": false, "semanticRole": "", "isSlide": false, "isLegato": false, "glideToNext": false}, {"pitch": 36, "step": 43, "lengthSteps": 1, "velocity": 100, "microOffsetTicks": 0, "startTick": 10320, "lengthTicks": 240, "barIndex": 2, "stepInBar": 11, "isGhost": false, "semanticRole": "", "isSlide": false, "isLegato": false, "glideToNext": false}, {"pitch": 36, "step": 46, "lengthSteps": 1, "velocity": 100, "microOffsetTicks": 0, "startTick": 11040, "lengthTicks": 240, "barIndex": 2, "stepInBar": 14, "isGhost": false, "semanticRole": "", "isSlide": false, "isLegato": false, "glideToNext": false}, {"pitch": 36, "step": 48, "lengthSteps": 1, "velocity": 100, "microOffsetTicks": 0, "startTick": 11520, "lengthTicks": 240, "barIndex": 3, "stepInBar": 0, "isGhost": false, "semanticRole": "", "isSlide": false, "isLegato": false, "glideToNext": false}, {"pitch": 36, "step": 50, "lengthSteps": 1, "velocity": 100, "microOffsetTicks": 0, "startTick": 12000, "lengthTicks": 240, "barIndex": 3, "stepInBar": 2, "isGhost": false, "semanticRole": "", "isSlide": false, "isLegato": false, "glideToNext": false}, {"pitch": 36, "step": 54, "lengthSteps": 1, "velocity": 10, "microOffsetTicks": 0, "startTick": 12960, "lengthTicks": 240, "barIndex": 3, "stepInBar": 6, "isGhost": false, "semanticRole": "", "isSlide": false, "isLegato": false, "glideToNext": false}, {"pitch": 36, "step": 54, "lengthSteps": 1, "velocity": 26, "microOffsetTicks": 120, "startTick": 13080, "lengthTicks": 240, "barIndex": 3, "stepInBar": 6, "isGhost": false, "semanticRole": "", "isSlide": false, "isLegato": false, "glideToNext": false}, {"pitch": 36, "step": 55, "lengthSteps": 1, "velocity": 55, "microOffsetTicks": 0, "startTick": 13200, "lengthTicks": 240, "barIndex": 3, "stepInBar": 7, "isGhost": false, "semanticRole": "", "isSlide": false, "isLegato": false, "glideToNext": false}, {"pitch": 36, "step": 56, "lengthSteps": 1, "velocity": 88, "microOffsetTicks": -115, "startTick": 13325, "lengthTicks": 240, "barIndex": 3, "stepInBar": 8, "isGhost": false, "semanticRole": "", "isSlide": false, "isLegato": false, "glideToNext": false}, {"pitch": 36, "step": 56, "lengthSteps": 1, "velocity": 100, "microOffsetTicks": 120, "startTick": 13560, "lengthTicks": 240, "barIndex": 3, "stepInBar": 8, "isGhost": false, "semanticRole": "", "isSlide": false, "isLegato": false, "glideToNext": false}, {"pitch": 36, "step": 62, "lengthSteps": 1, "velocity": 100, "microOffsetTicks": 0, "startTick": 14880, "lengthTicks": 240, "barIndex": 3, "stepInBar": 14, "isGhost": false, "semanticRole": "", "isSlide": false, "isLegato": false, "glideToNext": false}]}}, {"orderIndex": 1, "laneId": "registry:HatFX", "laneName": "Hat Accent", "groupName": "Hats", "dependencyName": "HiHat", "generationPriority": 56, "isCore": false, "isVisibleInEditor": true, "enabledByDefault": false, "supportsDragExport": true, "isGhostTrack": true, "defaultMidiNote": 44, "isRuntimeRegistryLane": true, "runtimeTrackType": "HatFX", "bindingKind": "backed", "hasBackingTrack": true, "laneParamsAvailable": true, "trackType": "HatFX", "laneParams": {"enabled": true, "muted": false, "solo": false, "locked": false, "laneRole": "drill_hat_fx", "laneVolume": 0.699999988079071, "selectedSampleIndex": 0, "selectedSampleName": "Drill Hi-hat_1", "sound": {"pan": 0.0, "width": 1.0, "eqTone": 0.0, "compression": 0.0, "reverb": 0.0, "gate": 0.0, "transient": 0.0, "drive": 0.0}, "sub808Mono": true, "sub808CutItself": true, "sub808GlideTimeMs": 120, "sub808OverlapMode": 0, "sub808ScaleSnapPolicy": 2, "noteCount": 27, "taggedNoteCount": 0, "notes": [{"pitch": 36, "step": 2, "lengthSteps": 1, "velocity": 100, "microOffsetTicks": 0, "startTick": 480, "lengthTicks": 240, "barIndex": 0, "stepInBar": 2, "isGhost": false, "semanticRole": "", "isSlide": false, "isLegato": false, "glideToNext": false}, {"pitch": 36, "step": 4, "lengthSteps": 1, "velocity": 66, "microOffsetTicks": 0, "startTick": 960, "lengthTicks": 240, "barIndex": 0, "stepInBar": 4, "isGhost": false, "semanticRole": "", "isSlide": false, "isLegato": false, "glideToNext": false}, {"pitch": 36, "step": 4, "lengthSteps": 1, "velocity": 75, "microOffsetTicks": 120, "startTick": 1080, "lengthTicks": 240, "barIndex": 0, "stepInBar": 4, "isGhost": false, "semanticRole": "", "isSlide": false, "isLegato": false, "glideToNext": false}, {"pitch": 36, "step": 5, "lengthSteps": 1, "velocity": 49, "microOffsetTicks": 0, "startTick": 1200, "lengthTicks": 240, "barIndex": 0, "stepInBar": 5, "isGhost": false, "semanticRole": "", "isSlide": false, "isLegato": false, "glideToNext": false}, {"pitch": 36, "step": 5, "lengthSteps": 1, "velocity": 57, "microOffsetTicks": 120, "startTick": 1320, "lengthTicks": 240, "barIndex": 0, "stepInBar": 5, "isGhost": false, "semanticRole": "", "isSlide": false, "isLegato": false, "glideToNext": false}, {"pitch": 36, "step": 18, "lengthSteps": 1, "velocity": 100, "microOffsetTicks": 0, "startTick": 4320, "lengthTicks": 240, "barIndex": 1, "stepInBar": 2, "isGhost": false, "semanticRole": "", "isSlide": false, "isLegato": false, "glideToNext": false}, {"pitch": 36, "step": 20, "lengthSteps": 1, "velocity": 44, "microOffsetTicks": 0, "startTick": 4800, "lengthTicks": 240, "barIndex": 1, "stepInBar": 4, "isGhost": false, "semanticRole": "", "isSlide": false, "isLegato": false, "glideToNext": false}, {"pitch": 36, "step": 20, "lengthSteps": 1, "velocity": 49, "microOffsetTicks": 120, "startTick": 4920, "lengthTicks": 240, "barIndex": 1, "stepInBar": 4, "isGhost": false, "semanticRole": "", "isSlide": false, "isLegato": false, "glideToNext": false}, {"pitch": 36, "step": 21, "lengthSteps": 1, "velocity": 49, "microOffsetTicks": 0, "startTick": 5040, "lengthTicks": 240, "barIndex": 1, "stepInBar": 5, "isGhost": false, "semanticRole": "", "isSlide": false, "isLegato": false, "glideToNext": false}, {"pitch": 36, "step": 21, "lengthSteps": 1, "velocity": 100, "microOffsetTicks": 120, "startTick": 5160, "lengthTicks": 240, "barIndex": 1, "stepInBar": 5, "isGhost": false, "semanticRole": "", "isSlide": false, "isLegato": false, "glideToNext": false}, {"pitch": 36, "step": 26, "lengthSteps": 1, "velocity": 53, "microOffsetTicks": 0, "startTick": 6240, "lengthTicks": 240, "barIndex": 1, "stepInBar": 10, "isGhost": false, "semanticRole": "", "isSlide": false, "isLegato": false, "glideToNext": false}, {"pitch": 36, "step": 28, "lengthSteps": 1, "velocity": 57, "microOffsetTicks": 0, "startTick": 6720, "lengthTicks": 240, "barIndex": 1, "stepInBar": 12, "isGhost": false, "semanticRole": "", "isSlide": false, "isLegato": false, "glideToNext": false}, {"pitch": 36, "step": 34, "lengthSteps": 1, "velocity": 100, "microOffsetTicks": 0, "startTick": 8160, "lengthTicks": 240, "barIndex": 2, "stepInBar": 2, "isGhost": false, "semanticRole": "", "isSlide": false, "isLegato": false, "glideToNext": false}, {"pitch": 36, "step": 36, "lengthSteps": 1, "velocity": 66, "microOffsetTicks": 0, "startTick": 8640, "lengthTicks": 240, "barIndex": 2, "stepInBar": 4, "isGhost": false, "semanticRole": "", "isSlide": false, "isLegato": false, "glideToNext": false}, {"pitch": 36, "step": 36, "lengthSteps": 1, "velocity": 75, "microOffsetTicks": 120, "startTick": 8760, "lengthTicks": 240, "barIndex": 2, "stepInBar": 4, "isGhost": false, "semanticRole": "", "isSlide": false, "isLegato": false, "glideToNext": false}, {"pitch": 36, "step": 37, "lengthSteps": 1, "velocity": 49, "microOffsetTicks": 0, "startTick": 8880, "lengthTicks": 240, "barIndex": 2, "stepInBar": 5, "isGhost": false, "semanticRole": "", "isSlide": false, "isLegato": false, "glideToNext": false}, {"pitch": 36, "step": 37, "lengthSteps": 1, "velocity": 57, "microOffsetTicks": 120, "startTick": 9000, "lengthTicks": 240, "barIndex": 2, "stepInBar": 5, "isGhost": false, "semanticRole": "", "isSlide": false, "isLegato": false, "glideToNext": false}, {"pitch": 36, "step": 50, "lengthSteps": 1, "velocity": 100, "microOffsetTicks": 0, "startTick": 12000, "lengthTicks": 240, "barIndex": 3, "stepInBar": 2, "isGhost": false, "semanticRole": "", "isSlide": false, "isLegato": false, "glideToNext": false}, {"pitch": 36, "step": 52, "lengthSteps": 1, "velocity": 44, "microOffsetTicks": 0, "startTick": 12480, "lengthTicks": 240, "barIndex": 3, "stepInBar": 4, "isGhost": false, "semanticRole": "", "isSlide": false, "isLegato": false, "glideToNext": false}, {"pitch": 36, "step": 52, "lengthSteps": 1, "velocity": 49, "microOffsetTicks": 120, "startTick": 12600, "lengthTicks": 240, "barIndex": 3, "stepInBar": 4, "isGhost": false, "semanticRole": "", "isSlide": false, "isLegato": false, "glideToNext": false}, {"pitch": 36, "step": 53, "lengthSteps": 1, "velocity": 49, "microOffsetTicks": 0, "startTick": 12720, "lengthTicks": 240, "barIndex": 3, "stepInBar": 5, "isGhost": false, "semanticRole": "", "isSlide": false, "isLegato": false, "glideToNext": false}, {"pitch": 36, "step": 53, "lengthSteps": 1, "velocity": 100, "microOffsetTicks": 120, "startTick": 12840, "lengthTicks": 240, "barIndex": 3, "stepInBar": 5, "isGhost": false, "semanticRole": "", "isSlide": false, "isLegato": false, "glideToNext": false}, {"pitch": 36, "step": 58, "lengthSteps": 1, "velocity": 53, "microOffsetTicks": 0, "startTick": 13920, "lengthTicks": 240, "barIndex": 3, "stepInBar": 10, "isGhost": false, "semanticRole": "", "isSlide": false, "isLegato": false, "glideToNext": false}, {"pitch": 36, "step": 59, "lengthSteps": 1, "velocity": 100, "microOffsetTicks": 0, "startTick": 14160, "lengthTicks": 240, "barIndex": 3, "stepInBar": 11, "isGhost": false, "semanticRole": "", "isSlide": false, "isLegato": false, "glideToNext": false}, {"pitch": 36, "step": 60, "lengthSteps": 1, "velocity": 57, "microOffsetTicks": 0, "startTick": 14400, "lengthTicks": 240, "barIndex": 3, "stepInBar": 12, "isGhost": false, "semanticRole": "", "isSlide": false, "isLegato": false, "glideToNext": false}, {"pitch": 36, "step": 61, "lengthSteps": 1, "velocity": 100, "microOffsetTicks": 0, "startTick": 14640, "lengthTicks": 240, "barIndex": 3, "stepInBar": 13, "isGhost": false, "semanticRole": "", "isSlide": false, "isLegato": false, "glideToNext": false}, {"pitch": 36, "step": 62, "lengthSteps": 1, "velocity": 100, "microOffsetTicks": 0, "startTick": 14880, "lengthTicks": 240, "barIndex": 3, "stepInBar": 14, "isGhost": false, "semanticRole": "", "isSlide": false, "isLegato": false, "glideToNext": false}]}}, {"orderIndex": 2, "laneId": "registry:OpenHat", "laneName": "OpenHat", "groupName": "Hats", "dependencyName": "", "generationPriority": 74, "isCore": true, "isVisibleInEditor": true, "enabledByDefault": true, "supportsDragExport": true, "isGhostTrack": false, "defaultMidiNote": 46, "isRuntimeRegistryLane": true, "runtimeTrackType": "OpenHat", "bindingKind": "backed", "hasBackingTrack": true, "laneParamsAvailable": true, "trackType": "OpenHat", "laneParams": {"enabled": true, "muted": false, "solo": false, "locked": false, "laneRole": "drill_open", "laneVolume": 0.680000007152557, "selectedSampleIndex": 0, "selectedSampleName": "Drill Open Hat_1", "sound": {"pan": 0.0, "width": 1.0, "eqTone": 0.0, "compression": 0.0, "reverb": 0.0, "gate": 0.0, "transient": 0.0, "drive": 0.0}, "sub808Mono": true, "sub808CutItself": true, "sub808GlideTimeMs": 120, "sub808OverlapMode": 0, "sub808ScaleSnapPolicy": 2, "noteCount": 0, "taggedNoteCount": 0, "notes": []}}, {"orderIndex": 3, "laneId": "registry:Snare", "laneName": "Snare", "groupName": "Snare", "dependencyName": "", "generationPriority": 92, "isCore": true, "isVisibleInEditor": true, "enabledByDefault": true, "supportsDragExport": true, "isGhostTrack": false, "defaultMidiNote": 38, "isRuntimeRegistryLane": true, "runtimeTrackType": "Snare", "bindingKind": "backed", "hasBackingTrack": true, "laneParamsAvailable": true, "trackType": "Snare", "laneParams": {"enabled": true, "muted": false, "solo": false, "locked": false, "laneRole": "drill_backbeat", "laneVolume": 0.980000019073486, "selectedSampleIndex": 6, "selectedSampleName": "drill-snare_140bpm_D_minor", "sound": {"pan": 0.0, "width": 1.0, "eqTone": 0.0, "compression": 0.0, "reverb": 0.0, "gate": 0.0, "transient": 0.0, "drive": 0.0}, "sub808Mono": true, "sub808CutItself": true, "sub808GlideTimeMs": 120, "sub808OverlapMode": 0, "sub808ScaleSnapPolicy": 2, "noteCount": 5, "taggedNoteCount": 0, "notes": [{"pitch": 36, "step": 4, "lengthSteps": 1, "velocity": 100, "microOffsetTicks": 0, "startTick": 960, "lengthTicks": 240, "barIndex": 0, "stepInBar": 4, "isGhost": false, "semanticRole": "", "isSlide": false, "isLegato": false, "glideToNext": false}, {"pitch": 36, "step": 26, "lengthSteps": 1, "velocity": 100, "microOffsetTicks": 0, "startTick": 6240, "lengthTicks": 240, "barIndex": 1, "stepInBar": 10, "isGhost": false, "semanticRole": "", "isSlide": false, "isLegato": false, "glideToNext": false}, {"pitch": 36, "step": 28, "lengthSteps": 1, "velocity": 100, "microOffsetTicks": 0, "startTick": 6720, "lengthTicks": 240, "barIndex": 1, "stepInBar": 12, "isGhost": false, "semanticRole": "", "isSlide": false, "isLegato": false, "glideToNext": false}, {"pitch": 36, "step": 40, "lengthSteps": 1, "velocity": 100, "microOffsetTicks": 0, "startTick": 9600, "lengthTicks": 240, "barIndex": 2, "stepInBar": 8, "isGhost": false, "semanticRole": "", "isSlide": false, "isLegato": false, "glideToNext": false}, {"pitch": 36, "step": 60, "lengthSteps": 1, "velocity": 100, "microOffsetTicks": 0, "startTick": 14400, "lengthTicks": 240, "barIndex": 3, "stepInBar": 12, "isGhost": false, "semanticRole": "", "isSlide": false, "isLegato": false, "glideToNext": false}]}}, {"orderIndex": 4, "laneId": "registry:Clap/GhostSnare", "laneName": "Clap Ghost", "groupName": "Snare", "dependencyName": "Snare", "generationPriority": 60, "isCore": false, "isVisibleInEditor": true, "enabledByDefault": true, "supportsDragExport": true, "isGhostTrack": true, "defaultMidiNote": 39, "isRuntimeRegistryLane": true, "runtimeTrackType": "Clap/GhostSnare", "bindingKind": "backed", "hasBackingTrack": true, "laneParamsAvailable": true, "trackType": "Clap/GhostSnare", "laneParams": {"enabled": true, "muted": false, "solo": false, "locked": false, "laneRole": "drill_layer", "laneVolume": 0.740000009536743, "selectedSampleIndex": 0, "selectedSampleName": "Counter UK Snare 1", "sound": {"pan": 0.0, "width": 1.0, "eqTone": 0.0, "compression": 0.0, "reverb": 0.0, "gate": 0.0, "transient": 0.0, "drive": 0.0}, "sub808Mono": true, "sub808CutItself": true, "sub808GlideTimeMs": 120, "sub808OverlapMode": 0, "sub808ScaleSnapPolicy": 2, "noteCount": 0, "taggedNoteCount": 0, "notes": []}}, {"orderIndex": 5, "laneId": "registry:Kick", "laneName": "Kick", "groupName": "Kick", "dependencyName": "", "generationPriority": 96, "isCore": true, "isVisibleInEditor": true, "enabledByDefault": true, "supportsDragExport": true, "isGhostTrack": false, "defaultMidiNote": 36, "isRuntimeRegistryLane": true, "runtimeTrackType": "Kick", "bindingKind": "backed", "hasBackingTrack": true, "laneParamsAvailable": true, "trackType": "Kick", "laneParams": {"enabled": true, "muted": false, "solo": false, "locked": false, "laneRole": "drill_kick", "laneVolume": 0.939999997615814, "selectedSampleIndex": 0, "selectedSampleName": "Diamond Wav - Best Kick", "sound": {"pan": 0.0, "width": 1.0, "eqTone": 0.0, "compression": 0.0, "reverb": 0.0, "gate": 0.0, "transient": 0.0, "drive": 0.0}, "sub808Mono": true, "sub808CutItself": true, "sub808GlideTimeMs": 120, "sub808OverlapMode": 0, "sub808ScaleSnapPolicy": 2, "noteCount": 5, "taggedNoteCount": 0, "notes": [{"pitch": 36, "step": 0, "lengthSteps": 1, "velocity": 100, "microOffsetTicks": 0, "startTick": 0, "lengthTicks": 240, "barIndex": 0, "stepInBar": 0, "isGhost": false, "semanticRole": "", "isSlide": false, "isLegato": false, "glideToNext": false}, {"pitch": 36, "step": 20, "lengthSteps": 1, "velocity": 100, "microOffsetTicks": 0, "startTick": 4800, "lengthTicks": 240, "barIndex": 1, "stepInBar": 4, "isGhost": false, "semanticRole": "", "isSlide": false, "isLegato": false, "glideToNext": false}, {"pitch": 36, "step": 32, "lengthSteps": 1, "velocity": 100, "microOffsetTicks": 0, "startTick": 7680, "lengthTicks": 240, "barIndex": 2, "stepInBar": 0, "isGhost": false, "semanticRole": "", "isSlide": false, "isLegato": false, "glideToNext": false}, {"pitch": 36, "step": 38, "lengthSteps": 1, "velocity": 100, "microOffsetTicks": 0, "startTick": 9120, "lengthTicks": 240, "barIndex": 2, "stepInBar": 6, "isGhost": false, "semanticRole": "", "isSlide": false, "isLegato": false, "glideToNext": false}, {"pitch": 36, "step": 56, "lengthSteps": 1, "velocity": 100, "microOffsetTicks": 0, "startTick": 13440, "lengthTicks": 240, "barIndex": 3, "stepInBar": 8, "isGhost": false, "semanticRole": "", "isSlide": false, "isLegato": false, "glideToNext": false}]}}, {"orderIndex": 6, "laneId": "registry:GhostKick", "laneName": "Kick Ghost", "groupName": "Kick", "dependencyName": "Kick", "generationPriority": 58, "isCore": false, "isVisibleInEditor": true, "enabledByDefault": true, "supportsDragExport": true, "isGhostTrack": true, "defaultMidiNote": 35, "isRuntimeRegistryLane": true, "runtimeTrackType": "GhostKick", "bindingKind": "backed", "hasBackingTrack": true, "laneParamsAvailable": true, "trackType": "GhostKick", "laneParams": {"enabled": true, "muted": false, "solo": false, "locked": false, "laneRole": "drill_support", "laneVolume": 0.620000004768372, "selectedSampleIndex": 2, "selectedSampleName": "Kick 3", "sound": {"pan": 0.0, "width": 1.0, "eqTone": 0.0, "compression": 0.0, "reverb": 0.0, "gate": 0.0, "transient": 0.0, "drive": 0.0}, "sub808Mono": true, "sub808CutItself": true, "sub808GlideTimeMs": 120, "sub808OverlapMode": 0, "sub808ScaleSnapPolicy": 2, "noteCount": 0, "taggedNoteCount": 0, "notes": []}}, {"orderIndex": 7, "laneId": "registry:Ride", "laneName": "Ride", "groupName": "Texture", "dependencyName": "", "generationPriority": 42, "isCore": false, "isVisibleInEditor": true, "enabledByDefault": false, "supportsDragExport": true, "isGhostTrack": false, "defaultMidiNote": 51, "isRuntimeRegistryLane": true, "runtimeTrackType": "Ride", "bindingKind": "backed", "hasBackingTrack": true, "laneParamsAvailable": true, "trackType": "Ride", "laneParams": {"enabled": false, "muted": false, "solo": false, "locked": false, "laneRole": "support", "laneVolume": 0.540000021457672, "selectedSampleIndex": 0, "selectedSampleName": "(empty)", "sound": {"pan": 0.0, "width": 1.0, "eqTone": 0.0, "compression": 0.0, "reverb": 0.0, "gate": 0.0, "transient": 0.0, "drive": 0.0}, "sub808Mono": true, "sub808CutItself": true, "sub808GlideTimeMs": 120, "sub808OverlapMode": 0, "sub808ScaleSnapPolicy": 2, "noteCount": 0, "taggedNoteCount": 0, "notes": []}}, {"orderIndex": 8, "laneId": "registry:Cymbal", "laneName": "Cymbal", "groupName": "Texture", "dependencyName": "", "generationPriority": 38, "isCore": false, "isVisibleInEditor": true, "enabledByDefault": false, "supportsDragExport": true, "isGhostTrack": false, "defaultMidiNote": 49, "isRuntimeRegistryLane": true, "runtimeTrackType": "Cymbal", "bindingKind": "backed", "hasBackingTrack": true, "laneParamsAvailable": true, "trackType": "Cymbal", "laneParams": {"enabled": false, "muted": false, "solo": false, "locked": false, "laneRole": "crash", "laneVolume": 0.579999983310699, "selectedSampleIndex": 0, "selectedSampleName": "(empty)", "sound": {"pan": 0.0, "width": 1.0, "eqTone": 0.0, "compression": 0.0, "reverb": 0.0, "gate": 0.0, "transient": 0.0, "drive": 0.0}, "sub808Mono": true, "sub808CutItself": true, "sub808GlideTimeMs": 120, "sub808OverlapMode": 0, "sub808ScaleSnapPolicy": 2, "noteCount": 0, "taggedNoteCount": 0, "notes": []}}, {"orderIndex": 9, "laneId": "registry:Perc", "laneName": "Perc", "groupName": "Perc", "dependencyName": "", "generationPriority": 68, "isCore": true, "isVisibleInEditor": true, "enabledByDefault": true, "supportsDragExport": true, "isGhostTrack": false, "defaultMidiNote": 50, "isRuntimeRegistryLane": true, "runtimeTrackType": "Perc", "bindingKind": "backed", "hasBackingTrack": true, "laneParamsAvailable": true, "trackType": "Perc", "laneParams": {"enabled": true, "muted": false, "solo": false, "locked": false, "laneRole": "drill_texture", "laneVolume": 0.600000023841858, "selectedSampleIndex": 0, "selectedSampleName": "Drill Perc (2)", "sound": {"pan": 0.0, "width": 1.0, "eqTone": 0.0, "compression": 0.0, "reverb": 0.0, "gate": 0.0, "transient": 0.0, "drive": 0.0}, "sub808Mono": true, "sub808CutItself": true, "sub808GlideTimeMs": 120, "sub808OverlapMode": 0, "sub808ScaleSnapPolicy": 2, "noteCount": 0, "taggedNoteCount": 0, "notes": []}}, {"orderIndex": 10, "laneId": "registry:Sub808", "laneName": "Sub808", "groupName": "Bass", "dependencyName": "Kick", "generationPriority": 82, "isCore": true, "isVisibleInEditor": true, "enabledByDefault": false, "supportsDragExport": true, "isGhostTrack": false, "defaultMidiNote": 34, "isRuntimeRegistryLane": true, "runtimeTrackType": "Sub808", "bindingKind": "backed", "hasBackingTrack": true, "laneParamsAvailable": true, "trackType": "Sub808", "laneParams": {"enabled": true, "muted": false, "solo": false, "locked": false, "laneRole": "drill_sub", "laneVolume": 0.959999978542328, "selectedSampleIndex": 3, "selectedSampleName": "808 4", "sound": {"pan": 0.0, "width": 1.0, "eqTone": 0.0, "compression": 0.0, "reverb": 0.0, "gate": 0.0, "transient": 0.0, "drive": 0.0}, "sub808Mono": true, "sub808CutItself": true, "sub808GlideTimeMs": 120, "sub808OverlapMode": 0, "sub808ScaleSnapPolicy": 2, "noteCount": 7, "taggedNoteCount": 0, "notes": [{"pitch": 36, "step": 0, "lengthSteps": 8, "velocity": 100, "microOffsetTicks": 0, "startTick": 0, "lengthTicks": 1920, "barIndex": 0, "stepInBar": 0, "isGhost": false, "semanticRole": "", "isSlide": false, "isLegato": false, "glideToNext": false}, {"pitch": 36, "step": 24, "lengthSteps": 4, "velocity": 100, "microOffsetTicks": 0, "startTick": 5760, "lengthTicks": 960, "barIndex": 1, "stepInBar": 8, "isGhost": false, "semanticRole": "", "isSlide": false, "isLegato": false, "glideToNext": false}, {"pitch": 36, "step": 32, "lengthSteps": 8, "velocity": 100, "microOffsetTicks": 0, "startTick": 7680, "lengthTicks": 1920, "barIndex": 2, "stepInBar": 0, "isGhost": false, "semanticRole": "", "isSlide": false, "isLegato": false, "glideToNext": false}, {"pitch": 36, "step": 56, "lengthSteps": 2, "velocity": 100, "microOffsetTicks": 0, "startTick": 13440, "lengthTicks": 480, "barIndex": 3, "stepInBar": 8, "isGhost": false, "semanticRole": "", "isSlide": false, "isLegato": false, "glideToNext": false}, {"pitch": 36, "step": 58, "lengthSteps": 2, "velocity": 100, "microOffsetTicks": 0, "startTick": 13920, "lengthTicks": 480, "barIndex": 3, "stepInBar": 10, "isGhost": false, "semanticRole": "", "isSlide": false, "isLegato": false, "glideToNext": false}, {"pitch": 36, "step": 60, "lengthSteps": 2, "velocity": 100, "microOffsetTicks": 0, "startTick": 14400, "lengthTicks": 480, "barIndex": 3, "stepInBar": 12, "isGhost": false, "semanticRole": "", "isSlide": false, "isLegato": false, "glideToNext": false}, {"pitch": 36, "step": 62, "lengthSteps": 2, "velocity": 100, "microOffsetTicks": 0, "startTick": 14880, "lengthTicks": 480, "barIndex": 3, "stepInBar": 14, "isGhost": false, "semanticRole": "", "isSlide": false, "isLegato": false, "glideToNext": false}]}}], "selectedTrackLaneId": "registry:HatFX", "soundModuleTrackLaneId": "", "tracks": [{"trackType": "HiHat", "displayName": "HiHat", "laneId": "registry:HiHat", "runtimeTrackType": "HiHat", "bindingKind": "backed", "laneName": "HiHat", "laneGroup": "Hats", "laneDependency": "", "generationPriority": 86, "isCoreLane": true, "isRuntimeRegistryLane": true, "laneParams": {"enabled": true, "muted": false, "solo": false, "locked": false, "laneRole": "drill_hat", "laneVolume": 0.839999973773956, "selectedSampleIndex": 4, "selectedSampleName": "Drill Hi-hat_2", "sound": {"pan": 0.0, "width": 1.0, "eqTone": 0.0, "compression": 0.0, "reverb": 0.0, "gate": 0.0, "transient": 0.0, "drive": 0.0}, "sub808Mono": true, "sub808CutItself": true, "sub808GlideTimeMs": 120, "sub808OverlapMode": 0, "sub808ScaleSnapPolicy": 2, "noteCount": 24, "taggedNoteCount": 0, "notes": [{"pitch": 36, "step": 0, "lengthSteps": 1, "velocity": 100, "microOffsetTicks": 0, "startTick": 0, "lengthTicks": 240, "barIndex": 0, "stepInBar": 0, "isGhost": false, "semanticRole": "", "isSlide": false, "isLegato": false, "glideToNext": false}, {"pitch": 36, "step": 8, "lengthSteps": 1, "velocity": 100, "microOffsetTicks": 0, "startTick": 1920, "lengthTicks": 240, "barIndex": 0, "stepInBar": 8, "isGhost": false, "semanticRole": "", "isSlide": false, "isLegato": false, "glideToNext": false}, {"pitch": 36, "step": 11, "lengthSteps": 1, "velocity": 100, "microOffsetTicks": 0, "startTick": 2640, "lengthTicks": 240, "barIndex": 0, "stepInBar": 11, "isGhost": false, "semanticRole": "", "isSlide": false, "isLegato": false, "glideToNext": false}, {"pitch": 36, "step": 14, "lengthSteps": 1, "velocity": 100, "microOffsetTicks": 0, "startTick": 3360, "lengthTicks": 240, "barIndex": 0, "stepInBar": 14, "isGhost": false, "semanticRole": "", "isSlide": false, "isLegato": false, "glideToNext": false}, {"pitch": 36, "step": 16, "lengthSteps": 1, "velocity": 100, "microOffsetTicks": 0, "startTick": 3840, "lengthTicks": 240, "barIndex": 1, "stepInBar": 0, "isGhost": false, "semanticRole": "", "isSlide": false, "isLegato": false, "glideToNext": false}, {"pitch": 36, "step": 18, "lengthSteps": 1, "velocity": 100, "microOffsetTicks": 0, "startTick": 4320, "lengthTicks": 240, "barIndex": 1, "stepInBar": 2, "isGhost": false, "semanticRole": "", "isSlide": false, "isLegato": false, "glideToNext": false}, {"pitch": 36, "step": 22, "lengthSteps": 1, "velocity": 10, "microOffsetTicks": 0, "startTick": 5280, "lengthTicks": 240, "barIndex": 1, "stepInBar": 6, "isGhost": false, "semanticRole": "", "isSlide": false, "isLegato": false, "glideToNext": false}, {"pitch": 36, "step": 22, "lengthSteps": 1, "velocity": 26, "microOffsetTicks": 120, "startTick": 5400, "lengthTicks": 240, "barIndex": 1, "stepInBar": 6, "isGhost": false, "semanticRole": "", "isSlide": false, "isLegato": false, "glideToNext": false}, {"pitch": 36, "step": 23, "lengthSteps": 1, "velocity": 55, "microOffsetTicks": 0, "startTick": 5520, "lengthTicks": 240, "barIndex": 1, "stepInBar": 7, "isGhost": false, "semanticRole": "", "isSlide": false, "isLegato": false, "glideToNext": false}, {"pitch": 36, "step": 24, "lengthSteps": 1, "velocity": 88, "microOffsetTicks": -115, "startTick": 5645, "lengthTicks": 240, "barIndex": 1, "stepInBar": 8, "isGhost": false, "semanticRole": "", "isSlide": false, "isLegato": false, "glideToNext": false}, {"pitch": 36, "step": 24, "lengthSteps": 1, "velocity": 100, "microOffsetTicks": 120, "startTick": 5880, "lengthTicks": 240, "barIndex": 1, "stepInBar": 8, "isGhost": false, "semanticRole": "", "isSlide": false, "isLegato": false, "glideToNext": false}, {"pitch": 36, "step": 30, "lengthSteps": 1, "velocity": 100, "microOffsetTicks": 0, "startTick": 7200, "lengthTicks": 240, "barIndex": 1, "stepInBar": 14, "isGhost": false, "semanticRole": "", "isSlide": false, "isLegato": false, "glideToNext": false}, {"pitch": 36, "step": 32, "lengthSteps": 1, "velocity": 100, "microOffsetTicks": 0, "startTick": 7680, "lengthTicks": 240, "barIndex": 2, "stepInBar": 0, "isGhost": false, "semanticRole": "", "isSlide": false, "isLegato": false, "glideToNext": false}, {"pitch": 36, "step": 40, "lengthSteps": 1, "velocity": 100, "microOffsetTicks": 0, "startTick": 9600, "lengthTicks": 240, "barIndex": 2, "stepInBar": 8, "isGhost": false, "semanticRole": "", "isSlide": false, "isLegato": false, "glideToNext": false}, {"pitch": 36, "step": 43, "lengthSteps": 1, "velocity": 100, "microOffsetTicks": 0, "startTick": 10320, "lengthTicks": 240, "barIndex": 2, "stepInBar": 11, "isGhost": false, "semanticRole": "", "isSlide": false, "isLegato": false, "glideToNext": false}, {"pitch": 36, "step": 46, "lengthSteps": 1, "velocity": 100, "microOffsetTicks": 0, "startTick": 11040, "lengthTicks": 240, "barIndex": 2, "stepInBar": 14, "isGhost": false, "semanticRole": "", "isSlide": false, "isLegato": false, "glideToNext": false}, {"pitch": 36, "step": 48, "lengthSteps": 1, "velocity": 100, "microOffsetTicks": 0, "startTick": 11520, "lengthTicks": 240, "barIndex": 3, "stepInBar": 0, "isGhost": false, "semanticRole": "", "isSlide": false, "isLegato": false, "glideToNext": false}, {"pitch": 36, "step": 50, "lengthSteps": 1, "velocity": 100, "microOffsetTicks": 0, "startTick": 12000, "lengthTicks": 240, "barIndex": 3, "stepInBar": 2, "isGhost": false, "semanticRole": "", "isSlide": false, "isLegato": false, "glideToNext": false}, {"pitch": 36, "step": 54, "lengthSteps": 1, "velocity": 10, "microOffsetTicks": 0, "startTick": 12960, "lengthTicks": 240, "barIndex": 3, "stepInBar": 6, "isGhost": false, "semanticRole": "", "isSlide": false, "isLegato": false, "glideToNext": false}, {"pitch": 36, "step": 54, "lengthSteps": 1, "velocity": 26, "microOffsetTicks": 120, "startTick": 13080, "lengthTicks": 240, "barIndex": 3, "stepInBar": 6, "isGhost": false, "semanticRole": "", "isSlide": false, "isLegato": false, "glideToNext": false}, {"pitch": 36, "step": 55, "lengthSteps": 1, "velocity": 55, "microOffsetTicks": 0, "startTick": 13200, "lengthTicks": 240, "barIndex": 3, "stepInBar": 7, "isGhost": false, "semanticRole": "", "isSlide": false, "isLegato": false, "glideToNext": false}, {"pitch": 36, "step": 56, "lengthSteps": 1, "velocity": 88, "microOffsetTicks": -115, "startTick": 13325, "lengthTicks": 240, "barIndex": 3, "stepInBar": 8, "isGhost": false, "semanticRole": "", "isSlide": false, "isLegato": false, "glideToNext": false}, {"pitch": 36, "step": 56, "lengthSteps": 1, "velocity": 100, "microOffsetTicks": 120, "startTick": 13560, "lengthTicks": 240, "barIndex": 3, "stepInBar": 8, "isGhost": false, "semanticRole": "", "isSlide": false, "isLegato": false, "glideToNext": false}, {"pitch": 36, "step": 62, "lengthSteps": 1, "velocity": 100, "microOffsetTicks": 0, "startTick": 14880, "lengthTicks": 240, "barIndex": 3, "stepInBar": 14, "isGhost": false, "semanticRole": "", "isSlide": false, "isLegato": false, "glideToNext": false}]}}, {"trackType": "HatFX", "displayName": "Hat Accent", "laneId": "registry:HatFX", "runtimeTrackType": "HatFX", "bindingKind": "backed", "laneName": "Hat Accent", "laneGroup": "Hats", "laneDependency": "HiHat", "generationPriority": 56, "isCoreLane": false, "isRuntimeRegistryLane": true, "laneParams": {"enabled": true, "muted": false, "solo": false, "locked": false, "laneRole": "drill_hat_fx", "laneVolume": 0.699999988079071, "selectedSampleIndex": 0, "selectedSampleName": "Drill Hi-hat_1", "sound": {"pan": 0.0, "width": 1.0, "eqTone": 0.0, "compression": 0.0, "reverb": 0.0, "gate": 0.0, "transient": 0.0, "drive": 0.0}, "sub808Mono": true, "sub808CutItself": true, "sub808GlideTimeMs": 120, "sub808OverlapMode": 0, "sub808ScaleSnapPolicy": 2, "noteCount": 27, "taggedNoteCount": 0, "notes": [{"pitch": 36, "step": 2, "lengthSteps": 1, "velocity": 100, "microOffsetTicks": 0, "startTick": 480, "lengthTicks": 240, "barIndex": 0, "stepInBar": 2, "isGhost": false, "semanticRole": "", "isSlide": false, "isLegato": false, "glideToNext": false}, {"pitch": 36, "step": 4, "lengthSteps": 1, "velocity": 66, "microOffsetTicks": 0, "startTick": 960, "lengthTicks": 240, "barIndex": 0, "stepInBar": 4, "isGhost": false, "semanticRole": "", "isSlide": false, "isLegato": false, "glideToNext": false}, {"pitch": 36, "step": 4, "lengthSteps": 1, "velocity": 75, "microOffsetTicks": 120, "startTick": 1080, "lengthTicks": 240, "barIndex": 0, "stepInBar": 4, "isGhost": false, "semanticRole": "", "isSlide": false, "isLegato": false, "glideToNext": false}, {"pitch": 36, "step": 5, "lengthSteps": 1, "velocity": 49, "microOffsetTicks": 0, "startTick": 1200, "lengthTicks": 240, "barIndex": 0, "stepInBar": 5, "isGhost": false, "semanticRole": "", "isSlide": false, "isLegato": false, "glideToNext": false}, {"pitch": 36, "step": 5, "lengthSteps": 1, "velocity": 57, "microOffsetTicks": 120, "startTick": 1320, "lengthTicks": 240, "barIndex": 0, "stepInBar": 5, "isGhost": false, "semanticRole": "", "isSlide": false, "isLegato": false, "glideToNext": false}, {"pitch": 36, "step": 18, "lengthSteps": 1, "velocity": 100, "microOffsetTicks": 0, "startTick": 4320, "lengthTicks": 240, "barIndex": 1, "stepInBar": 2, "isGhost": false, "semanticRole": "", "isSlide": false, "isLegato": false, "glideToNext": false}, {"pitch": 36, "step": 20, "lengthSteps": 1, "velocity": 44, "microOffsetTicks": 0, "startTick": 4800, "lengthTicks": 240, "barIndex": 1, "stepInBar": 4, "isGhost": false, "semanticRole": "", "isSlide": false, "isLegato": false, "glideToNext": false}, {"pitch": 36, "step": 20, "lengthSteps": 1, "velocity": 49, "microOffsetTicks": 120, "startTick": 4920, "lengthTicks": 240, "barIndex": 1, "stepInBar": 4, "isGhost": false, "semanticRole": "", "isSlide": false, "isLegato": false, "glideToNext": false}, {"pitch": 36, "step": 21, "lengthSteps": 1, "velocity": 49, "microOffsetTicks": 0, "startTick": 5040, "lengthTicks": 240, "barIndex": 1, "stepInBar": 5, "isGhost": false, "semanticRole": "", "isSlide": false, "isLegato": false, "glideToNext": false}, {"pitch": 36, "step": 21, "lengthSteps": 1, "velocity": 100, "microOffsetTicks": 120, "startTick": 5160, "lengthTicks": 240, "barIndex": 1, "stepInBar": 5, "isGhost": false, "semanticRole": "", "isSlide": false, "isLegato": false, "glideToNext": false}, {"pitch": 36, "step": 26, "lengthSteps": 1, "velocity": 53, "microOffsetTicks": 0, "startTick": 6240, "lengthTicks": 240, "barIndex": 1, "stepInBar": 10, "isGhost": false, "semanticRole": "", "isSlide": false, "isLegato": false, "glideToNext": false}, {"pitch": 36, "step": 28, "lengthSteps": 1, "velocity": 57, "microOffsetTicks": 0, "startTick": 6720, "lengthTicks": 240, "barIndex": 1, "stepInBar": 12, "isGhost": false, "semanticRole": "", "isSlide": false, "isLegato": false, "glideToNext": false}, {"pitch": 36, "step": 34, "lengthSteps": 1, "velocity": 100, "microOffsetTicks": 0, "startTick": 8160, "lengthTicks": 240, "barIndex": 2, "stepInBar": 2, "isGhost": false, "semanticRole": "", "isSlide": false, "isLegato": false, "glideToNext": false}, {"pitch": 36, "step": 36, "lengthSteps": 1, "velocity": 66, "microOffsetTicks": 0, "startTick": 8640, "lengthTicks": 240, "barIndex": 2, "stepInBar": 4, "isGhost": false, "semanticRole": "", "isSlide": false, "isLegato": false, "glideToNext": false}, {"pitch": 36, "step": 36, "lengthSteps": 1, "velocity": 75, "microOffsetTicks": 120, "startTick": 8760, "lengthTicks": 240, "barIndex": 2, "stepInBar": 4, "isGhost": false, "semanticRole": "", "isSlide": false, "isLegato": false, "glideToNext": false}, {"pitch": 36, "step": 37, "lengthSteps": 1, "velocity": 49, "microOffsetTicks": 0, "startTick": 8880, "lengthTicks": 240, "barIndex": 2, "stepInBar": 5, "isGhost": false, "semanticRole": "", "isSlide": false, "isLegato": false, "glideToNext": false}, {"pitch": 36, "step": 37, "lengthSteps": 1, "velocity": 57, "microOffsetTicks": 120, "startTick": 9000, "lengthTicks": 240, "barIndex": 2, "stepInBar": 5, "isGhost": false, "semanticRole": "", "isSlide": false, "isLegato": false, "glideToNext": false}, {"pitch": 36, "step": 50, "lengthSteps": 1, "velocity": 100, "microOffsetTicks": 0, "startTick": 12000, "lengthTicks": 240, "barIndex": 3, "stepInBar": 2, "isGhost": false, "semanticRole": "", "isSlide": false, "isLegato": false, "glideToNext": false}, {"pitch": 36, "step": 52, "lengthSteps": 1, "velocity": 44, "microOffsetTicks": 0, "startTick": 12480, "lengthTicks": 240, "barIndex": 3, "stepInBar": 4, "isGhost": false, "semanticRole": "", "isSlide": false, "isLegato": false, "glideToNext": false}, {"pitch": 36, "step": 52, "lengthSteps": 1, "velocity": 49, "microOffsetTicks": 120, "startTick": 12600, "lengthTicks": 240, "barIndex": 3, "stepInBar": 4, "isGhost": false, "semanticRole": "", "isSlide": false, "isLegato": false, "glideToNext": false}, {"pitch": 36, "step": 53, "lengthSteps": 1, "velocity": 49, "microOffsetTicks": 0, "startTick": 12720, "lengthTicks": 240, "barIndex": 3, "stepInBar": 5, "isGhost": false, "semanticRole": "", "isSlide": false, "isLegato": false, "glideToNext": false}, {"pitch": 36, "step": 53, "lengthSteps": 1, "velocity": 100, "microOffsetTicks": 120, "startTick": 12840, "lengthTicks": 240, "barIndex": 3, "stepInBar": 5, "isGhost": false, "semanticRole": "", "isSlide": false, "isLegato": false, "glideToNext": false}, {"pitch": 36, "step": 58, "lengthSteps": 1, "velocity": 53, "microOffsetTicks": 0, "startTick": 13920, "lengthTicks": 240, "barIndex": 3, "stepInBar": 10, "isGhost": false, "semanticRole": "", "isSlide": false, "isLegato": false, "glideToNext": false}, {"pitch": 36, "step": 59, "lengthSteps": 1, "velocity": 100, "microOffsetTicks": 0, "startTick": 14160, "lengthTicks": 240, "barIndex": 3, "stepInBar": 11, "isGhost": false, "semanticRole": "", "isSlide": false, "isLegato": false, "glideToNext": false}, {"pitch": 36, "step": 60, "lengthSteps": 1, "velocity": 57, "microOffsetTicks": 0, "startTick": 14400, "lengthTicks": 240, "barIndex": 3, "stepInBar": 12, "isGhost": false, "semanticRole": "", "isSlide": false, "isLegato": false, "glideToNext": false}, {"pitch": 36, "step": 61, "lengthSteps": 1, "velocity": 100, "microOffsetTicks": 0, "startTick": 14640, "lengthTicks": 240, "barIndex": 3, "stepInBar": 13, "isGhost": false, "semanticRole": "", "isSlide": false, "isLegato": false, "glideToNext": false}, {"pitch": 36, "step": 62, "lengthSteps": 1, "velocity": 100, "microOffsetTicks": 0, "startTick": 14880, "lengthTicks": 240, "barIndex": 3, "stepInBar": 14, "isGhost": false, "semanticRole": "", "isSlide": false, "isLegato": false, "glideToNext": false}]}}, {"trackType": "OpenHat", "displayName": "OpenHat", "laneId": "registry:OpenHat", "runtimeTrackType": "OpenHat", "bindingKind": "backed", "laneName": "OpenHat", "laneGroup": "Hats", "laneDependency": "", "generationPriority": 74, "isCoreLane": true, "isRuntimeRegistryLane": true, "laneParams": {"enabled": true, "muted": false, "solo": false, "locked": false, "laneRole": "drill_open", "laneVolume": 0.680000007152557, "selectedSampleIndex": 0, "selectedSampleName": "Drill Open Hat_1", "sound": {"pan": 0.0, "width": 1.0, "eqTone": 0.0, "compression": 0.0, "reverb": 0.0, "gate": 0.0, "transient": 0.0, "drive": 0.0}, "sub808Mono": true, "sub808CutItself": true, "sub808GlideTimeMs": 120, "sub808OverlapMode": 0, "sub808ScaleSnapPolicy": 2, "noteCount": 0, "taggedNoteCount": 0, "notes": []}}, {"trackType": "Snare", "displayName": "Snare", "laneId": "registry:Snare", "runtimeTrackType": "Snare", "bindingKind": "backed", "laneName": "Snare", "laneGroup": "Snare", "laneDependency": "", "generationPriority": 92, "isCoreLane": true, "isRuntimeRegistryLane": true, "laneParams": {"enabled": true, "muted": false, "solo": false, "locked": false, "laneRole": "drill_backbeat", "laneVolume": 0.980000019073486, "selectedSampleIndex": 6, "selectedSampleName": "drill-snare_140bpm_D_minor", "sound": {"pan": 0.0, "width": 1.0, "eqTone": 0.0, "compression": 0.0, "reverb": 0.0, "gate": 0.0, "transient": 0.0, "drive": 0.0}, "sub808Mono": true, "sub808CutItself": true, "sub808GlideTimeMs": 120, "sub808OverlapMode": 0, "sub808ScaleSnapPolicy": 2, "noteCount": 5, "taggedNoteCount": 0, "notes": [{"pitch": 36, "step": 4, "lengthSteps": 1, "velocity": 100, "microOffsetTicks": 0, "startTick": 960, "lengthTicks": 240, "barIndex": 0, "stepInBar": 4, "isGhost": false, "semanticRole": "", "isSlide": false, "isLegato": false, "glideToNext": false}, {"pitch": 36, "step": 26, "lengthSteps": 1, "velocity": 100, "microOffsetTicks": 0, "startTick": 6240, "lengthTicks": 240, "barIndex": 1, "stepInBar": 10, "isGhost": false, "semanticRole": "", "isSlide": false, "isLegato": false, "glideToNext": false}, {"pitch": 36, "step": 28, "lengthSteps": 1, "velocity": 100, "microOffsetTicks": 0, "startTick": 6720, "lengthTicks": 240, "barIndex": 1, "stepInBar": 12, "isGhost": false, "semanticRole": "", "isSlide": false, "isLegato": false, "glideToNext": false}, {"pitch": 36, "step": 40, "lengthSteps": 1, "velocity": 100, "microOffsetTicks": 0, "startTick": 9600, "lengthTicks": 240, "barIndex": 2, "stepInBar": 8, "isGhost": false, "semanticRole": "", "isSlide": false, "isLegato": false, "glideToNext": false}, {"pitch": 36, "step": 60, "lengthSteps": 1, "velocity": 100, "microOffsetTicks": 0, "startTick": 14400, "lengthTicks": 240, "barIndex": 3, "stepInBar": 12, "isGhost": false, "semanticRole": "", "isSlide": false, "isLegato": false, "glideToNext": false}]}}, {"trackType": "Clap/GhostSnare", "displayName": "Clap Ghost", "laneId": "registry:Clap/GhostSnare", "runtimeTrackType": "Clap/GhostSnare", "bindingKind": "backed", "laneName": "Clap Ghost", "laneGroup": "Snare", "laneDependency": "Snare", "generationPriority": 60, "isCoreLane": false, "isRuntimeRegistryLane": true, "laneParams": {"enabled": true, "muted": false, "solo": false, "locked": false, "laneRole": "drill_layer", "laneVolume": 0.740000009536743, "selectedSampleIndex": 0, "selectedSampleName": "Counter UK Snare 1", "sound": {"pan": 0.0, "width": 1.0, "eqTone": 0.0, "compression": 0.0, "reverb": 0.0, "gate": 0.0, "transient": 0.0, "drive": 0.0}, "sub808Mono": true, "sub808CutItself": true, "sub808GlideTimeMs": 120, "sub808OverlapMode": 0, "sub808ScaleSnapPolicy": 2, "noteCount": 0, "taggedNoteCount": 0, "notes": []}}, {"trackType": "Kick", "displayName": "Kick", "laneId": "registry:Kick", "runtimeTrackType": "Kick", "bindingKind": "backed", "laneName": "Kick", "laneGroup": "Kick", "laneDependency": "", "generationPriority": 96, "isCoreLane": true, "isRuntimeRegistryLane": true, "laneParams": {"enabled": true, "muted": false, "solo": false, "locked": false, "laneRole": "drill_kick", "laneVolume": 0.939999997615814, "selectedSampleIndex": 0, "selectedSampleName": "Diamond Wav - Best Kick", "sound": {"pan": 0.0, "width": 1.0, "eqTone": 0.0, "compression": 0.0, "reverb": 0.0, "gate": 0.0, "transient": 0.0, "drive": 0.0}, "sub808Mono": true, "sub808CutItself": true, "sub808GlideTimeMs": 120, "sub808OverlapMode": 0, "sub808ScaleSnapPolicy": 2, "noteCount": 5, "taggedNoteCount": 0, "notes": [{"pitch": 36, "step": 0, "lengthSteps": 1, "velocity": 100, "microOffsetTicks": 0, "startTick": 0, "lengthTicks": 240, "barIndex": 0, "stepInBar": 0, "isGhost": false, "semanticRole": "", "isSlide": false, "isLegato": false, "glideToNext": false}, {"pitch": 36, "step": 20, "lengthSteps": 1, "velocity": 100, "microOffsetTicks": 0, "startTick": 4800, "lengthTicks": 240, "barIndex": 1, "stepInBar": 4, "isGhost": false, "semanticRole": "", "isSlide": false, "isLegato": false, "glideToNext": false}, {"pitch": 36, "step": 32, "lengthSteps": 1, "velocity": 100, "microOffsetTicks": 0, "startTick": 7680, "lengthTicks": 240, "barIndex": 2, "stepInBar": 0, "isGhost": false, "semanticRole": "", "isSlide": false, "isLegato": false, "glideToNext": false}, {"pitch": 36, "step": 38, "lengthSteps": 1, "velocity": 100, "microOffsetTicks": 0, "startTick": 9120, "lengthTicks": 240, "barIndex": 2, "stepInBar": 6, "isGhost": false, "semanticRole": "", "isSlide": false, "isLegato": false, "glideToNext": false}, {"pitch": 36, "step": 56, "lengthSteps": 1, "velocity": 100, "microOffsetTicks": 0, "startTick": 13440, "lengthTicks": 240, "barIndex": 3, "stepInBar": 8, "isGhost": false, "semanticRole": "", "isSlide": false, "isLegato": false, "glideToNext": false}]}}, {"trackType": "GhostKick", "displayName": "Kick Ghost", "laneId": "registry:GhostKick", "runtimeTrackType": "GhostKick", "bindingKind": "backed", "laneName": "Kick Ghost", "laneGroup": "Kick", "laneDependency": "Kick", "generationPriority": 58, "isCoreLane": false, "isRuntimeRegistryLane": true, "laneParams": {"enabled": true, "muted": false, "solo": false, "locked": false, "laneRole": "drill_support", "laneVolume": 0.620000004768372, "selectedSampleIndex": 2, "selectedSampleName": "Kick 3", "sound": {"pan": 0.0, "width": 1.0, "eqTone": 0.0, "compression": 0.0, "reverb": 0.0, "gate": 0.0, "transient": 0.0, "drive": 0.0}, "sub808Mono": true, "sub808CutItself": true, "sub808GlideTimeMs": 120, "sub808OverlapMode": 0, "sub808ScaleSnapPolicy": 2, "noteCount": 0, "taggedNoteCount": 0, "notes": []}}, {"trackType": "Ride", "displayName": "Ride", "laneId": "registry:Ride", "runtimeTrackType": "Ride", "bindingKind": "backed", "laneName": "Ride", "laneGroup": "Texture", "laneDependency": "", "generationPriority": 42, "isCoreLane": false, "isRuntimeRegistryLane": true, "laneParams": {"enabled": false, "muted": false, "solo": false, "locked": false, "laneRole": "support", "laneVolume": 0.540000021457672, "selectedSampleIndex": 0, "selectedSampleName": "(empty)", "sound": {"pan": 0.0, "width": 1.0, "eqTone": 0.0, "compression": 0.0, "reverb": 0.0, "gate": 0.0, "transient": 0.0, "drive": 0.0}, "sub808Mono": true, "sub808CutItself": true, "sub808GlideTimeMs": 120, "sub808OverlapMode": 0, "sub808ScaleSnapPolicy": 2, "noteCount": 0, "taggedNoteCount": 0, "notes": []}}, {"trackType": "Cymbal", "displayName": "Cymbal", "laneId": "registry:Cymbal", "runtimeTrackType": "Cymbal", "bindingKind": "backed", "laneName": "Cymbal", "laneGroup": "Texture", "laneDependency": "", "generationPriority": 38, "isCoreLane": false, "isRuntimeRegistryLane": true, "laneParams": {"enabled": false, "muted": false, "solo": false, "locked": false, "laneRole": "crash", "laneVolume": 0.579999983310699, "selectedSampleIndex": 0, "selectedSampleName": "(empty)", "sound": {"pan": 0.0, "width": 1.0, "eqTone": 0.0, "compression": 0.0, "reverb": 0.0, "gate": 0.0, "transient": 0.0, "drive": 0.0}, "sub808Mono": true, "sub808CutItself": true, "sub808GlideTimeMs": 120, "sub808OverlapMode": 0, "sub808ScaleSnapPolicy": 2, "noteCount": 0, "taggedNoteCount": 0, "notes": []}}, {"trackType": "Perc", "displayName": "Perc", "laneId": "registry:Perc", "runtimeTrackType": "Perc", "bindingKind": "backed", "laneName": "Perc", "laneGroup": "Perc", "laneDependency": "", "generationPriority": 68, "isCoreLane": true, "isRuntimeRegistryLane": true, "laneParams": {"enabled": true, "muted": false, "solo": false, "locked": false, "laneRole": "drill_texture", "laneVolume": 0.600000023841858, "selectedSampleIndex": 0, "selectedSampleName": "Drill Perc (2)", "sound": {"pan": 0.0, "width": 1.0, "eqTone": 0.0, "compression": 0.0, "reverb": 0.0, "gate": 0.0, "transient": 0.0, "drive": 0.0}, "sub808Mono": true, "sub808CutItself": true, "sub808GlideTimeMs": 120, "sub808OverlapMode": 0, "sub808ScaleSnapPolicy": 2, "noteCount": 0, "taggedNoteCount": 0, "notes": []}}, {"trackType": "Sub808", "displayName": "Sub808", "laneId": "registry:Sub808", "runtimeTrackType": "Sub808", "bindingKind": "backed", "laneName": "Sub808", "laneGroup": "Bass", "laneDependency": "Kick", "generationPriority": 82, "isCoreLane": true, "isRuntimeRegistryLane": true, "laneParams": {"enabled": true, "muted": false, "solo": false, "locked": false, "laneRole": "drill_sub", "laneVolume": 0.959999978542328, "selectedSampleIndex": 3, "selectedSampleName": "808 4", "sound": {"pan": 0.0, "width": 1.0, "eqTone": 0.0, "compression": 0.0, "reverb": 0.0, "gate": 0.0, "transient": 0.0, "drive": 0.0}, "sub808Mono": true, "sub808CutItself": true, "sub808GlideTimeMs": 120, "sub808OverlapMode": 0, "sub808ScaleSnapPolicy": 2, "noteCount": 7, "taggedNoteCount": 0, "notes": [{"pitch": 36, "step": 0, "lengthSteps": 8, "velocity": 100, "microOffsetTicks": 0, "startTick": 0, "lengthTicks": 1920, "barIndex": 0, "stepInBar": 0, "isGhost": false, "semanticRole": "", "isSlide": false, "isLegato": false, "glideToNext": false}, {"pitch": 36, "step": 24, "lengthSteps": 4, "velocity": 100, "microOffsetTicks": 0, "startTick": 5760, "lengthTicks": 960, "barIndex": 1, "stepInBar": 8, "isGhost": false, "semanticRole": "", "isSlide": false, "isLegato": false, "glideToNext": false}, {"pitch": 36, "step": 32, "lengthSteps": 8, "velocity": 100, "microOffsetTicks": 0, "startTick": 7680, "lengthTicks": 1920, "barIndex": 2, "stepInBar": 0, "isGhost": false, "semanticRole": "", "isSlide": false, "isLegato": false, "glideToNext": false}, {"pitch": 36, "step": 56, "lengthSteps": 2, "velocity": 100, "microOffsetTicks": 0, "startTick": 13440, "lengthTicks": 480, "barIndex": 3, "stepInBar": 8, "isGhost": false, "semanticRole": "", "isSlide": false, "isLegato": false, "glideToNext": false}, {"pitch": 36, "step": 58, "lengthSteps": 2, "velocity": 100, "microOffsetTicks": 0, "startTick": 13920, "lengthTicks": 480, "barIndex": 3, "stepInBar": 10, "isGhost": false, "semanticRole": "", "isSlide": false, "isLegato": false, "glideToNext": false}, {"pitch": 36, "step": 60, "lengthSteps": 2, "velocity": 100, "microOffsetTicks": 0, "startTick": 14400, "lengthTicks": 480, "barIndex": 3, "stepInBar": 12, "isGhost": false, "semanticRole": "", "isSlide": false, "isLegato": false, "glideToNext": false}, {"pitch": 36, "step": 62, "lengthSteps": 2, "velocity": 100, "microOffsetTicks": 0, "startTick": 14880, "lengthTicks": 480, "barIndex": 3, "stepInBar": 14, "isGhost": false, "semanticRole": "", "isSlide": false, "isLegato": false, "glideToNext": false}]}}], "totalRuntimeLaneCount": 11, "backedLaneCount": 11, "unbackedLaneCount": 0, "totalNotes": 68, "taggedNotes": 0}}