{"genre": "Drill", "substyle": "UKDrill", "bars": 8, "tempoMin": 136, "tempoMax": 148, "exportedAt": "2026-03-21T14:16:46.558+02:00", "conflictMessage": "", "laneLayoutSource": "PatternProject.runtime", "runtimeLaneOrder": ["registry:HiHat", "registry:Snare", "registry:Kick"], "laneLayout": [{"orderIndex": 0, "laneId": "registry:HiHat", "laneName": "HiHat", "groupName": "Hats", "dependencyName": "", "generationPriority": 86, "isCore": true, "isVisibleInEditor": true, "enabledByDefault": true, "supportsDragExport": true, "isGhostTrack": false, "defaultMidiNote": 42, "isRuntimeRegistryLane": true, "runtimeTrackType": "HiHat", "bindingKind": "backed", "hasBackingTrack": true, "laneParamsAvailable": true, "trackType": "HiHat", "laneParams": {"enabled": true, "muted": false, "solo": false, "locked": false, "laneRole": "drill_hat", "laneVolume": 0.850000023841858, "selectedSampleIndex": 0, "selectedSampleName": "Drill Hi-hat_1", "sound": {"pan": 0.0, "width": 1.0, "eqTone": 0.0, "compression": 0.0, "reverb": 0.0, "gate": 0.0, "transient": 0.0, "drive": 0.0}, "noteCount": 49, "taggedNoteCount": 0, "notes": [{"pitch": 42, "step": 1, "lengthSteps": 1, "velocity": 67, "microOffsetTicks": 0, "startTick": 240, "lengthTicks": 240, "barIndex": 0, "stepInBar": 1, "isGhost": false, "semanticRole": ""}, {"pitch": 42, "step": 3, "lengthSteps": 1, "velocity": 68, "microOffsetTicks": 0, "startTick": 720, "lengthTicks": 240, "barIndex": 0, "stepInBar": 3, "isGhost": false, "semanticRole": ""}, {"pitch": 42, "step": 5, "lengthSteps": 1, "velocity": 58, "microOffsetTicks": 0, "startTick": 1200, "lengthTicks": 240, "barIndex": 0, "stepInBar": 5, "isGhost": false, "semanticRole": ""}, {"pitch": 42, "step": 8, "lengthSteps": 1, "velocity": 93, "microOffsetTicks": 0, "startTick": 1920, "lengthTicks": 240, "barIndex": 0, "stepInBar": 8, "isGhost": false, "semanticRole": ""}, {"pitch": 42, "step": 11, "lengthSteps": 1, "velocity": 89, "microOffsetTicks": 0, "startTick": 2640, "lengthTicks": 240, "barIndex": 0, "stepInBar": 11, "isGhost": false, "semanticRole": ""}, {"pitch": 42, "step": 15, "lengthSteps": 1, "velocity": 102, "microOffsetTicks": 0, "startTick": 3600, "lengthTicks": 240, "barIndex": 0, "stepInBar": 15, "isGhost": false, "semanticRole": ""}, {"pitch": 42, "step": 17, "lengthSteps": 1, "velocity": 65, "microOffsetTicks": 0, "startTick": 4080, "lengthTicks": 240, "barIndex": 1, "stepInBar": 1, "isGhost": false, "semanticRole": ""}, {"pitch": 42, "step": 19, "lengthSteps": 1, "velocity": 70, "microOffsetTicks": 0, "startTick": 4560, "lengthTicks": 240, "barIndex": 1, "stepInBar": 3, "isGhost": false, "semanticRole": ""}, {"pitch": 42, "step": 21, "lengthSteps": 1, "velocity": 61, "microOffsetTicks": 0, "startTick": 5040, "lengthTicks": 240, "barIndex": 1, "stepInBar": 5, "isGhost": false, "semanticRole": ""}, {"pitch": 42, "step": 24, "lengthSteps": 1, "velocity": 84, "microOffsetTicks": 0, "startTick": 5760, "lengthTicks": 240, "barIndex": 1, "stepInBar": 8, "isGhost": false, "semanticRole": ""}, {"pitch": 42, "step": 27, "lengthSteps": 1, "velocity": 56, "microOffsetTicks": 0, "startTick": 6480, "lengthTicks": 240, "barIndex": 1, "stepInBar": 11, "isGhost": false, "semanticRole": ""}, {"pitch": 42, "step": 29, "lengthSteps": 1, "velocity": 55, "microOffsetTicks": 0, "startTick": 6960, "lengthTicks": 240, "barIndex": 1, "stepInBar": 13, "isGhost": false, "semanticRole": ""}, {"pitch": 42, "step": 33, "lengthSteps": 1, "velocity": 81, "microOffsetTicks": 0, "startTick": 7920, "lengthTicks": 240, "barIndex": 2, "stepInBar": 1, "isGhost": false, "semanticRole": ""}, {"pitch": 42, "step": 35, "lengthSteps": 1, "velocity": 77, "microOffsetTicks": 0, "startTick": 8400, "lengthTicks": 240, "barIndex": 2, "stepInBar": 3, "isGhost": false, "semanticRole": ""}, {"pitch": 42, "step": 37, "lengthSteps": 1, "velocity": 63, "microOffsetTicks": 0, "startTick": 8880, "lengthTicks": 240, "barIndex": 2, "stepInBar": 5, "isGhost": false, "semanticRole": ""}, {"pitch": 42, "step": 40, "lengthSteps": 1, "velocity": 91, "microOffsetTicks": 0, "startTick": 9600, "lengthTicks": 240, "barIndex": 2, "stepInBar": 8, "isGhost": false, "semanticRole": ""}, {"pitch": 42, "step": 43, "lengthSteps": 1, "velocity": 74, "microOffsetTicks": 0, "startTick": 10320, "lengthTicks": 240, "barIndex": 2, "stepInBar": 11, "isGhost": false, "semanticRole": ""}, {"pitch": 42, "step": 47, "lengthSteps": 1, "velocity": 76, "microOffsetTicks": 0, "startTick": 11280, "lengthTicks": 240, "barIndex": 2, "stepInBar": 15, "isGhost": false, "semanticRole": ""}, {"pitch": 42, "step": 49, "lengthSteps": 1, "velocity": 82, "microOffsetTicks": 0, "startTick": 11760, "lengthTicks": 240, "barIndex": 3, "stepInBar": 1, "isGhost": false, "semanticRole": ""}, {"pitch": 42, "step": 51, "lengthSteps": 1, "velocity": 77, "microOffsetTicks": 0, "startTick": 12240, "lengthTicks": 240, "barIndex": 3, "stepInBar": 3, "isGhost": false, "semanticRole": ""}, {"pitch": 42, "step": 53, "lengthSteps": 1, "velocity": 68, "microOffsetTicks": 0, "startTick": 12720, "lengthTicks": 240, "barIndex": 3, "stepInBar": 5, "isGhost": false, "semanticRole": ""}, {"pitch": 42, "step": 56, "lengthSteps": 1, "velocity": 56, "microOffsetTicks": 0, "startTick": 13440, "lengthTicks": 240, "barIndex": 3, "stepInBar": 8, "isGhost": false, "semanticRole": ""}, {"pitch": 42, "step": 59, "lengthSteps": 1, "velocity": 73, "microOffsetTicks": 0, "startTick": 14160, "lengthTicks": 240, "barIndex": 3, "stepInBar": 11, "isGhost": false, "semanticRole": ""}, {"pitch": 42, "step": 63, "lengthSteps": 1, "velocity": 86, "microOffsetTicks": 0, "startTick": 15120, "lengthTicks": 240, "barIndex": 3, "stepInBar": 15, "isGhost": false, "semanticRole": ""}, {"pitch": 42, "step": 65, "lengthSteps": 1, "velocity": 95, "microOffsetTicks": 0, "startTick": 15600, "lengthTicks": 240, "barIndex": 4, "stepInBar": 1, "isGhost": false, "semanticRole": ""}, {"pitch": 42, "step": 67, "lengthSteps": 1, "velocity": 79, "microOffsetTicks": 0, "startTick": 16080, "lengthTicks": 240, "barIndex": 4, "stepInBar": 3, "isGhost": false, "semanticRole": ""}, {"pitch": 42, "step": 69, "lengthSteps": 1, "velocity": 84, "microOffsetTicks": 0, "startTick": 16560, "lengthTicks": 240, "barIndex": 4, "stepInBar": 5, "isGhost": false, "semanticRole": ""}, {"pitch": 42, "step": 72, "lengthSteps": 1, "velocity": 58, "microOffsetTicks": 0, "startTick": 17280, "lengthTicks": 240, "barIndex": 4, "stepInBar": 8, "isGhost": false, "semanticRole": ""}, {"pitch": 42, "step": 75, "lengthSteps": 1, "velocity": 61, "microOffsetTicks": 0, "startTick": 18000, "lengthTicks": 240, "barIndex": 4, "stepInBar": 11, "isGhost": false, "semanticRole": ""}, {"pitch": 42, "step": 79, "lengthSteps": 1, "velocity": 73, "microOffsetTicks": 0, "startTick": 18960, "lengthTicks": 240, "barIndex": 4, "stepInBar": 15, "isGhost": false, "semanticRole": ""}, {"pitch": 42, "step": 83, "lengthSteps": 1, "velocity": 61, "microOffsetTicks": 0, "startTick": 19920, "lengthTicks": 240, "barIndex": 5, "stepInBar": 3, "isGhost": false, "semanticRole": ""}, {"pitch": 42, "step": 85, "lengthSteps": 1, "velocity": 58, "microOffsetTicks": 0, "startTick": 20400, "lengthTicks": 240, "barIndex": 5, "stepInBar": 5, "isGhost": false, "semanticRole": ""}, {"pitch": 42, "step": 88, "lengthSteps": 1, "velocity": 56, "microOffsetTicks": 0, "startTick": 21120, "lengthTicks": 240, "barIndex": 5, "stepInBar": 8, "isGhost": false, "semanticRole": ""}, {"pitch": 42, "step": 91, "lengthSteps": 1, "velocity": 94, "microOffsetTicks": 0, "startTick": 21840, "lengthTicks": 240, "barIndex": 5, "stepInBar": 11, "isGhost": false, "semanticRole": ""}, {"pitch": 42, "step": 92, "lengthSteps": 1, "velocity": 82, "microOffsetTicks": 0, "startTick": 22080, "lengthTicks": 240, "barIndex": 5, "stepInBar": 12, "isGhost": false, "semanticRole": ""}, {"pitch": 42, "step": 93, "lengthSteps": 1, "velocity": 88, "microOffsetTicks": 0, "startTick": 22320, "lengthTicks": 240, "barIndex": 5, "stepInBar": 13, "isGhost": false, "semanticRole": ""}, {"pitch": 42, "step": 97, "lengthSteps": 1, "velocity": 82, "microOffsetTicks": 0, "startTick": 23280, "lengthTicks": 240, "barIndex": 6, "stepInBar": 1, "isGhost": false, "semanticRole": ""}, {"pitch": 42, "step": 99, "lengthSteps": 1, "velocity": 80, "microOffsetTicks": 0, "startTick": 23760, "lengthTicks": 240, "barIndex": 6, "stepInBar": 3, "isGhost": false, "semanticRole": ""}, {"pitch": 42, "step": 101, "lengthSteps": 1, "velocity": 69, "microOffsetTicks": 0, "startTick": 24240, "lengthTicks": 240, "barIndex": 6, "stepInBar": 5, "isGhost": false, "semanticRole": ""}, {"pitch": 42, "step": 104, "lengthSteps": 1, "velocity": 70, "microOffsetTicks": 0, "startTick": 24960, "lengthTicks": 240, "barIndex": 6, "stepInBar": 8, "isGhost": false, "semanticRole": ""}, {"pitch": 42, "step": 107, "lengthSteps": 1, "velocity": 73, "microOffsetTicks": 0, "startTick": 25680, "lengthTicks": 240, "barIndex": 6, "stepInBar": 11, "isGhost": false, "semanticRole": ""}, {"pitch": 42, "step": 109, "lengthSteps": 1, "velocity": 70, "microOffsetTicks": 0, "startTick": 26160, "lengthTicks": 240, "barIndex": 6, "stepInBar": 13, "isGhost": false, "semanticRole": ""}, {"pitch": 42, "step": 111, "lengthSteps": 1, "velocity": 58, "microOffsetTicks": 0, "startTick": 26640, "lengthTicks": 240, "barIndex": 6, "stepInBar": 15, "isGhost": false, "semanticRole": ""}, {"pitch": 42, "step": 113, "lengthSteps": 1, "velocity": 87, "microOffsetTicks": 0, "startTick": 27120, "lengthTicks": 240, "barIndex": 7, "stepInBar": 1, "isGhost": false, "semanticRole": ""}, {"pitch": 42, "step": 115, "lengthSteps": 1, "velocity": 63, "microOffsetTicks": 0, "startTick": 27600, "lengthTicks": 240, "barIndex": 7, "stepInBar": 3, "isGhost": false, "semanticRole": ""}, {"pitch": 42, "step": 117, "lengthSteps": 1, "velocity": 95, "microOffsetTicks": 0, "startTick": 28080, "lengthTicks": 240, "barIndex": 7, "stepInBar": 5, "isGhost": false, "semanticRole": ""}, {"pitch": 42, "step": 120, "lengthSteps": 1, "velocity": 91, "microOffsetTicks": 0, "startTick": 28800, "lengthTicks": 240, "barIndex": 7, "stepInBar": 8, "isGhost": false, "semanticRole": ""}, {"pitch": 42, "step": 123, "lengthSteps": 1, "velocity": 67, "microOffsetTicks": 0, "startTick": 29520, "lengthTicks": 240, "barIndex": 7, "stepInBar": 11, "isGhost": false, "semanticRole": ""}, {"pitch": 42, "step": 127, "lengthSteps": 1, "velocity": 83, "microOffsetTicks": 0, "startTick": 30480, "lengthTicks": 240, "barIndex": 7, "stepInBar": 15, "isGhost": false, "semanticRole": ""}]}}, {"orderIndex": 1, "laneId": "registry:Snare", "laneName": "Snare", "groupName": "Snare", "dependencyName": "", "generationPriority": 92, "isCore": true, "isVisibleInEditor": true, "enabledByDefault": true, "supportsDragExport": true, "isGhostTrack": false, "defaultMidiNote": 38, "isRuntimeRegistryLane": true, "runtimeTrackType": "Snare", "bindingKind": "backed", "hasBackingTrack": true, "laneParamsAvailable": true, "trackType": "Snare", "laneParams": {"enabled": true, "muted": false, "solo": false, "locked": false, "laneRole": "drill_backbeat", "laneVolume": 0.850000023841858, "selectedSampleIndex": 3, "selectedSampleName": "Counter UK Snare 4", "sound": {"pan": 0.0, "width": 1.0, "eqTone": 0.0, "compression": 0.0, "reverb": 0.0, "gate": 0.0, "transient": 0.0, "drive": 0.0}, "noteCount": 10, "taggedNoteCount": 0, "notes": [{"pitch": 38, "step": 8, "lengthSteps": 1, "velocity": 125, "microOffsetTicks": 0, "startTick": 1920, "lengthTicks": 240, "barIndex": 0, "stepInBar": 8, "isGhost": false, "semanticRole": ""}, {"pitch": 38, "step": 24, "lengthSteps": 1, "velocity": 107, "microOffsetTicks": 3, "startTick": 5763, "lengthTicks": 240, "barIndex": 1, "stepInBar": 8, "isGhost": false, "semanticRole": ""}, {"pitch": 38, "step": 40, "lengthSteps": 1, "velocity": 121, "microOffsetTicks": 0, "startTick": 9600, "lengthTicks": 240, "barIndex": 2, "stepInBar": 8, "isGhost": false, "semanticRole": ""}, {"pitch": 38, "step": 55, "lengthSteps": 1, "velocity": 106, "microOffsetTicks": 0, "startTick": 13200, "lengthTicks": 240, "barIndex": 3, "stepInBar": 7, "isGhost": true, "semanticRole": ""}, {"pitch": 38, "step": 56, "lengthSteps": 1, "velocity": 127, "microOffsetTicks": 0, "startTick": 13440, "lengthTicks": 240, "barIndex": 3, "stepInBar": 8, "isGhost": false, "semanticRole": ""}, {"pitch": 38, "step": 72, "lengthSteps": 1, "velocity": 115, "microOffsetTicks": 0, "startTick": 17280, "lengthTicks": 240, "barIndex": 4, "stepInBar": 8, "isGhost": false, "semanticRole": ""}, {"pitch": 38, "step": 88, "lengthSteps": 1, "velocity": 121, "microOffsetTicks": 0, "startTick": 21120, "lengthTicks": 240, "barIndex": 5, "stepInBar": 8, "isGhost": false, "semanticRole": ""}, {"pitch": 38, "step": 104, "lengthSteps": 1, "velocity": 112, "microOffsetTicks": 0, "startTick": 24960, "lengthTicks": 240, "barIndex": 6, "stepInBar": 8, "isGhost": false, "semanticRole": ""}, {"pitch": 38, "step": 120, "lengthSteps": 1, "velocity": 105, "microOffsetTicks": 2, "startTick": 28802, "lengthTicks": 240, "barIndex": 7, "stepInBar": 8, "isGhost": false, "semanticRole": ""}, {"pitch": 38, "step": 127, "lengthSteps": 1, "velocity": 106, "microOffsetTicks": 3, "startTick": 30483, "lengthTicks": 240, "barIndex": 7, "stepInBar": 15, "isGhost": false, "semanticRole": ""}]}}, {"orderIndex": 2, "laneId": "registry:Kick", "laneName": "Kick", "groupName": "Kick", "dependencyName": "", "generationPriority": 96, "isCore": true, "isVisibleInEditor": true, "enabledByDefault": true, "supportsDragExport": true, "isGhostTrack": false, "defaultMidiNote": 36, "isRuntimeRegistryLane": true, "runtimeTrackType": "Kick", "bindingKind": "backed", "hasBackingTrack": true, "laneParamsAvailable": true, "trackType": "Kick", "laneParams": {"enabled": true, "muted": false, "solo": false, "locked": false, "laneRole": "drill_kick", "laneVolume": 0.850000023841858, "selectedSampleIndex": 0, "selectedSampleName": "Kick 1", "sound": {"pan": 0.0, "width": 1.0, "eqTone": 0.0, "compression": 0.0, "reverb": 0.0, "gate": 0.0, "transient": 0.0, "drive": 0.0}, "noteCount": 16, "taggedNoteCount": 0, "notes": [{"pitch": 36, "step": 0, "lengthSteps": 1, "velocity": 117, "microOffsetTicks": 0, "startTick": 0, "lengthTicks": 240, "barIndex": 0, "stepInBar": 0, "isGhost": false, "semanticRole": ""}, {"pitch": 36, "step": 10, "lengthSteps": 1, "velocity": 118, "microOffsetTicks": 0, "startTick": 2400, "lengthTicks": 240, "barIndex": 0, "stepInBar": 10, "isGhost": false, "semanticRole": ""}, {"pitch": 36, "step": 16, "lengthSteps": 1, "velocity": 107, "microOffsetTicks": 0, "startTick": 3840, "lengthTicks": 240, "barIndex": 1, "stepInBar": 0, "isGhost": false, "semanticRole": ""}, {"pitch": 36, "step": 26, "lengthSteps": 1, "velocity": 127, "microOffsetTicks": 0, "startTick": 6240, "lengthTicks": 240, "barIndex": 1, "stepInBar": 10, "isGhost": false, "semanticRole": ""}, {"pitch": 36, "step": 32, "lengthSteps": 1, "velocity": 107, "microOffsetTicks": 0, "startTick": 7680, "lengthTicks": 240, "barIndex": 2, "stepInBar": 0, "isGhost": false, "semanticRole": ""}, {"pitch": 36, "step": 42, "lengthSteps": 1, "velocity": 106, "microOffsetTicks": 0, "startTick": 10080, "lengthTicks": 240, "barIndex": 2, "stepInBar": 10, "isGhost": false, "semanticRole": ""}, {"pitch": 36, "step": 48, "lengthSteps": 1, "velocity": 107, "microOffsetTicks": 0, "startTick": 11520, "lengthTicks": 240, "barIndex": 3, "stepInBar": 0, "isGhost": false, "semanticRole": ""}, {"pitch": 36, "step": 58, "lengthSteps": 1, "velocity": 115, "microOffsetTicks": 0, "startTick": 13920, "lengthTicks": 240, "barIndex": 3, "stepInBar": 10, "isGhost": false, "semanticRole": ""}, {"pitch": 36, "step": 64, "lengthSteps": 1, "velocity": 113, "microOffsetTicks": 0, "startTick": 15360, "lengthTicks": 240, "barIndex": 4, "stepInBar": 0, "isGhost": false, "semanticRole": ""}, {"pitch": 36, "step": 74, "lengthSteps": 1, "velocity": 112, "microOffsetTicks": 0, "startTick": 17760, "lengthTicks": 240, "barIndex": 4, "stepInBar": 10, "isGhost": false, "semanticRole": ""}, {"pitch": 36, "step": 80, "lengthSteps": 1, "velocity": 117, "microOffsetTicks": 0, "startTick": 19200, "lengthTicks": 240, "barIndex": 5, "stepInBar": 0, "isGhost": false, "semanticRole": ""}, {"pitch": 36, "step": 90, "lengthSteps": 1, "velocity": 109, "microOffsetTicks": 0, "startTick": 21600, "lengthTicks": 240, "barIndex": 5, "stepInBar": 10, "isGhost": false, "semanticRole": ""}, {"pitch": 36, "step": 96, "lengthSteps": 1, "velocity": 106, "microOffsetTicks": 0, "startTick": 23040, "lengthTicks": 240, "barIndex": 6, "stepInBar": 0, "isGhost": false, "semanticRole": ""}, {"pitch": 36, "step": 106, "lengthSteps": 1, "velocity": 117, "microOffsetTicks": 0, "startTick": 25440, "lengthTicks": 240, "barIndex": 6, "stepInBar": 10, "isGhost": false, "semanticRole": ""}, {"pitch": 36, "step": 112, "lengthSteps": 1, "velocity": 100, "microOffsetTicks": 0, "startTick": 26880, "lengthTicks": 240, "barIndex": 7, "stepInBar": 0, "isGhost": false, "semanticRole": ""}, {"pitch": 36, "step": 122, "lengthSteps": 1, "velocity": 107, "microOffsetTicks": 0, "startTick": 29280, "lengthTicks": 240, "barIndex": 7, "stepInBar": 10, "isGhost": false, "semanticRole": ""}]}}], "designerLaneLayout": [{"id": "registry:HiHat", "laneName": "HiHat", "groupName": "Hats", "dependencyName": "", "generationPriority": 86, "isCore": true, "enabled": true, "isRuntimeRegistryLane": true, "runtimeTrackType": "HiHat"}, {"id": "registry:Snare", "laneName": "Snare", "groupName": "Snare", "dependencyName": "", "generationPriority": 92, "isCore": true, "enabled": true, "isRuntimeRegistryLane": true, "runtimeTrackType": "Snare"}, {"id": "registry:Kick", "laneName": "Kick", "groupName": "Kick", "dependencyName": "", "generationPriority": 96, "isCore": true, "enabled": true, "isRuntimeRegistryLane": true, "runtimeTrackType": "Kick"}], "referenceProject": {"bpm": 142.0, "swingPercent": 50.0, "bars": 8, "phraseLengthBars": 8, "phraseRoleSummary": "statement|ending", "previewStartStep": 0, "selectedTrackIndex": 0, "soundModuleTrackIndex": -1, "globalSound": {"pan": 0.0, "width": 1.0, "eqTone": -0.150000005960464, "compression": 0.0, "reverb": 0.0, "gate": 0.0, "transient": 0.0, "drive": 0.0}, "runtimeLaneOrder": ["registry:HiHat", "registry:Snare", "registry:Kick"], "runtimeLaneLayout": [{"orderIndex": 0, "laneId": "registry:HiHat", "laneName": "HiHat", "groupName": "Hats", "dependencyName": "", "generationPriority": 86, "isCore": true, "isVisibleInEditor": true, "enabledByDefault": true, "supportsDragExport": true, "isGhostTrack": false, "defaultMidiNote": 42, "isRuntimeRegistryLane": true, "runtimeTrackType": "HiHat", "bindingKind": "backed", "hasBackingTrack": true, "laneParamsAvailable": true, "trackType": "HiHat", "laneParams": {"enabled": true, "muted": false, "solo": false, "locked": false, "laneRole": "drill_hat", "laneVolume": 0.850000023841858, "selectedSampleIndex": 0, "selectedSampleName": "Drill Hi-hat_1", "sound": {"pan": 0.0, "width": 1.0, "eqTone": 0.0, "compression": 0.0, "reverb": 0.0, "gate": 0.0, "transient": 0.0, "drive": 0.0}, "noteCount": 49, "taggedNoteCount": 0, "notes": [{"pitch": 42, "step": 1, "lengthSteps": 1, "velocity": 67, "microOffsetTicks": 0, "startTick": 240, "lengthTicks": 240, "barIndex": 0, "stepInBar": 1, "isGhost": false, "semanticRole": ""}, {"pitch": 42, "step": 3, "lengthSteps": 1, "velocity": 68, "microOffsetTicks": 0, "startTick": 720, "lengthTicks": 240, "barIndex": 0, "stepInBar": 3, "isGhost": false, "semanticRole": ""}, {"pitch": 42, "step": 5, "lengthSteps": 1, "velocity": 58, "microOffsetTicks": 0, "startTick": 1200, "lengthTicks": 240, "barIndex": 0, "stepInBar": 5, "isGhost": false, "semanticRole": ""}, {"pitch": 42, "step": 8, "lengthSteps": 1, "velocity": 93, "microOffsetTicks": 0, "startTick": 1920, "lengthTicks": 240, "barIndex": 0, "stepInBar": 8, "isGhost": false, "semanticRole": ""}, {"pitch": 42, "step": 11, "lengthSteps": 1, "velocity": 89, "microOffsetTicks": 0, "startTick": 2640, "lengthTicks": 240, "barIndex": 0, "stepInBar": 11, "isGhost": false, "semanticRole": ""}, {"pitch": 42, "step": 15, "lengthSteps": 1, "velocity": 102, "microOffsetTicks": 0, "startTick": 3600, "lengthTicks": 240, "barIndex": 0, "stepInBar": 15, "isGhost": false, "semanticRole": ""}, {"pitch": 42, "step": 17, "lengthSteps": 1, "velocity": 65, "microOffsetTicks": 0, "startTick": 4080, "lengthTicks": 240, "barIndex": 1, "stepInBar": 1, "isGhost": false, "semanticRole": ""}, {"pitch": 42, "step": 19, "lengthSteps": 1, "velocity": 70, "microOffsetTicks": 0, "startTick": 4560, "lengthTicks": 240, "barIndex": 1, "stepInBar": 3, "isGhost": false, "semanticRole": ""}, {"pitch": 42, "step": 21, "lengthSteps": 1, "velocity": 61, "microOffsetTicks": 0, "startTick": 5040, "lengthTicks": 240, "barIndex": 1, "stepInBar": 5, "isGhost": false, "semanticRole": ""}, {"pitch": 42, "step": 24, "lengthSteps": 1, "velocity": 84, "microOffsetTicks": 0, "startTick": 5760, "lengthTicks": 240, "barIndex": 1, "stepInBar": 8, "isGhost": false, "semanticRole": ""}, {"pitch": 42, "step": 27, "lengthSteps": 1, "velocity": 56, "microOffsetTicks": 0, "startTick": 6480, "lengthTicks": 240, "barIndex": 1, "stepInBar": 11, "isGhost": false, "semanticRole": ""}, {"pitch": 42, "step": 29, "lengthSteps": 1, "velocity": 55, "microOffsetTicks": 0, "startTick": 6960, "lengthTicks": 240, "barIndex": 1, "stepInBar": 13, "isGhost": false, "semanticRole": ""}, {"pitch": 42, "step": 33, "lengthSteps": 1, "velocity": 81, "microOffsetTicks": 0, "startTick": 7920, "lengthTicks": 240, "barIndex": 2, "stepInBar": 1, "isGhost": false, "semanticRole": ""}, {"pitch": 42, "step": 35, "lengthSteps": 1, "velocity": 77, "microOffsetTicks": 0, "startTick": 8400, "lengthTicks": 240, "barIndex": 2, "stepInBar": 3, "isGhost": false, "semanticRole": ""}, {"pitch": 42, "step": 37, "lengthSteps": 1, "velocity": 63, "microOffsetTicks": 0, "startTick": 8880, "lengthTicks": 240, "barIndex": 2, "stepInBar": 5, "isGhost": false, "semanticRole": ""}, {"pitch": 42, "step": 40, "lengthSteps": 1, "velocity": 91, "microOffsetTicks": 0, "startTick": 9600, "lengthTicks": 240, "barIndex": 2, "stepInBar": 8, "isGhost": false, "semanticRole": ""}, {"pitch": 42, "step": 43, "lengthSteps": 1, "velocity": 74, "microOffsetTicks": 0, "startTick": 10320, "lengthTicks": 240, "barIndex": 2, "stepInBar": 11, "isGhost": false, "semanticRole": ""}, {"pitch": 42, "step": 47, "lengthSteps": 1, "velocity": 76, "microOffsetTicks": 0, "startTick": 11280, "lengthTicks": 240, "barIndex": 2, "stepInBar": 15, "isGhost": false, "semanticRole": ""}, {"pitch": 42, "step": 49, "lengthSteps": 1, "velocity": 82, "microOffsetTicks": 0, "startTick": 11760, "lengthTicks": 240, "barIndex": 3, "stepInBar": 1, "isGhost": false, "semanticRole": ""}, {"pitch": 42, "step": 51, "lengthSteps": 1, "velocity": 77, "microOffsetTicks": 0, "startTick": 12240, "lengthTicks": 240, "barIndex": 3, "stepInBar": 3, "isGhost": false, "semanticRole": ""}, {"pitch": 42, "step": 53, "lengthSteps": 1, "velocity": 68, "microOffsetTicks": 0, "startTick": 12720, "lengthTicks": 240, "barIndex": 3, "stepInBar": 5, "isGhost": false, "semanticRole": ""}, {"pitch": 42, "step": 56, "lengthSteps": 1, "velocity": 56, "microOffsetTicks": 0, "startTick": 13440, "lengthTicks": 240, "barIndex": 3, "stepInBar": 8, "isGhost": false, "semanticRole": ""}, {"pitch": 42, "step": 59, "lengthSteps": 1, "velocity": 73, "microOffsetTicks": 0, "startTick": 14160, "lengthTicks": 240, "barIndex": 3, "stepInBar": 11, "isGhost": false, "semanticRole": ""}, {"pitch": 42, "step": 63, "lengthSteps": 1, "velocity": 86, "microOffsetTicks": 0, "startTick": 15120, "lengthTicks": 240, "barIndex": 3, "stepInBar": 15, "isGhost": false, "semanticRole": ""}, {"pitch": 42, "step": 65, "lengthSteps": 1, "velocity": 95, "microOffsetTicks": 0, "startTick": 15600, "lengthTicks": 240, "barIndex": 4, "stepInBar": 1, "isGhost": false, "semanticRole": ""}, {"pitch": 42, "step": 67, "lengthSteps": 1, "velocity": 79, "microOffsetTicks": 0, "startTick": 16080, "lengthTicks": 240, "barIndex": 4, "stepInBar": 3, "isGhost": false, "semanticRole": ""}, {"pitch": 42, "step": 69, "lengthSteps": 1, "velocity": 84, "microOffsetTicks": 0, "startTick": 16560, "lengthTicks": 240, "barIndex": 4, "stepInBar": 5, "isGhost": false, "semanticRole": ""}, {"pitch": 42, "step": 72, "lengthSteps": 1, "velocity": 58, "microOffsetTicks": 0, "startTick": 17280, "lengthTicks": 240, "barIndex": 4, "stepInBar": 8, "isGhost": false, "semanticRole": ""}, {"pitch": 42, "step": 75, "lengthSteps": 1, "velocity": 61, "microOffsetTicks": 0, "startTick": 18000, "lengthTicks": 240, "barIndex": 4, "stepInBar": 11, "isGhost": false, "semanticRole": ""}, {"pitch": 42, "step": 79, "lengthSteps": 1, "velocity": 73, "microOffsetTicks": 0, "startTick": 18960, "lengthTicks": 240, "barIndex": 4, "stepInBar": 15, "isGhost": false, "semanticRole": ""}, {"pitch": 42, "step": 83, "lengthSteps": 1, "velocity": 61, "microOffsetTicks": 0, "startTick": 19920, "lengthTicks": 240, "barIndex": 5, "stepInBar": 3, "isGhost": false, "semanticRole": ""}, {"pitch": 42, "step": 85, "lengthSteps": 1, "velocity": 58, "microOffsetTicks": 0, "startTick": 20400, "lengthTicks": 240, "barIndex": 5, "stepInBar": 5, "isGhost": false, "semanticRole": ""}, {"pitch": 42, "step": 88, "lengthSteps": 1, "velocity": 56, "microOffsetTicks": 0, "startTick": 21120, "lengthTicks": 240, "barIndex": 5, "stepInBar": 8, "isGhost": false, "semanticRole": ""}, {"pitch": 42, "step": 91, "lengthSteps": 1, "velocity": 94, "microOffsetTicks": 0, "startTick": 21840, "lengthTicks": 240, "barIndex": 5, "stepInBar": 11, "isGhost": false, "semanticRole": ""}, {"pitch": 42, "step": 92, "lengthSteps": 1, "velocity": 82, "microOffsetTicks": 0, "startTick": 22080, "lengthTicks": 240, "barIndex": 5, "stepInBar": 12, "isGhost": false, "semanticRole": ""}, {"pitch": 42, "step": 93, "lengthSteps": 1, "velocity": 88, "microOffsetTicks": 0, "startTick": 22320, "lengthTicks": 240, "barIndex": 5, "stepInBar": 13, "isGhost": false, "semanticRole": ""}, {"pitch": 42, "step": 97, "lengthSteps": 1, "velocity": 82, "microOffsetTicks": 0, "startTick": 23280, "lengthTicks": 240, "barIndex": 6, "stepInBar": 1, "isGhost": false, "semanticRole": ""}, {"pitch": 42, "step": 99, "lengthSteps": 1, "velocity": 80, "microOffsetTicks": 0, "startTick": 23760, "lengthTicks": 240, "barIndex": 6, "stepInBar": 3, "isGhost": false, "semanticRole": ""}, {"pitch": 42, "step": 101, "lengthSteps": 1, "velocity": 69, "microOffsetTicks": 0, "startTick": 24240, "lengthTicks": 240, "barIndex": 6, "stepInBar": 5, "isGhost": false, "semanticRole": ""}, {"pitch": 42, "step": 104, "lengthSteps": 1, "velocity": 70, "microOffsetTicks": 0, "startTick": 24960, "lengthTicks": 240, "barIndex": 6, "stepInBar": 8, "isGhost": false, "semanticRole": ""}, {"pitch": 42, "step": 107, "lengthSteps": 1, "velocity": 73, "microOffsetTicks": 0, "startTick": 25680, "lengthTicks": 240, "barIndex": 6, "stepInBar": 11, "isGhost": false, "semanticRole": ""}, {"pitch": 42, "step": 109, "lengthSteps": 1, "velocity": 70, "microOffsetTicks": 0, "startTick": 26160, "lengthTicks": 240, "barIndex": 6, "stepInBar": 13, "isGhost": false, "semanticRole": ""}, {"pitch": 42, "step": 111, "lengthSteps": 1, "velocity": 58, "microOffsetTicks": 0, "startTick": 26640, "lengthTicks": 240, "barIndex": 6, "stepInBar": 15, "isGhost": false, "semanticRole": ""}, {"pitch": 42, "step": 113, "lengthSteps": 1, "velocity": 87, "microOffsetTicks": 0, "startTick": 27120, "lengthTicks": 240, "barIndex": 7, "stepInBar": 1, "isGhost": false, "semanticRole": ""}, {"pitch": 42, "step": 115, "lengthSteps": 1, "velocity": 63, "microOffsetTicks": 0, "startTick": 27600, "lengthTicks": 240, "barIndex": 7, "stepInBar": 3, "isGhost": false, "semanticRole": ""}, {"pitch": 42, "step": 117, "lengthSteps": 1, "velocity": 95, "microOffsetTicks": 0, "startTick": 28080, "lengthTicks": 240, "barIndex": 7, "stepInBar": 5, "isGhost": false, "semanticRole": ""}, {"pitch": 42, "step": 120, "lengthSteps": 1, "velocity": 91, "microOffsetTicks": 0, "startTick": 28800, "lengthTicks": 240, "barIndex": 7, "stepInBar": 8, "isGhost": false, "semanticRole": ""}, {"pitch": 42, "step": 123, "lengthSteps": 1, "velocity": 67, "microOffsetTicks": 0, "startTick": 29520, "lengthTicks": 240, "barIndex": 7, "stepInBar": 11, "isGhost": false, "semanticRole": ""}, {"pitch": 42, "step": 127, "lengthSteps": 1, "velocity": 83, "microOffsetTicks": 0, "startTick": 30480, "lengthTicks": 240, "barIndex": 7, "stepInBar": 15, "isGhost": false, "semanticRole": ""}]}}, {"orderIndex": 1, "laneId": "registry:Snare", "laneName": "Snare", "groupName": "Snare", "dependencyName": "", "generationPriority": 92, "isCore": true, "isVisibleInEditor": true, "enabledByDefault": true, "supportsDragExport": true, "isGhostTrack": false, "defaultMidiNote": 38, "isRuntimeRegistryLane": true, "runtimeTrackType": "Snare", "bindingKind": "backed", "hasBackingTrack": true, "laneParamsAvailable": true, "trackType": "Snare", "laneParams": {"enabled": true, "muted": false, "solo": false, "locked": false, "laneRole": "drill_backbeat", "laneVolume": 0.850000023841858, "selectedSampleIndex": 3, "selectedSampleName": "Counter UK Snare 4", "sound": {"pan": 0.0, "width": 1.0, "eqTone": 0.0, "compression": 0.0, "reverb": 0.0, "gate": 0.0, "transient": 0.0, "drive": 0.0}, "noteCount": 10, "taggedNoteCount": 0, "notes": [{"pitch": 38, "step": 8, "lengthSteps": 1, "velocity": 125, "microOffsetTicks": 0, "startTick": 1920, "lengthTicks": 240, "barIndex": 0, "stepInBar": 8, "isGhost": false, "semanticRole": ""}, {"pitch": 38, "step": 24, "lengthSteps": 1, "velocity": 107, "microOffsetTicks": 3, "startTick": 5763, "lengthTicks": 240, "barIndex": 1, "stepInBar": 8, "isGhost": false, "semanticRole": ""}, {"pitch": 38, "step": 40, "lengthSteps": 1, "velocity": 121, "microOffsetTicks": 0, "startTick": 9600, "lengthTicks": 240, "barIndex": 2, "stepInBar": 8, "isGhost": false, "semanticRole": ""}, {"pitch": 38, "step": 55, "lengthSteps": 1, "velocity": 106, "microOffsetTicks": 0, "startTick": 13200, "lengthTicks": 240, "barIndex": 3, "stepInBar": 7, "isGhost": true, "semanticRole": ""}, {"pitch": 38, "step": 56, "lengthSteps": 1, "velocity": 127, "microOffsetTicks": 0, "startTick": 13440, "lengthTicks": 240, "barIndex": 3, "stepInBar": 8, "isGhost": false, "semanticRole": ""}, {"pitch": 38, "step": 72, "lengthSteps": 1, "velocity": 115, "microOffsetTicks": 0, "startTick": 17280, "lengthTicks": 240, "barIndex": 4, "stepInBar": 8, "isGhost": false, "semanticRole": ""}, {"pitch": 38, "step": 88, "lengthSteps": 1, "velocity": 121, "microOffsetTicks": 0, "startTick": 21120, "lengthTicks": 240, "barIndex": 5, "stepInBar": 8, "isGhost": false, "semanticRole": ""}, {"pitch": 38, "step": 104, "lengthSteps": 1, "velocity": 112, "microOffsetTicks": 0, "startTick": 24960, "lengthTicks": 240, "barIndex": 6, "stepInBar": 8, "isGhost": false, "semanticRole": ""}, {"pitch": 38, "step": 120, "lengthSteps": 1, "velocity": 105, "microOffsetTicks": 2, "startTick": 28802, "lengthTicks": 240, "barIndex": 7, "stepInBar": 8, "isGhost": false, "semanticRole": ""}, {"pitch": 38, "step": 127, "lengthSteps": 1, "velocity": 106, "microOffsetTicks": 3, "startTick": 30483, "lengthTicks": 240, "barIndex": 7, "stepInBar": 15, "isGhost": false, "semanticRole": ""}]}}, {"orderIndex": 2, "laneId": "registry:Kick", "laneName": "Kick", "groupName": "Kick", "dependencyName": "", "generationPriority": 96, "isCore": true, "isVisibleInEditor": true, "enabledByDefault": true, "supportsDragExport": true, "isGhostTrack": false, "defaultMidiNote": 36, "isRuntimeRegistryLane": true, "runtimeTrackType": "Kick", "bindingKind": "backed", "hasBackingTrack": true, "laneParamsAvailable": true, "trackType": "Kick", "laneParams": {"enabled": true, "muted": false, "solo": false, "locked": false, "laneRole": "drill_kick", "laneVolume": 0.850000023841858, "selectedSampleIndex": 0, "selectedSampleName": "Kick 1", "sound": {"pan": 0.0, "width": 1.0, "eqTone": 0.0, "compression": 0.0, "reverb": 0.0, "gate": 0.0, "transient": 0.0, "drive": 0.0}, "noteCount": 16, "taggedNoteCount": 0, "notes": [{"pitch": 36, "step": 0, "lengthSteps": 1, "velocity": 117, "microOffsetTicks": 0, "startTick": 0, "lengthTicks": 240, "barIndex": 0, "stepInBar": 0, "isGhost": false, "semanticRole": ""}, {"pitch": 36, "step": 10, "lengthSteps": 1, "velocity": 118, "microOffsetTicks": 0, "startTick": 2400, "lengthTicks": 240, "barIndex": 0, "stepInBar": 10, "isGhost": false, "semanticRole": ""}, {"pitch": 36, "step": 16, "lengthSteps": 1, "velocity": 107, "microOffsetTicks": 0, "startTick": 3840, "lengthTicks": 240, "barIndex": 1, "stepInBar": 0, "isGhost": false, "semanticRole": ""}, {"pitch": 36, "step": 26, "lengthSteps": 1, "velocity": 127, "microOffsetTicks": 0, "startTick": 6240, "lengthTicks": 240, "barIndex": 1, "stepInBar": 10, "isGhost": false, "semanticRole": ""}, {"pitch": 36, "step": 32, "lengthSteps": 1, "velocity": 107, "microOffsetTicks": 0, "startTick": 7680, "lengthTicks": 240, "barIndex": 2, "stepInBar": 0, "isGhost": false, "semanticRole": ""}, {"pitch": 36, "step": 42, "lengthSteps": 1, "velocity": 106, "microOffsetTicks": 0, "startTick": 10080, "lengthTicks": 240, "barIndex": 2, "stepInBar": 10, "isGhost": false, "semanticRole": ""}, {"pitch": 36, "step": 48, "lengthSteps": 1, "velocity": 107, "microOffsetTicks": 0, "startTick": 11520, "lengthTicks": 240, "barIndex": 3, "stepInBar": 0, "isGhost": false, "semanticRole": ""}, {"pitch": 36, "step": 58, "lengthSteps": 1, "velocity": 115, "microOffsetTicks": 0, "startTick": 13920, "lengthTicks": 240, "barIndex": 3, "stepInBar": 10, "isGhost": false, "semanticRole": ""}, {"pitch": 36, "step": 64, "lengthSteps": 1, "velocity": 113, "microOffsetTicks": 0, "startTick": 15360, "lengthTicks": 240, "barIndex": 4, "stepInBar": 0, "isGhost": false, "semanticRole": ""}, {"pitch": 36, "step": 74, "lengthSteps": 1, "velocity": 112, "microOffsetTicks": 0, "startTick": 17760, "lengthTicks": 240, "barIndex": 4, "stepInBar": 10, "isGhost": false, "semanticRole": ""}, {"pitch": 36, "step": 80, "lengthSteps": 1, "velocity": 117, "microOffsetTicks": 0, "startTick": 19200, "lengthTicks": 240, "barIndex": 5, "stepInBar": 0, "isGhost": false, "semanticRole": ""}, {"pitch": 36, "step": 90, "lengthSteps": 1, "velocity": 109, "microOffsetTicks": 0, "startTick": 21600, "lengthTicks": 240, "barIndex": 5, "stepInBar": 10, "isGhost": false, "semanticRole": ""}, {"pitch": 36, "step": 96, "lengthSteps": 1, "velocity": 106, "microOffsetTicks": 0, "startTick": 23040, "lengthTicks": 240, "barIndex": 6, "stepInBar": 0, "isGhost": false, "semanticRole": ""}, {"pitch": 36, "step": 106, "lengthSteps": 1, "velocity": 117, "microOffsetTicks": 0, "startTick": 25440, "lengthTicks": 240, "barIndex": 6, "stepInBar": 10, "isGhost": false, "semanticRole": ""}, {"pitch": 36, "step": 112, "lengthSteps": 1, "velocity": 100, "microOffsetTicks": 0, "startTick": 26880, "lengthTicks": 240, "barIndex": 7, "stepInBar": 0, "isGhost": false, "semanticRole": ""}, {"pitch": 36, "step": 122, "lengthSteps": 1, "velocity": 107, "microOffsetTicks": 0, "startTick": 29280, "lengthTicks": 240, "barIndex": 7, "stepInBar": 10, "isGhost": false, "semanticRole": ""}]}}], "selectedTrackLaneId": "registry:HiHat", "soundModuleTrackLaneId": "", "tracks": [{"trackType": "HiHat", "displayName": "HiHat", "laneId": "registry:HiHat", "runtimeTrackType": "HiHat", "bindingKind": "backed", "laneName": "HiHat", "laneGroup": "Hats", "laneDependency": "", "generationPriority": 86, "isCoreLane": true, "isRuntimeRegistryLane": true, "laneParams": {"enabled": true, "muted": false, "solo": false, "locked": false, "laneRole": "drill_hat", "laneVolume": 0.850000023841858, "selectedSampleIndex": 0, "selectedSampleName": "Drill Hi-hat_1", "sound": {"pan": 0.0, "width": 1.0, "eqTone": 0.0, "compression": 0.0, "reverb": 0.0, "gate": 0.0, "transient": 0.0, "drive": 0.0}, "noteCount": 49, "taggedNoteCount": 0, "notes": [{"pitch": 42, "step": 1, "lengthSteps": 1, "velocity": 67, "microOffsetTicks": 0, "startTick": 240, "lengthTicks": 240, "barIndex": 0, "stepInBar": 1, "isGhost": false, "semanticRole": ""}, {"pitch": 42, "step": 3, "lengthSteps": 1, "velocity": 68, "microOffsetTicks": 0, "startTick": 720, "lengthTicks": 240, "barIndex": 0, "stepInBar": 3, "isGhost": false, "semanticRole": ""}, {"pitch": 42, "step": 5, "lengthSteps": 1, "velocity": 58, "microOffsetTicks": 0, "startTick": 1200, "lengthTicks": 240, "barIndex": 0, "stepInBar": 5, "isGhost": false, "semanticRole": ""}, {"pitch": 42, "step": 8, "lengthSteps": 1, "velocity": 93, "microOffsetTicks": 0, "startTick": 1920, "lengthTicks": 240, "barIndex": 0, "stepInBar": 8, "isGhost": false, "semanticRole": ""}, {"pitch": 42, "step": 11, "lengthSteps": 1, "velocity": 89, "microOffsetTicks": 0, "startTick": 2640, "lengthTicks": 240, "barIndex": 0, "stepInBar": 11, "isGhost": false, "semanticRole": ""}, {"pitch": 42, "step": 15, "lengthSteps": 1, "velocity": 102, "microOffsetTicks": 0, "startTick": 3600, "lengthTicks": 240, "barIndex": 0, "stepInBar": 15, "isGhost": false, "semanticRole": ""}, {"pitch": 42, "step": 17, "lengthSteps": 1, "velocity": 65, "microOffsetTicks": 0, "startTick": 4080, "lengthTicks": 240, "barIndex": 1, "stepInBar": 1, "isGhost": false, "semanticRole": ""}, {"pitch": 42, "step": 19, "lengthSteps": 1, "velocity": 70, "microOffsetTicks": 0, "startTick": 4560, "lengthTicks": 240, "barIndex": 1, "stepInBar": 3, "isGhost": false, "semanticRole": ""}, {"pitch": 42, "step": 21, "lengthSteps": 1, "velocity": 61, "microOffsetTicks": 0, "startTick": 5040, "lengthTicks": 240, "barIndex": 1, "stepInBar": 5, "isGhost": false, "semanticRole": ""}, {"pitch": 42, "step": 24, "lengthSteps": 1, "velocity": 84, "microOffsetTicks": 0, "startTick": 5760, "lengthTicks": 240, "barIndex": 1, "stepInBar": 8, "isGhost": false, "semanticRole": ""}, {"pitch": 42, "step": 27, "lengthSteps": 1, "velocity": 56, "microOffsetTicks": 0, "startTick": 6480, "lengthTicks": 240, "barIndex": 1, "stepInBar": 11, "isGhost": false, "semanticRole": ""}, {"pitch": 42, "step": 29, "lengthSteps": 1, "velocity": 55, "microOffsetTicks": 0, "startTick": 6960, "lengthTicks": 240, "barIndex": 1, "stepInBar": 13, "isGhost": false, "semanticRole": ""}, {"pitch": 42, "step": 33, "lengthSteps": 1, "velocity": 81, "microOffsetTicks": 0, "startTick": 7920, "lengthTicks": 240, "barIndex": 2, "stepInBar": 1, "isGhost": false, "semanticRole": ""}, {"pitch": 42, "step": 35, "lengthSteps": 1, "velocity": 77, "microOffsetTicks": 0, "startTick": 8400, "lengthTicks": 240, "barIndex": 2, "stepInBar": 3, "isGhost": false, "semanticRole": ""}, {"pitch": 42, "step": 37, "lengthSteps": 1, "velocity": 63, "microOffsetTicks": 0, "startTick": 8880, "lengthTicks": 240, "barIndex": 2, "stepInBar": 5, "isGhost": false, "semanticRole": ""}, {"pitch": 42, "step": 40, "lengthSteps": 1, "velocity": 91, "microOffsetTicks": 0, "startTick": 9600, "lengthTicks": 240, "barIndex": 2, "stepInBar": 8, "isGhost": false, "semanticRole": ""}, {"pitch": 42, "step": 43, "lengthSteps": 1, "velocity": 74, "microOffsetTicks": 0, "startTick": 10320, "lengthTicks": 240, "barIndex": 2, "stepInBar": 11, "isGhost": false, "semanticRole": ""}, {"pitch": 42, "step": 47, "lengthSteps": 1, "velocity": 76, "microOffsetTicks": 0, "startTick": 11280, "lengthTicks": 240, "barIndex": 2, "stepInBar": 15, "isGhost": false, "semanticRole": ""}, {"pitch": 42, "step": 49, "lengthSteps": 1, "velocity": 82, "microOffsetTicks": 0, "startTick": 11760, "lengthTicks": 240, "barIndex": 3, "stepInBar": 1, "isGhost": false, "semanticRole": ""}, {"pitch": 42, "step": 51, "lengthSteps": 1, "velocity": 77, "microOffsetTicks": 0, "startTick": 12240, "lengthTicks": 240, "barIndex": 3, "stepInBar": 3, "isGhost": false, "semanticRole": ""}, {"pitch": 42, "step": 53, "lengthSteps": 1, "velocity": 68, "microOffsetTicks": 0, "startTick": 12720, "lengthTicks": 240, "barIndex": 3, "stepInBar": 5, "isGhost": false, "semanticRole": ""}, {"pitch": 42, "step": 56, "lengthSteps": 1, "velocity": 56, "microOffsetTicks": 0, "startTick": 13440, "lengthTicks": 240, "barIndex": 3, "stepInBar": 8, "isGhost": false, "semanticRole": ""}, {"pitch": 42, "step": 59, "lengthSteps": 1, "velocity": 73, "microOffsetTicks": 0, "startTick": 14160, "lengthTicks": 240, "barIndex": 3, "stepInBar": 11, "isGhost": false, "semanticRole": ""}, {"pitch": 42, "step": 63, "lengthSteps": 1, "velocity": 86, "microOffsetTicks": 0, "startTick": 15120, "lengthTicks": 240, "barIndex": 3, "stepInBar": 15, "isGhost": false, "semanticRole": ""}, {"pitch": 42, "step": 65, "lengthSteps": 1, "velocity": 95, "microOffsetTicks": 0, "startTick": 15600, "lengthTicks": 240, "barIndex": 4, "stepInBar": 1, "isGhost": false, "semanticRole": ""}, {"pitch": 42, "step": 67, "lengthSteps": 1, "velocity": 79, "microOffsetTicks": 0, "startTick": 16080, "lengthTicks": 240, "barIndex": 4, "stepInBar": 3, "isGhost": false, "semanticRole": ""}, {"pitch": 42, "step": 69, "lengthSteps": 1, "velocity": 84, "microOffsetTicks": 0, "startTick": 16560, "lengthTicks": 240, "barIndex": 4, "stepInBar": 5, "isGhost": false, "semanticRole": ""}, {"pitch": 42, "step": 72, "lengthSteps": 1, "velocity": 58, "microOffsetTicks": 0, "startTick": 17280, "lengthTicks": 240, "barIndex": 4, "stepInBar": 8, "isGhost": false, "semanticRole": ""}, {"pitch": 42, "step": 75, "lengthSteps": 1, "velocity": 61, "microOffsetTicks": 0, "startTick": 18000, "lengthTicks": 240, "barIndex": 4, "stepInBar": 11, "isGhost": false, "semanticRole": ""}, {"pitch": 42, "step": 79, "lengthSteps": 1, "velocity": 73, "microOffsetTicks": 0, "startTick": 18960, "lengthTicks": 240, "barIndex": 4, "stepInBar": 15, "isGhost": false, "semanticRole": ""}, {"pitch": 42, "step": 83, "lengthSteps": 1, "velocity": 61, "microOffsetTicks": 0, "startTick": 19920, "lengthTicks": 240, "barIndex": 5, "stepInBar": 3, "isGhost": false, "semanticRole": ""}, {"pitch": 42, "step": 85, "lengthSteps": 1, "velocity": 58, "microOffsetTicks": 0, "startTick": 20400, "lengthTicks": 240, "barIndex": 5, "stepInBar": 5, "isGhost": false, "semanticRole": ""}, {"pitch": 42, "step": 88, "lengthSteps": 1, "velocity": 56, "microOffsetTicks": 0, "startTick": 21120, "lengthTicks": 240, "barIndex": 5, "stepInBar": 8, "isGhost": false, "semanticRole": ""}, {"pitch": 42, "step": 91, "lengthSteps": 1, "velocity": 94, "microOffsetTicks": 0, "startTick": 21840, "lengthTicks": 240, "barIndex": 5, "stepInBar": 11, "isGhost": false, "semanticRole": ""}, {"pitch": 42, "step": 92, "lengthSteps": 1, "velocity": 82, "microOffsetTicks": 0, "startTick": 22080, "lengthTicks": 240, "barIndex": 5, "stepInBar": 12, "isGhost": false, "semanticRole": ""}, {"pitch": 42, "step": 93, "lengthSteps": 1, "velocity": 88, "microOffsetTicks": 0, "startTick": 22320, "lengthTicks": 240, "barIndex": 5, "stepInBar": 13, "isGhost": false, "semanticRole": ""}, {"pitch": 42, "step": 97, "lengthSteps": 1, "velocity": 82, "microOffsetTicks": 0, "startTick": 23280, "lengthTicks": 240, "barIndex": 6, "stepInBar": 1, "isGhost": false, "semanticRole": ""}, {"pitch": 42, "step": 99, "lengthSteps": 1, "velocity": 80, "microOffsetTicks": 0, "startTick": 23760, "lengthTicks": 240, "barIndex": 6, "stepInBar": 3, "isGhost": false, "semanticRole": ""}, {"pitch": 42, "step": 101, "lengthSteps": 1, "velocity": 69, "microOffsetTicks": 0, "startTick": 24240, "lengthTicks": 240, "barIndex": 6, "stepInBar": 5, "isGhost": false, "semanticRole": ""}, {"pitch": 42, "step": 104, "lengthSteps": 1, "velocity": 70, "microOffsetTicks": 0, "startTick": 24960, "lengthTicks": 240, "barIndex": 6, "stepInBar": 8, "isGhost": false, "semanticRole": ""}, {"pitch": 42, "step": 107, "lengthSteps": 1, "velocity": 73, "microOffsetTicks": 0, "startTick": 25680, "lengthTicks": 240, "barIndex": 6, "stepInBar": 11, "isGhost": false, "semanticRole": ""}, {"pitch": 42, "step": 109, "lengthSteps": 1, "velocity": 70, "microOffsetTicks": 0, "startTick": 26160, "lengthTicks": 240, "barIndex": 6, "stepInBar": 13, "isGhost": false, "semanticRole": ""}, {"pitch": 42, "step": 111, "lengthSteps": 1, "velocity": 58, "microOffsetTicks": 0, "startTick": 26640, "lengthTicks": 240, "barIndex": 6, "stepInBar": 15, "isGhost": false, "semanticRole": ""}, {"pitch": 42, "step": 113, "lengthSteps": 1, "velocity": 87, "microOffsetTicks": 0, "startTick": 27120, "lengthTicks": 240, "barIndex": 7, "stepInBar": 1, "isGhost": false, "semanticRole": ""}, {"pitch": 42, "step": 115, "lengthSteps": 1, "velocity": 63, "microOffsetTicks": 0, "startTick": 27600, "lengthTicks": 240, "barIndex": 7, "stepInBar": 3, "isGhost": false, "semanticRole": ""}, {"pitch": 42, "step": 117, "lengthSteps": 1, "velocity": 95, "microOffsetTicks": 0, "startTick": 28080, "lengthTicks": 240, "barIndex": 7, "stepInBar": 5, "isGhost": false, "semanticRole": ""}, {"pitch": 42, "step": 120, "lengthSteps": 1, "velocity": 91, "microOffsetTicks": 0, "startTick": 28800, "lengthTicks": 240, "barIndex": 7, "stepInBar": 8, "isGhost": false, "semanticRole": ""}, {"pitch": 42, "step": 123, "lengthSteps": 1, "velocity": 67, "microOffsetTicks": 0, "startTick": 29520, "lengthTicks": 240, "barIndex": 7, "stepInBar": 11, "isGhost": false, "semanticRole": ""}, {"pitch": 42, "step": 127, "lengthSteps": 1, "velocity": 83, "microOffsetTicks": 0, "startTick": 30480, "lengthTicks": 240, "barIndex": 7, "stepInBar": 15, "isGhost": false, "semanticRole": ""}]}}, {"trackType": "Snare", "displayName": "Snare", "laneId": "registry:Snare", "runtimeTrackType": "Snare", "bindingKind": "backed", "laneName": "Snare", "laneGroup": "Snare", "laneDependency": "", "generationPriority": 92, "isCoreLane": true, "isRuntimeRegistryLane": true, "laneParams": {"enabled": true, "muted": false, "solo": false, "locked": false, "laneRole": "drill_backbeat", "laneVolume": 0.850000023841858, "selectedSampleIndex": 3, "selectedSampleName": "Counter UK Snare 4", "sound": {"pan": 0.0, "width": 1.0, "eqTone": 0.0, "compression": 0.0, "reverb": 0.0, "gate": 0.0, "transient": 0.0, "drive": 0.0}, "noteCount": 10, "taggedNoteCount": 0, "notes": [{"pitch": 38, "step": 8, "lengthSteps": 1, "velocity": 125, "microOffsetTicks": 0, "startTick": 1920, "lengthTicks": 240, "barIndex": 0, "stepInBar": 8, "isGhost": false, "semanticRole": ""}, {"pitch": 38, "step": 24, "lengthSteps": 1, "velocity": 107, "microOffsetTicks": 3, "startTick": 5763, "lengthTicks": 240, "barIndex": 1, "stepInBar": 8, "isGhost": false, "semanticRole": ""}, {"pitch": 38, "step": 40, "lengthSteps": 1, "velocity": 121, "microOffsetTicks": 0, "startTick": 9600, "lengthTicks": 240, "barIndex": 2, "stepInBar": 8, "isGhost": false, "semanticRole": ""}, {"pitch": 38, "step": 55, "lengthSteps": 1, "velocity": 106, "microOffsetTicks": 0, "startTick": 13200, "lengthTicks": 240, "barIndex": 3, "stepInBar": 7, "isGhost": true, "semanticRole": ""}, {"pitch": 38, "step": 56, "lengthSteps": 1, "velocity": 127, "microOffsetTicks": 0, "startTick": 13440, "lengthTicks": 240, "barIndex": 3, "stepInBar": 8, "isGhost": false, "semanticRole": ""}, {"pitch": 38, "step": 72, "lengthSteps": 1, "velocity": 115, "microOffsetTicks": 0, "startTick": 17280, "lengthTicks": 240, "barIndex": 4, "stepInBar": 8, "isGhost": false, "semanticRole": ""}, {"pitch": 38, "step": 88, "lengthSteps": 1, "velocity": 121, "microOffsetTicks": 0, "startTick": 21120, "lengthTicks": 240, "barIndex": 5, "stepInBar": 8, "isGhost": false, "semanticRole": ""}, {"pitch": 38, "step": 104, "lengthSteps": 1, "velocity": 112, "microOffsetTicks": 0, "startTick": 24960, "lengthTicks": 240, "barIndex": 6, "stepInBar": 8, "isGhost": false, "semanticRole": ""}, {"pitch": 38, "step": 120, "lengthSteps": 1, "velocity": 105, "microOffsetTicks": 2, "startTick": 28802, "lengthTicks": 240, "barIndex": 7, "stepInBar": 8, "isGhost": false, "semanticRole": ""}, {"pitch": 38, "step": 127, "lengthSteps": 1, "velocity": 106, "microOffsetTicks": 3, "startTick": 30483, "lengthTicks": 240, "barIndex": 7, "stepInBar": 15, "isGhost": false, "semanticRole": ""}]}}, {"trackType": "Kick", "displayName": "Kick", "laneId": "registry:Kick", "runtimeTrackType": "Kick", "bindingKind": "backed", "laneName": "Kick", "laneGroup": "Kick", "laneDependency": "", "generationPriority": 96, "isCoreLane": true, "isRuntimeRegistryLane": true, "laneParams": {"enabled": true, "muted": false, "solo": false, "locked": false, "laneRole": "drill_kick", "laneVolume": 0.850000023841858, "selectedSampleIndex": 0, "selectedSampleName": "Kick 1", "sound": {"pan": 0.0, "width": 1.0, "eqTone": 0.0, "compression": 0.0, "reverb": 0.0, "gate": 0.0, "transient": 0.0, "drive": 0.0}, "noteCount": 16, "taggedNoteCount": 0, "notes": [{"pitch": 36, "step": 0, "lengthSteps": 1, "velocity": 117, "microOffsetTicks": 0, "startTick": 0, "lengthTicks": 240, "barIndex": 0, "stepInBar": 0, "isGhost": false, "semanticRole": ""}, {"pitch": 36, "step": 10, "lengthSteps": 1, "velocity": 118, "microOffsetTicks": 0, "startTick": 2400, "lengthTicks": 240, "barIndex": 0, "stepInBar": 10, "isGhost": false, "semanticRole": ""}, {"pitch": 36, "step": 16, "lengthSteps": 1, "velocity": 107, "microOffsetTicks": 0, "startTick": 3840, "lengthTicks": 240, "barIndex": 1, "stepInBar": 0, "isGhost": false, "semanticRole": ""}, {"pitch": 36, "step": 26, "lengthSteps": 1, "velocity": 127, "microOffsetTicks": 0, "startTick": 6240, "lengthTicks": 240, "barIndex": 1, "stepInBar": 10, "isGhost": false, "semanticRole": ""}, {"pitch": 36, "step": 32, "lengthSteps": 1, "velocity": 107, "microOffsetTicks": 0, "startTick": 7680, "lengthTicks": 240, "barIndex": 2, "stepInBar": 0, "isGhost": false, "semanticRole": ""}, {"pitch": 36, "step": 42, "lengthSteps": 1, "velocity": 106, "microOffsetTicks": 0, "startTick": 10080, "lengthTicks": 240, "barIndex": 2, "stepInBar": 10, "isGhost": false, "semanticRole": ""}, {"pitch": 36, "step": 48, "lengthSteps": 1, "velocity": 107, "microOffsetTicks": 0, "startTick": 11520, "lengthTicks": 240, "barIndex": 3, "stepInBar": 0, "isGhost": false, "semanticRole": ""}, {"pitch": 36, "step": 58, "lengthSteps": 1, "velocity": 115, "microOffsetTicks": 0, "startTick": 13920, "lengthTicks": 240, "barIndex": 3, "stepInBar": 10, "isGhost": false, "semanticRole": ""}, {"pitch": 36, "step": 64, "lengthSteps": 1, "velocity": 113, "microOffsetTicks": 0, "startTick": 15360, "lengthTicks": 240, "barIndex": 4, "stepInBar": 0, "isGhost": false, "semanticRole": ""}, {"pitch": 36, "step": 74, "lengthSteps": 1, "velocity": 112, "microOffsetTicks": 0, "startTick": 17760, "lengthTicks": 240, "barIndex": 4, "stepInBar": 10, "isGhost": false, "semanticRole": ""}, {"pitch": 36, "step": 80, "lengthSteps": 1, "velocity": 117, "microOffsetTicks": 0, "startTick": 19200, "lengthTicks": 240, "barIndex": 5, "stepInBar": 0, "isGhost": false, "semanticRole": ""}, {"pitch": 36, "step": 90, "lengthSteps": 1, "velocity": 109, "microOffsetTicks": 0, "startTick": 21600, "lengthTicks": 240, "barIndex": 5, "stepInBar": 10, "isGhost": false, "semanticRole": ""}, {"pitch": 36, "step": 96, "lengthSteps": 1, "velocity": 106, "microOffsetTicks": 0, "startTick": 23040, "lengthTicks": 240, "barIndex": 6, "stepInBar": 0, "isGhost": false, "semanticRole": ""}, {"pitch": 36, "step": 106, "lengthSteps": 1, "velocity": 117, "microOffsetTicks": 0, "startTick": 25440, "lengthTicks": 240, "barIndex": 6, "stepInBar": 10, "isGhost": false, "semanticRole": ""}, {"pitch": 36, "step": 112, "lengthSteps": 1, "velocity": 100, "microOffsetTicks": 0, "startTick": 26880, "lengthTicks": 240, "barIndex": 7, "stepInBar": 0, "isGhost": false, "semanticRole": ""}, {"pitch": 36, "step": 122, "lengthSteps": 1, "velocity": 107, "microOffsetTicks": 0, "startTick": 29280, "lengthTicks": 240, "barIndex": 7, "stepInBar": 10, "isGhost": false, "semanticRole": ""}]}}], "totalRuntimeLaneCount": 3, "backedLaneCount": 3, "unbackedLaneCount": 0, "totalNotes": 75, "taggedNotes": 0}}