{"type": "PATTERN_PROJECT", "properties": {"schema_version": 6, "selected_track_index": 0, "sound_module_track_index": -1, "generation_counter": 114, "mutation_counter": 0, "phrase_length_bars": 8, "phrase_role_summary": "statement|ending", "preview_start_step": 0, "bars": 8, "global_sound_pan": 0.0, "global_sound_width": 1.0, "global_sound_eq_tone": -0.150000005960464, "global_sound_compression": 0.0, "global_sound_reverb": 0.0, "global_sound_gate": 0.0, "global_sound_transient": 0.0, "global_sound_drive": 0.0}, "children": [{"type": "RUNTIME_LANE_PROFILE", "properties": {"genre": "Drill", "substyle": "UKDrill"}, "children": [{"type": "RUNTIME_LANE", "properties": {"lane_id": "registry:HiHat", "lane_name": "HiHat", "group_name": "Hats", "dependency_name": "", "generation_priority": 86, "is_core": true, "is_visible_in_editor": true, "enabled_by_default": true, "supports_drag_export": true, "is_ghost_track": false, "default_midi_note": 42, "is_runtime_registry_lane": true, "runtime_track_type": 0}, "children": []}, {"type": "RUNTIME_LANE", "properties": {"lane_id": "registry:Snare", "lane_name": "Snare", "group_name": "Snare", "dependency_name": "", "generation_priority": 92, "is_core": true, "is_visible_in_editor": true, "enabled_by_default": true, "supports_drag_export": true, "is_ghost_track": false, "default_midi_note": 38, "is_runtime_registry_lane": true, "runtime_track_type": 2}, "children": []}, {"type": "RUNTIME_LANE", "properties": {"lane_id": "registry:Kick", "lane_name": "Kick", "group_name": "Kick", "dependency_name": "", "generation_priority": 96, "is_core": true, "is_visible_in_editor": true, "enabled_by_default": true, "supports_drag_export": true, "is_ghost_track": false, "default_midi_note": 36, "is_runtime_registry_lane": true, "runtime_track_type": 4}, "children": []}]}, {"type": "RUNTIME_LANE_ORDER", "properties": {}, "children": [{"type": "RUNTIME_LANE_ORDER_ENTRY", "properties": {"lane_id": "registry:HiHat"}, "children": []}, {"type": "RUNTIME_LANE_ORDER_ENTRY", "properties": {"lane_id": "registry:Snare"}, "children": []}, {"type": "RUNTIME_LANE_ORDER_ENTRY", "properties": {"lane_id": "registry:Kick"}, "children": []}]}, {"type": "TRACK", "properties": {"type": 0, "lane_id": "registry:HiHat", "enabled": true, "muted": false, "solo": false, "locked": false, "template_id": 18, "variation_id": 0, "mutation_depth": 0.0, "sub_profile": "UKDrill", "lane_role": "drill_hat", "lane_volume": 0.850000023841858, "selected_sample_index": 0, "selected_sample_name": "Drill Hi-hat_1", "sound_pan": 0.0, "sound_width": 1.0, "sound_eq_tone": 0.0, "sound_compression": 0.0, "sound_reverb": 0.0, "sound_gate": 0.0, "sound_transient": 0.0, "sound_drive": 0.0}, "children": [{"type": "NOTE", "properties": {"pitch": 42, "step": 1, "length": 1, "velocity": 67, "micro_offset": 0, "is_ghost": false, "semantic_role": ""}, "children": []}, {"type": "NOTE", "properties": {"pitch": 42, "step": 3, "length": 1, "velocity": 68, "micro_offset": 0, "is_ghost": false, "semantic_role": ""}, "children": []}, {"type": "NOTE", "properties": {"pitch": 42, "step": 5, "length": 1, "velocity": 58, "micro_offset": 0, "is_ghost": false, "semantic_role": ""}, "children": []}, {"type": "NOTE", "properties": {"pitch": 42, "step": 8, "length": 1, "velocity": 93, "micro_offset": 0, "is_ghost": false, "semantic_role": ""}, "children": []}, {"type": "NOTE", "properties": {"pitch": 42, "step": 11, "length": 1, "velocity": 89, "micro_offset": 0, "is_ghost": false, "semantic_role": ""}, "children": []}, {"type": "NOTE", "properties": {"pitch": 42, "step": 15, "length": 1, "velocity": 102, "micro_offset": 0, "is_ghost": false, "semantic_role": ""}, "children": []}, {"type": "NOTE", "properties": {"pitch": 42, "step": 17, "length": 1, "velocity": 65, "micro_offset": 0, "is_ghost": false, "semantic_role": ""}, "children": []}, {"type": "NOTE", "properties": {"pitch": 42, "step": 19, "length": 1, "velocity": 70, "micro_offset": 0, "is_ghost": false, "semantic_role": ""}, "children": []}, {"type": "NOTE", "properties": {"pitch": 42, "step": 21, "length": 1, "velocity": 61, "micro_offset": 0, "is_ghost": false, "semantic_role": ""}, "children": []}, {"type": "NOTE", "properties": {"pitch": 42, "step": 24, "length": 1, "velocity": 84, "micro_offset": 0, "is_ghost": false, "semantic_role": ""}, "children": []}, {"type": "NOTE", "properties": {"pitch": 42, "step": 27, "length": 1, "velocity": 56, "micro_offset": 0, "is_ghost": false, "semantic_role": ""}, "children": []}, {"type": "NOTE", "properties": {"pitch": 42, "step": 29, "length": 1, "velocity": 55, "micro_offset": 0, "is_ghost": false, "semantic_role": ""}, "children": []}, {"type": "NOTE", "properties": {"pitch": 42, "step": 33, "length": 1, "velocity": 81, "micro_offset": 0, "is_ghost": false, "semantic_role": ""}, "children": []}, {"type": "NOTE", "properties": {"pitch": 42, "step": 35, "length": 1, "velocity": 77, "micro_offset": 0, "is_ghost": false, "semantic_role": ""}, "children": []}, {"type": "NOTE", "properties": {"pitch": 42, "step": 37, "length": 1, "velocity": 63, "micro_offset": 0, "is_ghost": false, "semantic_role": ""}, "children": []}, {"type": "NOTE", "properties": {"pitch": 42, "step": 40, "length": 1, "velocity": 91, "micro_offset": 0, "is_ghost": false, "semantic_role": ""}, "children": []}, {"type": "NOTE", "properties": {"pitch": 42, "step": 43, "length": 1, "velocity": 74, "micro_offset": 0, "is_ghost": false, "semantic_role": ""}, "children": []}, {"type": "NOTE", "properties": {"pitch": 42, "step": 47, "length": 1, "velocity": 76, "micro_offset": 0, "is_ghost": false, "semantic_role": ""}, "children": []}, {"type": "NOTE", "properties": {"pitch": 42, "step": 49, "length": 1, "velocity": 82, "micro_offset": 0, "is_ghost": false, "semantic_role": ""}, "children": []}, {"type": "NOTE", "properties": {"pitch": 42, "step": 51, "length": 1, "velocity": 77, "micro_offset": 0, "is_ghost": false, "semantic_role": ""}, "children": []}, {"type": "NOTE", "properties": {"pitch": 42, "step": 53, "length": 1, "velocity": 68, "micro_offset": 0, "is_ghost": false, "semantic_role": ""}, "children": []}, {"type": "NOTE", "properties": {"pitch": 42, "step": 56, "length": 1, "velocity": 56, "micro_offset": 0, "is_ghost": false, "semantic_role": ""}, "children": []}, {"type": "NOTE", "properties": {"pitch": 42, "step": 59, "length": 1, "velocity": 73, "micro_offset": 0, "is_ghost": false, "semantic_role": ""}, "children": []}, {"type": "NOTE", "properties": {"pitch": 42, "step": 63, "length": 1, "velocity": 86, "micro_offset": 0, "is_ghost": false, "semantic_role": ""}, "children": []}, {"type": "NOTE", "properties": {"pitch": 42, "step": 65, "length": 1, "velocity": 95, "micro_offset": 0, "is_ghost": false, "semantic_role": ""}, "children": []}, {"type": "NOTE", "properties": {"pitch": 42, "step": 67, "length": 1, "velocity": 79, "micro_offset": 0, "is_ghost": false, "semantic_role": ""}, "children": []}, {"type": "NOTE", "properties": {"pitch": 42, "step": 69, "length": 1, "velocity": 84, "micro_offset": 0, "is_ghost": false, "semantic_role": ""}, "children": []}, {"type": "NOTE", "properties": {"pitch": 42, "step": 72, "length": 1, "velocity": 58, "micro_offset": 0, "is_ghost": false, "semantic_role": ""}, "children": []}, {"type": "NOTE", "properties": {"pitch": 42, "step": 75, "length": 1, "velocity": 61, "micro_offset": 0, "is_ghost": false, "semantic_role": ""}, "children": []}, {"type": "NOTE", "properties": {"pitch": 42, "step": 79, "length": 1, "velocity": 73, "micro_offset": 0, "is_ghost": false, "semantic_role": ""}, "children": []}, {"type": "NOTE", "properties": {"pitch": 42, "step": 83, "length": 1, "velocity": 61, "micro_offset": 0, "is_ghost": false, "semantic_role": ""}, "children": []}, {"type": "NOTE", "properties": {"pitch": 42, "step": 85, "length": 1, "velocity": 58, "micro_offset": 0, "is_ghost": false, "semantic_role": ""}, "children": []}, {"type": "NOTE", "properties": {"pitch": 42, "step": 88, "length": 1, "velocity": 56, "micro_offset": 0, "is_ghost": false, "semantic_role": ""}, "children": []}, {"type": "NOTE", "properties": {"pitch": 42, "step": 91, "length": 1, "velocity": 94, "micro_offset": 0, "is_ghost": false, "semantic_role": ""}, "children": []}, {"type": "NOTE", "properties": {"pitch": 42, "step": 92, "length": 1, "velocity": 82, "micro_offset": 0, "is_ghost": false, "semantic_role": ""}, "children": []}, {"type": "NOTE", "properties": {"pitch": 42, "step": 93, "length": 1, "velocity": 88, "micro_offset": 0, "is_ghost": false, "semantic_role": ""}, "children": []}, {"type": "NOTE", "properties": {"pitch": 42, "step": 97, "length": 1, "velocity": 82, "micro_offset": 0, "is_ghost": false, "semantic_role": ""}, "children": []}, {"type": "NOTE", "properties": {"pitch": 42, "step": 99, "length": 1, "velocity": 80, "micro_offset": 0, "is_ghost": false, "semantic_role": ""}, "children": []}, {"type": "NOTE", "properties": {"pitch": 42, "step": 101, "length": 1, "velocity": 69, "micro_offset": 0, "is_ghost": false, "semantic_role": ""}, "children": []}, {"type": "NOTE", "properties": {"pitch": 42, "step": 104, "length": 1, "velocity": 70, "micro_offset": 0, "is_ghost": false, "semantic_role": ""}, "children": []}, {"type": "NOTE", "properties": {"pitch": 42, "step": 107, "length": 1, "velocity": 73, "micro_offset": 0, "is_ghost": false, "semantic_role": ""}, "children": []}, {"type": "NOTE", "properties": {"pitch": 42, "step": 109, "length": 1, "velocity": 70, "micro_offset": 0, "is_ghost": false, "semantic_role": ""}, "children": []}, {"type": "NOTE", "properties": {"pitch": 42, "step": 111, "length": 1, "velocity": 58, "micro_offset": 0, "is_ghost": false, "semantic_role": ""}, "children": []}, {"type": "NOTE", "properties": {"pitch": 42, "step": 113, "length": 1, "velocity": 87, "micro_offset": 0, "is_ghost": false, "semantic_role": ""}, "children": []}, {"type": "NOTE", "properties": {"pitch": 42, "step": 115, "length": 1, "velocity": 63, "micro_offset": 0, "is_ghost": false, "semantic_role": ""}, "children": []}, {"type": "NOTE", "properties": {"pitch": 42, "step": 117, "length": 1, "velocity": 95, "micro_offset": 0, "is_ghost": false, "semantic_role": ""}, "children": []}, {"type": "NOTE", "properties": {"pitch": 42, "step": 120, "length": 1, "velocity": 91, "micro_offset": 0, "is_ghost": false, "semantic_role": ""}, "children": []}, {"type": "NOTE", "properties": {"pitch": 42, "step": 123, "length": 1, "velocity": 67, "micro_offset": 0, "is_ghost": false, "semantic_role": ""}, "children": []}, {"type": "NOTE", "properties": {"pitch": 42, "step": 127, "length": 1, "velocity": 83, "micro_offset": 0, "is_ghost": false, "semantic_role": ""}, "children": []}]}, {"type": "TRACK", "properties": {"type": 2, "lane_id": "registry:Snare", "enabled": true, "muted": false, "solo": false, "locked": false, "template_id": 18, "variation_id": 3, "mutation_depth": 0.239999994635582, "sub_profile": "UKDrill", "lane_role": "drill_backbeat", "lane_volume": 0.850000023841858, "selected_sample_index": 3, "selected_sample_name": "Counter UK Snare 4", "sound_pan": 0.0, "sound_width": 1.0, "sound_eq_tone": 0.0, "sound_compression": 0.0, "sound_reverb": 0.0, "sound_gate": 0.0, "sound_transient": 0.0, "sound_drive": 0.0}, "children": [{"type": "NOTE", "properties": {"pitch": 38, "step": 8, "length": 1, "velocity": 125, "micro_offset": 0, "is_ghost": false, "semantic_role": ""}, "children": []}, {"type": "NOTE", "properties": {"pitch": 38, "step": 24, "length": 1, "velocity": 107, "micro_offset": 3, "is_ghost": false, "semantic_role": ""}, "children": []}, {"type": "NOTE", "properties": {"pitch": 38, "step": 40, "length": 1, "velocity": 121, "micro_offset": 0, "is_ghost": false, "semantic_role": ""}, "children": []}, {"type": "NOTE", "properties": {"pitch": 38, "step": 55, "length": 1, "velocity": 106, "micro_offset": 0, "is_ghost": true, "semantic_role": ""}, "children": []}, {"type": "NOTE", "properties": {"pitch": 38, "step": 56, "length": 1, "velocity": 127, "micro_offset": 0, "is_ghost": false, "semantic_role": ""}, "children": []}, {"type": "NOTE", "properties": {"pitch": 38, "step": 72, "length": 1, "velocity": 115, "micro_offset": 0, "is_ghost": false, "semantic_role": ""}, "children": []}, {"type": "NOTE", "properties": {"pitch": 38, "step": 88, "length": 1, "velocity": 121, "micro_offset": 0, "is_ghost": false, "semantic_role": ""}, "children": []}, {"type": "NOTE", "properties": {"pitch": 38, "step": 104, "length": 1, "velocity": 112, "micro_offset": 0, "is_ghost": false, "semantic_role": ""}, "children": []}, {"type": "NOTE", "properties": {"pitch": 38, "step": 120, "length": 1, "velocity": 105, "micro_offset": 2, "is_ghost": false, "semantic_role": ""}, "children": []}, {"type": "NOTE", "properties": {"pitch": 38, "step": 127, "length": 1, "velocity": 106, "micro_offset": 3, "is_ghost": false, "semantic_role": ""}, "children": []}]}, {"type": "TRACK", "properties": {"type": 4, "lane_id": "registry:Kick", "enabled": true, "muted": false, "solo": false, "locked": false, "template_id": 18, "variation_id": 14, "mutation_depth": 1.0, "sub_profile": "UKDrill", "lane_role": "drill_kick", "lane_volume": 0.850000023841858, "selected_sample_index": 0, "selected_sample_name": "Kick 1", "sound_pan": 0.0, "sound_width": 1.0, "sound_eq_tone": 0.0, "sound_compression": 0.0, "sound_reverb": 0.0, "sound_gate": 0.0, "sound_transient": 0.0, "sound_drive": 0.0}, "children": [{"type": "NOTE", "properties": {"pitch": 36, "step": 0, "length": 1, "velocity": 117, "micro_offset": 0, "is_ghost": false, "semantic_role": ""}, "children": []}, {"type": "NOTE", "properties": {"pitch": 36, "step": 10, "length": 1, "velocity": 118, "micro_offset": 0, "is_ghost": false, "semantic_role": ""}, "children": []}, {"type": "NOTE", "properties": {"pitch": 36, "step": 16, "length": 1, "velocity": 107, "micro_offset": 0, "is_ghost": false, "semantic_role": ""}, "children": []}, {"type": "NOTE", "properties": {"pitch": 36, "step": 26, "length": 1, "velocity": 127, "micro_offset": 0, "is_ghost": false, "semantic_role": ""}, "children": []}, {"type": "NOTE", "properties": {"pitch": 36, "step": 32, "length": 1, "velocity": 107, "micro_offset": 0, "is_ghost": false, "semantic_role": ""}, "children": []}, {"type": "NOTE", "properties": {"pitch": 36, "step": 42, "length": 1, "velocity": 106, "micro_offset": 0, "is_ghost": false, "semantic_role": ""}, "children": []}, {"type": "NOTE", "properties": {"pitch": 36, "step": 48, "length": 1, "velocity": 107, "micro_offset": 0, "is_ghost": false, "semantic_role": ""}, "children": []}, {"type": "NOTE", "properties": {"pitch": 36, "step": 58, "length": 1, "velocity": 115, "micro_offset": 0, "is_ghost": false, "semantic_role": ""}, "children": []}, {"type": "NOTE", "properties": {"pitch": 36, "step": 64, "length": 1, "velocity": 113, "micro_offset": 0, "is_ghost": false, "semantic_role": ""}, "children": []}, {"type": "NOTE", "properties": {"pitch": 36, "step": 74, "length": 1, "velocity": 112, "micro_offset": 0, "is_ghost": false, "semantic_role": ""}, "children": []}, {"type": "NOTE", "properties": {"pitch": 36, "step": 80, "length": 1, "velocity": 117, "micro_offset": 0, "is_ghost": false, "semantic_role": ""}, "children": []}, {"type": "NOTE", "properties": {"pitch": 36, "step": 90, "length": 1, "velocity": 109, "micro_offset": 0, "is_ghost": false, "semantic_role": ""}, "children": []}, {"type": "NOTE", "properties": {"pitch": 36, "step": 96, "length": 1, "velocity": 106, "micro_offset": 0, "is_ghost": false, "semantic_role": ""}, "children": []}, {"type": "NOTE", "properties": {"pitch": 36, "step": 106, "length": 1, "velocity": 117, "micro_offset": 0, "is_ghost": false, "semantic_role": ""}, "children": []}, {"type": "NOTE", "properties": {"pitch": 36, "step": 112, "length": 1, "velocity": 100, "micro_offset": 0, "is_ghost": false, "semantic_role": ""}, "children": []}, {"type": "NOTE", "properties": {"pitch": 36, "step": 122, "length": 1, "velocity": 107, "micro_offset": 0, "is_ghost": false, "semantic_role": ""}, "children": []}]}]}