{"genre": "Drill", "substyle": "UKDrill", "bars": 8, "tempoMin": 136, "tempoMax": 148, "exportedAt": "2026-03-21T14:19:20.061+02:00", "conflictMessage": "", "laneLayoutSource": "PatternProject.runtime", "runtimeLaneOrder": ["registry:HiHat", "registry:Snare", "registry:Kick"], "laneLayout": [{"orderIndex": 0, "laneId": "registry:HiHat", "laneName": "HiHat", "groupName": "Hats", "dependencyName": "", "generationPriority": 86, "isCore": true, "isVisibleInEditor": true, "enabledByDefault": true, "supportsDragExport": true, "isGhostTrack": false, "defaultMidiNote": 42, "isRuntimeRegistryLane": true, "runtimeTrackType": "HiHat", "bindingKind": "backed", "hasBackingTrack": true, "laneParamsAvailable": true, "trackType": "HiHat", "laneParams": {"enabled": true, "muted": false, "solo": false, "locked": false, "laneRole": "drill_hat", "laneVolume": 0.850000023841858, "selectedSampleIndex": 0, "selectedSampleName": "Drill Hi-hat_1", "sound": {"pan": 0.0, "width": 1.0, "eqTone": 0.0, "compression": 0.0, "reverb": 0.0, "gate": 0.0, "transient": 0.0, "drive": 0.0}, "noteCount": 57, "taggedNoteCount": 0, "notes": [{"pitch": 42, "step": 0, "lengthSteps": 3, "velocity": 100, "microOffsetTicks": 0, "startTick": 0, "lengthTicks": 720, "barIndex": 0, "stepInBar": 0, "isGhost": false, "semanticRole": ""}, {"pitch": 42, "step": 3, "lengthSteps": 2, "velocity": 88, "microOffsetTicks": 0, "startTick": 720, "lengthTicks": 480, "barIndex": 0, "stepInBar": 3, "isGhost": false, "semanticRole": ""}, {"pitch": 42, "step": 5, "lengthSteps": 1, "velocity": 31, "microOffsetTicks": 0, "startTick": 1200, "lengthTicks": 240, "barIndex": 0, "stepInBar": 5, "isGhost": false, "semanticRole": ""}, {"pitch": 42, "step": 6, "lengthSteps": 2, "velocity": 100, "microOffsetTicks": 0, "startTick": 1440, "lengthTicks": 480, "barIndex": 0, "stepInBar": 6, "isGhost": false, "semanticRole": ""}, {"pitch": 42, "step": 8, "lengthSteps": 6, "velocity": 100, "microOffsetTicks": 0, "startTick": 1920, "lengthTicks": 1440, "barIndex": 0, "stepInBar": 8, "isGhost": false, "semanticRole": ""}, {"pitch": 42, "step": 14, "lengthSteps": 2, "velocity": 100, "microOffsetTicks": 0, "startTick": 3360, "lengthTicks": 480, "barIndex": 0, "stepInBar": 14, "isGhost": false, "semanticRole": ""}, {"pitch": 42, "step": 16, "lengthSteps": 3, "velocity": 100, "microOffsetTicks": 0, "startTick": 3840, "lengthTicks": 720, "barIndex": 1, "stepInBar": 0, "isGhost": false, "semanticRole": ""}, {"pitch": 42, "step": 19, "lengthSteps": 3, "velocity": 100, "microOffsetTicks": 0, "startTick": 4560, "lengthTicks": 720, "barIndex": 1, "stepInBar": 3, "isGhost": false, "semanticRole": ""}, {"pitch": 42, "step": 22, "lengthSteps": 2, "velocity": 88, "microOffsetTicks": 0, "startTick": 5280, "lengthTicks": 480, "barIndex": 1, "stepInBar": 6, "isGhost": false, "semanticRole": ""}, {"pitch": 42, "step": 24, "lengthSteps": 3, "velocity": 98, "microOffsetTicks": 0, "startTick": 5760, "lengthTicks": 720, "barIndex": 1, "stepInBar": 8, "isGhost": false, "semanticRole": ""}, {"pitch": 42, "step": 27, "lengthSteps": 1, "velocity": 100, "microOffsetTicks": 0, "startTick": 6480, "lengthTicks": 240, "barIndex": 1, "stepInBar": 11, "isGhost": false, "semanticRole": ""}, {"pitch": 42, "step": 28, "lengthSteps": 1, "velocity": 16, "microOffsetTicks": 0, "startTick": 6720, "lengthTicks": 240, "barIndex": 1, "stepInBar": 12, "isGhost": false, "semanticRole": ""}, {"pitch": 42, "step": 29, "lengthSteps": 1, "velocity": 31, "microOffsetTicks": 0, "startTick": 6960, "lengthTicks": 240, "barIndex": 1, "stepInBar": 13, "isGhost": false, "semanticRole": ""}, {"pitch": 42, "step": 30, "lengthSteps": 2, "velocity": 100, "microOffsetTicks": 0, "startTick": 7200, "lengthTicks": 480, "barIndex": 1, "stepInBar": 14, "isGhost": false, "semanticRole": ""}, {"pitch": 42, "step": 32, "lengthSteps": 3, "velocity": 100, "microOffsetTicks": 0, "startTick": 7680, "lengthTicks": 720, "barIndex": 2, "stepInBar": 0, "isGhost": false, "semanticRole": ""}, {"pitch": 42, "step": 35, "lengthSteps": 3, "velocity": 95, "microOffsetTicks": 0, "startTick": 8400, "lengthTicks": 720, "barIndex": 2, "stepInBar": 3, "isGhost": false, "semanticRole": ""}, {"pitch": 42, "step": 38, "lengthSteps": 2, "velocity": 100, "microOffsetTicks": 0, "startTick": 9120, "lengthTicks": 480, "barIndex": 2, "stepInBar": 6, "isGhost": false, "semanticRole": ""}, {"pitch": 42, "step": 40, "lengthSteps": 6, "velocity": 100, "microOffsetTicks": 0, "startTick": 9600, "lengthTicks": 1440, "barIndex": 2, "stepInBar": 8, "isGhost": false, "semanticRole": ""}, {"pitch": 42, "step": 46, "lengthSteps": 1, "velocity": 100, "microOffsetTicks": 0, "startTick": 11040, "lengthTicks": 240, "barIndex": 2, "stepInBar": 14, "isGhost": false, "semanticRole": ""}, {"pitch": 42, "step": 47, "lengthSteps": 1, "velocity": 84, "microOffsetTicks": -80, "startTick": 11200, "lengthTicks": 240, "barIndex": 2, "stepInBar": 15, "isGhost": false, "semanticRole": ""}, {"pitch": 42, "step": 47, "lengthSteps": 1, "velocity": 84, "microOffsetTicks": 80, "startTick": 11360, "lengthTicks": 240, "barIndex": 2, "stepInBar": 15, "isGhost": false, "semanticRole": ""}, {"pitch": 42, "step": 48, "lengthSteps": 3, "velocity": 100, "microOffsetTicks": 0, "startTick": 11520, "lengthTicks": 720, "barIndex": 3, "stepInBar": 0, "isGhost": false, "semanticRole": ""}, {"pitch": 42, "step": 51, "lengthSteps": 3, "velocity": 100, "microOffsetTicks": 0, "startTick": 12240, "lengthTicks": 720, "barIndex": 3, "stepInBar": 3, "isGhost": false, "semanticRole": ""}, {"pitch": 42, "step": 54, "lengthSteps": 2, "velocity": 82, "microOffsetTicks": 0, "startTick": 12960, "lengthTicks": 480, "barIndex": 3, "stepInBar": 6, "isGhost": false, "semanticRole": ""}, {"pitch": 42, "step": 56, "lengthSteps": 2, "velocity": 100, "microOffsetTicks": 0, "startTick": 13440, "lengthTicks": 480, "barIndex": 3, "stepInBar": 8, "isGhost": false, "semanticRole": ""}, {"pitch": 42, "step": 58, "lengthSteps": 1, "velocity": 31, "microOffsetTicks": 0, "startTick": 13920, "lengthTicks": 240, "barIndex": 3, "stepInBar": 10, "isGhost": false, "semanticRole": ""}, {"pitch": 42, "step": 59, "lengthSteps": 3, "velocity": 100, "microOffsetTicks": 0, "startTick": 14160, "lengthTicks": 720, "barIndex": 3, "stepInBar": 11, "isGhost": false, "semanticRole": ""}, {"pitch": 42, "step": 62, "lengthSteps": 2, "velocity": 100, "microOffsetTicks": 0, "startTick": 14880, "lengthTicks": 480, "barIndex": 3, "stepInBar": 14, "isGhost": false, "semanticRole": ""}, {"pitch": 42, "step": 64, "lengthSteps": 3, "velocity": 100, "microOffsetTicks": 0, "startTick": 15360, "lengthTicks": 720, "barIndex": 4, "stepInBar": 0, "isGhost": false, "semanticRole": ""}, {"pitch": 42, "step": 67, "lengthSteps": 2, "velocity": 100, "microOffsetTicks": 0, "startTick": 16080, "lengthTicks": 480, "barIndex": 4, "stepInBar": 3, "isGhost": false, "semanticRole": ""}, {"pitch": 42, "step": 69, "lengthSteps": 1, "velocity": 31, "microOffsetTicks": 0, "startTick": 16560, "lengthTicks": 240, "barIndex": 4, "stepInBar": 5, "isGhost": false, "semanticRole": ""}, {"pitch": 42, "step": 70, "lengthSteps": 2, "velocity": 100, "microOffsetTicks": 0, "startTick": 16800, "lengthTicks": 480, "barIndex": 4, "stepInBar": 6, "isGhost": false, "semanticRole": ""}, {"pitch": 42, "step": 72, "lengthSteps": 6, "velocity": 100, "microOffsetTicks": 0, "startTick": 17280, "lengthTicks": 1440, "barIndex": 4, "stepInBar": 8, "isGhost": false, "semanticRole": ""}, {"pitch": 42, "step": 78, "lengthSteps": 2, "velocity": 91, "microOffsetTicks": 0, "startTick": 18720, "lengthTicks": 480, "barIndex": 4, "stepInBar": 14, "isGhost": false, "semanticRole": ""}, {"pitch": 42, "step": 80, "lengthSteps": 3, "velocity": 100, "microOffsetTicks": 0, "startTick": 19200, "lengthTicks": 720, "barIndex": 5, "stepInBar": 0, "isGhost": false, "semanticRole": ""}, {"pitch": 42, "step": 83, "lengthSteps": 3, "velocity": 100, "microOffsetTicks": 0, "startTick": 19920, "lengthTicks": 720, "barIndex": 5, "stepInBar": 3, "isGhost": false, "semanticRole": ""}, {"pitch": 42, "step": 86, "lengthSteps": 2, "velocity": 100, "microOffsetTicks": 0, "startTick": 20640, "lengthTicks": 480, "barIndex": 5, "stepInBar": 6, "isGhost": false, "semanticRole": ""}, {"pitch": 42, "step": 88, "lengthSteps": 3, "velocity": 100, "microOffsetTicks": 0, "startTick": 21120, "lengthTicks": 720, "barIndex": 5, "stepInBar": 8, "isGhost": false, "semanticRole": ""}, {"pitch": 42, "step": 91, "lengthSteps": 1, "velocity": 100, "microOffsetTicks": 0, "startTick": 21840, "lengthTicks": 240, "barIndex": 5, "stepInBar": 11, "isGhost": false, "semanticRole": ""}, {"pitch": 42, "step": 92, "lengthSteps": 1, "velocity": 16, "microOffsetTicks": 0, "startTick": 22080, "lengthTicks": 240, "barIndex": 5, "stepInBar": 12, "isGhost": false, "semanticRole": ""}, {"pitch": 42, "step": 93, "lengthSteps": 1, "velocity": 31, "microOffsetTicks": 0, "startTick": 22320, "lengthTicks": 240, "barIndex": 5, "stepInBar": 13, "isGhost": false, "semanticRole": ""}, {"pitch": 42, "step": 94, "lengthSteps": 2, "velocity": 100, "microOffsetTicks": 0, "startTick": 22560, "lengthTicks": 480, "barIndex": 5, "stepInBar": 14, "isGhost": false, "semanticRole": ""}, {"pitch": 42, "step": 96, "lengthSteps": 3, "velocity": 95, "microOffsetTicks": 0, "startTick": 23040, "lengthTicks": 720, "barIndex": 6, "stepInBar": 0, "isGhost": false, "semanticRole": ""}, {"pitch": 42, "step": 99, "lengthSteps": 3, "velocity": 100, "microOffsetTicks": 0, "startTick": 23760, "lengthTicks": 720, "barIndex": 6, "stepInBar": 3, "isGhost": false, "semanticRole": ""}, {"pitch": 42, "step": 102, "lengthSteps": 2, "velocity": 100, "microOffsetTicks": 0, "startTick": 24480, "lengthTicks": 480, "barIndex": 6, "stepInBar": 6, "isGhost": false, "semanticRole": ""}, {"pitch": 42, "step": 104, "lengthSteps": 6, "velocity": 100, "microOffsetTicks": 0, "startTick": 24960, "lengthTicks": 1440, "barIndex": 6, "stepInBar": 8, "isGhost": false, "semanticRole": ""}, {"pitch": 42, "step": 110, "lengthSteps": 1, "velocity": 100, "microOffsetTicks": 0, "startTick": 26400, "lengthTicks": 240, "barIndex": 6, "stepInBar": 14, "isGhost": false, "semanticRole": ""}, {"pitch": 42, "step": 111, "lengthSteps": 1, "velocity": 73, "microOffsetTicks": -80, "startTick": 26560, "lengthTicks": 240, "barIndex": 6, "stepInBar": 15, "isGhost": false, "semanticRole": ""}, {"pitch": 42, "step": 111, "lengthSteps": 1, "velocity": 80, "microOffsetTicks": 80, "startTick": 26720, "lengthTicks": 240, "barIndex": 6, "stepInBar": 15, "isGhost": false, "semanticRole": ""}, {"pitch": 42, "step": 112, "lengthSteps": 3, "velocity": 100, "microOffsetTicks": 0, "startTick": 26880, "lengthTicks": 720, "barIndex": 7, "stepInBar": 0, "isGhost": false, "semanticRole": ""}, {"pitch": 42, "step": 115, "lengthSteps": 3, "velocity": 100, "microOffsetTicks": 0, "startTick": 27600, "lengthTicks": 720, "barIndex": 7, "stepInBar": 3, "isGhost": false, "semanticRole": ""}, {"pitch": 42, "step": 118, "lengthSteps": 2, "velocity": 100, "microOffsetTicks": 0, "startTick": 28320, "lengthTicks": 480, "barIndex": 7, "stepInBar": 6, "isGhost": false, "semanticRole": ""}, {"pitch": 42, "step": 120, "lengthSteps": 1, "velocity": 100, "microOffsetTicks": 0, "startTick": 28800, "lengthTicks": 240, "barIndex": 7, "stepInBar": 8, "isGhost": false, "semanticRole": ""}, {"pitch": 42, "step": 121, "lengthSteps": 1, "velocity": 84, "microOffsetTicks": 0, "startTick": 29040, "lengthTicks": 240, "barIndex": 7, "stepInBar": 9, "isGhost": false, "semanticRole": ""}, {"pitch": 42, "step": 122, "lengthSteps": 1, "velocity": 32, "microOffsetTicks": 0, "startTick": 29280, "lengthTicks": 240, "barIndex": 7, "stepInBar": 10, "isGhost": false, "semanticRole": ""}, {"pitch": 42, "step": 123, "lengthSteps": 3, "velocity": 100, "microOffsetTicks": 0, "startTick": 29520, "lengthTicks": 720, "barIndex": 7, "stepInBar": 11, "isGhost": false, "semanticRole": ""}, {"pitch": 42, "step": 126, "lengthSteps": 1, "velocity": 100, "microOffsetTicks": 0, "startTick": 30240, "lengthTicks": 240, "barIndex": 7, "stepInBar": 14, "isGhost": false, "semanticRole": ""}]}}, {"orderIndex": 1, "laneId": "registry:Snare", "laneName": "Snare", "groupName": "Snare", "dependencyName": "", "generationPriority": 92, "isCore": true, "isVisibleInEditor": true, "enabledByDefault": true, "supportsDragExport": true, "isGhostTrack": false, "defaultMidiNote": 38, "isRuntimeRegistryLane": true, "runtimeTrackType": "Snare", "bindingKind": "backed", "hasBackingTrack": true, "laneParamsAvailable": true, "trackType": "Snare", "laneParams": {"enabled": true, "muted": false, "solo": false, "locked": false, "laneRole": "drill_backbeat", "laneVolume": 0.850000023841858, "selectedSampleIndex": 3, "selectedSampleName": "Counter UK Snare 4", "sound": {"pan": 0.0, "width": 1.0, "eqTone": 0.0, "compression": 0.0, "reverb": 0.0, "gate": 0.0, "transient": 0.0, "drive": 0.0}, "noteCount": 20, "taggedNoteCount": 0, "notes": [{"pitch": 38, "step": 8, "lengthSteps": 32, "velocity": 120, "microOffsetTicks": 0, "startTick": 1920, "lengthTicks": 7680, "barIndex": 0, "stepInBar": 8, "isGhost": false, "semanticRole": ""}, {"pitch": 38, "step": 40, "lengthSteps": 20, "velocity": 120, "microOffsetTicks": 0, "startTick": 9600, "lengthTicks": 4800, "barIndex": 2, "stepInBar": 8, "isGhost": false, "semanticRole": ""}, {"pitch": 38, "step": 60, "lengthSteps": 12, "velocity": 120, "microOffsetTicks": 0, "startTick": 14400, "lengthTicks": 2880, "barIndex": 3, "stepInBar": 12, "isGhost": false, "semanticRole": ""}, {"pitch": 38, "step": 70, "lengthSteps": 1, "velocity": 15, "microOffsetTicks": 0, "startTick": 16800, "lengthTicks": 240, "barIndex": 4, "stepInBar": 6, "isGhost": false, "semanticRole": ""}, {"pitch": 38, "step": 70, "lengthSteps": 1, "velocity": 16, "microOffsetTicks": 40, "startTick": 16840, "lengthTicks": 240, "barIndex": 4, "stepInBar": 6, "isGhost": false, "semanticRole": ""}, {"pitch": 38, "step": 70, "lengthSteps": 1, "velocity": 17, "microOffsetTicks": 80, "startTick": 16880, "lengthTicks": 240, "barIndex": 4, "stepInBar": 6, "isGhost": false, "semanticRole": ""}, {"pitch": 38, "step": 70, "lengthSteps": 1, "velocity": 18, "microOffsetTicks": 120, "startTick": 16920, "lengthTicks": 240, "barIndex": 4, "stepInBar": 6, "isGhost": false, "semanticRole": ""}, {"pitch": 38, "step": 71, "lengthSteps": 1, "velocity": 19, "microOffsetTicks": -80, "startTick": 16960, "lengthTicks": 240, "barIndex": 4, "stepInBar": 7, "isGhost": false, "semanticRole": ""}, {"pitch": 38, "step": 71, "lengthSteps": 1, "velocity": 20, "microOffsetTicks": -40, "startTick": 17000, "lengthTicks": 240, "barIndex": 4, "stepInBar": 7, "isGhost": false, "semanticRole": ""}, {"pitch": 38, "step": 71, "lengthSteps": 1, "velocity": 22, "microOffsetTicks": 0, "startTick": 17040, "lengthTicks": 240, "barIndex": 4, "stepInBar": 7, "isGhost": false, "semanticRole": ""}, {"pitch": 38, "step": 71, "lengthSteps": 1, "velocity": 23, "microOffsetTicks": 40, "startTick": 17080, "lengthTicks": 240, "barIndex": 4, "stepInBar": 7, "isGhost": false, "semanticRole": ""}, {"pitch": 38, "step": 71, "lengthSteps": 1, "velocity": 24, "microOffsetTicks": 80, "startTick": 17120, "lengthTicks": 240, "barIndex": 4, "stepInBar": 7, "isGhost": false, "semanticRole": ""}, {"pitch": 38, "step": 71, "lengthSteps": 1, "velocity": 25, "microOffsetTicks": 120, "startTick": 17160, "lengthTicks": 240, "barIndex": 4, "stepInBar": 7, "isGhost": false, "semanticRole": ""}, {"pitch": 38, "step": 72, "lengthSteps": 1, "velocity": 26, "microOffsetTicks": -80, "startTick": 17200, "lengthTicks": 240, "barIndex": 4, "stepInBar": 8, "isGhost": false, "semanticRole": ""}, {"pitch": 38, "step": 72, "lengthSteps": 1, "velocity": 27, "microOffsetTicks": -40, "startTick": 17240, "lengthTicks": 240, "barIndex": 4, "stepInBar": 8, "isGhost": false, "semanticRole": ""}, {"pitch": 38, "step": 72, "lengthSteps": 20, "velocity": 120, "microOffsetTicks": 0, "startTick": 17280, "lengthTicks": 4800, "barIndex": 4, "stepInBar": 8, "isGhost": false, "semanticRole": ""}, {"pitch": 38, "step": 92, "lengthSteps": 12, "velocity": 120, "microOffsetTicks": 0, "startTick": 22080, "lengthTicks": 2880, "barIndex": 5, "stepInBar": 12, "isGhost": false, "semanticRole": ""}, {"pitch": 38, "step": 104, "lengthSteps": 6, "velocity": 100, "microOffsetTicks": 0, "startTick": 24960, "lengthTicks": 1440, "barIndex": 6, "stepInBar": 8, "isGhost": false, "semanticRole": ""}, {"pitch": 38, "step": 110, "lengthSteps": 14, "velocity": 120, "microOffsetTicks": 0, "startTick": 26400, "lengthTicks": 3360, "barIndex": 6, "stepInBar": 14, "isGhost": false, "semanticRole": ""}, {"pitch": 38, "step": 124, "lengthSteps": 1, "velocity": 120, "microOffsetTicks": 0, "startTick": 29760, "lengthTicks": 240, "barIndex": 7, "stepInBar": 12, "isGhost": false, "semanticRole": ""}]}}, {"orderIndex": 2, "laneId": "registry:Kick", "laneName": "Kick", "groupName": "Kick", "dependencyName": "", "generationPriority": 96, "isCore": true, "isVisibleInEditor": true, "enabledByDefault": true, "supportsDragExport": true, "isGhostTrack": false, "defaultMidiNote": 36, "isRuntimeRegistryLane": true, "runtimeTrackType": "Kick", "bindingKind": "backed", "hasBackingTrack": true, "laneParamsAvailable": true, "trackType": "Kick", "laneParams": {"enabled": true, "muted": false, "solo": false, "locked": false, "laneRole": "drill_kick", "laneVolume": 0.850000023841858, "selectedSampleIndex": 0, "selectedSampleName": "Kick 1", "sound": {"pan": 0.0, "width": 1.0, "eqTone": 0.0, "compression": 0.0, "reverb": 0.0, "gate": 0.0, "transient": 0.0, "drive": 0.0}, "noteCount": 26, "taggedNoteCount": 0, "notes": [{"pitch": 36, "step": 0, "lengthSteps": 8, "velocity": 100, "microOffsetTicks": 0, "startTick": 0, "lengthTicks": 1920, "barIndex": 0, "stepInBar": 0, "isGhost": false, "semanticRole": ""}, {"pitch": 36, "step": 24, "lengthSteps": 8, "velocity": 100, "microOffsetTicks": 0, "startTick": 5760, "lengthTicks": 1920, "barIndex": 1, "stepInBar": 8, "isGhost": false, "semanticRole": ""}, {"pitch": 36, "step": 32, "lengthSteps": 8, "velocity": 100, "microOffsetTicks": 0, "startTick": 7680, "lengthTicks": 1920, "barIndex": 2, "stepInBar": 0, "isGhost": false, "semanticRole": ""}, {"pitch": 36, "step": 50, "lengthSteps": 4, "velocity": 100, "microOffsetTicks": 0, "startTick": 12000, "lengthTicks": 960, "barIndex": 3, "stepInBar": 2, "isGhost": false, "semanticRole": ""}, {"pitch": 36, "step": 54, "lengthSteps": 2, "velocity": 100, "microOffsetTicks": 0, "startTick": 12960, "lengthTicks": 480, "barIndex": 3, "stepInBar": 6, "isGhost": false, "semanticRole": ""}, {"pitch": 36, "step": 56, "lengthSteps": 1, "velocity": 100, "microOffsetTicks": 0, "startTick": 13440, "lengthTicks": 240, "barIndex": 3, "stepInBar": 8, "isGhost": false, "semanticRole": ""}, {"pitch": 36, "step": 56, "lengthSteps": 2, "velocity": 100, "microOffsetTicks": 0, "startTick": 13440, "lengthTicks": 480, "barIndex": 3, "stepInBar": 8, "isGhost": false, "semanticRole": ""}, {"pitch": 36, "step": 58, "lengthSteps": 1, "velocity": 100, "microOffsetTicks": 0, "startTick": 13920, "lengthTicks": 240, "barIndex": 3, "stepInBar": 10, "isGhost": false, "semanticRole": ""}, {"pitch": 36, "step": 58, "lengthSteps": 2, "velocity": 100, "microOffsetTicks": 0, "startTick": 13920, "lengthTicks": 480, "barIndex": 3, "stepInBar": 10, "isGhost": false, "semanticRole": ""}, {"pitch": 36, "step": 60, "lengthSteps": 2, "velocity": 100, "microOffsetTicks": 0, "startTick": 14400, "lengthTicks": 480, "barIndex": 3, "stepInBar": 12, "isGhost": false, "semanticRole": ""}, {"pitch": 36, "step": 62, "lengthSteps": 1, "velocity": 100, "microOffsetTicks": 0, "startTick": 14880, "lengthTicks": 240, "barIndex": 3, "stepInBar": 14, "isGhost": false, "semanticRole": ""}, {"pitch": 36, "step": 62, "lengthSteps": 2, "velocity": 100, "microOffsetTicks": 0, "startTick": 14880, "lengthTicks": 480, "barIndex": 3, "stepInBar": 14, "isGhost": false, "semanticRole": ""}, {"pitch": 36, "step": 64, "lengthSteps": 8, "velocity": 100, "microOffsetTicks": 0, "startTick": 15360, "lengthTicks": 1920, "barIndex": 4, "stepInBar": 0, "isGhost": false, "semanticRole": ""}, {"pitch": 36, "step": 88, "lengthSteps": 8, "velocity": 100, "microOffsetTicks": 0, "startTick": 21120, "lengthTicks": 1920, "barIndex": 5, "stepInBar": 8, "isGhost": false, "semanticRole": ""}, {"pitch": 36, "step": 96, "lengthSteps": 8, "velocity": 100, "microOffsetTicks": 0, "startTick": 23040, "lengthTicks": 1920, "barIndex": 6, "stepInBar": 0, "isGhost": false, "semanticRole": ""}, {"pitch": 36, "step": 110, "lengthSteps": 4, "velocity": 100, "microOffsetTicks": 0, "startTick": 26400, "lengthTicks": 960, "barIndex": 6, "stepInBar": 14, "isGhost": false, "semanticRole": ""}, {"pitch": 36, "step": 114, "lengthSteps": 4, "velocity": 100, "microOffsetTicks": 0, "startTick": 27360, "lengthTicks": 960, "barIndex": 7, "stepInBar": 2, "isGhost": false, "semanticRole": ""}, {"pitch": 36, "step": 118, "lengthSteps": 2, "velocity": 100, "microOffsetTicks": 0, "startTick": 28320, "lengthTicks": 480, "barIndex": 7, "stepInBar": 6, "isGhost": false, "semanticRole": ""}, {"pitch": 36, "step": 120, "lengthSteps": 1, "velocity": 100, "microOffsetTicks": 0, "startTick": 28800, "lengthTicks": 240, "barIndex": 7, "stepInBar": 8, "isGhost": false, "semanticRole": ""}, {"pitch": 36, "step": 120, "lengthSteps": 2, "velocity": 100, "microOffsetTicks": 0, "startTick": 28800, "lengthTicks": 480, "barIndex": 7, "stepInBar": 8, "isGhost": false, "semanticRole": ""}, {"pitch": 36, "step": 122, "lengthSteps": 1, "velocity": 100, "microOffsetTicks": 0, "startTick": 29280, "lengthTicks": 240, "barIndex": 7, "stepInBar": 10, "isGhost": false, "semanticRole": ""}, {"pitch": 36, "step": 122, "lengthSteps": 2, "velocity": 100, "microOffsetTicks": 0, "startTick": 29280, "lengthTicks": 480, "barIndex": 7, "stepInBar": 10, "isGhost": false, "semanticRole": ""}, {"pitch": 36, "step": 124, "lengthSteps": 1, "velocity": 100, "microOffsetTicks": 0, "startTick": 29760, "lengthTicks": 240, "barIndex": 7, "stepInBar": 12, "isGhost": false, "semanticRole": ""}, {"pitch": 36, "step": 124, "lengthSteps": 2, "velocity": 100, "microOffsetTicks": 0, "startTick": 29760, "lengthTicks": 480, "barIndex": 7, "stepInBar": 12, "isGhost": false, "semanticRole": ""}, {"pitch": 36, "step": 126, "lengthSteps": 1, "velocity": 100, "microOffsetTicks": 0, "startTick": 30240, "lengthTicks": 240, "barIndex": 7, "stepInBar": 14, "isGhost": false, "semanticRole": ""}, {"pitch": 36, "step": 126, "lengthSteps": 2, "velocity": 100, "microOffsetTicks": 0, "startTick": 30240, "lengthTicks": 480, "barIndex": 7, "stepInBar": 14, "isGhost": false, "semanticRole": ""}]}}], "designerLaneLayout": [{"id": "registry:HiHat", "laneName": "HiHat", "groupName": "Hats", "dependencyName": "", "generationPriority": 86, "isCore": true, "enabled": true, "isRuntimeRegistryLane": true, "runtimeTrackType": "HiHat"}, {"id": "registry:Snare", "laneName": "Snare", "groupName": "Snare", "dependencyName": "", "generationPriority": 92, "isCore": true, "enabled": true, "isRuntimeRegistryLane": true, "runtimeTrackType": "Snare"}, {"id": "registry:Kick", "laneName": "Kick", "groupName": "Kick", "dependencyName": "", "generationPriority": 96, "isCore": true, "enabled": true, "isRuntimeRegistryLane": true, "runtimeTrackType": "Kick"}], "referenceProject": {"bpm": 142.0, "swingPercent": 50.0, "bars": 8, "phraseLengthBars": 8, "phraseRoleSummary": "statement|ending", "previewStartStep": 0, "selectedTrackIndex": 2, "soundModuleTrackIndex": -1, "globalSound": {"pan": 0.0, "width": 1.0, "eqTone": -0.150000005960464, "compression": 0.0, "reverb": 0.0, "gate": 0.0, "transient": 0.0, "drive": 0.0}, "runtimeLaneOrder": ["registry:HiHat", "registry:Snare", "registry:Kick"], "runtimeLaneLayout": [{"orderIndex": 0, "laneId": "registry:HiHat", "laneName": "HiHat", "groupName": "Hats", "dependencyName": "", "generationPriority": 86, "isCore": true, "isVisibleInEditor": true, "enabledByDefault": true, "supportsDragExport": true, "isGhostTrack": false, "defaultMidiNote": 42, "isRuntimeRegistryLane": true, "runtimeTrackType": "HiHat", "bindingKind": "backed", "hasBackingTrack": true, "laneParamsAvailable": true, "trackType": "HiHat", "laneParams": {"enabled": true, "muted": false, "solo": false, "locked": false, "laneRole": "drill_hat", "laneVolume": 0.850000023841858, "selectedSampleIndex": 0, "selectedSampleName": "Drill Hi-hat_1", "sound": {"pan": 0.0, "width": 1.0, "eqTone": 0.0, "compression": 0.0, "reverb": 0.0, "gate": 0.0, "transient": 0.0, "drive": 0.0}, "noteCount": 57, "taggedNoteCount": 0, "notes": [{"pitch": 42, "step": 0, "lengthSteps": 3, "velocity": 100, "microOffsetTicks": 0, "startTick": 0, "lengthTicks": 720, "barIndex": 0, "stepInBar": 0, "isGhost": false, "semanticRole": ""}, {"pitch": 42, "step": 3, "lengthSteps": 2, "velocity": 88, "microOffsetTicks": 0, "startTick": 720, "lengthTicks": 480, "barIndex": 0, "stepInBar": 3, "isGhost": false, "semanticRole": ""}, {"pitch": 42, "step": 5, "lengthSteps": 1, "velocity": 31, "microOffsetTicks": 0, "startTick": 1200, "lengthTicks": 240, "barIndex": 0, "stepInBar": 5, "isGhost": false, "semanticRole": ""}, {"pitch": 42, "step": 6, "lengthSteps": 2, "velocity": 100, "microOffsetTicks": 0, "startTick": 1440, "lengthTicks": 480, "barIndex": 0, "stepInBar": 6, "isGhost": false, "semanticRole": ""}, {"pitch": 42, "step": 8, "lengthSteps": 6, "velocity": 100, "microOffsetTicks": 0, "startTick": 1920, "lengthTicks": 1440, "barIndex": 0, "stepInBar": 8, "isGhost": false, "semanticRole": ""}, {"pitch": 42, "step": 14, "lengthSteps": 2, "velocity": 100, "microOffsetTicks": 0, "startTick": 3360, "lengthTicks": 480, "barIndex": 0, "stepInBar": 14, "isGhost": false, "semanticRole": ""}, {"pitch": 42, "step": 16, "lengthSteps": 3, "velocity": 100, "microOffsetTicks": 0, "startTick": 3840, "lengthTicks": 720, "barIndex": 1, "stepInBar": 0, "isGhost": false, "semanticRole": ""}, {"pitch": 42, "step": 19, "lengthSteps": 3, "velocity": 100, "microOffsetTicks": 0, "startTick": 4560, "lengthTicks": 720, "barIndex": 1, "stepInBar": 3, "isGhost": false, "semanticRole": ""}, {"pitch": 42, "step": 22, "lengthSteps": 2, "velocity": 88, "microOffsetTicks": 0, "startTick": 5280, "lengthTicks": 480, "barIndex": 1, "stepInBar": 6, "isGhost": false, "semanticRole": ""}, {"pitch": 42, "step": 24, "lengthSteps": 3, "velocity": 98, "microOffsetTicks": 0, "startTick": 5760, "lengthTicks": 720, "barIndex": 1, "stepInBar": 8, "isGhost": false, "semanticRole": ""}, {"pitch": 42, "step": 27, "lengthSteps": 1, "velocity": 100, "microOffsetTicks": 0, "startTick": 6480, "lengthTicks": 240, "barIndex": 1, "stepInBar": 11, "isGhost": false, "semanticRole": ""}, {"pitch": 42, "step": 28, "lengthSteps": 1, "velocity": 16, "microOffsetTicks": 0, "startTick": 6720, "lengthTicks": 240, "barIndex": 1, "stepInBar": 12, "isGhost": false, "semanticRole": ""}, {"pitch": 42, "step": 29, "lengthSteps": 1, "velocity": 31, "microOffsetTicks": 0, "startTick": 6960, "lengthTicks": 240, "barIndex": 1, "stepInBar": 13, "isGhost": false, "semanticRole": ""}, {"pitch": 42, "step": 30, "lengthSteps": 2, "velocity": 100, "microOffsetTicks": 0, "startTick": 7200, "lengthTicks": 480, "barIndex": 1, "stepInBar": 14, "isGhost": false, "semanticRole": ""}, {"pitch": 42, "step": 32, "lengthSteps": 3, "velocity": 100, "microOffsetTicks": 0, "startTick": 7680, "lengthTicks": 720, "barIndex": 2, "stepInBar": 0, "isGhost": false, "semanticRole": ""}, {"pitch": 42, "step": 35, "lengthSteps": 3, "velocity": 95, "microOffsetTicks": 0, "startTick": 8400, "lengthTicks": 720, "barIndex": 2, "stepInBar": 3, "isGhost": false, "semanticRole": ""}, {"pitch": 42, "step": 38, "lengthSteps": 2, "velocity": 100, "microOffsetTicks": 0, "startTick": 9120, "lengthTicks": 480, "barIndex": 2, "stepInBar": 6, "isGhost": false, "semanticRole": ""}, {"pitch": 42, "step": 40, "lengthSteps": 6, "velocity": 100, "microOffsetTicks": 0, "startTick": 9600, "lengthTicks": 1440, "barIndex": 2, "stepInBar": 8, "isGhost": false, "semanticRole": ""}, {"pitch": 42, "step": 46, "lengthSteps": 1, "velocity": 100, "microOffsetTicks": 0, "startTick": 11040, "lengthTicks": 240, "barIndex": 2, "stepInBar": 14, "isGhost": false, "semanticRole": ""}, {"pitch": 42, "step": 47, "lengthSteps": 1, "velocity": 84, "microOffsetTicks": -80, "startTick": 11200, "lengthTicks": 240, "barIndex": 2, "stepInBar": 15, "isGhost": false, "semanticRole": ""}, {"pitch": 42, "step": 47, "lengthSteps": 1, "velocity": 84, "microOffsetTicks": 80, "startTick": 11360, "lengthTicks": 240, "barIndex": 2, "stepInBar": 15, "isGhost": false, "semanticRole": ""}, {"pitch": 42, "step": 48, "lengthSteps": 3, "velocity": 100, "microOffsetTicks": 0, "startTick": 11520, "lengthTicks": 720, "barIndex": 3, "stepInBar": 0, "isGhost": false, "semanticRole": ""}, {"pitch": 42, "step": 51, "lengthSteps": 3, "velocity": 100, "microOffsetTicks": 0, "startTick": 12240, "lengthTicks": 720, "barIndex": 3, "stepInBar": 3, "isGhost": false, "semanticRole": ""}, {"pitch": 42, "step": 54, "lengthSteps": 2, "velocity": 82, "microOffsetTicks": 0, "startTick": 12960, "lengthTicks": 480, "barIndex": 3, "stepInBar": 6, "isGhost": false, "semanticRole": ""}, {"pitch": 42, "step": 56, "lengthSteps": 2, "velocity": 100, "microOffsetTicks": 0, "startTick": 13440, "lengthTicks": 480, "barIndex": 3, "stepInBar": 8, "isGhost": false, "semanticRole": ""}, {"pitch": 42, "step": 58, "lengthSteps": 1, "velocity": 31, "microOffsetTicks": 0, "startTick": 13920, "lengthTicks": 240, "barIndex": 3, "stepInBar": 10, "isGhost": false, "semanticRole": ""}, {"pitch": 42, "step": 59, "lengthSteps": 3, "velocity": 100, "microOffsetTicks": 0, "startTick": 14160, "lengthTicks": 720, "barIndex": 3, "stepInBar": 11, "isGhost": false, "semanticRole": ""}, {"pitch": 42, "step": 62, "lengthSteps": 2, "velocity": 100, "microOffsetTicks": 0, "startTick": 14880, "lengthTicks": 480, "barIndex": 3, "stepInBar": 14, "isGhost": false, "semanticRole": ""}, {"pitch": 42, "step": 64, "lengthSteps": 3, "velocity": 100, "microOffsetTicks": 0, "startTick": 15360, "lengthTicks": 720, "barIndex": 4, "stepInBar": 0, "isGhost": false, "semanticRole": ""}, {"pitch": 42, "step": 67, "lengthSteps": 2, "velocity": 100, "microOffsetTicks": 0, "startTick": 16080, "lengthTicks": 480, "barIndex": 4, "stepInBar": 3, "isGhost": false, "semanticRole": ""}, {"pitch": 42, "step": 69, "lengthSteps": 1, "velocity": 31, "microOffsetTicks": 0, "startTick": 16560, "lengthTicks": 240, "barIndex": 4, "stepInBar": 5, "isGhost": false, "semanticRole": ""}, {"pitch": 42, "step": 70, "lengthSteps": 2, "velocity": 100, "microOffsetTicks": 0, "startTick": 16800, "lengthTicks": 480, "barIndex": 4, "stepInBar": 6, "isGhost": false, "semanticRole": ""}, {"pitch": 42, "step": 72, "lengthSteps": 6, "velocity": 100, "microOffsetTicks": 0, "startTick": 17280, "lengthTicks": 1440, "barIndex": 4, "stepInBar": 8, "isGhost": false, "semanticRole": ""}, {"pitch": 42, "step": 78, "lengthSteps": 2, "velocity": 91, "microOffsetTicks": 0, "startTick": 18720, "lengthTicks": 480, "barIndex": 4, "stepInBar": 14, "isGhost": false, "semanticRole": ""}, {"pitch": 42, "step": 80, "lengthSteps": 3, "velocity": 100, "microOffsetTicks": 0, "startTick": 19200, "lengthTicks": 720, "barIndex": 5, "stepInBar": 0, "isGhost": false, "semanticRole": ""}, {"pitch": 42, "step": 83, "lengthSteps": 3, "velocity": 100, "microOffsetTicks": 0, "startTick": 19920, "lengthTicks": 720, "barIndex": 5, "stepInBar": 3, "isGhost": false, "semanticRole": ""}, {"pitch": 42, "step": 86, "lengthSteps": 2, "velocity": 100, "microOffsetTicks": 0, "startTick": 20640, "lengthTicks": 480, "barIndex": 5, "stepInBar": 6, "isGhost": false, "semanticRole": ""}, {"pitch": 42, "step": 88, "lengthSteps": 3, "velocity": 100, "microOffsetTicks": 0, "startTick": 21120, "lengthTicks": 720, "barIndex": 5, "stepInBar": 8, "isGhost": false, "semanticRole": ""}, {"pitch": 42, "step": 91, "lengthSteps": 1, "velocity": 100, "microOffsetTicks": 0, "startTick": 21840, "lengthTicks": 240, "barIndex": 5, "stepInBar": 11, "isGhost": false, "semanticRole": ""}, {"pitch": 42, "step": 92, "lengthSteps": 1, "velocity": 16, "microOffsetTicks": 0, "startTick": 22080, "lengthTicks": 240, "barIndex": 5, "stepInBar": 12, "isGhost": false, "semanticRole": ""}, {"pitch": 42, "step": 93, "lengthSteps": 1, "velocity": 31, "microOffsetTicks": 0, "startTick": 22320, "lengthTicks": 240, "barIndex": 5, "stepInBar": 13, "isGhost": false, "semanticRole": ""}, {"pitch": 42, "step": 94, "lengthSteps": 2, "velocity": 100, "microOffsetTicks": 0, "startTick": 22560, "lengthTicks": 480, "barIndex": 5, "stepInBar": 14, "isGhost": false, "semanticRole": ""}, {"pitch": 42, "step": 96, "lengthSteps": 3, "velocity": 95, "microOffsetTicks": 0, "startTick": 23040, "lengthTicks": 720, "barIndex": 6, "stepInBar": 0, "isGhost": false, "semanticRole": ""}, {"pitch": 42, "step": 99, "lengthSteps": 3, "velocity": 100, "microOffsetTicks": 0, "startTick": 23760, "lengthTicks": 720, "barIndex": 6, "stepInBar": 3, "isGhost": false, "semanticRole": ""}, {"pitch": 42, "step": 102, "lengthSteps": 2, "velocity": 100, "microOffsetTicks": 0, "startTick": 24480, "lengthTicks": 480, "barIndex": 6, "stepInBar": 6, "isGhost": false, "semanticRole": ""}, {"pitch": 42, "step": 104, "lengthSteps": 6, "velocity": 100, "microOffsetTicks": 0, "startTick": 24960, "lengthTicks": 1440, "barIndex": 6, "stepInBar": 8, "isGhost": false, "semanticRole": ""}, {"pitch": 42, "step": 110, "lengthSteps": 1, "velocity": 100, "microOffsetTicks": 0, "startTick": 26400, "lengthTicks": 240, "barIndex": 6, "stepInBar": 14, "isGhost": false, "semanticRole": ""}, {"pitch": 42, "step": 111, "lengthSteps": 1, "velocity": 73, "microOffsetTicks": -80, "startTick": 26560, "lengthTicks": 240, "barIndex": 6, "stepInBar": 15, "isGhost": false, "semanticRole": ""}, {"pitch": 42, "step": 111, "lengthSteps": 1, "velocity": 80, "microOffsetTicks": 80, "startTick": 26720, "lengthTicks": 240, "barIndex": 6, "stepInBar": 15, "isGhost": false, "semanticRole": ""}, {"pitch": 42, "step": 112, "lengthSteps": 3, "velocity": 100, "microOffsetTicks": 0, "startTick": 26880, "lengthTicks": 720, "barIndex": 7, "stepInBar": 0, "isGhost": false, "semanticRole": ""}, {"pitch": 42, "step": 115, "lengthSteps": 3, "velocity": 100, "microOffsetTicks": 0, "startTick": 27600, "lengthTicks": 720, "barIndex": 7, "stepInBar": 3, "isGhost": false, "semanticRole": ""}, {"pitch": 42, "step": 118, "lengthSteps": 2, "velocity": 100, "microOffsetTicks": 0, "startTick": 28320, "lengthTicks": 480, "barIndex": 7, "stepInBar": 6, "isGhost": false, "semanticRole": ""}, {"pitch": 42, "step": 120, "lengthSteps": 1, "velocity": 100, "microOffsetTicks": 0, "startTick": 28800, "lengthTicks": 240, "barIndex": 7, "stepInBar": 8, "isGhost": false, "semanticRole": ""}, {"pitch": 42, "step": 121, "lengthSteps": 1, "velocity": 84, "microOffsetTicks": 0, "startTick": 29040, "lengthTicks": 240, "barIndex": 7, "stepInBar": 9, "isGhost": false, "semanticRole": ""}, {"pitch": 42, "step": 122, "lengthSteps": 1, "velocity": 32, "microOffsetTicks": 0, "startTick": 29280, "lengthTicks": 240, "barIndex": 7, "stepInBar": 10, "isGhost": false, "semanticRole": ""}, {"pitch": 42, "step": 123, "lengthSteps": 3, "velocity": 100, "microOffsetTicks": 0, "startTick": 29520, "lengthTicks": 720, "barIndex": 7, "stepInBar": 11, "isGhost": false, "semanticRole": ""}, {"pitch": 42, "step": 126, "lengthSteps": 1, "velocity": 100, "microOffsetTicks": 0, "startTick": 30240, "lengthTicks": 240, "barIndex": 7, "stepInBar": 14, "isGhost": false, "semanticRole": ""}]}}, {"orderIndex": 1, "laneId": "registry:Snare", "laneName": "Snare", "groupName": "Snare", "dependencyName": "", "generationPriority": 92, "isCore": true, "isVisibleInEditor": true, "enabledByDefault": true, "supportsDragExport": true, "isGhostTrack": false, "defaultMidiNote": 38, "isRuntimeRegistryLane": true, "runtimeTrackType": "Snare", "bindingKind": "backed", "hasBackingTrack": true, "laneParamsAvailable": true, "trackType": "Snare", "laneParams": {"enabled": true, "muted": false, "solo": false, "locked": false, "laneRole": "drill_backbeat", "laneVolume": 0.850000023841858, "selectedSampleIndex": 3, "selectedSampleName": "Counter UK Snare 4", "sound": {"pan": 0.0, "width": 1.0, "eqTone": 0.0, "compression": 0.0, "reverb": 0.0, "gate": 0.0, "transient": 0.0, "drive": 0.0}, "noteCount": 20, "taggedNoteCount": 0, "notes": [{"pitch": 38, "step": 8, "lengthSteps": 32, "velocity": 120, "microOffsetTicks": 0, "startTick": 1920, "lengthTicks": 7680, "barIndex": 0, "stepInBar": 8, "isGhost": false, "semanticRole": ""}, {"pitch": 38, "step": 40, "lengthSteps": 20, "velocity": 120, "microOffsetTicks": 0, "startTick": 9600, "lengthTicks": 4800, "barIndex": 2, "stepInBar": 8, "isGhost": false, "semanticRole": ""}, {"pitch": 38, "step": 60, "lengthSteps": 12, "velocity": 120, "microOffsetTicks": 0, "startTick": 14400, "lengthTicks": 2880, "barIndex": 3, "stepInBar": 12, "isGhost": false, "semanticRole": ""}, {"pitch": 38, "step": 70, "lengthSteps": 1, "velocity": 15, "microOffsetTicks": 0, "startTick": 16800, "lengthTicks": 240, "barIndex": 4, "stepInBar": 6, "isGhost": false, "semanticRole": ""}, {"pitch": 38, "step": 70, "lengthSteps": 1, "velocity": 16, "microOffsetTicks": 40, "startTick": 16840, "lengthTicks": 240, "barIndex": 4, "stepInBar": 6, "isGhost": false, "semanticRole": ""}, {"pitch": 38, "step": 70, "lengthSteps": 1, "velocity": 17, "microOffsetTicks": 80, "startTick": 16880, "lengthTicks": 240, "barIndex": 4, "stepInBar": 6, "isGhost": false, "semanticRole": ""}, {"pitch": 38, "step": 70, "lengthSteps": 1, "velocity": 18, "microOffsetTicks": 120, "startTick": 16920, "lengthTicks": 240, "barIndex": 4, "stepInBar": 6, "isGhost": false, "semanticRole": ""}, {"pitch": 38, "step": 71, "lengthSteps": 1, "velocity": 19, "microOffsetTicks": -80, "startTick": 16960, "lengthTicks": 240, "barIndex": 4, "stepInBar": 7, "isGhost": false, "semanticRole": ""}, {"pitch": 38, "step": 71, "lengthSteps": 1, "velocity": 20, "microOffsetTicks": -40, "startTick": 17000, "lengthTicks": 240, "barIndex": 4, "stepInBar": 7, "isGhost": false, "semanticRole": ""}, {"pitch": 38, "step": 71, "lengthSteps": 1, "velocity": 22, "microOffsetTicks": 0, "startTick": 17040, "lengthTicks": 240, "barIndex": 4, "stepInBar": 7, "isGhost": false, "semanticRole": ""}, {"pitch": 38, "step": 71, "lengthSteps": 1, "velocity": 23, "microOffsetTicks": 40, "startTick": 17080, "lengthTicks": 240, "barIndex": 4, "stepInBar": 7, "isGhost": false, "semanticRole": ""}, {"pitch": 38, "step": 71, "lengthSteps": 1, "velocity": 24, "microOffsetTicks": 80, "startTick": 17120, "lengthTicks": 240, "barIndex": 4, "stepInBar": 7, "isGhost": false, "semanticRole": ""}, {"pitch": 38, "step": 71, "lengthSteps": 1, "velocity": 25, "microOffsetTicks": 120, "startTick": 17160, "lengthTicks": 240, "barIndex": 4, "stepInBar": 7, "isGhost": false, "semanticRole": ""}, {"pitch": 38, "step": 72, "lengthSteps": 1, "velocity": 26, "microOffsetTicks": -80, "startTick": 17200, "lengthTicks": 240, "barIndex": 4, "stepInBar": 8, "isGhost": false, "semanticRole": ""}, {"pitch": 38, "step": 72, "lengthSteps": 1, "velocity": 27, "microOffsetTicks": -40, "startTick": 17240, "lengthTicks": 240, "barIndex": 4, "stepInBar": 8, "isGhost": false, "semanticRole": ""}, {"pitch": 38, "step": 72, "lengthSteps": 20, "velocity": 120, "microOffsetTicks": 0, "startTick": 17280, "lengthTicks": 4800, "barIndex": 4, "stepInBar": 8, "isGhost": false, "semanticRole": ""}, {"pitch": 38, "step": 92, "lengthSteps": 12, "velocity": 120, "microOffsetTicks": 0, "startTick": 22080, "lengthTicks": 2880, "barIndex": 5, "stepInBar": 12, "isGhost": false, "semanticRole": ""}, {"pitch": 38, "step": 104, "lengthSteps": 6, "velocity": 100, "microOffsetTicks": 0, "startTick": 24960, "lengthTicks": 1440, "barIndex": 6, "stepInBar": 8, "isGhost": false, "semanticRole": ""}, {"pitch": 38, "step": 110, "lengthSteps": 14, "velocity": 120, "microOffsetTicks": 0, "startTick": 26400, "lengthTicks": 3360, "barIndex": 6, "stepInBar": 14, "isGhost": false, "semanticRole": ""}, {"pitch": 38, "step": 124, "lengthSteps": 1, "velocity": 120, "microOffsetTicks": 0, "startTick": 29760, "lengthTicks": 240, "barIndex": 7, "stepInBar": 12, "isGhost": false, "semanticRole": ""}]}}, {"orderIndex": 2, "laneId": "registry:Kick", "laneName": "Kick", "groupName": "Kick", "dependencyName": "", "generationPriority": 96, "isCore": true, "isVisibleInEditor": true, "enabledByDefault": true, "supportsDragExport": true, "isGhostTrack": false, "defaultMidiNote": 36, "isRuntimeRegistryLane": true, "runtimeTrackType": "Kick", "bindingKind": "backed", "hasBackingTrack": true, "laneParamsAvailable": true, "trackType": "Kick", "laneParams": {"enabled": true, "muted": false, "solo": false, "locked": false, "laneRole": "drill_kick", "laneVolume": 0.850000023841858, "selectedSampleIndex": 0, "selectedSampleName": "Kick 1", "sound": {"pan": 0.0, "width": 1.0, "eqTone": 0.0, "compression": 0.0, "reverb": 0.0, "gate": 0.0, "transient": 0.0, "drive": 0.0}, "noteCount": 26, "taggedNoteCount": 0, "notes": [{"pitch": 36, "step": 0, "lengthSteps": 8, "velocity": 100, "microOffsetTicks": 0, "startTick": 0, "lengthTicks": 1920, "barIndex": 0, "stepInBar": 0, "isGhost": false, "semanticRole": ""}, {"pitch": 36, "step": 24, "lengthSteps": 8, "velocity": 100, "microOffsetTicks": 0, "startTick": 5760, "lengthTicks": 1920, "barIndex": 1, "stepInBar": 8, "isGhost": false, "semanticRole": ""}, {"pitch": 36, "step": 32, "lengthSteps": 8, "velocity": 100, "microOffsetTicks": 0, "startTick": 7680, "lengthTicks": 1920, "barIndex": 2, "stepInBar": 0, "isGhost": false, "semanticRole": ""}, {"pitch": 36, "step": 50, "lengthSteps": 4, "velocity": 100, "microOffsetTicks": 0, "startTick": 12000, "lengthTicks": 960, "barIndex": 3, "stepInBar": 2, "isGhost": false, "semanticRole": ""}, {"pitch": 36, "step": 54, "lengthSteps": 2, "velocity": 100, "microOffsetTicks": 0, "startTick": 12960, "lengthTicks": 480, "barIndex": 3, "stepInBar": 6, "isGhost": false, "semanticRole": ""}, {"pitch": 36, "step": 56, "lengthSteps": 1, "velocity": 100, "microOffsetTicks": 0, "startTick": 13440, "lengthTicks": 240, "barIndex": 3, "stepInBar": 8, "isGhost": false, "semanticRole": ""}, {"pitch": 36, "step": 56, "lengthSteps": 2, "velocity": 100, "microOffsetTicks": 0, "startTick": 13440, "lengthTicks": 480, "barIndex": 3, "stepInBar": 8, "isGhost": false, "semanticRole": ""}, {"pitch": 36, "step": 58, "lengthSteps": 1, "velocity": 100, "microOffsetTicks": 0, "startTick": 13920, "lengthTicks": 240, "barIndex": 3, "stepInBar": 10, "isGhost": false, "semanticRole": ""}, {"pitch": 36, "step": 58, "lengthSteps": 2, "velocity": 100, "microOffsetTicks": 0, "startTick": 13920, "lengthTicks": 480, "barIndex": 3, "stepInBar": 10, "isGhost": false, "semanticRole": ""}, {"pitch": 36, "step": 60, "lengthSteps": 2, "velocity": 100, "microOffsetTicks": 0, "startTick": 14400, "lengthTicks": 480, "barIndex": 3, "stepInBar": 12, "isGhost": false, "semanticRole": ""}, {"pitch": 36, "step": 62, "lengthSteps": 1, "velocity": 100, "microOffsetTicks": 0, "startTick": 14880, "lengthTicks": 240, "barIndex": 3, "stepInBar": 14, "isGhost": false, "semanticRole": ""}, {"pitch": 36, "step": 62, "lengthSteps": 2, "velocity": 100, "microOffsetTicks": 0, "startTick": 14880, "lengthTicks": 480, "barIndex": 3, "stepInBar": 14, "isGhost": false, "semanticRole": ""}, {"pitch": 36, "step": 64, "lengthSteps": 8, "velocity": 100, "microOffsetTicks": 0, "startTick": 15360, "lengthTicks": 1920, "barIndex": 4, "stepInBar": 0, "isGhost": false, "semanticRole": ""}, {"pitch": 36, "step": 88, "lengthSteps": 8, "velocity": 100, "microOffsetTicks": 0, "startTick": 21120, "lengthTicks": 1920, "barIndex": 5, "stepInBar": 8, "isGhost": false, "semanticRole": ""}, {"pitch": 36, "step": 96, "lengthSteps": 8, "velocity": 100, "microOffsetTicks": 0, "startTick": 23040, "lengthTicks": 1920, "barIndex": 6, "stepInBar": 0, "isGhost": false, "semanticRole": ""}, {"pitch": 36, "step": 110, "lengthSteps": 4, "velocity": 100, "microOffsetTicks": 0, "startTick": 26400, "lengthTicks": 960, "barIndex": 6, "stepInBar": 14, "isGhost": false, "semanticRole": ""}, {"pitch": 36, "step": 114, "lengthSteps": 4, "velocity": 100, "microOffsetTicks": 0, "startTick": 27360, "lengthTicks": 960, "barIndex": 7, "stepInBar": 2, "isGhost": false, "semanticRole": ""}, {"pitch": 36, "step": 118, "lengthSteps": 2, "velocity": 100, "microOffsetTicks": 0, "startTick": 28320, "lengthTicks": 480, "barIndex": 7, "stepInBar": 6, "isGhost": false, "semanticRole": ""}, {"pitch": 36, "step": 120, "lengthSteps": 1, "velocity": 100, "microOffsetTicks": 0, "startTick": 28800, "lengthTicks": 240, "barIndex": 7, "stepInBar": 8, "isGhost": false, "semanticRole": ""}, {"pitch": 36, "step": 120, "lengthSteps": 2, "velocity": 100, "microOffsetTicks": 0, "startTick": 28800, "lengthTicks": 480, "barIndex": 7, "stepInBar": 8, "isGhost": false, "semanticRole": ""}, {"pitch": 36, "step": 122, "lengthSteps": 1, "velocity": 100, "microOffsetTicks": 0, "startTick": 29280, "lengthTicks": 240, "barIndex": 7, "stepInBar": 10, "isGhost": false, "semanticRole": ""}, {"pitch": 36, "step": 122, "lengthSteps": 2, "velocity": 100, "microOffsetTicks": 0, "startTick": 29280, "lengthTicks": 480, "barIndex": 7, "stepInBar": 10, "isGhost": false, "semanticRole": ""}, {"pitch": 36, "step": 124, "lengthSteps": 1, "velocity": 100, "microOffsetTicks": 0, "startTick": 29760, "lengthTicks": 240, "barIndex": 7, "stepInBar": 12, "isGhost": false, "semanticRole": ""}, {"pitch": 36, "step": 124, "lengthSteps": 2, "velocity": 100, "microOffsetTicks": 0, "startTick": 29760, "lengthTicks": 480, "barIndex": 7, "stepInBar": 12, "isGhost": false, "semanticRole": ""}, {"pitch": 36, "step": 126, "lengthSteps": 1, "velocity": 100, "microOffsetTicks": 0, "startTick": 30240, "lengthTicks": 240, "barIndex": 7, "stepInBar": 14, "isGhost": false, "semanticRole": ""}, {"pitch": 36, "step": 126, "lengthSteps": 2, "velocity": 100, "microOffsetTicks": 0, "startTick": 30240, "lengthTicks": 480, "barIndex": 7, "stepInBar": 14, "isGhost": false, "semanticRole": ""}]}}], "selectedTrackLaneId": "registry:Kick", "soundModuleTrackLaneId": "", "tracks": [{"trackType": "HiHat", "displayName": "HiHat", "laneId": "registry:HiHat", "runtimeTrackType": "HiHat", "bindingKind": "backed", "laneName": "HiHat", "laneGroup": "Hats", "laneDependency": "", "generationPriority": 86, "isCoreLane": true, "isRuntimeRegistryLane": true, "laneParams": {"enabled": true, "muted": false, "solo": false, "locked": false, "laneRole": "drill_hat", "laneVolume": 0.850000023841858, "selectedSampleIndex": 0, "selectedSampleName": "Drill Hi-hat_1", "sound": {"pan": 0.0, "width": 1.0, "eqTone": 0.0, "compression": 0.0, "reverb": 0.0, "gate": 0.0, "transient": 0.0, "drive": 0.0}, "noteCount": 57, "taggedNoteCount": 0, "notes": [{"pitch": 42, "step": 0, "lengthSteps": 3, "velocity": 100, "microOffsetTicks": 0, "startTick": 0, "lengthTicks": 720, "barIndex": 0, "stepInBar": 0, "isGhost": false, "semanticRole": ""}, {"pitch": 42, "step": 3, "lengthSteps": 2, "velocity": 88, "microOffsetTicks": 0, "startTick": 720, "lengthTicks": 480, "barIndex": 0, "stepInBar": 3, "isGhost": false, "semanticRole": ""}, {"pitch": 42, "step": 5, "lengthSteps": 1, "velocity": 31, "microOffsetTicks": 0, "startTick": 1200, "lengthTicks": 240, "barIndex": 0, "stepInBar": 5, "isGhost": false, "semanticRole": ""}, {"pitch": 42, "step": 6, "lengthSteps": 2, "velocity": 100, "microOffsetTicks": 0, "startTick": 1440, "lengthTicks": 480, "barIndex": 0, "stepInBar": 6, "isGhost": false, "semanticRole": ""}, {"pitch": 42, "step": 8, "lengthSteps": 6, "velocity": 100, "microOffsetTicks": 0, "startTick": 1920, "lengthTicks": 1440, "barIndex": 0, "stepInBar": 8, "isGhost": false, "semanticRole": ""}, {"pitch": 42, "step": 14, "lengthSteps": 2, "velocity": 100, "microOffsetTicks": 0, "startTick": 3360, "lengthTicks": 480, "barIndex": 0, "stepInBar": 14, "isGhost": false, "semanticRole": ""}, {"pitch": 42, "step": 16, "lengthSteps": 3, "velocity": 100, "microOffsetTicks": 0, "startTick": 3840, "lengthTicks": 720, "barIndex": 1, "stepInBar": 0, "isGhost": false, "semanticRole": ""}, {"pitch": 42, "step": 19, "lengthSteps": 3, "velocity": 100, "microOffsetTicks": 0, "startTick": 4560, "lengthTicks": 720, "barIndex": 1, "stepInBar": 3, "isGhost": false, "semanticRole": ""}, {"pitch": 42, "step": 22, "lengthSteps": 2, "velocity": 88, "microOffsetTicks": 0, "startTick": 5280, "lengthTicks": 480, "barIndex": 1, "stepInBar": 6, "isGhost": false, "semanticRole": ""}, {"pitch": 42, "step": 24, "lengthSteps": 3, "velocity": 98, "microOffsetTicks": 0, "startTick": 5760, "lengthTicks": 720, "barIndex": 1, "stepInBar": 8, "isGhost": false, "semanticRole": ""}, {"pitch": 42, "step": 27, "lengthSteps": 1, "velocity": 100, "microOffsetTicks": 0, "startTick": 6480, "lengthTicks": 240, "barIndex": 1, "stepInBar": 11, "isGhost": false, "semanticRole": ""}, {"pitch": 42, "step": 28, "lengthSteps": 1, "velocity": 16, "microOffsetTicks": 0, "startTick": 6720, "lengthTicks": 240, "barIndex": 1, "stepInBar": 12, "isGhost": false, "semanticRole": ""}, {"pitch": 42, "step": 29, "lengthSteps": 1, "velocity": 31, "microOffsetTicks": 0, "startTick": 6960, "lengthTicks": 240, "barIndex": 1, "stepInBar": 13, "isGhost": false, "semanticRole": ""}, {"pitch": 42, "step": 30, "lengthSteps": 2, "velocity": 100, "microOffsetTicks": 0, "startTick": 7200, "lengthTicks": 480, "barIndex": 1, "stepInBar": 14, "isGhost": false, "semanticRole": ""}, {"pitch": 42, "step": 32, "lengthSteps": 3, "velocity": 100, "microOffsetTicks": 0, "startTick": 7680, "lengthTicks": 720, "barIndex": 2, "stepInBar": 0, "isGhost": false, "semanticRole": ""}, {"pitch": 42, "step": 35, "lengthSteps": 3, "velocity": 95, "microOffsetTicks": 0, "startTick": 8400, "lengthTicks": 720, "barIndex": 2, "stepInBar": 3, "isGhost": false, "semanticRole": ""}, {"pitch": 42, "step": 38, "lengthSteps": 2, "velocity": 100, "microOffsetTicks": 0, "startTick": 9120, "lengthTicks": 480, "barIndex": 2, "stepInBar": 6, "isGhost": false, "semanticRole": ""}, {"pitch": 42, "step": 40, "lengthSteps": 6, "velocity": 100, "microOffsetTicks": 0, "startTick": 9600, "lengthTicks": 1440, "barIndex": 2, "stepInBar": 8, "isGhost": false, "semanticRole": ""}, {"pitch": 42, "step": 46, "lengthSteps": 1, "velocity": 100, "microOffsetTicks": 0, "startTick": 11040, "lengthTicks": 240, "barIndex": 2, "stepInBar": 14, "isGhost": false, "semanticRole": ""}, {"pitch": 42, "step": 47, "lengthSteps": 1, "velocity": 84, "microOffsetTicks": -80, "startTick": 11200, "lengthTicks": 240, "barIndex": 2, "stepInBar": 15, "isGhost": false, "semanticRole": ""}, {"pitch": 42, "step": 47, "lengthSteps": 1, "velocity": 84, "microOffsetTicks": 80, "startTick": 11360, "lengthTicks": 240, "barIndex": 2, "stepInBar": 15, "isGhost": false, "semanticRole": ""}, {"pitch": 42, "step": 48, "lengthSteps": 3, "velocity": 100, "microOffsetTicks": 0, "startTick": 11520, "lengthTicks": 720, "barIndex": 3, "stepInBar": 0, "isGhost": false, "semanticRole": ""}, {"pitch": 42, "step": 51, "lengthSteps": 3, "velocity": 100, "microOffsetTicks": 0, "startTick": 12240, "lengthTicks": 720, "barIndex": 3, "stepInBar": 3, "isGhost": false, "semanticRole": ""}, {"pitch": 42, "step": 54, "lengthSteps": 2, "velocity": 82, "microOffsetTicks": 0, "startTick": 12960, "lengthTicks": 480, "barIndex": 3, "stepInBar": 6, "isGhost": false, "semanticRole": ""}, {"pitch": 42, "step": 56, "lengthSteps": 2, "velocity": 100, "microOffsetTicks": 0, "startTick": 13440, "lengthTicks": 480, "barIndex": 3, "stepInBar": 8, "isGhost": false, "semanticRole": ""}, {"pitch": 42, "step": 58, "lengthSteps": 1, "velocity": 31, "microOffsetTicks": 0, "startTick": 13920, "lengthTicks": 240, "barIndex": 3, "stepInBar": 10, "isGhost": false, "semanticRole": ""}, {"pitch": 42, "step": 59, "lengthSteps": 3, "velocity": 100, "microOffsetTicks": 0, "startTick": 14160, "lengthTicks": 720, "barIndex": 3, "stepInBar": 11, "isGhost": false, "semanticRole": ""}, {"pitch": 42, "step": 62, "lengthSteps": 2, "velocity": 100, "microOffsetTicks": 0, "startTick": 14880, "lengthTicks": 480, "barIndex": 3, "stepInBar": 14, "isGhost": false, "semanticRole": ""}, {"pitch": 42, "step": 64, "lengthSteps": 3, "velocity": 100, "microOffsetTicks": 0, "startTick": 15360, "lengthTicks": 720, "barIndex": 4, "stepInBar": 0, "isGhost": false, "semanticRole": ""}, {"pitch": 42, "step": 67, "lengthSteps": 2, "velocity": 100, "microOffsetTicks": 0, "startTick": 16080, "lengthTicks": 480, "barIndex": 4, "stepInBar": 3, "isGhost": false, "semanticRole": ""}, {"pitch": 42, "step": 69, "lengthSteps": 1, "velocity": 31, "microOffsetTicks": 0, "startTick": 16560, "lengthTicks": 240, "barIndex": 4, "stepInBar": 5, "isGhost": false, "semanticRole": ""}, {"pitch": 42, "step": 70, "lengthSteps": 2, "velocity": 100, "microOffsetTicks": 0, "startTick": 16800, "lengthTicks": 480, "barIndex": 4, "stepInBar": 6, "isGhost": false, "semanticRole": ""}, {"pitch": 42, "step": 72, "lengthSteps": 6, "velocity": 100, "microOffsetTicks": 0, "startTick": 17280, "lengthTicks": 1440, "barIndex": 4, "stepInBar": 8, "isGhost": false, "semanticRole": ""}, {"pitch": 42, "step": 78, "lengthSteps": 2, "velocity": 91, "microOffsetTicks": 0, "startTick": 18720, "lengthTicks": 480, "barIndex": 4, "stepInBar": 14, "isGhost": false, "semanticRole": ""}, {"pitch": 42, "step": 80, "lengthSteps": 3, "velocity": 100, "microOffsetTicks": 0, "startTick": 19200, "lengthTicks": 720, "barIndex": 5, "stepInBar": 0, "isGhost": false, "semanticRole": ""}, {"pitch": 42, "step": 83, "lengthSteps": 3, "velocity": 100, "microOffsetTicks": 0, "startTick": 19920, "lengthTicks": 720, "barIndex": 5, "stepInBar": 3, "isGhost": false, "semanticRole": ""}, {"pitch": 42, "step": 86, "lengthSteps": 2, "velocity": 100, "microOffsetTicks": 0, "startTick": 20640, "lengthTicks": 480, "barIndex": 5, "stepInBar": 6, "isGhost": false, "semanticRole": ""}, {"pitch": 42, "step": 88, "lengthSteps": 3, "velocity": 100, "microOffsetTicks": 0, "startTick": 21120, "lengthTicks": 720, "barIndex": 5, "stepInBar": 8, "isGhost": false, "semanticRole": ""}, {"pitch": 42, "step": 91, "lengthSteps": 1, "velocity": 100, "microOffsetTicks": 0, "startTick": 21840, "lengthTicks": 240, "barIndex": 5, "stepInBar": 11, "isGhost": false, "semanticRole": ""}, {"pitch": 42, "step": 92, "lengthSteps": 1, "velocity": 16, "microOffsetTicks": 0, "startTick": 22080, "lengthTicks": 240, "barIndex": 5, "stepInBar": 12, "isGhost": false, "semanticRole": ""}, {"pitch": 42, "step": 93, "lengthSteps": 1, "velocity": 31, "microOffsetTicks": 0, "startTick": 22320, "lengthTicks": 240, "barIndex": 5, "stepInBar": 13, "isGhost": false, "semanticRole": ""}, {"pitch": 42, "step": 94, "lengthSteps": 2, "velocity": 100, "microOffsetTicks": 0, "startTick": 22560, "lengthTicks": 480, "barIndex": 5, "stepInBar": 14, "isGhost": false, "semanticRole": ""}, {"pitch": 42, "step": 96, "lengthSteps": 3, "velocity": 95, "microOffsetTicks": 0, "startTick": 23040, "lengthTicks": 720, "barIndex": 6, "stepInBar": 0, "isGhost": false, "semanticRole": ""}, {"pitch": 42, "step": 99, "lengthSteps": 3, "velocity": 100, "microOffsetTicks": 0, "startTick": 23760, "lengthTicks": 720, "barIndex": 6, "stepInBar": 3, "isGhost": false, "semanticRole": ""}, {"pitch": 42, "step": 102, "lengthSteps": 2, "velocity": 100, "microOffsetTicks": 0, "startTick": 24480, "lengthTicks": 480, "barIndex": 6, "stepInBar": 6, "isGhost": false, "semanticRole": ""}, {"pitch": 42, "step": 104, "lengthSteps": 6, "velocity": 100, "microOffsetTicks": 0, "startTick": 24960, "lengthTicks": 1440, "barIndex": 6, "stepInBar": 8, "isGhost": false, "semanticRole": ""}, {"pitch": 42, "step": 110, "lengthSteps": 1, "velocity": 100, "microOffsetTicks": 0, "startTick": 26400, "lengthTicks": 240, "barIndex": 6, "stepInBar": 14, "isGhost": false, "semanticRole": ""}, {"pitch": 42, "step": 111, "lengthSteps": 1, "velocity": 73, "microOffsetTicks": -80, "startTick": 26560, "lengthTicks": 240, "barIndex": 6, "stepInBar": 15, "isGhost": false, "semanticRole": ""}, {"pitch": 42, "step": 111, "lengthSteps": 1, "velocity": 80, "microOffsetTicks": 80, "startTick": 26720, "lengthTicks": 240, "barIndex": 6, "stepInBar": 15, "isGhost": false, "semanticRole": ""}, {"pitch": 42, "step": 112, "lengthSteps": 3, "velocity": 100, "microOffsetTicks": 0, "startTick": 26880, "lengthTicks": 720, "barIndex": 7, "stepInBar": 0, "isGhost": false, "semanticRole": ""}, {"pitch": 42, "step": 115, "lengthSteps": 3, "velocity": 100, "microOffsetTicks": 0, "startTick": 27600, "lengthTicks": 720, "barIndex": 7, "stepInBar": 3, "isGhost": false, "semanticRole": ""}, {"pitch": 42, "step": 118, "lengthSteps": 2, "velocity": 100, "microOffsetTicks": 0, "startTick": 28320, "lengthTicks": 480, "barIndex": 7, "stepInBar": 6, "isGhost": false, "semanticRole": ""}, {"pitch": 42, "step": 120, "lengthSteps": 1, "velocity": 100, "microOffsetTicks": 0, "startTick": 28800, "lengthTicks": 240, "barIndex": 7, "stepInBar": 8, "isGhost": false, "semanticRole": ""}, {"pitch": 42, "step": 121, "lengthSteps": 1, "velocity": 84, "microOffsetTicks": 0, "startTick": 29040, "lengthTicks": 240, "barIndex": 7, "stepInBar": 9, "isGhost": false, "semanticRole": ""}, {"pitch": 42, "step": 122, "lengthSteps": 1, "velocity": 32, "microOffsetTicks": 0, "startTick": 29280, "lengthTicks": 240, "barIndex": 7, "stepInBar": 10, "isGhost": false, "semanticRole": ""}, {"pitch": 42, "step": 123, "lengthSteps": 3, "velocity": 100, "microOffsetTicks": 0, "startTick": 29520, "lengthTicks": 720, "barIndex": 7, "stepInBar": 11, "isGhost": false, "semanticRole": ""}, {"pitch": 42, "step": 126, "lengthSteps": 1, "velocity": 100, "microOffsetTicks": 0, "startTick": 30240, "lengthTicks": 240, "barIndex": 7, "stepInBar": 14, "isGhost": false, "semanticRole": ""}]}}, {"trackType": "Snare", "displayName": "Snare", "laneId": "registry:Snare", "runtimeTrackType": "Snare", "bindingKind": "backed", "laneName": "Snare", "laneGroup": "Snare", "laneDependency": "", "generationPriority": 92, "isCoreLane": true, "isRuntimeRegistryLane": true, "laneParams": {"enabled": true, "muted": false, "solo": false, "locked": false, "laneRole": "drill_backbeat", "laneVolume": 0.850000023841858, "selectedSampleIndex": 3, "selectedSampleName": "Counter UK Snare 4", "sound": {"pan": 0.0, "width": 1.0, "eqTone": 0.0, "compression": 0.0, "reverb": 0.0, "gate": 0.0, "transient": 0.0, "drive": 0.0}, "noteCount": 20, "taggedNoteCount": 0, "notes": [{"pitch": 38, "step": 8, "lengthSteps": 32, "velocity": 120, "microOffsetTicks": 0, "startTick": 1920, "lengthTicks": 7680, "barIndex": 0, "stepInBar": 8, "isGhost": false, "semanticRole": ""}, {"pitch": 38, "step": 40, "lengthSteps": 20, "velocity": 120, "microOffsetTicks": 0, "startTick": 9600, "lengthTicks": 4800, "barIndex": 2, "stepInBar": 8, "isGhost": false, "semanticRole": ""}, {"pitch": 38, "step": 60, "lengthSteps": 12, "velocity": 120, "microOffsetTicks": 0, "startTick": 14400, "lengthTicks": 2880, "barIndex": 3, "stepInBar": 12, "isGhost": false, "semanticRole": ""}, {"pitch": 38, "step": 70, "lengthSteps": 1, "velocity": 15, "microOffsetTicks": 0, "startTick": 16800, "lengthTicks": 240, "barIndex": 4, "stepInBar": 6, "isGhost": false, "semanticRole": ""}, {"pitch": 38, "step": 70, "lengthSteps": 1, "velocity": 16, "microOffsetTicks": 40, "startTick": 16840, "lengthTicks": 240, "barIndex": 4, "stepInBar": 6, "isGhost": false, "semanticRole": ""}, {"pitch": 38, "step": 70, "lengthSteps": 1, "velocity": 17, "microOffsetTicks": 80, "startTick": 16880, "lengthTicks": 240, "barIndex": 4, "stepInBar": 6, "isGhost": false, "semanticRole": ""}, {"pitch": 38, "step": 70, "lengthSteps": 1, "velocity": 18, "microOffsetTicks": 120, "startTick": 16920, "lengthTicks": 240, "barIndex": 4, "stepInBar": 6, "isGhost": false, "semanticRole": ""}, {"pitch": 38, "step": 71, "lengthSteps": 1, "velocity": 19, "microOffsetTicks": -80, "startTick": 16960, "lengthTicks": 240, "barIndex": 4, "stepInBar": 7, "isGhost": false, "semanticRole": ""}, {"pitch": 38, "step": 71, "lengthSteps": 1, "velocity": 20, "microOffsetTicks": -40, "startTick": 17000, "lengthTicks": 240, "barIndex": 4, "stepInBar": 7, "isGhost": false, "semanticRole": ""}, {"pitch": 38, "step": 71, "lengthSteps": 1, "velocity": 22, "microOffsetTicks": 0, "startTick": 17040, "lengthTicks": 240, "barIndex": 4, "stepInBar": 7, "isGhost": false, "semanticRole": ""}, {"pitch": 38, "step": 71, "lengthSteps": 1, "velocity": 23, "microOffsetTicks": 40, "startTick": 17080, "lengthTicks": 240, "barIndex": 4, "stepInBar": 7, "isGhost": false, "semanticRole": ""}, {"pitch": 38, "step": 71, "lengthSteps": 1, "velocity": 24, "microOffsetTicks": 80, "startTick": 17120, "lengthTicks": 240, "barIndex": 4, "stepInBar": 7, "isGhost": false, "semanticRole": ""}, {"pitch": 38, "step": 71, "lengthSteps": 1, "velocity": 25, "microOffsetTicks": 120, "startTick": 17160, "lengthTicks": 240, "barIndex": 4, "stepInBar": 7, "isGhost": false, "semanticRole": ""}, {"pitch": 38, "step": 72, "lengthSteps": 1, "velocity": 26, "microOffsetTicks": -80, "startTick": 17200, "lengthTicks": 240, "barIndex": 4, "stepInBar": 8, "isGhost": false, "semanticRole": ""}, {"pitch": 38, "step": 72, "lengthSteps": 1, "velocity": 27, "microOffsetTicks": -40, "startTick": 17240, "lengthTicks": 240, "barIndex": 4, "stepInBar": 8, "isGhost": false, "semanticRole": ""}, {"pitch": 38, "step": 72, "lengthSteps": 20, "velocity": 120, "microOffsetTicks": 0, "startTick": 17280, "lengthTicks": 4800, "barIndex": 4, "stepInBar": 8, "isGhost": false, "semanticRole": ""}, {"pitch": 38, "step": 92, "lengthSteps": 12, "velocity": 120, "microOffsetTicks": 0, "startTick": 22080, "lengthTicks": 2880, "barIndex": 5, "stepInBar": 12, "isGhost": false, "semanticRole": ""}, {"pitch": 38, "step": 104, "lengthSteps": 6, "velocity": 100, "microOffsetTicks": 0, "startTick": 24960, "lengthTicks": 1440, "barIndex": 6, "stepInBar": 8, "isGhost": false, "semanticRole": ""}, {"pitch": 38, "step": 110, "lengthSteps": 14, "velocity": 120, "microOffsetTicks": 0, "startTick": 26400, "lengthTicks": 3360, "barIndex": 6, "stepInBar": 14, "isGhost": false, "semanticRole": ""}, {"pitch": 38, "step": 124, "lengthSteps": 1, "velocity": 120, "microOffsetTicks": 0, "startTick": 29760, "lengthTicks": 240, "barIndex": 7, "stepInBar": 12, "isGhost": false, "semanticRole": ""}]}}, {"trackType": "Kick", "displayName": "Kick", "laneId": "registry:Kick", "runtimeTrackType": "Kick", "bindingKind": "backed", "laneName": "Kick", "laneGroup": "Kick", "laneDependency": "", "generationPriority": 96, "isCoreLane": true, "isRuntimeRegistryLane": true, "laneParams": {"enabled": true, "muted": false, "solo": false, "locked": false, "laneRole": "drill_kick", "laneVolume": 0.850000023841858, "selectedSampleIndex": 0, "selectedSampleName": "Kick 1", "sound": {"pan": 0.0, "width": 1.0, "eqTone": 0.0, "compression": 0.0, "reverb": 0.0, "gate": 0.0, "transient": 0.0, "drive": 0.0}, "noteCount": 26, "taggedNoteCount": 0, "notes": [{"pitch": 36, "step": 0, "lengthSteps": 8, "velocity": 100, "microOffsetTicks": 0, "startTick": 0, "lengthTicks": 1920, "barIndex": 0, "stepInBar": 0, "isGhost": false, "semanticRole": ""}, {"pitch": 36, "step": 24, "lengthSteps": 8, "velocity": 100, "microOffsetTicks": 0, "startTick": 5760, "lengthTicks": 1920, "barIndex": 1, "stepInBar": 8, "isGhost": false, "semanticRole": ""}, {"pitch": 36, "step": 32, "lengthSteps": 8, "velocity": 100, "microOffsetTicks": 0, "startTick": 7680, "lengthTicks": 1920, "barIndex": 2, "stepInBar": 0, "isGhost": false, "semanticRole": ""}, {"pitch": 36, "step": 50, "lengthSteps": 4, "velocity": 100, "microOffsetTicks": 0, "startTick": 12000, "lengthTicks": 960, "barIndex": 3, "stepInBar": 2, "isGhost": false, "semanticRole": ""}, {"pitch": 36, "step": 54, "lengthSteps": 2, "velocity": 100, "microOffsetTicks": 0, "startTick": 12960, "lengthTicks": 480, "barIndex": 3, "stepInBar": 6, "isGhost": false, "semanticRole": ""}, {"pitch": 36, "step": 56, "lengthSteps": 1, "velocity": 100, "microOffsetTicks": 0, "startTick": 13440, "lengthTicks": 240, "barIndex": 3, "stepInBar": 8, "isGhost": false, "semanticRole": ""}, {"pitch": 36, "step": 56, "lengthSteps": 2, "velocity": 100, "microOffsetTicks": 0, "startTick": 13440, "lengthTicks": 480, "barIndex": 3, "stepInBar": 8, "isGhost": false, "semanticRole": ""}, {"pitch": 36, "step": 58, "lengthSteps": 1, "velocity": 100, "microOffsetTicks": 0, "startTick": 13920, "lengthTicks": 240, "barIndex": 3, "stepInBar": 10, "isGhost": false, "semanticRole": ""}, {"pitch": 36, "step": 58, "lengthSteps": 2, "velocity": 100, "microOffsetTicks": 0, "startTick": 13920, "lengthTicks": 480, "barIndex": 3, "stepInBar": 10, "isGhost": false, "semanticRole": ""}, {"pitch": 36, "step": 60, "lengthSteps": 2, "velocity": 100, "microOffsetTicks": 0, "startTick": 14400, "lengthTicks": 480, "barIndex": 3, "stepInBar": 12, "isGhost": false, "semanticRole": ""}, {"pitch": 36, "step": 62, "lengthSteps": 1, "velocity": 100, "microOffsetTicks": 0, "startTick": 14880, "lengthTicks": 240, "barIndex": 3, "stepInBar": 14, "isGhost": false, "semanticRole": ""}, {"pitch": 36, "step": 62, "lengthSteps": 2, "velocity": 100, "microOffsetTicks": 0, "startTick": 14880, "lengthTicks": 480, "barIndex": 3, "stepInBar": 14, "isGhost": false, "semanticRole": ""}, {"pitch": 36, "step": 64, "lengthSteps": 8, "velocity": 100, "microOffsetTicks": 0, "startTick": 15360, "lengthTicks": 1920, "barIndex": 4, "stepInBar": 0, "isGhost": false, "semanticRole": ""}, {"pitch": 36, "step": 88, "lengthSteps": 8, "velocity": 100, "microOffsetTicks": 0, "startTick": 21120, "lengthTicks": 1920, "barIndex": 5, "stepInBar": 8, "isGhost": false, "semanticRole": ""}, {"pitch": 36, "step": 96, "lengthSteps": 8, "velocity": 100, "microOffsetTicks": 0, "startTick": 23040, "lengthTicks": 1920, "barIndex": 6, "stepInBar": 0, "isGhost": false, "semanticRole": ""}, {"pitch": 36, "step": 110, "lengthSteps": 4, "velocity": 100, "microOffsetTicks": 0, "startTick": 26400, "lengthTicks": 960, "barIndex": 6, "stepInBar": 14, "isGhost": false, "semanticRole": ""}, {"pitch": 36, "step": 114, "lengthSteps": 4, "velocity": 100, "microOffsetTicks": 0, "startTick": 27360, "lengthTicks": 960, "barIndex": 7, "stepInBar": 2, "isGhost": false, "semanticRole": ""}, {"pitch": 36, "step": 118, "lengthSteps": 2, "velocity": 100, "microOffsetTicks": 0, "startTick": 28320, "lengthTicks": 480, "barIndex": 7, "stepInBar": 6, "isGhost": false, "semanticRole": ""}, {"pitch": 36, "step": 120, "lengthSteps": 1, "velocity": 100, "microOffsetTicks": 0, "startTick": 28800, "lengthTicks": 240, "barIndex": 7, "stepInBar": 8, "isGhost": false, "semanticRole": ""}, {"pitch": 36, "step": 120, "lengthSteps": 2, "velocity": 100, "microOffsetTicks": 0, "startTick": 28800, "lengthTicks": 480, "barIndex": 7, "stepInBar": 8, "isGhost": false, "semanticRole": ""}, {"pitch": 36, "step": 122, "lengthSteps": 1, "velocity": 100, "microOffsetTicks": 0, "startTick": 29280, "lengthTicks": 240, "barIndex": 7, "stepInBar": 10, "isGhost": false, "semanticRole": ""}, {"pitch": 36, "step": 122, "lengthSteps": 2, "velocity": 100, "microOffsetTicks": 0, "startTick": 29280, "lengthTicks": 480, "barIndex": 7, "stepInBar": 10, "isGhost": false, "semanticRole": ""}, {"pitch": 36, "step": 124, "lengthSteps": 1, "velocity": 100, "microOffsetTicks": 0, "startTick": 29760, "lengthTicks": 240, "barIndex": 7, "stepInBar": 12, "isGhost": false, "semanticRole": ""}, {"pitch": 36, "step": 124, "lengthSteps": 2, "velocity": 100, "microOffsetTicks": 0, "startTick": 29760, "lengthTicks": 480, "barIndex": 7, "stepInBar": 12, "isGhost": false, "semanticRole": ""}, {"pitch": 36, "step": 126, "lengthSteps": 1, "velocity": 100, "microOffsetTicks": 0, "startTick": 30240, "lengthTicks": 240, "barIndex": 7, "stepInBar": 14, "isGhost": false, "semanticRole": ""}, {"pitch": 36, "step": 126, "lengthSteps": 2, "velocity": 100, "microOffsetTicks": 0, "startTick": 30240, "lengthTicks": 480, "barIndex": 7, "stepInBar": 14, "isGhost": false, "semanticRole": ""}]}}], "totalRuntimeLaneCount": 3, "backedLaneCount": 3, "unbackedLaneCount": 0, "totalNotes": 103, "taggedNotes": 0}}